<?xml version="1.0" encoding="UTF-8"?>
<svg xmlns="http://www.w3.org/2000/svg" xmlns:xlink="http://www.w3.org/1999/xlink" width="576" height="360" viewBox="0 0 576 360">
<defs>
<g>
<g id="glyph-0-0">
<path d="M 3.296875 -8.671875 C 2.515625 -8.671875 1.78125 -8.3125 1.34375 -7.734375 C 0.796875 -6.953125 0.515625 -5.8125 0.515625 -4.203125 C 0.515625 -1.265625 1.46875 0.28125 3.296875 0.28125 C 5.09375 0.28125 6.078125 -1.265625 6.078125 -4.125 C 6.078125 -5.8125 5.8125 -6.9375 5.25 -7.734375 C 4.8125 -8.328125 4.109375 -8.671875 3.296875 -8.671875 Z M 3.296875 -7.734375 C 4.4375 -7.734375 5 -6.578125 5 -4.21875 C 5 -1.75 4.453125 -0.59375 3.28125 -0.59375 C 2.15625 -0.59375 1.59375 -1.796875 1.59375 -4.1875 C 1.59375 -6.578125 2.15625 -7.734375 3.296875 -7.734375 Z M 3.296875 -7.734375 "/>
</g>
<g id="glyph-0-1">
<path d="M 6.078125 -1.046875 L 1.59375 -1.046875 C 1.703125 -1.765625 2.09375 -2.21875 3.125 -2.859375 L 4.328125 -3.53125 C 5.515625 -4.1875 6.125 -5.078125 6.125 -6.140625 C 6.125 -6.859375 5.84375 -7.53125 5.34375 -8 C 4.84375 -8.453125 4.21875 -8.671875 3.40625 -8.671875 C 2.328125 -8.671875 1.53125 -8.296875 1.0625 -7.546875 C 0.75 -7.09375 0.625 -6.546875 0.59375 -5.671875 L 1.65625 -5.671875 C 1.6875 -6.265625 1.765625 -6.609375 1.90625 -6.90625 C 2.1875 -7.421875 2.734375 -7.75 3.375 -7.75 C 4.328125 -7.75 5.046875 -7.0625 5.046875 -6.125 C 5.046875 -5.421875 4.65625 -4.828125 3.90625 -4.390625 L 2.796875 -3.75 C 1.015625 -2.71875 0.5 -1.90625 0.40625 -0.015625 L 6.078125 -0.015625 Z M 6.078125 -1.046875 "/>
</g>
<g id="glyph-0-2">
<path d="M 3.921875 -2.09375 L 3.921875 0 L 4.984375 0 L 4.984375 -2.09375 L 6.234375 -2.09375 L 6.234375 -3.046875 L 4.984375 -3.046875 L 4.984375 -8.671875 L 4.203125 -8.671875 L 0.34375 -3.21875 L 0.34375 -2.09375 Z M 3.921875 -3.046875 L 1.265625 -3.046875 L 3.921875 -6.875 Z M 3.921875 -3.046875 "/>
</g>
<g id="glyph-0-3">
<path d="M 5.96875 -6.421875 C 5.765625 -7.84375 4.859375 -8.671875 3.5625 -8.671875 C 2.625 -8.671875 1.78125 -8.21875 1.28125 -7.4375 C 0.75 -6.59375 0.515625 -5.53125 0.515625 -3.953125 C 0.515625 -2.5 0.71875 -1.578125 1.234375 -0.796875 C 1.6875 -0.09375 2.4375 0.28125 3.375 0.28125 C 4.984375 0.28125 6.15625 -0.9375 6.15625 -2.625 C 6.15625 -4.21875 5.078125 -5.359375 3.546875 -5.359375 C 2.71875 -5.359375 2.046875 -5.046875 1.59375 -4.40625 C 1.609375 -6.546875 2.28125 -7.734375 3.484375 -7.734375 C 4.234375 -7.734375 4.75 -7.265625 4.921875 -6.421875 Z M 3.421875 -4.421875 C 4.4375 -4.421875 5.078125 -3.703125 5.078125 -2.546875 C 5.078125 -1.453125 4.359375 -0.65625 3.390625 -0.65625 C 2.40625 -0.65625 1.65625 -1.484375 1.65625 -2.59375 C 1.65625 -3.671875 2.375 -4.421875 3.421875 -4.421875 Z M 3.421875 -4.421875 "/>
</g>
<g id="glyph-0-4">
<path d="M 4.6875 -4.578125 C 5.578125 -5.109375 5.859375 -5.546875 5.859375 -6.359375 C 5.859375 -7.734375 4.8125 -8.671875 3.296875 -8.671875 C 1.796875 -8.671875 0.75 -7.734375 0.75 -6.375 C 0.75 -5.546875 1.015625 -5.125 1.890625 -4.578125 C 0.921875 -4.078125 0.4375 -3.375 0.4375 -2.40625 C 0.4375 -0.828125 1.609375 0.28125 3.296875 0.28125 C 4.984375 0.28125 6.15625 -0.828125 6.15625 -2.40625 C 6.15625 -3.375 5.671875 -4.078125 4.6875 -4.578125 Z M 3.296875 -7.734375 C 4.203125 -7.734375 4.78125 -7.203125 4.78125 -6.34375 C 4.78125 -5.515625 4.1875 -4.984375 3.296875 -4.984375 C 2.40625 -4.984375 1.828125 -5.515625 1.828125 -6.359375 C 1.828125 -7.203125 2.40625 -7.734375 3.296875 -7.734375 Z M 3.296875 -4.09375 C 4.359375 -4.09375 5.078125 -3.390625 5.078125 -2.390625 C 5.078125 -1.34375 4.375 -0.65625 3.28125 -0.65625 C 2.25 -0.65625 1.53125 -1.375 1.53125 -2.375 C 1.53125 -3.40625 2.234375 -4.09375 3.296875 -4.09375 Z M 3.296875 -4.09375 "/>
</g>
<g id="glyph-0-5">
<path d="M 3.109375 -6.1875 L 3.109375 0 L 4.15625 0 L 4.15625 -8.671875 L 3.46875 -8.671875 C 3.09375 -7.34375 2.859375 -7.15625 1.21875 -6.953125 L 1.21875 -6.1875 Z M 3.109375 -6.1875 "/>
</g>
<g id="glyph-1-0">
<path d="M -8.671875 -3.296875 C -8.671875 -2.515625 -8.3125 -1.78125 -7.734375 -1.34375 C -6.953125 -0.796875 -5.8125 -0.515625 -4.203125 -0.515625 C -1.265625 -0.515625 0.28125 -1.46875 0.28125 -3.296875 C 0.28125 -5.09375 -1.265625 -6.078125 -4.125 -6.078125 C -5.8125 -6.078125 -6.9375 -5.8125 -7.734375 -5.25 C -8.328125 -4.8125 -8.671875 -4.109375 -8.671875 -3.296875 Z M -7.734375 -3.296875 C -7.734375 -4.4375 -6.578125 -5 -4.21875 -5 C -1.75 -5 -0.59375 -4.453125 -0.59375 -3.28125 C -0.59375 -2.15625 -1.796875 -1.59375 -4.1875 -1.59375 C -6.578125 -1.59375 -7.734375 -2.15625 -7.734375 -3.296875 Z M -7.734375 -3.296875 "/>
</g>
<g id="glyph-1-1">
<path d="M -6.1875 -3.109375 L 0 -3.109375 L 0 -4.15625 L -8.671875 -4.15625 L -8.671875 -3.46875 C -7.34375 -3.09375 -7.15625 -2.859375 -6.953125 -1.21875 L -6.1875 -1.21875 Z M -6.1875 -3.109375 "/>
</g>
<g id="glyph-1-2">
<path d="M -1.046875 -6.078125 L -1.046875 -1.59375 C -1.765625 -1.703125 -2.21875 -2.09375 -2.859375 -3.125 L -3.53125 -4.328125 C -4.1875 -5.515625 -5.078125 -6.125 -6.140625 -6.125 C -6.859375 -6.125 -7.53125 -5.84375 -8 -5.34375 C -8.453125 -4.84375 -8.671875 -4.21875 -8.671875 -3.40625 C -8.671875 -2.328125 -8.296875 -1.53125 -7.546875 -1.0625 C -7.09375 -0.75 -6.546875 -0.625 -5.671875 -0.59375 L -5.671875 -1.65625 C -6.265625 -1.6875 -6.609375 -1.765625 -6.90625 -1.90625 C -7.421875 -2.1875 -7.75 -2.734375 -7.75 -3.375 C -7.75 -4.328125 -7.0625 -5.046875 -6.125 -5.046875 C -5.421875 -5.046875 -4.828125 -4.65625 -4.390625 -3.90625 L -3.75 -2.796875 C -2.71875 -1.015625 -1.90625 -0.5 -0.015625 -0.40625 L -0.015625 -6.078125 Z M -1.046875 -6.078125 "/>
</g>
<g id="glyph-1-3">
<path d="M -4 -2.65625 L -4 -3.234375 C -4 -4.375 -3.453125 -4.984375 -2.40625 -4.984375 C -1.3125 -4.984375 -0.65625 -4.328125 -0.65625 -3.234375 C -0.65625 -2.078125 -1.25 -1.515625 -2.515625 -1.4375 L -2.515625 -0.390625 C -1.828125 -0.4375 -1.375 -0.546875 -0.984375 -0.75 C -0.140625 -1.203125 0.28125 -2.03125 0.28125 -3.1875 C 0.28125 -4.9375 -0.78125 -6.078125 -2.421875 -6.078125 C -3.53125 -6.078125 -4.125 -5.65625 -4.484375 -4.625 C -4.8125 -5.421875 -5.40625 -5.8125 -6.28125 -5.8125 C -7.78125 -5.8125 -8.671875 -4.84375 -8.671875 -3.234375 C -8.671875 -1.515625 -7.71875 -0.59375 -5.875 -0.5625 L -5.875 -1.625 C -6.40625 -1.625 -6.703125 -1.6875 -6.96875 -1.8125 C -7.46875 -2.046875 -7.75 -2.578125 -7.75 -3.234375 C -7.75 -4.171875 -7.1875 -4.734375 -6.25 -4.734375 C -5.640625 -4.734375 -5.265625 -4.53125 -5.0625 -4.0625 C -4.9375 -3.765625 -4.890625 -3.390625 -4.890625 -2.65625 Z M -4 -2.65625 "/>
</g>
<g id="glyph-1-4">
<path d="M -2.09375 -3.921875 L 0 -3.921875 L 0 -4.984375 L -2.09375 -4.984375 L -2.09375 -6.234375 L -3.046875 -6.234375 L -3.046875 -4.984375 L -8.671875 -4.984375 L -8.671875 -4.203125 L -3.21875 -0.34375 L -2.09375 -0.34375 Z M -3.046875 -3.921875 L -3.046875 -1.265625 L -6.875 -3.921875 Z M -3.046875 -3.921875 "/>
</g>
<g id="glyph-1-5">
<path d="M -8.515625 -5.71875 L -8.515625 -1.3125 L -3.875 -0.6875 L -3.875 -1.65625 C -4.46875 -2.140625 -4.671875 -2.5625 -4.671875 -3.234375 C -4.671875 -4.375 -3.890625 -5.078125 -2.625 -5.078125 C -1.40625 -5.078125 -0.65625 -4.375 -0.65625 -3.21875 C -0.65625 -2.296875 -1.125 -1.734375 -2.09375 -1.46875 L -2.09375 -0.421875 C -1.390625 -0.5625 -1.0625 -0.6875 -0.75 -0.9375 C -0.09375 -1.421875 0.28125 -2.28125 0.28125 -3.234375 C 0.28125 -4.953125 -0.96875 -6.15625 -2.765625 -6.15625 C -4.453125 -6.15625 -5.609375 -5.046875 -5.609375 -3.40625 C -5.609375 -2.8125 -5.453125 -2.328125 -5.09375 -1.84375 L -7.46875 -2.171875 L -7.46875 -5.71875 Z M -8.515625 -5.71875 "/>
</g>
<g id="glyph-2-0">
<path d="M 5.546875 -8.703125 L 8.609375 -8.703125 L 8.609375 -10.5 L 0.203125 -10.5 L 0.203125 -8.703125 L 3.390625 -8.703125 L 3.390625 0 L 5.546875 0 Z M 5.546875 -8.703125 "/>
</g>
<g id="glyph-2-1">
<path d="M 0.90625 -7.78125 L 0.90625 0 L 2.921875 0 L 2.921875 -4.140625 C 2.921875 -5.3125 3.515625 -5.90625 4.703125 -5.90625 C 4.90625 -5.90625 5.0625 -5.890625 5.328125 -5.84375 L 5.328125 -7.890625 C 5.21875 -7.90625 5.171875 -7.90625 5.078125 -7.90625 C 4.15625 -7.90625 3.375 -7.296875 2.921875 -6.25 L 2.921875 -7.78125 Z M 0.90625 -7.78125 "/>
</g>
<g id="glyph-2-2">
<path d="M 7.546875 -3.25 C 7.5625 -3.421875 7.5625 -3.5 7.5625 -3.59375 C 7.5625 -4.375 7.453125 -5.09375 7.265625 -5.640625 C 6.734375 -7.0625 5.484375 -7.90625 3.921875 -7.90625 C 1.6875 -7.90625 0.3125 -6.296875 0.3125 -3.6875 C 0.3125 -1.203125 1.671875 0.328125 3.875 0.328125 C 5.625 0.328125 7.03125 -0.640625 7.484375 -2.1875 L 5.484375 -2.1875 C 5.25 -1.5625 4.6875 -1.203125 3.953125 -1.203125 C 3.375 -1.203125 2.90625 -1.453125 2.625 -1.890625 C 2.4375 -2.171875 2.359375 -2.515625 2.328125 -3.25 Z M 2.359375 -4.59375 C 2.5 -5.796875 3 -6.375 3.890625 -6.375 C 4.8125 -6.375 5.359375 -5.75 5.453125 -4.59375 Z M 2.359375 -4.59375 "/>
</g>
<g id="glyph-2-3">
<path d="M 0.90625 -7.78125 L 0.90625 0 L 2.921875 0 L 2.921875 -4.671875 C 2.921875 -5.59375 3.5625 -6.1875 4.546875 -6.1875 C 5.421875 -6.1875 5.84375 -5.71875 5.84375 -4.796875 L 5.84375 0 L 7.859375 0 L 7.859375 -5.21875 C 7.859375 -6.9375 6.921875 -7.90625 5.265625 -7.90625 C 4.203125 -7.90625 3.5 -7.53125 2.921875 -6.65625 L 2.921875 -7.78125 Z M 0.90625 -7.78125 "/>
</g>
<g id="glyph-2-4">
<path d="M 5.828125 0 L 7.84375 0 L 7.84375 -10.5 L 5.828125 -10.5 L 5.828125 -6.765625 C 5.328125 -7.546875 4.671875 -7.90625 3.6875 -7.90625 C 1.828125 -7.90625 0.421875 -6.125 0.421875 -3.78125 C 0.421875 -2.71875 0.734375 -1.65625 1.25 -0.90625 C 1.78125 -0.140625 2.734375 0.328125 3.6875 0.328125 C 4.671875 0.328125 5.328125 -0.015625 5.828125 -0.796875 Z M 4.140625 -6.21875 C 5.15625 -6.21875 5.828125 -5.25 5.828125 -3.75 C 5.828125 -2.328125 5.140625 -1.359375 4.140625 -1.359375 C 3.125 -1.359375 2.4375 -2.34375 2.4375 -3.78125 C 2.4375 -5.234375 3.125 -6.21875 4.140625 -6.21875 Z M 4.140625 -6.21875 "/>
</g>
<g id="glyph-2-5">
<path d="M 4.296875 -4.921875 L 0.375 -4.921875 L 0.375 -2.984375 L 4.296875 -2.984375 Z M 4.296875 -4.921875 "/>
</g>
<g id="glyph-2-6">
<path d="M 8.75 -7.296875 C 8.734375 -9.484375 7.28125 -10.671875 4.625 -10.671875 C 2.109375 -10.671875 0.640625 -9.5 0.640625 -7.453125 C 0.640625 -5.8125 1.46875 -5.03125 3.59375 -4.625 L 5.078125 -4.34375 C 6.515625 -4.0625 7.046875 -3.65625 7.046875 -2.8125 C 7.046875 -1.9375 6.234375 -1.390625 4.921875 -1.390625 C 3.453125 -1.390625 2.640625 -2.015625 2.5625 -3.140625 L 0.46875 -3.140625 C 0.59375 -0.890625 2.125 0.328125 4.8125 0.328125 C 7.515625 0.328125 9.125 -0.921875 9.125 -3.0625 C 9.125 -4.71875 8.28125 -5.59375 6.34375 -5.96875 L 4.703125 -6.28125 C 3.15625 -6.578125 2.703125 -6.890625 2.703125 -7.65625 C 2.703125 -8.4375 3.40625 -8.953125 4.53125 -8.953125 C 5.890625 -8.953125 6.65625 -8.375 6.734375 -7.296875 Z M 8.75 -7.296875 "/>
</g>
<g id="glyph-2-7">
<path d="M 4.34375 -7.625 L 3.21875 -7.625 L 3.21875 -9.703125 L 1.203125 -9.703125 L 1.203125 -7.625 L 0.203125 -7.625 L 0.203125 -6.28125 L 1.203125 -6.28125 L 1.203125 -1.5 C 1.203125 -0.28125 1.84375 0.328125 3.171875 0.328125 C 3.625 0.328125 3.96875 0.28125 4.34375 0.171875 L 4.34375 -1.234375 C 4.140625 -1.203125 4.03125 -1.203125 3.875 -1.203125 C 3.34375 -1.203125 3.21875 -1.359375 3.21875 -2.046875 L 3.21875 -6.28125 L 4.34375 -6.28125 Z M 4.34375 -7.625 "/>
</g>
<g id="glyph-2-8">
<path d="M 7.546875 -0.25 C 7.203125 -0.578125 7.09375 -0.8125 7.09375 -1.203125 L 7.09375 -5.515625 C 7.09375 -7.109375 6 -7.90625 3.90625 -7.90625 C 1.796875 -7.90625 0.703125 -7.015625 0.578125 -5.21875 L 2.515625 -5.21875 C 2.625 -6.015625 2.953125 -6.28125 3.953125 -6.28125 C 4.71875 -6.28125 5.109375 -6.015625 5.109375 -5.5 C 5.109375 -5.25 4.984375 -5.03125 4.765625 -4.890625 C 4.5 -4.75 4.5 -4.75 3.5 -4.59375 L 2.6875 -4.453125 C 1.15625 -4.1875 0.40625 -3.40625 0.40625 -2 C 0.40625 -0.609375 1.34375 0.328125 2.765625 0.328125 C 3.625 0.328125 4.40625 -0.03125 5.125 -0.78125 C 5.125 -0.375 5.171875 -0.234375 5.359375 0 L 7.546875 0 Z M 5.109375 -3.125 C 5.109375 -1.953125 4.53125 -1.296875 3.515625 -1.296875 C 2.84375 -1.296875 2.421875 -1.65625 2.421875 -2.234375 C 2.421875 -2.84375 2.734375 -3.125 3.578125 -3.296875 L 4.265625 -3.421875 C 4.796875 -3.53125 4.890625 -3.5625 5.109375 -3.671875 Z M 5.109375 -3.125 "/>
</g>
<g id="glyph-2-9">
<path d="M 2.984375 -7.78125 L 0.96875 -7.78125 L 0.96875 0 L 2.984375 0 Z M 2.984375 -10.5 L 0.96875 -10.5 L 0.96875 -8.703125 L 2.984375 -8.703125 Z M 2.984375 -10.5 "/>
</g>
<g id="glyph-2-10">
<path d="M 4.34375 -7.90625 C 1.953125 -7.90625 0.5 -6.34375 0.5 -3.78125 C 0.5 -1.21875 1.953125 0.328125 4.34375 0.328125 C 6.734375 0.328125 8.203125 -1.21875 8.203125 -3.734375 C 8.203125 -6.375 6.765625 -7.90625 4.34375 -7.90625 Z M 4.34375 -6.28125 C 5.453125 -6.28125 6.1875 -5.28125 6.1875 -3.765625 C 6.1875 -2.3125 5.4375 -1.296875 4.34375 -1.296875 C 3.25 -1.296875 2.515625 -2.296875 2.515625 -3.78125 C 2.515625 -5.28125 3.25 -6.28125 4.34375 -6.28125 Z M 4.34375 -6.28125 "/>
</g>
<g id="glyph-2-11">
<path d="M 7.546875 -0.25 C 7.203125 -0.578125 7.09375 -0.8125 7.09375 -1.203125 L 7.09375 -5.515625 C 7.09375 -7.109375 6 -7.90625 3.90625 -7.90625 C 1.796875 -7.90625 0.703125 -7.015625 0.578125 -5.21875 L 2.515625 -5.21875 C 2.625 -6.015625 2.953125 -6.28125 3.953125 -6.28125 C 4.71875 -6.28125 5.109375 -6.015625 5.109375 -5.5 C 5.109375 -5.25 4.984375 -5.03125 4.765625 -4.890625 C 4.5 -4.75 4.5 -4.75 3.5 -4.59375 L 2.6875 -4.453125 C 1.15625 -4.1875 0.40625 -3.40625 0.40625 -2 C 0.40625 -0.609375 1.34375 0.328125 2.765625 0.328125 C 3.625 0.328125 4.40625 -0.03125 5.125 -0.78125 C 5.125 -0.375 5.171875 -0.234375 5.359375 0 L 7.546875 0 Z M 5.109375 -3.125 C 5.109375 -1.953125 4.53125 -1.296875 3.515625 -1.296875 C 2.84375 -1.296875 2.421875 -1.65625 2.421875 -2.234375 C 2.421875 -2.84375 2.734375 -3.125 3.578125 -3.296875 L 4.265625 -3.421875 C 4.796875 -3.53125 4.890625 -3.5625 5.109375 -3.671875 Z M 3.375 -10.703125 L 1.78125 -10.703125 L 1.78125 -8.953125 L 3.375 -8.953125 Z M 6.046875 -10.703125 L 4.46875 -10.703125 L 4.46875 -8.953125 L 6.046875 -8.953125 Z M 6.046875 -10.703125 "/>
</g>
<g id="glyph-2-12">
</g>
<g id="glyph-2-13">
<path d="M 3.25 -3.75 L 5.953125 -3.75 C 7.875 -3.75 9.125 -5.109375 9.125 -7.25 C 9.125 -9.34375 7.921875 -10.5 5.734375 -10.5 L 1.09375 -10.5 L 1.09375 0 L 3.25 0 Z M 3.25 -5.546875 L 3.25 -8.703125 L 5.265625 -8.703125 C 6.421875 -8.703125 6.953125 -8.203125 6.953125 -7.125 C 6.953125 -6.046875 6.421875 -5.546875 5.265625 -5.546875 Z M 3.25 -5.546875 "/>
</g>
<g id="glyph-2-14">
<path d="M 6.609375 -7.78125 L 0.5625 -7.78125 L 0.5625 -6.15625 L 4.15625 -6.15625 L 0.296875 -1.625 L 0.296875 0 L 6.734375 0 L 6.734375 -1.625 L 2.796875 -1.625 L 6.609375 -6.15625 Z M 6.609375 -7.78125 "/>
</g>
<g id="glyph-2-15">
<path d="M 7.28125 -5.265625 C 7.25 -6.921875 5.984375 -7.90625 3.890625 -7.90625 C 1.921875 -7.90625 0.6875 -6.921875 0.6875 -5.3125 C 0.6875 -4.796875 0.84375 -4.34375 1.125 -4.046875 C 1.390625 -3.78125 1.640625 -3.640625 2.390625 -3.40625 L 4.796875 -2.65625 C 5.296875 -2.5 5.46875 -2.328125 5.46875 -2.015625 C 5.46875 -1.546875 4.90625 -1.25 3.96875 -1.25 C 3.4375 -1.25 3.046875 -1.34375 2.78125 -1.53125 C 2.5625 -1.6875 2.484375 -1.84375 2.390625 -2.265625 L 0.421875 -2.265625 C 0.46875 -0.546875 1.734375 0.328125 4.09375 0.328125 C 5.171875 0.328125 6 0.09375 6.5625 -0.359375 C 7.140625 -0.828125 7.484375 -1.546875 7.484375 -2.3125 C 7.484375 -3.3125 6.984375 -3.96875 5.96875 -4.265625 L 3.421875 -5 C 2.859375 -5.171875 2.703125 -5.28125 2.703125 -5.609375 C 2.703125 -6.03125 3.171875 -6.328125 3.875 -6.328125 C 4.84375 -6.328125 5.3125 -5.984375 5.328125 -5.265625 Z M 7.28125 -5.265625 "/>
</g>
</g>
</defs>
<rect x="-57.6" y="-36" width="691.2" height="432" fill="rgb(100%, 100%, 100%)" fill-opacity="1"/>
<path fill="none" stroke-width="0.75" stroke-linecap="round" stroke-linejoin="round" stroke="rgb(0%, 0%, 0%)" stroke-opacity="1" stroke-miterlimit="10" d="M 77.066406 276.140625 L 81.617188 273.257812 L 86.171875 267.363281 L 90.722656 275.832031 L 95.277344 271.226562 L 99.828125 266.839844 L 104.378906 267.210938 L 108.933594 267.003906 L 113.484375 266.511719 L 118.035156 267.011719 L 122.589844 265.382812 L 127.140625 265.746094 L 131.691406 264.757812 L 136.246094 260.246094 L 140.796875 252.695312 L 145.347656 250.492188 L 149.902344 249.925781 L 154.453125 250.65625 L 159.007812 250.554688 L 163.558594 237.195312 L 168.109375 235.144531 L 172.664062 235.585938 L 177.214844 235.34375 L 181.765625 231.1875 L 186.320312 232.035156 L 190.871094 235.304688 L 195.421875 229.511719 L 199.976562 230.8125 L 204.527344 227.464844 L 209.082031 228.035156 L 213.632812 220.023438 L 218.183594 219.46875 L 222.738281 219.550781 L 227.289062 218.398438 L 231.839844 221.546875 L 236.394531 221.84375 L 240.945312 225.695312 L 245.496094 225.054688 L 250.050781 220 L 254.601562 216.242188 L 259.152344 205.253906 L 263.707031 206.039062 L 268.257812 205.429688 L 272.8125 202.265625 L 277.363281 202.167969 L 281.914062 201.589844 L 286.46875 201.28125 L 291.019531 201.214844 L 295.570312 197.878906 L 300.125 194.707031 L 304.675781 196.957031 L 309.226562 193.515625 L 313.78125 192.453125 L 318.332031 190.835938 L 322.886719 185.765625 L 327.4375 178.445312 L 331.988281 167.894531 L 336.542969 168.644531 L 341.09375 159.429688 L 345.644531 162.605469 L 350.199219 157.5625 L 354.75 145.640625 L 359.300781 145.9375 L 363.855469 148.292969 L 368.40625 147.160156 L 372.957031 138.792969 L 377.511719 143.246094 L 382.0625 136.488281 L 386.617188 130.835938 L 391.167969 129.851562 L 395.71875 129.976562 L 400.273438 131.507812 L 404.824219 131.984375 L 409.375 127.953125 L 413.929688 118.699219 L 418.480469 119.707031 L 423.03125 125.015625 L 427.585938 126.226562 L 432.136719 122.910156 L 436.691406 122.140625 L 441.242188 120.574219 L 445.792969 118.898438 L 450.347656 121.921875 L 454.898438 119.195312 L 459.449219 112.566406 L 464.003906 107.46875 L 468.554688 103.582031 L 473.105469 103.847656 L 477.660156 102.828125 L 482.210938 105.589844 L 486.761719 102.878906 L 491.316406 99.097656 L 495.867188 89.929688 L 500.421875 84.988281 L 504.972656 86.566406 L 509.523438 84.066406 L 514.078125 87.570312 L 518.628906 82.003906 L 523.179688 76.78125 L 527.734375 67.660156 "/>
<path fill="none" stroke-width="0.75" stroke-linecap="round" stroke-linejoin="round" stroke="rgb(0%, 0%, 0%)" stroke-opacity="1" stroke-miterlimit="10" d="M 72.515625 286.558594 L 527.734375 286.558594 "/>
<path fill="none" stroke-width="0.75" stroke-linecap="round" stroke-linejoin="round" stroke="rgb(0%, 0%, 0%)" stroke-opacity="1" stroke-miterlimit="10" d="M 72.515625 286.558594 L 72.515625 293.761719 "/>
<path fill="none" stroke-width="0.75" stroke-linecap="round" stroke-linejoin="round" stroke="rgb(0%, 0%, 0%)" stroke-opacity="1" stroke-miterlimit="10" d="M 163.558594 286.558594 L 163.558594 293.761719 "/>
<path fill="none" stroke-width="0.75" stroke-linecap="round" stroke-linejoin="round" stroke="rgb(0%, 0%, 0%)" stroke-opacity="1" stroke-miterlimit="10" d="M 254.601562 286.558594 L 254.601562 293.761719 "/>
<path fill="none" stroke-width="0.75" stroke-linecap="round" stroke-linejoin="round" stroke="rgb(0%, 0%, 0%)" stroke-opacity="1" stroke-miterlimit="10" d="M 345.644531 286.558594 L 345.644531 293.761719 "/>
<path fill="none" stroke-width="0.75" stroke-linecap="round" stroke-linejoin="round" stroke="rgb(0%, 0%, 0%)" stroke-opacity="1" stroke-miterlimit="10" d="M 436.691406 286.558594 L 436.691406 293.761719 "/>
<path fill="none" stroke-width="0.75" stroke-linecap="round" stroke-linejoin="round" stroke="rgb(0%, 0%, 0%)" stroke-opacity="1" stroke-miterlimit="10" d="M 527.734375 286.558594 L 527.734375 293.761719 "/>
<g fill="rgb(0%, 0%, 0%)" fill-opacity="1">
<use xlink:href="#glyph-0-0" x="69.015625" y="312.228516"/>
</g>
<g fill="rgb(0%, 0%, 0%)" fill-opacity="1">
<use xlink:href="#glyph-0-1" x="156.558594" y="312.228516"/>
<use xlink:href="#glyph-0-0" x="163.558594" y="312.228516"/>
</g>
<g fill="rgb(0%, 0%, 0%)" fill-opacity="1">
<use xlink:href="#glyph-0-2" x="247.601562" y="312.228516"/>
<use xlink:href="#glyph-0-0" x="254.601562" y="312.228516"/>
</g>
<g fill="rgb(0%, 0%, 0%)" fill-opacity="1">
<use xlink:href="#glyph-0-3" x="338.644531" y="312.228516"/>
<use xlink:href="#glyph-0-0" x="345.644531" y="312.228516"/>
</g>
<g fill="rgb(0%, 0%, 0%)" fill-opacity="1">
<use xlink:href="#glyph-0-4" x="429.691406" y="312.228516"/>
<use xlink:href="#glyph-0-0" x="436.691406" y="312.228516"/>
</g>
<g fill="rgb(0%, 0%, 0%)" fill-opacity="1">
<use xlink:href="#glyph-0-5" x="517.234375" y="312.228516"/>
<use xlink:href="#glyph-0-0" x="524.234375" y="312.228516"/>
<use xlink:href="#glyph-0-0" x="531.234375" y="312.228516"/>
</g>
<path fill="none" stroke-width="0.75" stroke-linecap="round" stroke-linejoin="round" stroke="rgb(0%, 0%, 0%)" stroke-opacity="1" stroke-miterlimit="10" d="M 59.039062 276.140625 L 59.039062 78.125 "/>
<path fill="none" stroke-width="0.75" stroke-linecap="round" stroke-linejoin="round" stroke="rgb(0%, 0%, 0%)" stroke-opacity="1" stroke-miterlimit="10" d="M 59.039062 276.140625 L 51.839844 276.140625 "/>
<path fill="none" stroke-width="0.75" stroke-linecap="round" stroke-linejoin="round" stroke="rgb(0%, 0%, 0%)" stroke-opacity="1" stroke-miterlimit="10" d="M 59.039062 236.539062 L 51.839844 236.539062 "/>
<path fill="none" stroke-width="0.75" stroke-linecap="round" stroke-linejoin="round" stroke="rgb(0%, 0%, 0%)" stroke-opacity="1" stroke-miterlimit="10" d="M 59.039062 196.933594 L 51.839844 196.933594 "/>
<path fill="none" stroke-width="0.75" stroke-linecap="round" stroke-linejoin="round" stroke="rgb(0%, 0%, 0%)" stroke-opacity="1" stroke-miterlimit="10" d="M 59.039062 157.332031 L 51.839844 157.332031 "/>
<path fill="none" stroke-width="0.75" stroke-linecap="round" stroke-linejoin="round" stroke="rgb(0%, 0%, 0%)" stroke-opacity="1" stroke-miterlimit="10" d="M 59.039062 117.730469 L 51.839844 117.730469 "/>
<path fill="none" stroke-width="0.75" stroke-linecap="round" stroke-linejoin="round" stroke="rgb(0%, 0%, 0%)" stroke-opacity="1" stroke-miterlimit="10" d="M 59.039062 78.125 L 51.839844 78.125 "/>
<g fill="rgb(0%, 0%, 0%)" fill-opacity="1">
<use xlink:href="#glyph-1-0" x="41.509766" y="279.640625"/>
</g>
<g fill="rgb(0%, 0%, 0%)" fill-opacity="1">
<use xlink:href="#glyph-1-1" x="41.509766" y="243.539062"/>
<use xlink:href="#glyph-1-0" x="41.509766" y="236.539062"/>
</g>
<g fill="rgb(0%, 0%, 0%)" fill-opacity="1">
<use xlink:href="#glyph-1-2" x="41.509766" y="203.933594"/>
<use xlink:href="#glyph-1-0" x="41.509766" y="196.933594"/>
</g>
<g fill="rgb(0%, 0%, 0%)" fill-opacity="1">
<use xlink:href="#glyph-1-3" x="41.509766" y="164.332031"/>
<use xlink:href="#glyph-1-0" x="41.509766" y="157.332031"/>
</g>
<g fill="rgb(0%, 0%, 0%)" fill-opacity="1">
<use xlink:href="#glyph-1-4" x="41.509766" y="124.730469"/>
<use xlink:href="#glyph-1-0" x="41.509766" y="117.730469"/>
</g>
<g fill="rgb(0%, 0%, 0%)" fill-opacity="1">
<use xlink:href="#glyph-1-5" x="41.509766" y="85.125"/>
<use xlink:href="#glyph-1-0" x="41.509766" y="78.125"/>
</g>
<path fill="none" stroke-width="0.75" stroke-linecap="round" stroke-linejoin="round" stroke="rgb(0%, 0%, 0%)" stroke-opacity="1" stroke-miterlimit="10" d="M 59.039062 286.558594 L 545.761719 286.558594 L 545.761719 59.039062 L 59.039062 59.039062 Z M 59.039062 286.558594 "/>
<g fill="rgb(0%, 0%, 0%)" fill-opacity="1">
<use xlink:href="#glyph-2-0" x="209.898438" y="34.516602"/>
<use xlink:href="#glyph-2-1" x="217.898438" y="34.516602"/>
<use xlink:href="#glyph-2-2" x="223.898438" y="34.516602"/>
<use xlink:href="#glyph-2-3" x="231.898438" y="34.516602"/>
<use xlink:href="#glyph-2-4" x="240.898438" y="34.516602"/>
<use xlink:href="#glyph-2-5" x="249.898438" y="34.516602"/>
<use xlink:href="#glyph-2-6" x="254.898438" y="34.516602"/>
<use xlink:href="#glyph-2-7" x="264.898438" y="34.516602"/>
<use xlink:href="#glyph-2-8" x="269.898438" y="34.516602"/>
<use xlink:href="#glyph-2-7" x="277.898438" y="34.516602"/>
<use xlink:href="#glyph-2-9" x="282.898438" y="34.516602"/>
<use xlink:href="#glyph-2-10" x="286.898438" y="34.516602"/>
<use xlink:href="#glyph-2-3" x="295.898438" y="34.516602"/>
<use xlink:href="#glyph-2-11" x="304.898438" y="34.516602"/>
<use xlink:href="#glyph-2-1" x="312.898438" y="34.516602"/>
<use xlink:href="#glyph-2-2" x="318.898438" y="34.516602"/>
<use xlink:href="#glyph-2-12" x="326.898438" y="34.516602"/>
<use xlink:href="#glyph-2-13" x="330.898438" y="34.516602"/>
<use xlink:href="#glyph-2-1" x="340.898438" y="34.516602"/>
<use xlink:href="#glyph-2-10" x="346.898438" y="34.516602"/>
<use xlink:href="#glyph-2-14" x="355.898438" y="34.516602"/>
<use xlink:href="#glyph-2-2" x="362.898438" y="34.516602"/>
<use xlink:href="#glyph-2-15" x="370.898438" y="34.516602"/>
<use xlink:href="#glyph-2-15" x="378.898438" y="34.516602"/>
<use xlink:href="#glyph-2-2" x="386.898438" y="34.516602"/>
</g>
<path fill="none" stroke-width="0.75" stroke-linecap="round" stroke-linejoin="round" stroke="rgb(87.45098%, 32.54902%, 41.960784%)" stroke-opacity="1" stroke-miterlimit="10" d="M 77.066406 276.140625 L 81.617188 273.257812 L 86.171875 267.363281 L 90.722656 275.832031 L 95.277344 271.226562 L 99.828125 266.839844 L 104.378906 267.210938 L 108.933594 267.003906 L 113.484375 266.511719 L 118.035156 267.011719 L 122.589844 265.382812 L 127.140625 265.746094 L 131.691406 264.757812 L 136.246094 260.246094 L 140.796875 252.695312 L 145.347656 250.492188 L 149.902344 249.925781 L 154.453125 250.65625 L 159.007812 250.554688 L 163.558594 237.195312 L 168.109375 235.144531 L 172.664062 235.585938 L 177.214844 235.34375 L 181.765625 231.1875 L 186.320312 232.035156 L 190.871094 235.304688 L 195.421875 229.511719 L 199.976562 230.8125 L 204.527344 227.464844 L 209.082031 228.035156 L 213.632812 220.023438 L 218.183594 219.46875 L 222.738281 219.550781 L 227.289062 218.398438 L 231.839844 221.546875 L 236.394531 221.84375 L 240.945312 225.695312 L 245.496094 225.054688 L 250.050781 220 L 254.601562 216.242188 L 259.152344 205.253906 L 263.707031 206.039062 L 268.257812 205.429688 L 272.8125 202.265625 L 277.363281 202.167969 L 281.914062 201.589844 L 286.46875 201.28125 L 291.019531 201.214844 L 295.570312 197.878906 L 300.125 194.707031 L 304.675781 196.957031 L 309.226562 193.515625 L 313.78125 192.453125 L 318.332031 190.835938 L 322.886719 185.765625 L 327.4375 178.445312 L 331.988281 167.894531 L 336.542969 168.644531 L 341.09375 159.429688 L 345.644531 162.605469 L 350.199219 157.5625 L 354.75 145.640625 L 359.300781 145.9375 L 363.855469 148.292969 L 368.40625 147.160156 L 372.957031 138.792969 L 377.511719 143.246094 L 382.0625 136.488281 L 386.617188 130.835938 L 391.167969 129.851562 L 395.71875 129.976562 L 400.273438 131.507812 L 404.824219 131.984375 L 409.375 127.953125 L 413.929688 118.699219 L 418.480469 119.707031 L 423.03125 125.015625 L 427.585938 126.226562 L 432.136719 122.910156 L 436.691406 122.140625 L 441.242188 120.574219 L 445.792969 118.898438 L 450.347656 121.921875 L 454.898438 119.195312 L 459.449219 112.566406 L 464.003906 107.46875 L 468.554688 103.582031 L 473.105469 103.847656 L 477.660156 102.828125 L 482.210938 105.589844 L 486.761719 102.878906 L 491.316406 99.097656 L 495.867188 89.929688 L 500.421875 84.988281 L 504.972656 86.566406 L 509.523438 84.066406 L 514.078125 87.570312 L 518.628906 82.003906 L 523.179688 76.78125 L 527.734375 67.660156 "/>
<path fill="none" stroke-width="0.75" stroke-linecap="round" stroke-linejoin="round" stroke="rgb(38.039216%, 81.568627%, 30.980392%)" stroke-opacity="1" stroke-miterlimit="10" d="M 77.066406 276.140625 L 81.617188 276.238281 L 86.171875 273.777344 L 90.722656 273.667969 L 95.277344 274.460938 L 99.828125 270.769531 L 104.378906 271.632812 L 108.933594 267.710938 L 113.484375 263.433594 L 118.035156 261.230469 L 122.589844 259.644531 L 127.140625 259.769531 L 131.691406 261.300781 L 136.246094 254.371094 L 140.796875 251.707031 L 145.347656 245.976562 L 149.902344 249.214844 L 154.453125 245.808594 L 159.007812 240.695312 L 163.558594 238.976562 L 168.109375 237.863281 L 172.664062 238.910156 L 177.214844 228.109375 L 181.765625 224.246094 L 186.320312 216.511719 L 190.871094 216.832031 L 195.421875 219.511719 L 199.976562 224.75 L 204.527344 225.074219 L 209.082031 221.519531 L 213.632812 215.164062 L 218.183594 212.695312 L 222.738281 215.964844 L 227.289062 210.898438 L 231.839844 215.628906 L 236.394531 213.933594 L 240.945312 211.984375 L 245.496094 216.492188 L 250.050781 208.34375 L 254.601562 207.539062 L 259.152344 205.355469 L 263.707031 196.363281 L 268.257812 191.777344 L 272.8125 190.664062 L 277.363281 186.914062 L 281.914062 183.96875 L 286.46875 176.214844 L 291.019531 175.109375 L 295.570312 172.914062 L 300.125 171.390625 L 304.675781 172.648438 L 309.226562 171.375 L 313.78125 163.859375 L 318.332031 167.40625 L 322.886719 165.898438 L 327.4375 159.386719 L 331.988281 160.101562 L 336.542969 163.523438 L 341.09375 165.132812 L 345.644531 164.128906 L 350.199219 164.738281 L 354.75 162.507812 L 359.300781 160.933594 L 363.855469 158.367188 L 368.40625 153.578125 L 372.957031 148.488281 L 377.511719 139.847656 L 382.0625 139.457031 L 386.617188 139.75 L 391.167969 132.488281 L 395.71875 125.363281 L 400.273438 125.84375 L 404.824219 127.320312 L 409.375 134.003906 L 413.929688 126.148438 L 418.480469 128.375 L 423.03125 130.894531 L 427.585938 116.011719 L 432.136719 114.828125 L 436.691406 114.550781 L 441.242188 124.621094 L 445.792969 121.855469 L 450.347656 114.984375 L 454.898438 111.320312 L 459.449219 106.019531 L 464.003906 97.140625 L 468.554688 92.863281 L 473.105469 95.695312 L 477.660156 92.757812 L 482.210938 93.585938 L 486.761719 95.199219 L 491.316406 105.273438 L 495.867188 104.753906 L 500.421875 98.882812 L 504.972656 87.132812 L 509.523438 83.945312 L 514.078125 80.523438 L 518.628906 83.671875 L 523.179688 81.324219 L 527.734375 87.925781 "/>
<path fill="none" stroke-width="0.75" stroke-linecap="round" stroke-linejoin="round" stroke="rgb(13.333333%, 59.215686%, 90.196078%)" stroke-opacity="1" stroke-miterlimit="10" d="M 77.066406 276.140625 L 81.617188 271.597656 L 86.171875 269.59375 L 90.722656 265.554688 L 95.277344 263.464844 L 99.828125 259.625 L 104.378906 251.867188 L 108.933594 248.160156 L 113.484375 249.070312 L 118.035156 253.949219 L 122.589844 251.382812 L 127.140625 252.179688 L 131.691406 244.917969 L 136.246094 250.992188 L 140.796875 250.738281 L 145.347656 246.820312 L 149.902344 245.5625 L 154.453125 245.960938 L 159.007812 244.6875 L 163.558594 239.574219 L 168.109375 234.035156 L 172.664062 230.140625 L 177.214844 220.238281 L 181.765625 216.277344 L 186.320312 216.21875 L 190.871094 219.527344 L 195.421875 207.609375 L 199.976562 206.550781 L 204.527344 210.707031 L 209.082031 210.183594 L 213.632812 211.390625 L 218.183594 211.765625 L 222.738281 214.277344 L 227.289062 211.734375 L 231.839844 208.5 L 236.394531 211.046875 L 240.945312 221.226562 L 245.496094 217.179688 L 250.050781 212.421875 L 254.601562 205.980469 L 259.152344 202.550781 L 263.707031 198.007812 L 268.257812 199.960938 L 272.8125 193.964844 L 277.363281 188.742188 L 281.914062 186.019531 L 286.46875 179.0625 L 291.019531 176.878906 L 295.570312 175.289062 L 300.125 173.605469 L 304.675781 171.195312 L 309.226562 166.402344 L 313.78125 164.578125 L 318.332031 161.890625 L 322.886719 166.46875 L 327.4375 166.703125 L 331.988281 159.175781 L 336.542969 163.457031 L 341.09375 160.617188 L 345.644531 157.363281 L 350.199219 152.109375 L 354.75 152.75 L 359.300781 150.863281 L 363.855469 156.5625 L 368.40625 152.40625 L 372.957031 152.664062 L 377.511719 150.78125 L 382.0625 152.636719 L 386.617188 147.496094 L 391.167969 141.875 L 395.71875 140.824219 L 400.273438 131.15625 L 404.824219 127.597656 L 409.375 123.253906 L 413.929688 115.023438 L 418.480469 118.734375 L 423.03125 115.53125 L 427.585938 111.863281 L 432.136719 112.46875 L 436.691406 111.265625 L 441.242188 115.179688 L 445.792969 112.046875 L 450.347656 113.78125 L 454.898438 108.773438 L 459.449219 110.808594 L 464.003906 107.5625 L 468.554688 109.183594 L 473.105469 107.707031 L 477.660156 111.308594 L 482.210938 107.132812 L 486.761719 100.003906 L 491.316406 97.078125 L 495.867188 102.066406 L 500.421875 101.121094 L 504.972656 90.953125 L 509.523438 81.816406 L 514.078125 85.929688 L 518.628906 85.621094 L 523.179688 82.128906 L 527.734375 79.074219 "/>
<path fill="none" stroke-width="0.75" stroke-linecap="round" stroke-linejoin="round" stroke="rgb(15.686275%, 88.627451%, 89.803922%)" stroke-opacity="1" stroke-miterlimit="10" d="M 77.066406 276.140625 L 81.617188 278.132812 L 86.171875 276.265625 L 90.722656 269.667969 L 95.277344 267.898438 L 99.828125 268.75 L 104.378906 268.464844 L 108.933594 259.449219 L 113.484375 260.003906 L 118.035156 255.257812 L 122.589844 248.257812 L 127.140625 246.335938 L 131.691406 247.828125 L 136.246094 247.113281 L 140.796875 247.9375 L 145.347656 241.390625 L 149.902344 241.210938 L 154.453125 233.9375 L 159.007812 236.089844 L 163.558594 237.75 L 168.109375 235.554688 L 172.664062 233.875 L 177.214844 234.226562 L 181.765625 238.378906 L 186.320312 234.917969 L 190.871094 234.714844 L 195.421875 227.03125 L 199.976562 228.546875 L 204.527344 221.128906 L 209.082031 221.832031 L 213.632812 218.265625 L 218.183594 212.621094 L 222.738281 213.320312 L 227.289062 209.234375 L 231.839844 208.113281 L 236.394531 210.964844 L 240.945312 209.425781 L 245.496094 200.316406 L 250.050781 199.894531 L 254.601562 201.550781 L 259.152344 199.453125 L 263.707031 195.859375 L 268.257812 190.113281 L 272.8125 184.375 L 277.363281 183.519531 L 281.914062 178.222656 L 286.46875 181.230469 L 291.019531 189.496094 L 295.570312 188.296875 L 300.125 187.117188 L 304.675781 192.90625 L 309.226562 185.742188 L 313.78125 184.945312 L 318.332031 181.703125 L 322.886719 184.105469 L 327.4375 177.175781 L 331.988281 165.914062 L 336.542969 167.476562 L 341.09375 165.300781 L 345.644531 155 L 350.199219 150.382812 L 354.75 142.414062 L 359.300781 143.238281 L 363.855469 144.085938 L 368.40625 145.785156 L 372.957031 139.046875 L 377.511719 144.03125 L 382.0625 141.316406 L 386.617188 140.148438 L 391.167969 129.71875 L 395.71875 132.300781 L 400.273438 137.542969 L 404.824219 134.441406 L 409.375 132.640625 L 413.929688 133.972656 L 418.480469 130.792969 L 423.03125 129.46875 L 427.585938 129.613281 L 432.136719 124.65625 L 436.691406 123.59375 L 441.242188 128.304688 L 445.792969 134.90625 L 450.347656 131.59375 L 454.898438 120.488281 L 459.449219 113.644531 L 464.003906 106.285156 L 468.554688 100.917969 L 473.105469 98.871094 L 477.660156 104.058594 L 482.210938 101.027344 L 486.761719 92.695312 L 491.316406 105.410156 L 495.867188 104.828125 L 500.421875 96.507812 L 504.972656 91.726562 L 509.523438 86.476562 L 514.078125 83.191406 L 518.628906 79.847656 L 523.179688 78.851562 L 527.734375 81.347656 "/>
<path fill="none" stroke-width="0.75" stroke-linecap="round" stroke-linejoin="round" stroke="rgb(80.392157%, 4.313725%, 73.72549%)" stroke-opacity="1" stroke-miterlimit="10" d="M 77.066406 276.140625 L 81.617188 274.214844 L 86.171875 274.089844 L 90.722656 275.488281 L 95.277344 270.996094 L 99.828125 268.050781 L 104.378906 260.109375 L 108.933594 263.601562 L 113.484375 263.605469 L 118.035156 261.457031 L 122.589844 264.625 L 127.140625 262.3125 L 131.691406 261.742188 L 136.246094 266.59375 L 140.796875 262.695312 L 145.347656 260.171875 L 149.902344 251.15625 L 154.453125 250.425781 L 159.007812 244.847656 L 163.558594 241.628906 L 168.109375 244.125 L 172.664062 239.34375 L 177.214844 237.023438 L 181.765625 233.695312 L 186.320312 228.6875 L 190.871094 226.441406 L 195.421875 218.417969 L 199.976562 217.425781 L 204.527344 221.660156 L 209.082031 216.746094 L 213.632812 220.203125 L 218.183594 225.328125 L 222.738281 224.636719 L 227.289062 223.433594 L 231.839844 221.527344 L 236.394531 210.839844 L 240.945312 201.78125 L 245.496094 197.738281 L 250.050781 202.027344 L 254.601562 199.925781 L 259.152344 196.011719 L 263.707031 194.957031 L 268.257812 192.496094 L 272.8125 194.550781 L 277.363281 197.15625 L 281.914062 188.171875 L 286.46875 185.101562 L 291.019531 184.925781 L 295.570312 181.488281 L 300.125 171.457031 L 304.675781 169.769531 L 309.226562 163.871094 L 313.78125 158.929688 L 318.332031 161.609375 L 322.886719 158.722656 L 327.4375 161.617188 L 331.988281 166.792969 L 336.542969 169.464844 L 341.09375 167.03125 L 345.644531 156.984375 L 350.199219 155.253906 L 354.75 157.066406 L 359.300781 154.027344 L 363.855469 149.351562 L 368.40625 153.105469 L 372.957031 154.761719 L 377.511719 159.203125 L 382.0625 159.699219 L 386.617188 158.183594 L 391.167969 154.21875 L 395.71875 143.910156 L 400.273438 137.332031 L 404.824219 134.113281 L 409.375 134.46875 L 413.929688 132.269531 L 418.480469 127.785156 L 423.03125 127.96875 L 427.585938 121.527344 L 432.136719 115.828125 L 436.691406 119.839844 L 441.242188 120.988281 L 445.792969 113.773438 L 450.347656 119.070312 L 454.898438 114.566406 L 459.449219 111.300781 L 464.003906 96.566406 L 468.554688 107.847656 L 473.105469 108.992188 L 477.660156 103.515625 L 482.210938 94.777344 L 486.761719 90.695312 L 491.316406 96.015625 L 495.867188 85.351562 L 500.421875 92.253906 L 504.972656 94.824219 L 509.523438 92.25 L 514.078125 80.808594 L 518.628906 78.070312 L 523.179688 74.59375 L 527.734375 67.464844 "/>
</svg>
