<?xml version="1.0" encoding="UTF-8"?>
<svg xmlns="http://www.w3.org/2000/svg" xmlns:xlink="http://www.w3.org/1999/xlink" width="576" height="360" viewBox="0 0 576 360">
<defs>
<g>
<g id="glyph-0-0">
<path d="M 6.078125 -1.046875 L 1.59375 -1.046875 C 1.703125 -1.765625 2.09375 -2.21875 3.125 -2.859375 L 4.328125 -3.53125 C 5.515625 -4.1875 6.125 -5.078125 6.125 -6.140625 C 6.125 -6.859375 5.84375 -7.53125 5.34375 -8 C 4.84375 -8.453125 4.21875 -8.671875 3.40625 -8.671875 C 2.328125 -8.671875 1.53125 -8.296875 1.0625 -7.546875 C 0.75 -7.09375 0.625 -6.546875 0.59375 -5.671875 L 1.65625 -5.671875 C 1.6875 -6.265625 1.765625 -6.609375 1.90625 -6.90625 C 2.1875 -7.421875 2.734375 -7.75 3.375 -7.75 C 4.328125 -7.75 5.046875 -7.0625 5.046875 -6.125 C 5.046875 -5.421875 4.65625 -4.828125 3.90625 -4.390625 L 2.796875 -3.75 C 1.015625 -2.71875 0.5 -1.90625 0.40625 -0.015625 L 6.078125 -0.015625 Z M 6.078125 -1.046875 "/>
</g>
<g id="glyph-0-1">
<path d="M 3.296875 -8.671875 C 2.515625 -8.671875 1.78125 -8.3125 1.34375 -7.734375 C 0.796875 -6.953125 0.515625 -5.8125 0.515625 -4.203125 C 0.515625 -1.265625 1.46875 0.28125 3.296875 0.28125 C 5.09375 0.28125 6.078125 -1.265625 6.078125 -4.125 C 6.078125 -5.8125 5.8125 -6.9375 5.25 -7.734375 C 4.8125 -8.328125 4.109375 -8.671875 3.296875 -8.671875 Z M 3.296875 -7.734375 C 4.4375 -7.734375 5 -6.578125 5 -4.21875 C 5 -1.75 4.453125 -0.59375 3.28125 -0.59375 C 2.15625 -0.59375 1.59375 -1.796875 1.59375 -4.1875 C 1.59375 -6.578125 2.15625 -7.734375 3.296875 -7.734375 Z M 3.296875 -7.734375 "/>
</g>
<g id="glyph-0-2">
<path d="M 5.71875 -8.515625 L 1.3125 -8.515625 L 0.6875 -3.875 L 1.65625 -3.875 C 2.140625 -4.46875 2.5625 -4.671875 3.234375 -4.671875 C 4.375 -4.671875 5.078125 -3.890625 5.078125 -2.625 C 5.078125 -1.40625 4.375 -0.65625 3.21875 -0.65625 C 2.296875 -0.65625 1.734375 -1.125 1.46875 -2.09375 L 0.421875 -2.09375 C 0.5625 -1.390625 0.6875 -1.0625 0.9375 -0.75 C 1.421875 -0.09375 2.28125 0.28125 3.234375 0.28125 C 4.953125 0.28125 6.15625 -0.96875 6.15625 -2.765625 C 6.15625 -4.453125 5.046875 -5.609375 3.40625 -5.609375 C 2.8125 -5.609375 2.328125 -5.453125 1.84375 -5.09375 L 2.171875 -7.46875 L 5.71875 -7.46875 Z M 5.71875 -8.515625 "/>
</g>
<g id="glyph-0-3">
<path d="M 3.109375 -6.1875 L 3.109375 0 L 4.15625 0 L 4.15625 -8.671875 L 3.46875 -8.671875 C 3.09375 -7.34375 2.859375 -7.15625 1.21875 -6.953125 L 1.21875 -6.1875 Z M 3.109375 -6.1875 "/>
</g>
<g id="glyph-1-0">
<path d="M -3.75 -3.40625 L -3.75 -0.546875 L -2.875 -0.546875 L -2.875 -3.40625 Z M -3.75 -3.40625 "/>
</g>
<g id="glyph-1-1">
<path d="M -6.1875 -3.109375 L 0 -3.109375 L 0 -4.15625 L -8.671875 -4.15625 L -8.671875 -3.46875 C -7.34375 -3.09375 -7.15625 -2.859375 -6.953125 -1.21875 L -6.1875 -1.21875 Z M -6.1875 -3.109375 "/>
</g>
<g id="glyph-1-2">
<path d="M -8.671875 -3.296875 C -8.671875 -2.515625 -8.3125 -1.78125 -7.734375 -1.34375 C -6.953125 -0.796875 -5.8125 -0.515625 -4.203125 -0.515625 C -1.265625 -0.515625 0.28125 -1.46875 0.28125 -3.296875 C 0.28125 -5.09375 -1.265625 -6.078125 -4.125 -6.078125 C -5.8125 -6.078125 -6.9375 -5.8125 -7.734375 -5.25 C -8.328125 -4.8125 -8.671875 -4.109375 -8.671875 -3.296875 Z M -7.734375 -3.296875 C -7.734375 -4.4375 -6.578125 -5 -4.21875 -5 C -1.75 -5 -0.59375 -4.453125 -0.59375 -3.28125 C -0.59375 -2.15625 -1.796875 -1.59375 -4.1875 -1.59375 C -6.578125 -1.59375 -7.734375 -2.15625 -7.734375 -3.296875 Z M -7.734375 -3.296875 "/>
</g>
<g id="glyph-1-3">
<path d="M -8.515625 -5.71875 L -8.515625 -1.3125 L -3.875 -0.6875 L -3.875 -1.65625 C -4.46875 -2.140625 -4.671875 -2.5625 -4.671875 -3.234375 C -4.671875 -4.375 -3.890625 -5.078125 -2.625 -5.078125 C -1.40625 -5.078125 -0.65625 -4.375 -0.65625 -3.21875 C -0.65625 -2.296875 -1.125 -1.734375 -2.09375 -1.46875 L -2.09375 -0.421875 C -1.390625 -0.5625 -1.0625 -0.6875 -0.75 -0.9375 C -0.09375 -1.421875 0.28125 -2.28125 0.28125 -3.234375 C 0.28125 -4.953125 -0.96875 -6.15625 -2.765625 -6.15625 C -4.453125 -6.15625 -5.609375 -5.046875 -5.609375 -3.40625 C -5.609375 -2.8125 -5.453125 -2.328125 -5.09375 -1.84375 L -7.46875 -2.171875 L -7.46875 -5.71875 Z M -8.515625 -5.71875 "/>
</g>
<g id="glyph-1-4">
<path d="M 0 -8.921875 L -8.75 -11.140625 L -8.75 -9.90625 L -1.640625 -8.296875 L -8.75 -6.296875 L -8.75 -5.09375 L -1.640625 -3.15625 L -8.75 -1.515625 L -8.75 -0.265625 L 0 -2.515625 L 0 -3.734375 L -7.1875 -5.6875 L 0 -7.703125 Z M 0 -8.921875 "/>
</g>
<g id="glyph-1-5">
<path d="M -0.59375 -6.421875 C -0.5625 -6.3125 -0.5625 -6.265625 -0.5625 -6.203125 C -0.5625 -5.859375 -0.75 -5.65625 -1.0625 -5.65625 L -4.75 -5.65625 C -5.875 -5.65625 -6.46875 -4.84375 -6.46875 -3.296875 C -6.46875 -2.375 -6.203125 -1.640625 -5.734375 -1.21875 C -5.40625 -0.921875 -5.046875 -0.796875 -4.421875 -0.78125 L -4.421875 -1.78125 C -5.203125 -1.875 -5.546875 -2.328125 -5.546875 -3.265625 C -5.546875 -4.171875 -5.203125 -4.671875 -4.609375 -4.671875 L -4.34375 -4.671875 C -3.90625 -4.65625 -3.75 -4.4375 -3.640625 -3.625 C -3.46875 -2.203125 -3.421875 -1.984375 -3.265625 -1.609375 C -2.953125 -0.875 -2.40625 -0.5 -1.578125 -0.5 C -0.4375 -0.5 0.28125 -1.296875 0.28125 -2.5625 C 0.28125 -3.359375 0 -4 -0.640625 -4.703125 C 0 -4.78125 0.28125 -5.09375 0.28125 -5.734375 C 0.28125 -5.953125 0.25 -6.078125 0.171875 -6.421875 Z M -1.984375 -4.671875 C -1.640625 -4.671875 -1.4375 -4.578125 -1.15625 -4.265625 C -0.796875 -3.859375 -0.59375 -3.375 -0.59375 -2.78125 C -0.59375 -2 -0.96875 -1.546875 -1.609375 -1.546875 C -2.265625 -1.546875 -2.609375 -1.984375 -2.765625 -3.0625 C -2.90625 -4.125 -2.953125 -4.328125 -3.109375 -4.671875 Z M -1.984375 -4.671875 "/>
</g>
<g id="glyph-1-6">
<path d="M -4.171875 -5.65625 C -4.78125 -5.609375 -5.1875 -5.46875 -5.53125 -5.234375 C -6.125 -4.796875 -6.46875 -4.046875 -6.46875 -3.171875 C -6.46875 -1.46875 -5.125 -0.375 -3.03125 -0.375 C -1.015625 -0.375 0.28125 -1.453125 0.28125 -3.15625 C 0.28125 -4.65625 -0.625 -5.609375 -2.15625 -5.71875 L -2.15625 -4.71875 C -1.15625 -4.546875 -0.640625 -4.03125 -0.640625 -3.1875 C -0.640625 -2.078125 -1.546875 -1.421875 -3.03125 -1.421875 C -4.609375 -1.421875 -5.546875 -2.0625 -5.546875 -3.15625 C -5.546875 -4 -5.046875 -4.53125 -4.171875 -4.640625 Z M -4.171875 -5.65625 "/>
</g>
<g id="glyph-1-7">
<path d="M -8.75 -0.84375 L 0 -0.84375 L 0 -1.84375 L -3.46875 -1.84375 C -4.75 -1.84375 -5.59375 -2.515625 -5.59375 -3.546875 C -5.59375 -3.875 -5.5 -4.1875 -5.3125 -4.421875 C -5.09375 -4.71875 -4.796875 -4.84375 -4.359375 -4.84375 L 0 -4.84375 L 0 -5.828125 L -4.75 -5.828125 C -5.8125 -5.828125 -6.46875 -5.078125 -6.46875 -3.859375 C -6.46875 -2.96875 -6.1875 -2.421875 -5.421875 -1.84375 L -8.75 -1.84375 Z M -8.75 -0.84375 "/>
</g>
<g id="glyph-1-8">
<path d="M -4.53125 -5.25 C -5.765625 -5.25 -6.46875 -4.421875 -6.46875 -2.96875 C -6.46875 -1.515625 -5.71875 -0.5625 -4.546875 -0.5625 C -3.5625 -0.5625 -3.09375 -1.0625 -2.734375 -2.5625 L -2.515625 -3.484375 C -2.34375 -4.1875 -2.09375 -4.46875 -1.640625 -4.46875 C -1.046875 -4.46875 -0.640625 -3.875 -0.640625 -3 C -0.640625 -2.453125 -0.796875 -2 -1.0625 -1.75 C -1.25 -1.59375 -1.421875 -1.53125 -1.875 -1.46875 L -1.875 -0.40625 C -0.421875 -0.453125 0.28125 -1.265625 0.28125 -2.921875 C 0.28125 -4.5 -0.5 -5.515625 -1.71875 -5.515625 C -2.65625 -5.515625 -3.171875 -4.984375 -3.46875 -3.734375 L -3.703125 -2.765625 C -3.890625 -1.953125 -4.15625 -1.609375 -4.59375 -1.609375 C -5.1875 -1.609375 -5.546875 -2.125 -5.546875 -2.9375 C -5.546875 -3.75 -5.203125 -4.171875 -4.53125 -4.203125 Z M -4.53125 -5.25 "/>
</g>
<g id="glyph-1-9">
<path d="M -6.28125 -3.046875 L -6.28125 -2.015625 L -8.015625 -2.015625 L -8.015625 -1.015625 L -6.28125 -1.015625 L -6.28125 -0.171875 L -5.46875 -0.171875 L -5.46875 -1.015625 L -0.71875 -1.015625 C -0.078125 -1.015625 0.28125 -1.453125 0.28125 -2.234375 C 0.28125 -2.5 0.25 -2.71875 0.1875 -3.046875 L -0.640625 -3.046875 C -0.609375 -2.90625 -0.59375 -2.765625 -0.59375 -2.5625 C -0.59375 -2.140625 -0.71875 -2.015625 -1.15625 -2.015625 L -5.46875 -2.015625 L -5.46875 -3.046875 Z M -6.28125 -3.046875 "/>
</g>
<g id="glyph-1-10">
<path d="M 0 -5.78125 L -6.28125 -5.78125 L -6.28125 -4.78125 L -2.71875 -4.78125 C -1.4375 -4.78125 -0.59375 -4.109375 -0.59375 -3.078125 C -0.59375 -2.28125 -1.078125 -1.78125 -1.84375 -1.78125 L -6.28125 -1.78125 L -6.28125 -0.78125 L -1.4375 -0.78125 C -0.390625 -0.78125 0.28125 -1.5625 0.28125 -2.78125 C 0.28125 -3.703125 -0.046875 -4.296875 -0.875 -4.890625 L 0 -4.890625 Z M 0 -5.78125 "/>
</g>
<g id="glyph-1-11">
<path d="M -6.28125 -0.84375 L 0 -0.84375 L 0 -1.84375 L -3.953125 -1.84375 C -4.859375 -1.84375 -5.59375 -2.515625 -5.59375 -3.328125 C -5.59375 -4.0625 -5.140625 -4.484375 -4.328125 -4.484375 L 0 -4.484375 L 0 -5.5 L -3.953125 -5.5 C -4.859375 -5.5 -5.59375 -6.15625 -5.59375 -6.96875 C -5.59375 -7.703125 -5.125 -8.140625 -4.328125 -8.140625 L 0 -8.140625 L 0 -9.140625 L -4.71875 -9.140625 C -5.84375 -9.140625 -6.46875 -8.5 -6.46875 -7.3125 C -6.46875 -6.484375 -6.21875 -5.96875 -5.515625 -5.390625 C -6.1875 -5.015625 -6.46875 -4.515625 -6.46875 -3.703125 C -6.46875 -2.859375 -6.15625 -2.296875 -5.40625 -1.765625 L -6.28125 -1.765625 Z M -6.28125 -0.84375 "/>
</g>
<g id="glyph-1-12">
<path d="M -6.28125 -0.828125 L 0 -0.828125 L 0 -1.84375 L -3.265625 -1.84375 C -4.78125 -1.84375 -5.453125 -2.46875 -5.40625 -3.859375 L -6.4375 -3.859375 C -6.453125 -3.6875 -6.46875 -3.59375 -6.46875 -3.46875 C -6.46875 -2.8125 -6.078125 -2.328125 -5.140625 -1.75 L -6.28125 -1.75 Z M -6.28125 -0.828125 "/>
</g>
<g id="glyph-1-13">
<path d="M -2.8125 -6.15625 C -3.765625 -6.15625 -4.34375 -6.078125 -4.8125 -5.90625 C -5.84375 -5.5 -6.46875 -4.53125 -6.46875 -3.359375 C -6.46875 -1.609375 -5.140625 -0.484375 -3.0625 -0.484375 C -0.984375 -0.484375 0.28125 -1.5625 0.28125 -3.34375 C 0.28125 -4.78125 -0.546875 -5.765625 -1.90625 -6.03125 L -1.90625 -5.015625 C -1.078125 -4.734375 -0.640625 -4.171875 -0.640625 -3.375 C -0.640625 -2.734375 -0.9375 -2.203125 -1.46875 -1.859375 C -1.828125 -1.625 -2.1875 -1.53125 -2.8125 -1.53125 Z M -3.625 -1.546875 C -4.78125 -1.625 -5.546875 -2.34375 -5.546875 -3.34375 C -5.546875 -4.375 -4.75 -5.078125 -3.625 -5.078125 Z M -3.625 -1.546875 "/>
</g>
</g>
</defs>
<rect x="-57.6" y="-36" width="691.2" height="432" fill="rgb(100%, 100%, 100%)" fill-opacity="1"/>
<path fill="none" stroke-width="1.5" stroke-linecap="round" stroke-linejoin="round" stroke="rgb(27.45098%, 50.980392%, 70.588235%)" stroke-opacity="1" stroke-miterlimit="10" d="M 77.066406 129.964844 L 84.597656 112.816406 L 92.207031 81.753906 L 99.90625 102.753906 L 107.601562 127.574219 L 115.214844 120.960938 L 122.828125 113.609375 L 130.523438 115.472656 L 138.222656 107.058594 L 145.75 129.792969 L 153.363281 116.484375 L 161.058594 127.722656 L 168.757812 101.417969 L 176.285156 139.160156 L 183.898438 147.96875 L 191.59375 118.882812 L 199.292969 149.132812 L 206.820312 119.628906 L 214.433594 123.488281 L 222.128906 136.722656 L 229.828125 180.59375 L 237.4375 130.871094 L 245.050781 171.976562 L 252.75 241.714844 L 260.445312 210.519531 L 267.976562 157.441406 L 275.585938 137.984375 L 283.285156 111.140625 L 290.980469 133.535156 L 298.511719 111.226562 L 306.121094 123.390625 L 313.820312 125.269531 L 321.515625 168.039062 L 329.046875 121.195312 L 336.65625 142.863281 L 344.355469 104.566406 L 352.050781 123.871094 L 359.664062 132.109375 L 367.277344 146.695312 L 374.972656 150.789062 L 382.671875 122.359375 L 390.199219 143.667969 L 397.8125 119.34375 L 405.507812 110.828125 L 413.207031 161.445312 L 420.734375 104.339844 L 428.347656 98.222656 L 436.042969 130.714844 L 443.742188 118.164062 L 451.269531 123.246094 L 458.882812 134.695312 L 466.578125 146.628906 L 474.277344 145.636719 L 481.886719 128.421875 L 489.5 122.847656 L 497.199219 133.375 L 504.894531 138.796875 L 512.425781 119.988281 L 520.035156 119.003906 L 527.734375 125.351562 "/>
<path fill="none" stroke-width="0.75" stroke-linecap="round" stroke-linejoin="round" stroke="rgb(0%, 0%, 0%)" stroke-opacity="1" stroke-miterlimit="10" d="M 138.222656 286.558594 L 443.742188 286.558594 "/>
<path fill="none" stroke-width="0.75" stroke-linecap="round" stroke-linejoin="round" stroke="rgb(0%, 0%, 0%)" stroke-opacity="1" stroke-miterlimit="10" d="M 138.222656 286.558594 L 138.222656 293.761719 "/>
<path fill="none" stroke-width="0.75" stroke-linecap="round" stroke-linejoin="round" stroke="rgb(0%, 0%, 0%)" stroke-opacity="1" stroke-miterlimit="10" d="M 290.980469 286.558594 L 290.980469 293.761719 "/>
<path fill="none" stroke-width="0.75" stroke-linecap="round" stroke-linejoin="round" stroke="rgb(0%, 0%, 0%)" stroke-opacity="1" stroke-miterlimit="10" d="M 443.742188 286.558594 L 443.742188 293.761719 "/>
<g fill="rgb(0%, 0%, 0%)" fill-opacity="1">
<use xlink:href="#glyph-0-0" x="124.222656" y="312.228516"/>
<use xlink:href="#glyph-0-1" x="131.222656" y="312.228516"/>
<use xlink:href="#glyph-0-1" x="138.222656" y="312.228516"/>
<use xlink:href="#glyph-0-2" x="145.222656" y="312.228516"/>
</g>
<g fill="rgb(0%, 0%, 0%)" fill-opacity="1">
<use xlink:href="#glyph-0-0" x="276.980469" y="312.228516"/>
<use xlink:href="#glyph-0-1" x="283.980469" y="312.228516"/>
<use xlink:href="#glyph-0-3" x="290.980469" y="312.228516"/>
<use xlink:href="#glyph-0-1" x="297.980469" y="312.228516"/>
</g>
<g fill="rgb(0%, 0%, 0%)" fill-opacity="1">
<use xlink:href="#glyph-0-0" x="429.742188" y="312.228516"/>
<use xlink:href="#glyph-0-1" x="436.742188" y="312.228516"/>
<use xlink:href="#glyph-0-3" x="443.742188" y="312.228516"/>
<use xlink:href="#glyph-0-2" x="450.742188" y="312.228516"/>
</g>
<path fill="none" stroke-width="0.75" stroke-linecap="round" stroke-linejoin="round" stroke="rgb(0%, 0%, 0%)" stroke-opacity="1" stroke-miterlimit="10" d="M 59.039062 257.066406 L 59.039062 99.066406 "/>
<path fill="none" stroke-width="0.75" stroke-linecap="round" stroke-linejoin="round" stroke="rgb(0%, 0%, 0%)" stroke-opacity="1" stroke-miterlimit="10" d="M 59.039062 257.066406 L 51.839844 257.066406 "/>
<path fill="none" stroke-width="0.75" stroke-linecap="round" stroke-linejoin="round" stroke="rgb(0%, 0%, 0%)" stroke-opacity="1" stroke-miterlimit="10" d="M 59.039062 204.398438 L 51.839844 204.398438 "/>
<path fill="none" stroke-width="0.75" stroke-linecap="round" stroke-linejoin="round" stroke="rgb(0%, 0%, 0%)" stroke-opacity="1" stroke-miterlimit="10" d="M 59.039062 151.734375 L 51.839844 151.734375 "/>
<path fill="none" stroke-width="0.75" stroke-linecap="round" stroke-linejoin="round" stroke="rgb(0%, 0%, 0%)" stroke-opacity="1" stroke-miterlimit="10" d="M 59.039062 99.066406 L 51.839844 99.066406 "/>
<g fill="rgb(0%, 0%, 0%)" fill-opacity="1">
<use xlink:href="#glyph-1-0" x="41.509766" y="266.066406"/>
<use xlink:href="#glyph-1-1" x="41.509766" y="262.066406"/>
<use xlink:href="#glyph-1-2" x="41.509766" y="255.066406"/>
</g>
<g fill="rgb(0%, 0%, 0%)" fill-opacity="1">
<use xlink:href="#glyph-1-0" x="41.509766" y="209.898438"/>
<use xlink:href="#glyph-1-3" x="41.509766" y="205.898438"/>
</g>
<g fill="rgb(0%, 0%, 0%)" fill-opacity="1">
<use xlink:href="#glyph-1-2" x="41.509766" y="155.234375"/>
</g>
<g fill="rgb(0%, 0%, 0%)" fill-opacity="1">
<use xlink:href="#glyph-1-3" x="41.509766" y="102.566406"/>
</g>
<path fill="none" stroke-width="0.75" stroke-linecap="round" stroke-linejoin="round" stroke="rgb(0%, 0%, 0%)" stroke-opacity="1" stroke-miterlimit="10" d="M 59.039062 286.558594 L 545.761719 286.558594 L 545.761719 59.039062 L 59.039062 59.039062 Z M 59.039062 286.558594 "/>
<g fill="rgb(0%, 0%, 0%)" fill-opacity="1">
<use xlink:href="#glyph-1-4" x="12.708984" y="214.800781"/>
<use xlink:href="#glyph-1-5" x="12.708984" y="203.800781"/>
<use xlink:href="#glyph-1-6" x="12.708984" y="196.800781"/>
<use xlink:href="#glyph-1-7" x="12.708984" y="190.800781"/>
<use xlink:href="#glyph-1-8" x="12.708984" y="183.800781"/>
<use xlink:href="#glyph-1-9" x="12.708984" y="177.800781"/>
<use xlink:href="#glyph-1-10" x="12.708984" y="174.800781"/>
<use xlink:href="#glyph-1-11" x="12.708984" y="167.800781"/>
<use xlink:href="#glyph-1-8" x="12.708984" y="157.800781"/>
<use xlink:href="#glyph-1-12" x="12.708984" y="151.800781"/>
<use xlink:href="#glyph-1-5" x="12.708984" y="147.800781"/>
<use xlink:href="#glyph-1-9" x="12.708984" y="140.800781"/>
<use xlink:href="#glyph-1-13" x="12.708984" y="137.800781"/>
</g>
<path fill="none" stroke-width="1.5" stroke-linecap="round" stroke-linejoin="round" stroke="rgb(0%, 0%, 0%)" stroke-opacity="1" stroke-dasharray="6 6" stroke-miterlimit="10" d="M 77.066406 123.660156 L 84.597656 124.269531 L 92.207031 112.875 L 99.90625 112.121094 L 107.601562 98.222656 L 115.214844 105.453125 L 122.828125 117.996094 L 130.523438 101.636719 L 138.222656 105.40625 L 145.75 109.933594 L 153.363281 114.9375 L 161.058594 119.660156 L 168.757812 124.171875 L 176.285156 118.855469 L 183.898438 130.386719 L 191.59375 134.609375 L 199.292969 133.0625 L 206.820312 137.289062 L 214.433594 141.601562 L 222.128906 132.175781 L 229.828125 135.171875 L 237.4375 148.300781 L 245.050781 141.617188 L 252.75 130.894531 L 260.445312 167.210938 L 267.976562 167.867188 L 275.585938 155.539062 L 283.285156 130.222656 L 290.980469 114.71875 L 298.511719 117.878906 L 306.121094 110 L 313.820312 106.328125 L 321.515625 120.894531 L 329.046875 139.304688 L 336.65625 123.585938 L 344.355469 115.730469 L 352.050781 116.15625 L 359.664062 117.972656 L 367.277344 123.375 L 374.972656 131.019531 L 382.671875 139.105469 L 390.199219 132.566406 L 397.8125 130.1875 L 405.507812 133.351562 L 413.207031 115.367188 L 420.734375 128.878906 L 428.347656 121.882812 L 436.042969 107.964844 L 443.742188 115.835938 L 451.269531 119.113281 L 458.882812 124.097656 L 466.578125 125.972656 L 474.277344 130.425781 L 481.886719 130.410156 L 489.5 129.816406 L 497.199219 124.34375 L 504.894531 133.296875 L 512.425781 132.640625 L 520.035156 121.867188 L 527.734375 122.640625 "/>
<path fill="none" stroke-width="1.5" stroke-linecap="round" stroke-linejoin="round" stroke="rgb(0%, 0%, 0%)" stroke-opacity="1" stroke-dasharray="6 6" stroke-miterlimit="10" d="M 77.066406 151.734375 L 527.734375 151.734375 "/>
<path fill-rule="nonzero" fill="rgb(0%, 0%, 100%)" fill-opacity="0.298039" d="M 77.066406 129.964844 L 84.597656 112.816406 L 92.207031 81.753906 L 99.90625 102.753906 L 107.601562 127.574219 L 115.214844 120.960938 L 122.828125 113.609375 L 130.523438 115.472656 L 138.222656 107.058594 L 145.75 129.792969 L 153.363281 116.484375 L 161.058594 127.722656 L 168.757812 101.417969 L 176.285156 139.160156 L 183.898438 147.96875 L 191.59375 118.882812 L 199.292969 149.132812 L 206.820312 119.628906 L 214.433594 123.488281 L 222.128906 136.722656 L 229.828125 180.59375 L 237.4375 130.871094 L 245.050781 171.976562 L 252.75 241.714844 L 260.445312 210.519531 L 267.976562 157.441406 L 275.585938 137.984375 L 283.285156 111.140625 L 290.980469 133.535156 L 298.511719 111.226562 L 306.121094 123.390625 L 313.820312 125.269531 L 321.515625 168.039062 L 329.046875 121.195312 L 336.65625 142.863281 L 344.355469 104.566406 L 352.050781 123.871094 L 359.664062 132.109375 L 367.277344 146.695312 L 374.972656 150.789062 L 382.671875 122.359375 L 390.199219 143.667969 L 397.8125 119.34375 L 405.507812 110.828125 L 413.207031 161.445312 L 420.734375 104.339844 L 428.347656 98.222656 L 436.042969 130.714844 L 443.742188 118.164062 L 451.269531 123.246094 L 458.882812 134.695312 L 466.578125 146.628906 L 474.277344 145.636719 L 481.886719 128.421875 L 489.5 122.847656 L 497.199219 133.375 L 504.894531 138.796875 L 512.425781 119.988281 L 520.035156 119.003906 L 527.734375 125.351562 L 527.734375 122.640625 L 520.035156 121.867188 L 512.425781 132.640625 L 504.894531 133.296875 L 497.199219 124.34375 L 489.5 129.816406 L 481.886719 130.410156 L 474.277344 130.425781 L 466.578125 125.972656 L 458.882812 124.097656 L 451.269531 119.113281 L 443.742188 115.835938 L 436.042969 107.964844 L 428.347656 121.882812 L 420.734375 128.878906 L 413.207031 115.367188 L 405.507812 133.351562 L 397.8125 130.1875 L 390.199219 132.566406 L 382.671875 139.105469 L 374.972656 131.019531 L 367.277344 123.375 L 359.664062 117.972656 L 352.050781 116.15625 L 344.355469 115.730469 L 336.65625 123.585938 L 329.046875 139.304688 L 321.515625 120.894531 L 313.820312 106.328125 L 306.121094 110 L 298.511719 117.878906 L 290.980469 114.71875 L 283.285156 130.222656 L 275.585938 155.539062 L 267.976562 167.867188 L 260.445312 167.210938 L 252.75 130.894531 L 245.050781 141.617188 L 237.4375 148.300781 L 229.828125 135.171875 L 222.128906 132.175781 L 214.433594 141.601562 L 206.820312 137.289062 L 199.292969 133.0625 L 191.59375 134.609375 L 183.898438 130.386719 L 176.285156 118.855469 L 168.757812 124.171875 L 161.058594 119.660156 L 153.363281 114.9375 L 145.75 109.933594 L 138.222656 105.40625 L 130.523438 101.636719 L 122.828125 117.996094 L 115.214844 105.453125 L 107.601562 98.222656 L 99.90625 112.121094 L 92.207031 112.875 L 84.597656 124.269531 L 77.066406 123.660156 Z M 77.066406 129.964844 "/>
</svg>
