<?xml version="1.0" encoding="UTF-8"?>
<svg xmlns="http://www.w3.org/2000/svg" xmlns:xlink="http://www.w3.org/1999/xlink" width="576" height="360" viewBox="0 0 576 360">
<defs>
<g>
<g id="glyph-0-0">
<path d="M 3.296875 -8.671875 C 2.515625 -8.671875 1.78125 -8.3125 1.34375 -7.734375 C 0.796875 -6.953125 0.515625 -5.8125 0.515625 -4.203125 C 0.515625 -1.265625 1.46875 0.28125 3.296875 0.28125 C 5.09375 0.28125 6.078125 -1.265625 6.078125 -4.125 C 6.078125 -5.8125 5.8125 -6.9375 5.25 -7.734375 C 4.8125 -8.328125 4.109375 -8.671875 3.296875 -8.671875 Z M 3.296875 -7.734375 C 4.4375 -7.734375 5 -6.578125 5 -4.21875 C 5 -1.75 4.453125 -0.59375 3.28125 -0.59375 C 2.15625 -0.59375 1.59375 -1.796875 1.59375 -4.1875 C 1.59375 -6.578125 2.15625 -7.734375 3.296875 -7.734375 Z M 3.296875 -7.734375 "/>
</g>
<g id="glyph-0-1">
<path d="M 5.71875 -8.515625 L 1.3125 -8.515625 L 0.6875 -3.875 L 1.65625 -3.875 C 2.140625 -4.46875 2.5625 -4.671875 3.234375 -4.671875 C 4.375 -4.671875 5.078125 -3.890625 5.078125 -2.625 C 5.078125 -1.40625 4.375 -0.65625 3.21875 -0.65625 C 2.296875 -0.65625 1.734375 -1.125 1.46875 -2.09375 L 0.421875 -2.09375 C 0.5625 -1.390625 0.6875 -1.0625 0.9375 -0.75 C 1.421875 -0.09375 2.28125 0.28125 3.234375 0.28125 C 4.953125 0.28125 6.15625 -0.96875 6.15625 -2.765625 C 6.15625 -4.453125 5.046875 -5.609375 3.40625 -5.609375 C 2.8125 -5.609375 2.328125 -5.453125 1.84375 -5.09375 L 2.171875 -7.46875 L 5.71875 -7.46875 Z M 5.71875 -8.515625 "/>
</g>
<g id="glyph-0-2">
<path d="M 3.109375 -6.1875 L 3.109375 0 L 4.15625 0 L 4.15625 -8.671875 L 3.46875 -8.671875 C 3.09375 -7.34375 2.859375 -7.15625 1.21875 -6.953125 L 1.21875 -6.1875 Z M 3.109375 -6.1875 "/>
</g>
<g id="glyph-0-3">
<path d="M 2.078125 -8.75 L 0.953125 -8.75 L 0.953125 0 L 6.390625 0 L 6.390625 -0.984375 L 2.078125 -0.984375 Z M 2.078125 -8.75 "/>
</g>
<g id="glyph-0-4">
<path d="M 6.421875 -0.59375 C 6.3125 -0.5625 6.265625 -0.5625 6.203125 -0.5625 C 5.859375 -0.5625 5.65625 -0.75 5.65625 -1.0625 L 5.65625 -4.75 C 5.65625 -5.875 4.84375 -6.46875 3.296875 -6.46875 C 2.375 -6.46875 1.640625 -6.203125 1.21875 -5.734375 C 0.921875 -5.40625 0.796875 -5.046875 0.78125 -4.421875 L 1.78125 -4.421875 C 1.875 -5.203125 2.328125 -5.546875 3.265625 -5.546875 C 4.171875 -5.546875 4.671875 -5.203125 4.671875 -4.609375 L 4.671875 -4.34375 C 4.65625 -3.90625 4.4375 -3.75 3.625 -3.640625 C 2.203125 -3.46875 1.984375 -3.421875 1.609375 -3.265625 C 0.875 -2.953125 0.5 -2.40625 0.5 -1.578125 C 0.5 -0.4375 1.296875 0.28125 2.5625 0.28125 C 3.359375 0.28125 4 0 4.703125 -0.640625 C 4.78125 0 5.09375 0.28125 5.734375 0.28125 C 5.953125 0.28125 6.078125 0.25 6.421875 0.171875 Z M 4.671875 -1.984375 C 4.671875 -1.640625 4.578125 -1.4375 4.265625 -1.15625 C 3.859375 -0.796875 3.375 -0.59375 2.78125 -0.59375 C 2 -0.59375 1.546875 -0.96875 1.546875 -1.609375 C 1.546875 -2.265625 1.984375 -2.609375 3.0625 -2.765625 C 4.125 -2.90625 4.328125 -2.953125 4.671875 -3.109375 Z M 4.671875 -1.984375 "/>
</g>
<g id="glyph-0-5">
<path d="M 4.84375 -6.28125 L 4.84375 -5.375 C 4.34375 -6.125 3.796875 -6.46875 3 -6.46875 C 1.46875 -6.46875 0.421875 -5.046875 0.421875 -3.03125 C 0.421875 -1.984375 0.671875 -1.21875 1.21875 -0.578125 C 1.6875 -0.03125 2.28125 0.28125 2.921875 0.28125 C 3.6875 0.28125 4.21875 -0.0625 4.75 -0.859375 L 4.75 -0.53125 C 4.75 1.15625 4.28125 1.78125 3.03125 1.78125 C 2.1875 1.78125 1.734375 1.4375 1.640625 0.71875 L 0.625 0.71875 C 0.71875 1.890625 1.640625 2.609375 3.015625 2.609375 C 3.9375 2.609375 4.703125 2.3125 5.109375 1.8125 C 5.59375 1.21875 5.765625 0.4375 5.765625 -1.03125 L 5.765625 -6.28125 Z M 3.09375 -5.546875 C 4.15625 -5.546875 4.75 -4.65625 4.75 -3.0625 C 4.75 -1.53125 4.140625 -0.640625 3.09375 -0.640625 C 2.0625 -0.640625 1.46875 -1.546875 1.46875 -3.09375 C 1.46875 -4.625 2.0625 -5.546875 3.09375 -5.546875 Z M 3.09375 -5.546875 "/>
</g>
<g id="glyph-1-0">
<path d="M -3.75 -3.40625 L -3.75 -0.546875 L -2.875 -0.546875 L -2.875 -3.40625 Z M -3.75 -3.40625 "/>
</g>
<g id="glyph-1-1">
<path d="M -8.671875 -3.296875 C -8.671875 -2.515625 -8.3125 -1.78125 -7.734375 -1.34375 C -6.953125 -0.796875 -5.8125 -0.515625 -4.203125 -0.515625 C -1.265625 -0.515625 0.28125 -1.46875 0.28125 -3.296875 C 0.28125 -5.09375 -1.265625 -6.078125 -4.125 -6.078125 C -5.8125 -6.078125 -6.9375 -5.8125 -7.734375 -5.25 C -8.328125 -4.8125 -8.671875 -4.109375 -8.671875 -3.296875 Z M -7.734375 -3.296875 C -7.734375 -4.4375 -6.578125 -5 -4.21875 -5 C -1.75 -5 -0.59375 -4.453125 -0.59375 -3.28125 C -0.59375 -2.15625 -1.796875 -1.59375 -4.1875 -1.59375 C -6.578125 -1.59375 -7.734375 -2.15625 -7.734375 -3.296875 Z M -7.734375 -3.296875 "/>
</g>
<g id="glyph-1-2">
<path d="M -1.25 -2.296875 L -1.25 -1.046875 L 0 -1.046875 L 0 -2.296875 Z M -1.25 -2.296875 "/>
</g>
<g id="glyph-1-3">
<path d="M -1.046875 -6.078125 L -1.046875 -1.59375 C -1.765625 -1.703125 -2.21875 -2.09375 -2.859375 -3.125 L -3.53125 -4.328125 C -4.1875 -5.515625 -5.078125 -6.125 -6.140625 -6.125 C -6.859375 -6.125 -7.53125 -5.84375 -8 -5.34375 C -8.453125 -4.84375 -8.671875 -4.21875 -8.671875 -3.40625 C -8.671875 -2.328125 -8.296875 -1.53125 -7.546875 -1.0625 C -7.09375 -0.75 -6.546875 -0.625 -5.671875 -0.59375 L -5.671875 -1.65625 C -6.265625 -1.6875 -6.609375 -1.765625 -6.90625 -1.90625 C -7.421875 -2.1875 -7.75 -2.734375 -7.75 -3.375 C -7.75 -4.328125 -7.0625 -5.046875 -6.125 -5.046875 C -5.421875 -5.046875 -4.828125 -4.65625 -4.390625 -3.90625 L -3.75 -2.796875 C -2.71875 -1.015625 -1.90625 -0.5 -0.015625 -0.40625 L -0.015625 -6.078125 Z M -1.046875 -6.078125 "/>
</g>
<g id="glyph-1-4">
<path d="M -2.09375 -3.921875 L 0 -3.921875 L 0 -4.984375 L -2.09375 -4.984375 L -2.09375 -6.234375 L -3.046875 -6.234375 L -3.046875 -4.984375 L -8.671875 -4.984375 L -8.671875 -4.203125 L -3.21875 -0.34375 L -2.09375 -0.34375 Z M -3.046875 -3.921875 L -3.046875 -1.265625 L -6.875 -3.921875 Z M -3.046875 -3.921875 "/>
</g>
<g id="glyph-1-5">
<path d="M -6.421875 -5.96875 C -7.84375 -5.765625 -8.671875 -4.859375 -8.671875 -3.5625 C -8.671875 -2.625 -8.21875 -1.78125 -7.4375 -1.28125 C -6.59375 -0.75 -5.53125 -0.515625 -3.953125 -0.515625 C -2.5 -0.515625 -1.578125 -0.71875 -0.796875 -1.234375 C -0.09375 -1.6875 0.28125 -2.4375 0.28125 -3.375 C 0.28125 -4.984375 -0.9375 -6.15625 -2.625 -6.15625 C -4.21875 -6.15625 -5.359375 -5.078125 -5.359375 -3.546875 C -5.359375 -2.71875 -5.046875 -2.046875 -4.40625 -1.59375 C -6.546875 -1.609375 -7.734375 -2.28125 -7.734375 -3.484375 C -7.734375 -4.234375 -7.265625 -4.75 -6.421875 -4.921875 Z M -4.421875 -3.421875 C -4.421875 -4.4375 -3.703125 -5.078125 -2.546875 -5.078125 C -1.453125 -5.078125 -0.65625 -4.359375 -0.65625 -3.390625 C -0.65625 -2.40625 -1.484375 -1.65625 -2.59375 -1.65625 C -3.671875 -1.65625 -4.421875 -2.375 -4.421875 -3.421875 Z M -4.421875 -3.421875 "/>
</g>
<g id="glyph-1-6">
<path d="M -4.578125 -4.6875 C -5.109375 -5.578125 -5.546875 -5.859375 -6.359375 -5.859375 C -7.734375 -5.859375 -8.671875 -4.8125 -8.671875 -3.296875 C -8.671875 -1.796875 -7.734375 -0.75 -6.375 -0.75 C -5.546875 -0.75 -5.125 -1.015625 -4.578125 -1.890625 C -4.078125 -0.921875 -3.375 -0.4375 -2.40625 -0.4375 C -0.828125 -0.4375 0.28125 -1.609375 0.28125 -3.296875 C 0.28125 -4.984375 -0.828125 -6.15625 -2.40625 -6.15625 C -3.375 -6.15625 -4.078125 -5.671875 -4.578125 -4.6875 Z M -7.734375 -3.296875 C -7.734375 -4.203125 -7.203125 -4.78125 -6.34375 -4.78125 C -5.515625 -4.78125 -4.984375 -4.1875 -4.984375 -3.296875 C -4.984375 -2.40625 -5.515625 -1.828125 -6.359375 -1.828125 C -7.203125 -1.828125 -7.734375 -2.40625 -7.734375 -3.296875 Z M -4.09375 -3.296875 C -4.09375 -4.359375 -3.390625 -5.078125 -2.390625 -5.078125 C -1.34375 -5.078125 -0.65625 -4.375 -0.65625 -3.28125 C -0.65625 -2.25 -1.375 -1.53125 -2.375 -1.53125 C -3.40625 -1.53125 -4.09375 -2.234375 -4.09375 -3.296875 Z M -4.09375 -3.296875 "/>
</g>
<g id="glyph-1-7">
<path d="M -6.1875 -3.109375 L 0 -3.109375 L 0 -4.15625 L -8.671875 -4.15625 L -8.671875 -3.46875 C -7.34375 -3.09375 -7.15625 -2.859375 -6.953125 -1.21875 L -6.1875 -1.21875 Z M -6.1875 -3.109375 "/>
</g>
<g id="glyph-1-8">
<path d="M -2.625 -5.6875 L 0 -6.59375 L 0 -7.84375 L -8.75 -4.765625 L -8.75 -3.328125 L 0 -0.203125 L 0 -1.390625 L -2.625 -2.3125 Z M -3.5625 -5.375 L -3.5625 -2.59375 L -7.546875 -4.03125 Z M -3.5625 -5.375 "/>
</g>
<g id="glyph-1-9">
<path d="M -6.03125 -7.9375 C -7.953125 -7.59375 -8.890625 -6.484375 -8.890625 -4.578125 C -8.890625 -3.390625 -8.515625 -2.453125 -7.796875 -1.796875 C -6.9375 -1.015625 -5.6875 -0.578125 -4.265625 -0.578125 C -2.828125 -0.578125 -1.59375 -1.015625 -0.75 -1.84375 C -0.046875 -2.515625 0.28125 -3.390625 0.28125 -4.53125 C 0.28125 -6.65625 -0.875 -7.859375 -3.1875 -8.125 L -3.1875 -6.96875 C -2.59375 -6.875 -2.1875 -6.75 -1.84375 -6.578125 C -1.109375 -6.21875 -0.703125 -5.46875 -0.703125 -4.53125 C -0.703125 -2.796875 -2.09375 -1.6875 -4.28125 -1.6875 C -6.53125 -1.6875 -7.90625 -2.734375 -7.90625 -4.4375 C -7.90625 -5.140625 -7.703125 -5.8125 -7.359375 -6.171875 C -7.0625 -6.484375 -6.703125 -6.671875 -6.03125 -6.796875 Z M -6.03125 -7.9375 "/>
</g>
<g id="glyph-1-10">
<path d="M -3.984375 -2.203125 L -3.984375 -6.375 L -4.96875 -6.375 L -4.96875 -2.203125 L -7.765625 -2.203125 L -7.765625 -6.953125 L -8.75 -6.953125 L -8.75 -1.078125 L 0 -1.078125 L 0 -2.203125 Z M -3.984375 -2.203125 "/>
</g>
<g id="glyph-2-0">
<path d="M 8.75 -7.296875 C 8.734375 -9.484375 7.28125 -10.671875 4.625 -10.671875 C 2.109375 -10.671875 0.640625 -9.5 0.640625 -7.453125 C 0.640625 -5.8125 1.46875 -5.03125 3.59375 -4.625 L 5.078125 -4.34375 C 6.515625 -4.0625 7.046875 -3.65625 7.046875 -2.8125 C 7.046875 -1.9375 6.234375 -1.390625 4.921875 -1.390625 C 3.453125 -1.390625 2.640625 -2.015625 2.5625 -3.140625 L 0.46875 -3.140625 C 0.59375 -0.890625 2.125 0.328125 4.8125 0.328125 C 7.515625 0.328125 9.125 -0.921875 9.125 -3.0625 C 9.125 -4.71875 8.28125 -5.59375 6.34375 -5.96875 L 4.703125 -6.28125 C 3.15625 -6.578125 2.703125 -6.890625 2.703125 -7.65625 C 2.703125 -8.4375 3.40625 -8.953125 4.53125 -8.953125 C 5.890625 -8.953125 6.65625 -8.375 6.734375 -7.296875 Z M 8.75 -7.296875 "/>
</g>
<g id="glyph-2-1">
<path d="M 7.546875 -3.25 C 7.5625 -3.421875 7.5625 -3.5 7.5625 -3.59375 C 7.5625 -4.375 7.453125 -5.09375 7.265625 -5.640625 C 6.734375 -7.0625 5.484375 -7.90625 3.921875 -7.90625 C 1.6875 -7.90625 0.3125 -6.296875 0.3125 -3.6875 C 0.3125 -1.203125 1.671875 0.328125 3.875 0.328125 C 5.625 0.328125 7.03125 -0.640625 7.484375 -2.1875 L 5.484375 -2.1875 C 5.25 -1.5625 4.6875 -1.203125 3.953125 -1.203125 C 3.375 -1.203125 2.90625 -1.453125 2.625 -1.890625 C 2.4375 -2.171875 2.359375 -2.515625 2.328125 -3.25 Z M 2.359375 -4.59375 C 2.5 -5.796875 3 -6.375 3.890625 -6.375 C 4.8125 -6.375 5.359375 -5.75 5.453125 -4.59375 Z M 2.359375 -4.59375 "/>
</g>
<g id="glyph-2-2">
<path d="M 0.90625 -7.78125 L 0.90625 0 L 2.921875 0 L 2.921875 -4.140625 C 2.921875 -5.3125 3.515625 -5.90625 4.703125 -5.90625 C 4.90625 -5.90625 5.0625 -5.890625 5.328125 -5.84375 L 5.328125 -7.890625 C 5.21875 -7.90625 5.171875 -7.90625 5.078125 -7.90625 C 4.15625 -7.90625 3.375 -7.296875 2.921875 -6.25 L 2.921875 -7.78125 Z M 0.90625 -7.78125 "/>
</g>
<g id="glyph-2-3">
<path d="M 2.984375 -7.78125 L 0.96875 -7.78125 L 0.96875 0 L 2.984375 0 Z M 2.984375 -10.5 L 0.96875 -10.5 L 0.96875 -8.703125 L 2.984375 -8.703125 Z M 2.984375 -10.5 "/>
</g>
<g id="glyph-2-4">
<path d="M 7.28125 -5.265625 C 7.25 -6.921875 5.984375 -7.90625 3.890625 -7.90625 C 1.921875 -7.90625 0.6875 -6.921875 0.6875 -5.3125 C 0.6875 -4.796875 0.84375 -4.34375 1.125 -4.046875 C 1.390625 -3.78125 1.640625 -3.640625 2.390625 -3.40625 L 4.796875 -2.65625 C 5.296875 -2.5 5.46875 -2.328125 5.46875 -2.015625 C 5.46875 -1.546875 4.90625 -1.25 3.96875 -1.25 C 3.4375 -1.25 3.046875 -1.34375 2.78125 -1.53125 C 2.5625 -1.6875 2.484375 -1.84375 2.390625 -2.265625 L 0.421875 -2.265625 C 0.46875 -0.546875 1.734375 0.328125 4.09375 0.328125 C 5.171875 0.328125 6 0.09375 6.5625 -0.359375 C 7.140625 -0.828125 7.484375 -1.546875 7.484375 -2.3125 C 7.484375 -3.3125 6.984375 -3.96875 5.96875 -4.265625 L 3.421875 -5 C 2.859375 -5.171875 2.703125 -5.28125 2.703125 -5.609375 C 2.703125 -6.03125 3.171875 -6.328125 3.875 -6.328125 C 4.84375 -6.328125 5.3125 -5.984375 5.328125 -5.265625 Z M 7.28125 -5.265625 "/>
</g>
<g id="glyph-2-5">
</g>
<g id="glyph-2-6">
<path d="M 7.21875 -2.125 L 7.90625 0 L 10.125 0 L 6.5 -10.5 L 4.109375 -10.5 L 0.375 0 L 2.578125 0 L 3.28125 -2.125 Z M 6.625 -3.921875 L 3.890625 -3.921875 L 5.265625 -8.03125 Z M 6.625 -3.921875 "/>
</g>
<g id="glyph-2-7">
<path d="M 1.109375 0 L 5.21875 0 C 6.8125 0 7.828125 -0.375 8.546875 -1.21875 C 9.359375 -2.203125 9.8125 -3.609375 9.8125 -5.265625 C 9.8125 -6.890625 9.359375 -8.296875 8.546875 -9.296875 C 7.828125 -10.140625 6.828125 -10.5 5.21875 -10.5 L 1.109375 -10.5 Z M 3.265625 -1.796875 L 3.265625 -8.703125 L 5.21875 -8.703125 C 6.84375 -8.703125 7.65625 -7.5625 7.65625 -5.25 C 7.65625 -2.9375 6.84375 -1.796875 5.21875 -1.796875 Z M 3.265625 -1.796875 "/>
</g>
<g id="glyph-2-8">
<path d="M 3.3125 -10.5 L 1.15625 -10.5 L 1.15625 0 L 8.34375 0 L 8.34375 -1.796875 L 3.3125 -1.796875 Z M 3.3125 -10.5 "/>
</g>
<g id="glyph-2-9">
<path d="M 3.9375 -10.4375 C 2.84375 -10.4375 1.90625 -9.96875 1.28125 -9.125 C 0.6875 -8.328125 0.421875 -7.03125 0.421875 -5.046875 C 0.421875 -3.234375 0.640625 -1.953125 1.140625 -1.1875 C 1.75 -0.203125 2.734375 0.328125 3.9375 0.328125 C 5.046875 0.328125 5.953125 -0.109375 6.578125 -0.96875 C 7.15625 -1.75 7.453125 -3.0625 7.453125 -4.984375 C 7.453125 -6.859375 7.21875 -8.125 6.734375 -8.921875 C 6.125 -9.890625 5.125 -10.4375 3.9375 -10.4375 Z M 3.9375 -8.796875 C 4.453125 -8.796875 4.875 -8.515625 5.109375 -7.984375 C 5.3125 -7.546875 5.4375 -6.4375 5.4375 -5.03125 C 5.4375 -3.875 5.328125 -2.75 5.171875 -2.328125 C 4.9375 -1.734375 4.515625 -1.390625 3.9375 -1.390625 C 3.40625 -1.390625 3 -1.671875 2.75 -2.1875 C 2.546875 -2.625 2.4375 -3.6875 2.4375 -5.0625 C 2.4375 -6.265625 2.53125 -7.421875 2.6875 -7.84375 C 2.90625 -8.453125 3.359375 -8.796875 3.9375 -8.796875 Z M 3.9375 -8.796875 "/>
</g>
<g id="glyph-2-10">
<path d="M 7.375 -1.796875 L 3.046875 -1.796875 C 3.3125 -2.34375 3.625 -2.65625 5.125 -3.734375 C 6.90625 -5.03125 7.421875 -5.796875 7.421875 -7.1875 C 7.421875 -9.15625 6.046875 -10.4375 3.921875 -10.4375 C 1.796875 -10.4375 0.5625 -9.171875 0.5625 -7.015625 L 0.5625 -6.65625 L 2.5 -6.65625 L 2.5 -6.984375 C 2.5 -8.125 3.046875 -8.78125 3.96875 -8.78125 C 4.859375 -8.78125 5.40625 -8.171875 5.40625 -7.140625 C 5.40625 -6 5.0625 -5.59375 2.78125 -3.96875 C 1.046875 -2.796875 0.515625 -1.90625 0.4375 0 L 7.375 0 Z M 7.375 -1.796875 "/>
</g>
<g id="glyph-2-11">
<path d="M 3.078125 -2.109375 L 0.921875 -2.109375 L 0.921875 0 L 3.078125 0 Z M 3.078125 -2.109375 "/>
</g>
<g id="glyph-2-12">
<path d="M 3.25 -3.75 L 5.953125 -3.75 C 7.875 -3.75 9.125 -5.109375 9.125 -7.25 C 9.125 -9.34375 7.921875 -10.5 5.734375 -10.5 L 1.09375 -10.5 L 1.09375 0 L 3.25 0 Z M 3.25 -5.546875 L 3.25 -8.703125 L 5.265625 -8.703125 C 6.421875 -8.703125 6.953125 -8.203125 6.953125 -7.125 C 6.953125 -6.046875 6.421875 -5.546875 5.265625 -5.546875 Z M 3.25 -5.546875 "/>
</g>
<g id="glyph-2-13">
<path d="M 5.625 -10.671875 C 4.15625 -10.671875 2.9375 -10.1875 2.046875 -9.21875 C 1.109375 -8.21875 0.578125 -6.734375 0.578125 -5.171875 C 0.578125 -3.59375 1.109375 -2.125 2.046875 -1.125 C 2.953125 -0.140625 4.140625 0.328125 5.640625 0.328125 C 7.125 0.328125 8.3125 -0.140625 9.21875 -1.125 C 10.125 -2.09375 10.6875 -3.609375 10.6875 -5.09375 C 10.6875 -6.734375 10.15625 -8.21875 9.21875 -9.21875 C 8.296875 -10.21875 7.140625 -10.671875 5.625 -10.671875 Z M 5.640625 -8.828125 C 7.40625 -8.828125 8.53125 -7.390625 8.53125 -5.109375 C 8.53125 -2.953125 7.359375 -1.515625 5.640625 -1.515625 C 3.875 -1.515625 2.734375 -2.953125 2.734375 -5.171875 C 2.734375 -7.390625 3.875 -8.828125 5.640625 -8.828125 Z M 5.640625 -8.828125 "/>
</g>
<g id="glyph-2-14">
<path d="M 0.96875 -10.5 L 0.96875 0 L 2.984375 0 L 2.984375 -4.671875 C 2.984375 -5.5625 3.625 -6.1875 4.53125 -6.1875 C 4.984375 -6.1875 5.3125 -6.03125 5.546875 -5.71875 C 5.734375 -5.453125 5.78125 -5.25 5.78125 -4.75 L 5.78125 0 L 7.796875 0 L 7.796875 -5.21875 C 7.796875 -6.1875 7.53125 -6.875 7 -7.3125 C 6.5625 -7.6875 5.90625 -7.90625 5.265625 -7.90625 C 4.265625 -7.90625 3.546875 -7.515625 2.984375 -6.65625 L 2.984375 -10.5 Z M 0.96875 -10.5 "/>
</g>
<g id="glyph-2-15">
<path d="M 3.421875 -7.046875 L 3.421875 0 L 5.453125 0 L 5.453125 -10.21875 L 4.109375 -10.21875 C 3.78125 -9 2.734375 -8.390625 0.984375 -8.390625 L 0.984375 -7.046875 Z M 3.421875 -7.046875 "/>
</g>
<g id="glyph-2-16">
<path d="M 7.453125 -7.171875 C 7.421875 -8.96875 6.296875 -10.109375 4.484375 -10.21875 L 4.484375 -10.984375 L 3.5 -10.984375 L 3.5 -10.21875 C 1.640625 -10.046875 0.5625 -8.984375 0.5625 -7.375 C 0.5625 -5.78125 1.5625 -4.75 3.5 -4.3125 L 3.5 -1.234375 C 2.6875 -1.390625 2.25 -1.96875 2.203125 -2.984375 L 0.3125 -2.984375 L 0.3125 -2.859375 C 0.3125 -1.796875 0.75 -0.953125 1.5625 -0.359375 C 2.109375 0.03125 2.640625 0.21875 3.5 0.296875 L 3.5 1.8125 L 4.484375 1.8125 L 4.484375 0.296875 C 5.265625 0.21875 5.875 0.015625 6.359375 -0.28125 C 7.125 -0.796875 7.59375 -1.71875 7.59375 -2.8125 C 7.59375 -4.390625 6.734375 -5.25 4.484375 -5.859375 L 4.484375 -8.765625 C 5.21875 -8.65625 5.640625 -8.046875 5.609375 -7.171875 Z M 3.5 -6.15625 C 2.6875 -6.40625 2.328125 -6.796875 2.328125 -7.4375 C 2.328125 -8.1875 2.703125 -8.59375 3.5 -8.765625 Z M 4.484375 -4.0625 C 5.28125 -3.8125 5.6875 -3.328125 5.6875 -2.640625 C 5.6875 -1.921875 5.28125 -1.4375 4.484375 -1.234375 Z M 4.484375 -4.0625 "/>
</g>
<g id="glyph-2-17">
<path d="M 7.796875 0 L 7.796875 -7.78125 L 5.78125 -7.78125 L 5.78125 -2.90625 C 5.78125 -1.984375 5.140625 -1.390625 4.15625 -1.390625 C 3.28125 -1.390625 2.859375 -1.84375 2.859375 -2.78125 L 2.859375 -7.78125 L 0.828125 -7.78125 L 0.828125 -2.359375 C 0.828125 -0.640625 1.765625 0.328125 3.4375 0.328125 C 4.5 0.328125 5.203125 -0.046875 5.78125 -0.921875 L 5.78125 0 Z M 7.796875 0 "/>
</g>
<g id="glyph-2-18">
<path d="M 4.34375 -7.625 L 3.21875 -7.625 L 3.21875 -9.703125 L 1.203125 -9.703125 L 1.203125 -7.625 L 0.203125 -7.625 L 0.203125 -6.28125 L 1.203125 -6.28125 L 1.203125 -1.5 C 1.203125 -0.28125 1.84375 0.328125 3.171875 0.328125 C 3.625 0.328125 3.96875 0.28125 4.34375 0.171875 L 4.34375 -1.234375 C 4.140625 -1.203125 4.03125 -1.203125 3.875 -1.203125 C 3.34375 -1.203125 3.21875 -1.359375 3.21875 -2.046875 L 3.21875 -6.28125 L 4.34375 -6.28125 Z M 4.34375 -7.625 "/>
</g>
<g id="glyph-2-19">
<path d="M 2.984375 -10.5 L 0.96875 -10.5 L 0.96875 0 L 2.984375 0 Z M 2.984375 -10.5 "/>
</g>
<g id="glyph-2-20">
<path d="M 4.4375 -10.5 L 0.953125 -10.5 L 0.953125 2.875 L 4.4375 2.875 L 4.4375 1.40625 L 2.828125 1.40625 L 2.828125 -9.03125 L 4.4375 -9.03125 Z M 4.4375 -10.5 "/>
</g>
<g id="glyph-2-21">
<path d="M 0.921875 -2.109375 L 0.921875 0 L 2.15625 0 C 2.1875 0.984375 1.78125 1.546875 0.921875 1.703125 L 0.921875 2.5 C 2.46875 2.28125 3.140625 1.453125 3.078125 -0.125 L 3.078125 -2.109375 Z M 0.921875 -2.109375 "/>
</g>
<g id="glyph-2-22">
<path d="M 0.265625 2.875 L 3.75 2.875 L 3.75 -10.5 L 0.265625 -10.5 L 0.265625 -9.03125 L 1.875 -9.03125 L 1.875 1.40625 L 0.265625 1.40625 Z M 0.265625 2.875 "/>
</g>
</g>
<clipPath id="clip-0">
<path clip-rule="nonzero" d="M 59.039062 235 L 545.757812 235 L 545.757812 236 L 59.039062 236 Z M 59.039062 235 "/>
</clipPath>
<clipPath id="clip-1">
<path clip-rule="nonzero" d="M 59.039062 192 L 545.757812 192 L 545.757812 194 L 59.039062 194 Z M 59.039062 192 "/>
</clipPath>
<clipPath id="clip-2">
<path clip-rule="nonzero" d="M 59.039062 277 L 545.757812 277 L 545.757812 279 L 59.039062 279 Z M 59.039062 277 "/>
</clipPath>
</defs>
<rect x="-57.6" y="-36" width="691.2" height="432" fill="rgb(100%, 100%, 100%)" fill-opacity="1"/>
<path fill="none" stroke-width="0.75" stroke-linecap="round" stroke-linejoin="round" stroke="rgb(0%, 0%, 0%)" stroke-opacity="1" stroke-miterlimit="10" d="M 77.066406 235.59375 L 77.066406 67.464844 "/>
<path fill="none" stroke-width="0.75" stroke-linecap="round" stroke-linejoin="round" stroke="rgb(0%, 0%, 0%)" stroke-opacity="1" stroke-miterlimit="10" d="M 103.578125 235.59375 L 103.578125 221.070312 "/>
<path fill="none" stroke-width="0.75" stroke-linecap="round" stroke-linejoin="round" stroke="rgb(0%, 0%, 0%)" stroke-opacity="1" stroke-miterlimit="10" d="M 130.085938 235.59375 L 130.085938 263.027344 "/>
<path fill="none" stroke-width="0.75" stroke-linecap="round" stroke-linejoin="round" stroke="rgb(0%, 0%, 0%)" stroke-opacity="1" stroke-miterlimit="10" d="M 156.597656 235.59375 L 156.597656 233.847656 "/>
<path fill="none" stroke-width="0.75" stroke-linecap="round" stroke-linejoin="round" stroke="rgb(0%, 0%, 0%)" stroke-opacity="1" stroke-miterlimit="10" d="M 183.105469 235.59375 L 183.105469 247.570312 "/>
<path fill="none" stroke-width="0.75" stroke-linecap="round" stroke-linejoin="round" stroke="rgb(0%, 0%, 0%)" stroke-opacity="1" stroke-miterlimit="10" d="M 209.617188 235.59375 L 209.617188 262.988281 "/>
<path fill="none" stroke-width="0.75" stroke-linecap="round" stroke-linejoin="round" stroke="rgb(0%, 0%, 0%)" stroke-opacity="1" stroke-miterlimit="10" d="M 236.125 235.59375 L 236.125 251.171875 "/>
<path fill="none" stroke-width="0.75" stroke-linecap="round" stroke-linejoin="round" stroke="rgb(0%, 0%, 0%)" stroke-opacity="1" stroke-miterlimit="10" d="M 262.636719 235.59375 L 262.636719 237.214844 "/>
<path fill="none" stroke-width="0.75" stroke-linecap="round" stroke-linejoin="round" stroke="rgb(0%, 0%, 0%)" stroke-opacity="1" stroke-miterlimit="10" d="M 289.144531 235.59375 L 289.144531 232.351562 "/>
<path fill="none" stroke-width="0.75" stroke-linecap="round" stroke-linejoin="round" stroke="rgb(0%, 0%, 0%)" stroke-opacity="1" stroke-miterlimit="10" d="M 315.65625 235.59375 L 315.65625 207.5 "/>
<path fill="none" stroke-width="0.75" stroke-linecap="round" stroke-linejoin="round" stroke="rgb(0%, 0%, 0%)" stroke-opacity="1" stroke-miterlimit="10" d="M 342.164062 235.59375 L 342.164062 229.109375 "/>
<path fill="none" stroke-width="0.75" stroke-linecap="round" stroke-linejoin="round" stroke="rgb(0%, 0%, 0%)" stroke-opacity="1" stroke-miterlimit="10" d="M 368.675781 235.59375 L 368.675781 257.128906 "/>
<path fill="none" stroke-width="0.75" stroke-linecap="round" stroke-linejoin="round" stroke="rgb(0%, 0%, 0%)" stroke-opacity="1" stroke-miterlimit="10" d="M 395.183594 235.59375 L 395.183594 233.835938 "/>
<path fill="none" stroke-width="0.75" stroke-linecap="round" stroke-linejoin="round" stroke="rgb(0%, 0%, 0%)" stroke-opacity="1" stroke-miterlimit="10" d="M 421.695312 235.59375 L 421.695312 245.171875 "/>
<path fill="none" stroke-width="0.75" stroke-linecap="round" stroke-linejoin="round" stroke="rgb(0%, 0%, 0%)" stroke-opacity="1" stroke-miterlimit="10" d="M 448.203125 235.59375 L 448.203125 226.695312 "/>
<path fill="none" stroke-width="0.75" stroke-linecap="round" stroke-linejoin="round" stroke="rgb(0%, 0%, 0%)" stroke-opacity="1" stroke-miterlimit="10" d="M 474.714844 235.59375 L 474.714844 214.625 "/>
<path fill="none" stroke-width="0.75" stroke-linecap="round" stroke-linejoin="round" stroke="rgb(0%, 0%, 0%)" stroke-opacity="1" stroke-miterlimit="10" d="M 501.222656 235.59375 L 501.222656 211.585938 "/>
<path fill="none" stroke-width="0.75" stroke-linecap="round" stroke-linejoin="round" stroke="rgb(0%, 0%, 0%)" stroke-opacity="1" stroke-miterlimit="10" d="M 527.734375 235.59375 L 527.734375 253.777344 "/>
<path fill="none" stroke-width="0.75" stroke-linecap="round" stroke-linejoin="round" stroke="rgb(0%, 0%, 0%)" stroke-opacity="1" stroke-miterlimit="10" d="M 77.066406 286.558594 L 474.714844 286.558594 "/>
<path fill="none" stroke-width="0.75" stroke-linecap="round" stroke-linejoin="round" stroke="rgb(0%, 0%, 0%)" stroke-opacity="1" stroke-miterlimit="10" d="M 77.066406 286.558594 L 77.066406 293.761719 "/>
<path fill="none" stroke-width="0.75" stroke-linecap="round" stroke-linejoin="round" stroke="rgb(0%, 0%, 0%)" stroke-opacity="1" stroke-miterlimit="10" d="M 209.617188 286.558594 L 209.617188 293.761719 "/>
<path fill="none" stroke-width="0.75" stroke-linecap="round" stroke-linejoin="round" stroke="rgb(0%, 0%, 0%)" stroke-opacity="1" stroke-miterlimit="10" d="M 342.164062 286.558594 L 342.164062 293.761719 "/>
<path fill="none" stroke-width="0.75" stroke-linecap="round" stroke-linejoin="round" stroke="rgb(0%, 0%, 0%)" stroke-opacity="1" stroke-miterlimit="10" d="M 474.714844 286.558594 L 474.714844 293.761719 "/>
<g fill="rgb(0%, 0%, 0%)" fill-opacity="1">
<use xlink:href="#glyph-0-0" x="73.566406" y="312.228516"/>
</g>
<g fill="rgb(0%, 0%, 0%)" fill-opacity="1">
<use xlink:href="#glyph-0-1" x="206.117188" y="312.228516"/>
</g>
<g fill="rgb(0%, 0%, 0%)" fill-opacity="1">
<use xlink:href="#glyph-0-2" x="335.164062" y="312.228516"/>
<use xlink:href="#glyph-0-0" x="342.164062" y="312.228516"/>
</g>
<g fill="rgb(0%, 0%, 0%)" fill-opacity="1">
<use xlink:href="#glyph-0-2" x="467.714844" y="312.228516"/>
<use xlink:href="#glyph-0-1" x="474.714844" y="312.228516"/>
</g>
<path fill="none" stroke-width="0.75" stroke-linecap="round" stroke-linejoin="round" stroke="rgb(0%, 0%, 0%)" stroke-opacity="1" stroke-miterlimit="10" d="M 59.039062 269.21875 L 59.039062 67.464844 "/>
<path fill="none" stroke-width="0.75" stroke-linecap="round" stroke-linejoin="round" stroke="rgb(0%, 0%, 0%)" stroke-opacity="1" stroke-miterlimit="10" d="M 59.039062 269.21875 L 51.839844 269.21875 "/>
<path fill="none" stroke-width="0.75" stroke-linecap="round" stroke-linejoin="round" stroke="rgb(0%, 0%, 0%)" stroke-opacity="1" stroke-miterlimit="10" d="M 59.039062 235.59375 L 51.839844 235.59375 "/>
<path fill="none" stroke-width="0.75" stroke-linecap="round" stroke-linejoin="round" stroke="rgb(0%, 0%, 0%)" stroke-opacity="1" stroke-miterlimit="10" d="M 59.039062 201.96875 L 51.839844 201.96875 "/>
<path fill="none" stroke-width="0.75" stroke-linecap="round" stroke-linejoin="round" stroke="rgb(0%, 0%, 0%)" stroke-opacity="1" stroke-miterlimit="10" d="M 59.039062 168.34375 L 51.839844 168.34375 "/>
<path fill="none" stroke-width="0.75" stroke-linecap="round" stroke-linejoin="round" stroke="rgb(0%, 0%, 0%)" stroke-opacity="1" stroke-miterlimit="10" d="M 59.039062 134.71875 L 51.839844 134.71875 "/>
<path fill="none" stroke-width="0.75" stroke-linecap="round" stroke-linejoin="round" stroke="rgb(0%, 0%, 0%)" stroke-opacity="1" stroke-miterlimit="10" d="M 59.039062 101.09375 L 51.839844 101.09375 "/>
<path fill="none" stroke-width="0.75" stroke-linecap="round" stroke-linejoin="round" stroke="rgb(0%, 0%, 0%)" stroke-opacity="1" stroke-miterlimit="10" d="M 59.039062 67.464844 L 51.839844 67.464844 "/>
<g fill="rgb(0%, 0%, 0%)" fill-opacity="1">
<use xlink:href="#glyph-1-0" x="41.509766" y="279.71875"/>
<use xlink:href="#glyph-1-1" x="41.509766" y="275.71875"/>
<use xlink:href="#glyph-1-2" x="41.509766" y="268.71875"/>
<use xlink:href="#glyph-1-3" x="41.509766" y="265.71875"/>
</g>
<g fill="rgb(0%, 0%, 0%)" fill-opacity="1">
<use xlink:href="#glyph-1-1" x="41.509766" y="244.09375"/>
<use xlink:href="#glyph-1-2" x="41.509766" y="237.09375"/>
<use xlink:href="#glyph-1-1" x="41.509766" y="234.09375"/>
</g>
<g fill="rgb(0%, 0%, 0%)" fill-opacity="1">
<use xlink:href="#glyph-1-1" x="41.509766" y="210.46875"/>
<use xlink:href="#glyph-1-2" x="41.509766" y="203.46875"/>
<use xlink:href="#glyph-1-3" x="41.509766" y="200.46875"/>
</g>
<g fill="rgb(0%, 0%, 0%)" fill-opacity="1">
<use xlink:href="#glyph-1-1" x="41.509766" y="176.84375"/>
<use xlink:href="#glyph-1-2" x="41.509766" y="169.84375"/>
<use xlink:href="#glyph-1-4" x="41.509766" y="166.84375"/>
</g>
<g fill="rgb(0%, 0%, 0%)" fill-opacity="1">
<use xlink:href="#glyph-1-1" x="41.509766" y="143.21875"/>
<use xlink:href="#glyph-1-2" x="41.509766" y="136.21875"/>
<use xlink:href="#glyph-1-5" x="41.509766" y="133.21875"/>
</g>
<g fill="rgb(0%, 0%, 0%)" fill-opacity="1">
<use xlink:href="#glyph-1-1" x="41.509766" y="109.59375"/>
<use xlink:href="#glyph-1-2" x="41.509766" y="102.59375"/>
<use xlink:href="#glyph-1-6" x="41.509766" y="99.59375"/>
</g>
<g fill="rgb(0%, 0%, 0%)" fill-opacity="1">
<use xlink:href="#glyph-1-7" x="41.509766" y="75.964844"/>
<use xlink:href="#glyph-1-2" x="41.509766" y="68.964844"/>
<use xlink:href="#glyph-1-1" x="41.509766" y="65.964844"/>
</g>
<path fill="none" stroke-width="0.75" stroke-linecap="round" stroke-linejoin="round" stroke="rgb(0%, 0%, 0%)" stroke-opacity="1" stroke-miterlimit="10" d="M 59.039062 286.558594 L 545.761719 286.558594 L 545.761719 59.039062 L 59.039062 59.039062 Z M 59.039062 286.558594 "/>
<g fill="rgb(0%, 0%, 0%)" fill-opacity="1">
<use xlink:href="#glyph-0-3" x="291.898438" y="341.029297"/>
<use xlink:href="#glyph-0-4" x="298.898438" y="341.029297"/>
<use xlink:href="#glyph-0-5" x="305.898438" y="341.029297"/>
</g>
<g fill="rgb(0%, 0%, 0%)" fill-opacity="1">
<use xlink:href="#glyph-1-8" x="12.708984" y="184.800781"/>
<use xlink:href="#glyph-1-9" x="12.708984" y="176.800781"/>
<use xlink:href="#glyph-1-10" x="12.708984" y="167.800781"/>
</g>
<g clip-path="url(#clip-0)">
<path fill="none" stroke-width="0.75" stroke-linecap="round" stroke-linejoin="round" stroke="rgb(0%, 0%, 0%)" stroke-opacity="1" stroke-miterlimit="10" d="M 59.039062 235.59375 L 545.761719 235.59375 "/>
</g>
<g clip-path="url(#clip-1)">
<path fill="none" stroke-width="0.75" stroke-linecap="round" stroke-linejoin="round" stroke="rgb(0%, 0%, 100%)" stroke-opacity="1" stroke-dasharray="3 3" stroke-miterlimit="10" d="M 59.039062 193.050781 L 545.761719 193.050781 "/>
</g>
<g clip-path="url(#clip-2)">
<path fill="none" stroke-width="0.75" stroke-linecap="round" stroke-linejoin="round" stroke="rgb(0%, 0%, 100%)" stroke-opacity="1" stroke-dasharray="3 3" stroke-miterlimit="10" d="M 59.039062 278.132812 L 545.761719 278.132812 "/>
</g>
<g fill="rgb(0%, 0%, 0%)" fill-opacity="1">
<use xlink:href="#glyph-2-0" x="182.398438" y="29.735352"/>
<use xlink:href="#glyph-2-1" x="192.398438" y="29.735352"/>
<use xlink:href="#glyph-2-2" x="200.398438" y="29.735352"/>
<use xlink:href="#glyph-2-3" x="206.398438" y="29.735352"/>
<use xlink:href="#glyph-2-1" x="210.398438" y="29.735352"/>
<use xlink:href="#glyph-2-4" x="218.398438" y="29.735352"/>
<use xlink:href="#glyph-2-5" x="226.398438" y="29.735352"/>
<use xlink:href="#glyph-2-5" x="230.398438" y="29.735352"/>
<use xlink:href="#glyph-2-6" x="234.398438" y="29.735352"/>
<use xlink:href="#glyph-2-7" x="244.398438" y="29.735352"/>
<use xlink:href="#glyph-2-8" x="254.398438" y="29.735352"/>
<use xlink:href="#glyph-2-9" x="263.398438" y="29.735352"/>
<use xlink:href="#glyph-2-10" x="271.398438" y="29.735352"/>
<use xlink:href="#glyph-2-9" x="279.398438" y="29.735352"/>
<use xlink:href="#glyph-2-10" x="287.398438" y="29.735352"/>
<use xlink:href="#glyph-2-11" x="295.398438" y="29.735352"/>
<use xlink:href="#glyph-2-12" x="299.398438" y="29.735352"/>
<use xlink:href="#glyph-2-13" x="309.398438" y="29.735352"/>
<use xlink:href="#glyph-2-13" x="320.398438" y="29.735352"/>
<use xlink:href="#glyph-2-0" x="331.398438" y="29.735352"/>
<use xlink:href="#glyph-2-11" x="341.398438" y="29.735352"/>
<use xlink:href="#glyph-2-14" x="345.398438" y="29.735352"/>
<use xlink:href="#glyph-2-15" x="354.398438" y="29.735352"/>
<use xlink:href="#glyph-2-16" x="362.398438" y="29.735352"/>
<use xlink:href="#glyph-2-17" x="370.398438" y="29.735352"/>
<use xlink:href="#glyph-2-11" x="379.398438" y="29.735352"/>
<use xlink:href="#glyph-2-18" x="383.398438" y="29.735352"/>
<use xlink:href="#glyph-2-3" x="388.398438" y="29.735352"/>
<use xlink:href="#glyph-2-19" x="392.398438" y="29.735352"/>
<use xlink:href="#glyph-2-20" x="396.398438" y="29.735352"/>
<use xlink:href="#glyph-2-21" x="401.398438" y="29.735352"/>
<use xlink:href="#glyph-2-5" x="405.398438" y="29.735352"/>
<use xlink:href="#glyph-2-15" x="409.398438" y="29.735352"/>
<use xlink:href="#glyph-2-22" x="417.398438" y="29.735352"/>
</g>
</svg>
