<?xml version="1.0" encoding="UTF-8"?>
<svg xmlns="http://www.w3.org/2000/svg" xmlns:xlink="http://www.w3.org/1999/xlink" width="576" height="360" viewBox="0 0 576 360">
<defs>
<g>
<g id="glyph-0-0">
<path d="M 1.515625 -2.25 L 2.5625 -3.296875 L 4.828125 0 L 5.78125 0 L 3.15625 -3.796875 L 5.765625 -6.40625 L 4.703125 -6.40625 L 1.515625 -3.171875 L 1.515625 -6.40625 L 0.6875 -6.40625 L 0.6875 0 L 1.515625 0 Z M 1.515625 -2.25 "/>
</g>
<g id="glyph-0-1">
<path d="M 2.390625 -4.734375 C 1.09375 -4.734375 0.3125 -3.8125 0.3125 -2.265625 C 0.3125 -0.71875 1.09375 0.203125 2.40625 0.203125 C 3.703125 0.203125 4.484375 -0.71875 4.484375 -2.234375 C 4.484375 -3.828125 3.734375 -4.734375 2.390625 -4.734375 Z M 2.40625 -4.0625 C 3.234375 -4.0625 3.71875 -3.390625 3.71875 -2.25 C 3.71875 -1.15625 3.203125 -0.46875 2.40625 -0.46875 C 1.578125 -0.46875 1.078125 -1.15625 1.078125 -2.265625 C 1.078125 -3.390625 1.578125 -4.0625 2.40625 -4.0625 Z M 2.40625 -4.0625 "/>
</g>
<g id="glyph-0-2">
<path d="M 0.609375 -4.609375 L 0.609375 0 L 1.34375 0 L 1.34375 -2.390625 C 1.359375 -3.5 1.8125 -4 2.828125 -3.96875 L 2.828125 -4.71875 C 2.703125 -4.734375 2.625 -4.734375 2.546875 -4.734375 C 2.0625 -4.734375 1.703125 -4.453125 1.28125 -3.78125 L 1.28125 -4.609375 Z M 0.609375 -4.609375 "/>
</g>
<g id="glyph-0-3">
<path d="M 4.515625 -2.0625 C 4.515625 -2.765625 4.453125 -3.1875 4.328125 -3.53125 C 4.03125 -4.28125 3.328125 -4.734375 2.46875 -4.734375 C 1.171875 -4.734375 0.359375 -3.765625 0.359375 -2.25 C 0.359375 -0.71875 1.140625 0.203125 2.453125 0.203125 C 3.5 0.203125 4.234375 -0.390625 4.421875 -1.40625 L 3.671875 -1.40625 C 3.46875 -0.796875 3.0625 -0.46875 2.46875 -0.46875 C 2 -0.46875 1.609375 -0.6875 1.359375 -1.078125 C 1.1875 -1.34375 1.125 -1.59375 1.125 -2.0625 Z M 1.140625 -2.65625 C 1.203125 -3.515625 1.71875 -4.0625 2.453125 -4.0625 C 3.203125 -4.0625 3.71875 -3.484375 3.71875 -2.65625 Z M 1.140625 -2.65625 "/>
</g>
<g id="glyph-0-4">
<path d="M 1.34375 -6.40625 L 0.59375 -6.40625 L 0.59375 0 L 1.34375 0 Z M 1.34375 -6.40625 "/>
</g>
<g id="glyph-0-5">
<path d="M 1.3125 -4.609375 L 0.59375 -4.609375 L 0.59375 0 L 1.3125 0 Z M 1.3125 -6.40625 L 0.578125 -6.40625 L 0.578125 -5.484375 L 1.3125 -5.484375 Z M 1.3125 -6.40625 "/>
</g>
<g id="glyph-0-6">
<path d="M 2.234375 -4.609375 L 1.484375 -4.609375 L 1.484375 -5.875 L 0.75 -5.875 L 0.75 -4.609375 L 0.125 -4.609375 L 0.125 -4.015625 L 0.75 -4.015625 L 0.75 -0.53125 C 0.75 -0.046875 1.0625 0.203125 1.640625 0.203125 C 1.828125 0.203125 1.984375 0.1875 2.234375 0.140625 L 2.234375 -0.46875 C 2.125 -0.453125 2.03125 -0.4375 1.875 -0.4375 C 1.5625 -0.4375 1.484375 -0.53125 1.484375 -0.859375 L 1.484375 -4.015625 L 2.234375 -4.015625 Z M 2.234375 -4.609375 "/>
</g>
<g id="glyph-0-7">
<path d="M 4.859375 -6.40625 L 4.859375 -1.90625 C 4.859375 -1.046875 4.234375 -0.515625 3.203125 -0.515625 C 2.734375 -0.515625 2.34375 -0.640625 2.03125 -0.859375 C 1.71875 -1.09375 1.5625 -1.421875 1.5625 -1.90625 L 1.5625 -6.40625 L 0.75 -6.40625 L 0.75 -1.90625 C 0.75 -0.609375 1.6875 0.203125 3.203125 0.203125 C 4.703125 0.203125 5.671875 -0.625 5.671875 -1.90625 L 5.671875 -6.40625 Z M 4.859375 -6.40625 "/>
</g>
<g id="glyph-0-8">
<path d="M 0.609375 -4.609375 L 0.609375 0 L 1.359375 0 L 1.359375 -2.546875 C 1.359375 -3.484375 1.84375 -4.09375 2.609375 -4.09375 C 3.1875 -4.09375 3.546875 -3.75 3.546875 -3.1875 L 3.546875 0 L 4.28125 0 L 4.28125 -3.484375 C 4.28125 -4.25 3.71875 -4.734375 2.828125 -4.734375 C 2.140625 -4.734375 1.703125 -4.484375 1.296875 -3.828125 L 1.296875 -4.609375 Z M 0.609375 -4.609375 "/>
</g>
<g id="glyph-0-9">
<path d="M 1.234375 -6.40625 L 0.515625 -6.40625 L 0.515625 0 L 1.234375 0 L 1.234375 -1.796875 L 1.953125 -2.5 L 3.515625 0 L 4.421875 0 L 2.53125 -3.015625 L 4.140625 -4.609375 L 3.1875 -4.609375 L 1.234375 -2.65625 Z M 1.234375 -6.40625 "/>
</g>
<g id="glyph-0-10">
<path d="M 5.828125 -4.421875 C 5.5625 -5.828125 4.765625 -6.515625 3.359375 -6.515625 C 2.484375 -6.515625 1.796875 -6.25 1.3125 -5.71875 C 0.734375 -5.078125 0.421875 -4.171875 0.421875 -3.125 C 0.421875 -2.078125 0.75 -1.171875 1.34375 -0.546875 C 1.84375 -0.03125 2.484375 0.203125 3.3125 0.203125 C 4.875 0.203125 5.765625 -0.640625 5.953125 -2.34375 L 5.109375 -2.34375 C 5.046875 -1.90625 4.953125 -1.59375 4.828125 -1.34375 C 4.5625 -0.8125 4.015625 -0.515625 3.328125 -0.515625 C 2.046875 -0.515625 1.234375 -1.546875 1.234375 -3.140625 C 1.234375 -4.78125 2 -5.796875 3.25 -5.796875 C 3.78125 -5.796875 4.25 -5.640625 4.515625 -5.390625 C 4.765625 -5.171875 4.890625 -4.90625 4.984375 -4.421875 Z M 5.828125 -4.421875 "/>
</g>
<g id="glyph-0-11">
<path d="M 4.359375 -6.40625 L 3.625 -6.40625 L 3.625 -4.03125 C 3.3125 -4.5 2.828125 -4.734375 2.203125 -4.734375 C 1.015625 -4.734375 0.234375 -3.78125 0.234375 -2.3125 C 0.234375 -0.75 0.984375 0.203125 2.234375 0.203125 C 2.875 0.203125 3.3125 -0.03125 3.703125 -0.609375 L 3.703125 0 L 4.359375 0 Z M 2.328125 -4.0625 C 3.125 -4.0625 3.625 -3.359375 3.625 -2.25 C 3.625 -1.1875 3.109375 -0.484375 2.34375 -0.484375 C 1.53125 -0.484375 1 -1.203125 1 -2.265625 C 1 -3.34375 1.53125 -4.0625 2.328125 -4.0625 Z M 2.328125 -4.0625 "/>
</g>
<g id="glyph-0-12">
<path d="M 5.078125 1.109375 L -0.1875 1.109375 L -0.1875 1.546875 L 5.078125 1.546875 Z M 5.078125 1.109375 "/>
</g>
<g id="glyph-0-13">
<path d="M 4.109375 0 L 5.921875 -5.375 L 5.921875 0 L 6.6875 0 L 6.6875 -6.40625 L 5.5625 -6.40625 L 3.6875 -0.828125 L 1.796875 -6.40625 L 0.65625 -6.40625 L 0.65625 0 L 1.4375 0 L 1.4375 -5.375 L 3.25 0 Z M 4.109375 0 "/>
</g>
<g id="glyph-0-14">
<path d="M 4.703125 -0.4375 C 4.625 -0.40625 4.59375 -0.40625 4.546875 -0.40625 C 4.296875 -0.40625 4.15625 -0.546875 4.15625 -0.78125 L 4.15625 -3.484375 C 4.15625 -4.296875 3.546875 -4.734375 2.421875 -4.734375 C 1.734375 -4.734375 1.203125 -4.546875 0.890625 -4.203125 C 0.671875 -3.96875 0.59375 -3.703125 0.578125 -3.25 L 1.3125 -3.25 C 1.375 -3.8125 1.703125 -4.0625 2.390625 -4.0625 C 3.0625 -4.0625 3.421875 -3.8125 3.421875 -3.375 L 3.421875 -3.1875 C 3.40625 -2.875 3.25 -2.75 2.65625 -2.671875 C 1.625 -2.546875 1.453125 -2.5 1.171875 -2.390625 C 0.640625 -2.15625 0.375 -1.765625 0.375 -1.15625 C 0.375 -0.328125 0.953125 0.203125 1.875 0.203125 C 2.46875 0.203125 2.921875 0 3.453125 -0.46875 C 3.5 0 3.734375 0.203125 4.203125 0.203125 C 4.359375 0.203125 4.453125 0.1875 4.703125 0.125 Z M 3.421875 -1.453125 C 3.421875 -1.203125 3.359375 -1.0625 3.125 -0.859375 C 2.828125 -0.578125 2.46875 -0.4375 2.046875 -0.4375 C 1.46875 -0.4375 1.140625 -0.71875 1.140625 -1.171875 C 1.140625 -1.65625 1.453125 -1.90625 2.25 -2.015625 C 3.03125 -2.125 3.171875 -2.15625 3.421875 -2.28125 Z M 3.421875 -1.453125 "/>
</g>
<g id="glyph-0-15">
<path d="M 4.140625 -3.0625 C 4.109375 -3.515625 4.015625 -3.796875 3.828125 -4.0625 C 3.515625 -4.484375 2.96875 -4.734375 2.328125 -4.734375 C 1.078125 -4.734375 0.265625 -3.75 0.265625 -2.21875 C 0.265625 -0.734375 1.0625 0.203125 2.3125 0.203125 C 3.40625 0.203125 4.109375 -0.453125 4.203125 -1.578125 L 3.453125 -1.578125 C 3.328125 -0.84375 2.953125 -0.46875 2.328125 -0.46875 C 1.515625 -0.46875 1.03125 -1.140625 1.03125 -2.21875 C 1.03125 -3.375 1.515625 -4.0625 2.3125 -4.0625 C 2.921875 -4.0625 3.3125 -3.703125 3.40625 -3.0625 Z M 4.140625 -3.0625 "/>
</g>
<g id="glyph-0-16">
<path d="M 2.421875 -6.359375 C 1.84375 -6.359375 1.3125 -6.09375 0.984375 -5.671875 C 0.578125 -5.109375 0.375 -4.25 0.375 -3.078125 C 0.375 -0.9375 1.078125 0.203125 2.421875 0.203125 C 3.734375 0.203125 4.453125 -0.9375 4.453125 -3.03125 C 4.453125 -4.25 4.265625 -5.078125 3.859375 -5.671875 C 3.53125 -6.109375 3.015625 -6.359375 2.421875 -6.359375 Z M 2.421875 -5.671875 C 3.25 -5.671875 3.671875 -4.828125 3.671875 -3.09375 C 3.671875 -1.28125 3.265625 -0.4375 2.40625 -0.4375 C 1.578125 -0.4375 1.171875 -1.3125 1.171875 -3.0625 C 1.171875 -4.828125 1.578125 -5.671875 2.421875 -5.671875 Z M 2.421875 -5.671875 "/>
</g>
<g id="glyph-0-17">
<path d="M 1.6875 -0.921875 L 0.765625 -0.921875 L 0.765625 0 L 1.6875 0 Z M 1.6875 -0.921875 "/>
</g>
<g id="glyph-0-18">
<path d="M 2.28125 -4.53125 L 2.28125 0 L 3.046875 0 L 3.046875 -6.359375 L 2.546875 -6.359375 C 2.265625 -5.390625 2.09375 -5.25 0.890625 -5.09375 L 0.890625 -4.53125 Z M 2.28125 -4.53125 "/>
</g>
<g id="glyph-0-19">
<path d="M 4.453125 -0.765625 L 1.171875 -0.765625 C 1.25 -1.296875 1.53125 -1.625 2.296875 -2.09375 L 3.171875 -2.59375 C 4.046875 -3.0625 4.5 -3.71875 4.5 -4.5 C 4.5 -5.03125 4.28125 -5.53125 3.921875 -5.875 C 3.546875 -6.203125 3.09375 -6.359375 2.5 -6.359375 C 1.703125 -6.359375 1.125 -6.078125 0.78125 -5.53125 C 0.546875 -5.203125 0.453125 -4.796875 0.4375 -4.15625 L 1.21875 -4.15625 C 1.234375 -4.59375 1.296875 -4.84375 1.40625 -5.0625 C 1.59375 -5.4375 2 -5.6875 2.46875 -5.6875 C 3.171875 -5.6875 3.703125 -5.171875 3.703125 -4.484375 C 3.703125 -3.96875 3.40625 -3.53125 2.859375 -3.21875 L 2.046875 -2.75 C 0.75 -2 0.375 -1.40625 0.296875 -0.015625 L 4.453125 -0.015625 Z M 4.453125 -0.765625 "/>
</g>
<g id="glyph-0-20">
<path d="M 1.9375 -2.921875 L 2.359375 -2.921875 C 3.203125 -2.921875 3.65625 -2.53125 3.65625 -1.765625 C 3.65625 -0.96875 3.171875 -0.484375 2.375 -0.484375 C 1.515625 -0.484375 1.109375 -0.921875 1.0625 -1.84375 L 0.28125 -1.84375 C 0.3125 -1.34375 0.40625 -1 0.546875 -0.71875 C 0.875 -0.109375 1.484375 0.203125 2.34375 0.203125 C 3.625 0.203125 4.453125 -0.578125 4.453125 -1.78125 C 4.453125 -2.59375 4.140625 -3.03125 3.390625 -3.296875 C 3.96875 -3.53125 4.265625 -3.96875 4.265625 -4.609375 C 4.265625 -5.703125 3.546875 -6.359375 2.359375 -6.359375 C 1.109375 -6.359375 0.4375 -5.65625 0.40625 -4.3125 L 1.1875 -4.3125 C 1.203125 -4.703125 1.234375 -4.921875 1.328125 -5.109375 C 1.5 -5.46875 1.890625 -5.6875 2.375 -5.6875 C 3.0625 -5.6875 3.46875 -5.265625 3.46875 -4.578125 C 3.46875 -4.140625 3.3125 -3.859375 2.96875 -3.71875 C 2.765625 -3.625 2.484375 -3.59375 1.9375 -3.578125 Z M 1.9375 -2.921875 "/>
</g>
<g id="glyph-0-21">
<path d="M 2.875 -1.546875 L 2.875 0 L 3.65625 0 L 3.65625 -1.546875 L 4.578125 -1.546875 L 4.578125 -2.234375 L 3.65625 -2.234375 L 3.65625 -6.359375 L 3.078125 -6.359375 L 0.25 -2.359375 L 0.25 -1.546875 Z M 2.875 -2.234375 L 0.921875 -2.234375 L 2.875 -5.046875 Z M 2.875 -2.234375 "/>
</g>
<g id="glyph-0-22">
<path d="M 4.1875 -6.234375 L 0.96875 -6.234375 L 0.5 -2.84375 L 1.21875 -2.84375 C 1.578125 -3.265625 1.875 -3.421875 2.359375 -3.421875 C 3.203125 -3.421875 3.71875 -2.84375 3.71875 -1.921875 C 3.71875 -1.03125 3.203125 -0.484375 2.359375 -0.484375 C 1.6875 -0.484375 1.265625 -0.828125 1.078125 -1.53125 L 0.3125 -1.53125 C 0.40625 -1.015625 0.5 -0.78125 0.6875 -0.546875 C 1.03125 -0.078125 1.671875 0.203125 2.375 0.203125 C 3.640625 0.203125 4.515625 -0.71875 4.515625 -2.03125 C 4.515625 -3.265625 3.6875 -4.109375 2.5 -4.109375 C 2.0625 -4.109375 1.703125 -4 1.34375 -3.734375 L 1.59375 -5.46875 L 4.1875 -5.46875 Z M 4.1875 -6.234375 "/>
</g>
<g id="glyph-0-23">
<path d="M 4.171875 -1.921875 L 4.828125 0 L 5.75 0 L 3.5 -6.40625 L 2.4375 -6.40625 L 0.15625 0 L 1.015625 0 L 1.703125 -1.921875 Z M 3.9375 -2.609375 L 1.90625 -2.609375 L 2.953125 -5.53125 Z M 3.9375 -2.609375 "/>
</g>
<g id="glyph-0-24">
<path d="M 1.609375 -2.921875 L 5.109375 -2.921875 L 5.109375 -3.640625 L 1.609375 -3.640625 L 1.609375 -5.6875 L 5.234375 -5.6875 L 5.234375 -6.40625 L 0.796875 -6.40625 L 0.796875 0 L 5.390625 0 L 5.390625 -0.71875 L 1.609375 -0.71875 Z M 1.609375 -2.921875 "/>
</g>
<g id="glyph-0-25">
<path d="M 5.25 -4.53125 C 5.25 -4.96875 5.21875 -5.09375 5.078125 -5.390625 C 4.71875 -6.125 3.96875 -6.515625 2.890625 -6.515625 C 1.484375 -6.515625 0.609375 -5.796875 0.609375 -4.640625 C 0.609375 -3.859375 1.03125 -3.359375 1.875 -3.140625 L 3.46875 -2.71875 C 4.28125 -2.5 4.640625 -2.1875 4.640625 -1.6875 C 4.640625 -1.34375 4.453125 -0.984375 4.1875 -0.796875 C 3.9375 -0.609375 3.53125 -0.515625 3.015625 -0.515625 C 2.3125 -0.515625 1.84375 -0.6875 1.53125 -1.0625 C 1.296875 -1.34375 1.1875 -1.640625 1.203125 -2.046875 L 0.421875 -2.046875 C 0.4375 -1.453125 0.546875 -1.0625 0.796875 -0.71875 C 1.234375 -0.109375 1.984375 0.203125 2.953125 0.203125 C 3.71875 0.203125 4.34375 0.03125 4.765625 -0.296875 C 5.1875 -0.640625 5.46875 -1.203125 5.46875 -1.765625 C 5.46875 -2.546875 4.96875 -3.125 4.09375 -3.375 L 2.484375 -3.796875 C 1.71875 -4.015625 1.4375 -4.25 1.4375 -4.75 C 1.4375 -5.40625 2 -5.828125 2.875 -5.828125 C 3.890625 -5.828125 4.453125 -5.375 4.46875 -4.53125 Z M 5.25 -4.53125 "/>
</g>
<g id="glyph-1-0">
<path d="M 2.03125 -3.40625 L 4.546875 -3.40625 C 5.171875 -3.40625 5.671875 -3.59375 6.09375 -3.96875 C 6.578125 -4.40625 6.78125 -4.921875 6.78125 -5.671875 C 6.78125 -7.171875 5.890625 -8.015625 4.3125 -8.015625 L 1 -8.015625 L 1 0 L 2.03125 0 Z M 2.03125 -4.296875 L 2.03125 -7.109375 L 4.15625 -7.109375 C 5.140625 -7.109375 5.71875 -6.59375 5.71875 -5.703125 C 5.71875 -4.828125 5.140625 -4.296875 4.15625 -4.296875 Z M 2.03125 -4.296875 "/>
</g>
<g id="glyph-1-1">
<path d="M 0.765625 -5.765625 L 0.765625 0 L 1.6875 0 L 1.6875 -2.984375 C 1.6875 -4.375 2.265625 -5 3.53125 -4.96875 L 3.53125 -5.890625 C 3.375 -5.921875 3.28125 -5.921875 3.171875 -5.921875 C 2.578125 -5.921875 2.140625 -5.578125 1.609375 -4.71875 L 1.609375 -5.765625 Z M 0.765625 -5.765625 "/>
</g>
<g id="glyph-1-2">
<path d="M 2.984375 -5.921875 C 1.359375 -5.921875 0.390625 -4.78125 0.390625 -2.84375 C 0.390625 -0.890625 1.359375 0.25 3 0.25 C 4.625 0.25 5.609375 -0.90625 5.609375 -2.796875 C 5.609375 -4.796875 4.65625 -5.921875 2.984375 -5.921875 Z M 3 -5.078125 C 4.03125 -5.078125 4.65625 -4.234375 4.65625 -2.8125 C 4.65625 -1.4375 4.015625 -0.59375 3 -0.59375 C 1.984375 -0.59375 1.359375 -1.4375 1.359375 -2.84375 C 1.359375 -4.234375 1.984375 -5.078125 3 -5.078125 Z M 3 -5.078125 "/>
</g>
<g id="glyph-1-3">
<path d="M 4.4375 -5.765625 L 4.4375 -4.921875 C 3.984375 -5.625 3.46875 -5.921875 2.75 -5.921875 C 1.359375 -5.921875 0.390625 -4.625 0.390625 -2.78125 C 0.390625 -1.8125 0.609375 -1.109375 1.109375 -0.53125 C 1.546875 -0.015625 2.09375 0.25 2.6875 0.25 C 3.375 0.25 3.875 -0.0625 4.359375 -0.78125 L 4.359375 -0.484375 C 4.359375 1.0625 3.921875 1.625 2.78125 1.625 C 2 1.625 1.59375 1.3125 1.5 0.65625 L 0.578125 0.65625 C 0.65625 1.734375 1.5 2.390625 2.765625 2.390625 C 3.609375 2.390625 4.3125 2.125 4.6875 1.65625 C 5.125 1.125 5.296875 0.40625 5.296875 -0.953125 L 5.296875 -5.765625 Z M 2.84375 -5.078125 C 3.8125 -5.078125 4.359375 -4.265625 4.359375 -2.8125 C 4.359375 -1.40625 3.796875 -0.59375 2.84375 -0.59375 C 1.890625 -0.59375 1.34375 -1.421875 1.34375 -2.84375 C 1.34375 -4.25 1.890625 -5.078125 2.84375 -5.078125 Z M 2.84375 -5.078125 "/>
</g>
<g id="glyph-1-4">
<path d="M 0.765625 -5.765625 L 0.765625 0 L 1.6875 0 L 1.6875 -3.171875 C 1.6875 -4.359375 2.3125 -5.125 3.25 -5.125 C 3.984375 -5.125 4.4375 -4.6875 4.4375 -4 L 4.4375 0 L 5.359375 0 L 5.359375 -4.359375 C 5.359375 -5.3125 4.640625 -5.921875 3.53125 -5.921875 C 2.671875 -5.921875 2.125 -5.59375 1.609375 -4.796875 L 1.609375 -5.765625 Z M 0.765625 -5.765625 "/>
</g>
<g id="glyph-1-5">
<path d="M 4.8125 -4.15625 C 4.8125 -5.296875 4.0625 -5.921875 2.734375 -5.921875 C 1.390625 -5.921875 0.515625 -5.234375 0.515625 -4.171875 C 0.515625 -3.265625 0.984375 -2.84375 2.34375 -2.515625 L 3.203125 -2.296875 C 3.84375 -2.140625 4.09375 -1.90625 4.09375 -1.5 C 4.09375 -0.953125 3.546875 -0.59375 2.75 -0.59375 C 2.25 -0.59375 1.84375 -0.734375 1.609375 -0.984375 C 1.46875 -1.140625 1.390625 -1.3125 1.34375 -1.71875 L 0.375 -1.71875 C 0.421875 -0.390625 1.171875 0.25 2.671875 0.25 C 4.125 0.25 5.046875 -0.46875 5.046875 -1.578125 C 5.046875 -2.4375 4.5625 -2.90625 3.421875 -3.171875 L 2.546875 -3.390625 C 1.796875 -3.5625 1.46875 -3.8125 1.46875 -4.21875 C 1.46875 -4.75 1.953125 -5.078125 2.6875 -5.078125 C 3.4375 -5.078125 3.828125 -4.765625 3.84375 -4.15625 Z M 4.8125 -4.15625 "/>
</g>
<g id="glyph-1-6">
<path d="M 5.640625 -2.578125 C 5.640625 -3.453125 5.578125 -3.984375 5.40625 -4.40625 C 5.03125 -5.359375 4.15625 -5.921875 3.078125 -5.921875 C 1.46875 -5.921875 0.4375 -4.703125 0.4375 -2.8125 C 0.4375 -0.90625 1.4375 0.25 3.0625 0.25 C 4.375 0.25 5.296875 -0.5 5.515625 -1.75 L 4.59375 -1.75 C 4.34375 -0.984375 3.828125 -0.59375 3.09375 -0.59375 C 2.515625 -0.59375 2.015625 -0.859375 1.703125 -1.34375 C 1.484375 -1.671875 1.40625 -2 1.390625 -2.578125 Z M 1.421875 -3.328125 C 1.5 -4.390625 2.140625 -5.078125 3.0625 -5.078125 C 4 -5.078125 4.65625 -4.359375 4.65625 -3.328125 Z M 1.421875 -3.328125 "/>
</g>
<g id="glyph-1-7">
<path d="M 2.796875 -5.765625 L 1.84375 -5.765625 L 1.84375 -7.34375 L 0.9375 -7.34375 L 0.9375 -5.765625 L 0.15625 -5.765625 L 0.15625 -5.015625 L 0.9375 -5.015625 L 0.9375 -0.65625 C 0.9375 -0.0625 1.328125 0.25 2.046875 0.25 C 2.28125 0.25 2.484375 0.234375 2.796875 0.171875 L 2.796875 -0.59375 C 2.65625 -0.5625 2.546875 -0.546875 2.359375 -0.546875 C 1.953125 -0.546875 1.84375 -0.65625 1.84375 -1.0625 L 1.84375 -5.015625 L 2.796875 -5.015625 Z M 2.796875 -5.765625 "/>
</g>
<g id="glyph-1-8">
<path d="M 4.265625 -5.765625 L 2.671875 -1.28125 L 1.203125 -5.765625 L 0.21875 -5.765625 L 2.171875 0.015625 L 1.8125 0.9375 C 1.65625 1.34375 1.46875 1.5 1.078125 1.5 C 0.921875 1.5 0.796875 1.46875 0.59375 1.4375 L 0.59375 2.25 C 0.78125 2.359375 0.96875 2.390625 1.203125 2.390625 C 1.5 2.390625 1.828125 2.296875 2.0625 2.125 C 2.359375 1.90625 2.515625 1.671875 2.6875 1.203125 L 5.265625 -5.765625 Z M 4.265625 -5.765625 "/>
</g>
<g id="glyph-1-9">
<path d="M 0.59375 2.390625 L 1.515625 2.390625 L 1.515625 -0.609375 C 2 -0.015625 2.546875 0.25 3.28125 0.25 C 4.78125 0.25 5.75 -0.953125 5.75 -2.78125 C 5.75 -4.71875 4.8125 -5.921875 3.28125 -5.921875 C 2.5 -5.921875 1.875 -5.578125 1.4375 -4.890625 L 1.4375 -5.765625 L 0.59375 -5.765625 Z M 3.125 -5.078125 C 4.140625 -5.078125 4.796875 -4.1875 4.796875 -2.8125 C 4.796875 -1.5 4.125 -0.609375 3.125 -0.609375 C 2.140625 -0.609375 1.515625 -1.484375 1.515625 -2.84375 C 1.515625 -4.1875 2.140625 -5.078125 3.125 -5.078125 Z M 3.125 -5.078125 "/>
</g>
<g id="glyph-1-10">
<path d="M 1.90625 -8.015625 L 0.875 -8.015625 L 0.875 0 L 5.859375 0 L 5.859375 -0.90625 L 1.90625 -0.90625 Z M 1.90625 -8.015625 "/>
</g>
<g id="glyph-2-0">
<path d="M -3.65625 -2.015625 L -3.65625 -5.84375 L -4.546875 -5.84375 L -4.546875 -2.015625 L -7.109375 -2.015625 L -7.109375 -6.375 L -8.015625 -6.375 L -8.015625 -0.984375 L 0 -0.984375 L 0 -2.015625 Z M -3.65625 -2.015625 "/>
</g>
<g id="glyph-2-1">
<path d="M -2.578125 -5.640625 C -3.453125 -5.640625 -3.984375 -5.578125 -4.40625 -5.40625 C -5.359375 -5.03125 -5.921875 -4.15625 -5.921875 -3.078125 C -5.921875 -1.46875 -4.703125 -0.4375 -2.8125 -0.4375 C -0.90625 -0.4375 0.25 -1.4375 0.25 -3.0625 C 0.25 -4.375 -0.5 -5.296875 -1.75 -5.515625 L -1.75 -4.59375 C -0.984375 -4.34375 -0.59375 -3.828125 -0.59375 -3.09375 C -0.59375 -2.515625 -0.859375 -2.015625 -1.34375 -1.703125 C -1.671875 -1.484375 -2 -1.40625 -2.578125 -1.390625 Z M -3.328125 -1.421875 C -4.390625 -1.5 -5.078125 -2.140625 -5.078125 -3.0625 C -5.078125 -4 -4.359375 -4.65625 -3.328125 -4.65625 Z M -3.328125 -1.421875 "/>
</g>
<g id="glyph-2-2">
<path d="M -8.015625 -0.765625 L 0 -0.765625 L 0 -1.6875 L -3.171875 -1.6875 C -4.359375 -1.6875 -5.125 -2.296875 -5.125 -3.25 C -5.125 -3.546875 -5.03125 -3.84375 -4.875 -4.0625 C -4.671875 -4.328125 -4.40625 -4.4375 -4 -4.4375 L 0 -4.4375 L 0 -5.34375 L -4.359375 -5.34375 C -5.328125 -5.34375 -5.921875 -4.65625 -5.921875 -3.53125 C -5.921875 -2.71875 -5.671875 -2.21875 -4.96875 -1.6875 L -8.015625 -1.6875 Z M -8.015625 -0.765625 "/>
</g>
<g id="glyph-2-3">
<path d="M -8.015625 -1.671875 L -8.015625 -0.75 L 0 -0.75 L 0 -1.671875 Z M -8.015625 -1.671875 "/>
</g>
<g id="glyph-2-4">
<path d="M -5.765625 -0.765625 L 0 -0.765625 L 0 -1.6875 L -2.984375 -1.6875 C -4.375 -1.6875 -5 -2.265625 -4.96875 -3.53125 L -5.890625 -3.53125 C -5.921875 -3.375 -5.921875 -3.28125 -5.921875 -3.171875 C -5.921875 -2.578125 -5.578125 -2.140625 -4.71875 -1.609375 L -5.765625 -1.609375 Z M -5.765625 -0.765625 "/>
</g>
<g id="glyph-3-0">
<path d="M 2.421875 -4.078125 L 5.453125 -4.078125 C 6.203125 -4.078125 6.796875 -4.296875 7.3125 -4.765625 C 7.890625 -5.296875 8.140625 -5.921875 8.140625 -6.796875 C 8.140625 -8.609375 7.078125 -9.625 5.171875 -9.625 L 1.203125 -9.625 L 1.203125 0 L 2.421875 0 Z M 2.421875 -5.15625 L 2.421875 -8.546875 L 4.984375 -8.546875 C 6.171875 -8.546875 6.859375 -7.90625 6.859375 -6.859375 C 6.859375 -5.796875 6.171875 -5.15625 4.984375 -5.15625 Z M 2.421875 -5.15625 "/>
</g>
<g id="glyph-3-1">
<path d="M 0.90625 -6.921875 L 0.90625 0 L 2.015625 0 L 2.015625 -3.59375 C 2.03125 -5.25 2.71875 -6 4.234375 -5.953125 L 4.234375 -7.078125 C 4.046875 -7.109375 3.953125 -7.109375 3.8125 -7.109375 C 3.109375 -7.109375 2.5625 -6.6875 1.921875 -5.671875 L 1.921875 -6.921875 Z M 0.90625 -6.921875 "/>
</g>
<g id="glyph-3-2">
<path d="M 3.59375 -7.109375 C 1.640625 -7.109375 0.46875 -5.734375 0.46875 -3.40625 C 0.46875 -1.0625 1.640625 0.296875 3.609375 0.296875 C 5.5625 0.296875 6.734375 -1.078125 6.734375 -3.359375 C 6.734375 -5.75 5.59375 -7.109375 3.59375 -7.109375 Z M 3.609375 -6.09375 C 4.84375 -6.09375 5.578125 -5.078125 5.578125 -3.359375 C 5.578125 -1.734375 4.8125 -0.71875 3.609375 -0.71875 C 2.375 -0.71875 1.625 -1.734375 1.625 -3.40625 C 1.625 -5.078125 2.375 -6.09375 3.609375 -6.09375 Z M 3.609375 -6.09375 "/>
</g>
<g id="glyph-3-3">
<path d="M 5.328125 -6.921875 L 5.328125 -5.921875 C 4.78125 -6.75 4.171875 -7.109375 3.296875 -7.109375 C 1.625 -7.109375 0.46875 -5.5625 0.46875 -3.34375 C 0.46875 -2.171875 0.734375 -1.328125 1.328125 -0.640625 C 1.84375 -0.03125 2.515625 0.296875 3.21875 0.296875 C 4.046875 0.296875 4.640625 -0.0625 5.234375 -0.9375 L 5.234375 -0.578125 C 5.234375 1.265625 4.71875 1.953125 3.34375 1.953125 C 2.40625 1.953125 1.921875 1.578125 1.8125 0.796875 L 0.6875 0.796875 C 0.796875 2.078125 1.8125 2.875 3.3125 2.875 C 4.328125 2.875 5.171875 2.546875 5.625 2 C 6.15625 1.34375 6.34375 0.484375 6.34375 -1.140625 L 6.34375 -6.921875 Z M 3.40625 -6.09375 C 4.5625 -6.09375 5.234375 -5.125 5.234375 -3.359375 C 5.234375 -1.6875 4.5625 -0.71875 3.40625 -0.71875 C 2.265625 -0.71875 1.609375 -1.703125 1.609375 -3.40625 C 1.609375 -5.09375 2.265625 -6.09375 3.40625 -6.09375 Z M 3.40625 -6.09375 "/>
</g>
<g id="glyph-3-4">
<path d="M 0.921875 -6.921875 L 0.921875 0 L 2.03125 0 L 2.03125 -3.8125 C 2.03125 -5.234375 2.765625 -6.15625 3.90625 -6.15625 C 4.78125 -6.15625 5.328125 -5.625 5.328125 -4.796875 L 5.328125 0 L 6.4375 0 L 6.4375 -5.234375 C 6.4375 -6.375 5.578125 -7.109375 4.234375 -7.109375 C 3.203125 -7.109375 2.546875 -6.71875 1.9375 -5.75 L 1.9375 -6.921875 Z M 0.921875 -6.921875 "/>
</g>
<g id="glyph-3-5">
<path d="M 5.78125 -4.984375 C 5.765625 -6.34375 4.875 -7.109375 3.28125 -7.109375 C 1.65625 -7.109375 0.625 -6.28125 0.625 -5 C 0.625 -3.921875 1.171875 -3.40625 2.8125 -3.015625 L 3.84375 -2.765625 C 4.609375 -2.578125 4.90625 -2.296875 4.90625 -1.8125 C 4.90625 -1.15625 4.265625 -0.71875 3.296875 -0.71875 C 2.703125 -0.71875 2.203125 -0.890625 1.921875 -1.171875 C 1.75 -1.375 1.671875 -1.578125 1.609375 -2.0625 L 0.453125 -2.0625 C 0.5 -0.46875 1.40625 0.296875 3.203125 0.296875 C 4.953125 0.296875 6.0625 -0.546875 6.0625 -1.890625 C 6.0625 -2.921875 5.484375 -3.484375 4.109375 -3.8125 L 3.046875 -4.0625 C 2.15625 -4.28125 1.765625 -4.5625 1.765625 -5.0625 C 1.765625 -5.703125 2.34375 -6.09375 3.234375 -6.09375 C 4.125 -6.09375 4.59375 -5.71875 4.625 -4.984375 Z M 5.78125 -4.984375 "/>
</g>
<g id="glyph-3-6">
<path d="M 6.765625 -3.09375 C 6.765625 -4.140625 6.6875 -4.78125 6.5 -5.296875 C 6.046875 -6.4375 4.984375 -7.109375 3.703125 -7.109375 C 1.765625 -7.109375 0.53125 -5.65625 0.53125 -3.359375 C 0.53125 -1.078125 1.71875 0.296875 3.671875 0.296875 C 5.25 0.296875 6.34375 -0.59375 6.625 -2.09375 L 5.515625 -2.09375 C 5.21875 -1.1875 4.59375 -0.71875 3.703125 -0.71875 C 3.015625 -0.71875 2.421875 -1.03125 2.046875 -1.609375 C 1.78125 -2 1.6875 -2.40625 1.671875 -3.09375 Z M 1.703125 -3.984375 C 1.796875 -5.265625 2.578125 -6.09375 3.6875 -6.09375 C 4.8125 -6.09375 5.578125 -5.234375 5.578125 -3.984375 Z M 1.703125 -3.984375 "/>
</g>
<g id="glyph-3-7">
<path d="M 6.359375 0 L 6.359375 -6.921875 L 5.265625 -6.921875 L 5.265625 -3 C 5.265625 -1.578125 4.53125 -0.65625 3.375 -0.65625 C 2.515625 -0.65625 1.953125 -1.1875 1.953125 -2.015625 L 1.953125 -6.921875 L 0.859375 -6.921875 L 0.859375 -1.578125 C 0.859375 -0.4375 1.71875 0.296875 3.0625 0.296875 C 4.078125 0.296875 4.734375 -0.046875 5.375 -0.96875 L 5.375 0 Z M 3.234375 -9.4375 L 1.859375 -9.4375 L 1.859375 -8.078125 L 3.234375 -8.078125 Z M 5.375 -9.4375 L 4 -9.4375 L 4 -8.078125 L 5.375 -8.078125 Z M 5.375 -9.4375 "/>
</g>
<g id="glyph-3-8">
<path d="M 3.359375 -6.921875 L 2.21875 -6.921875 L 2.21875 -8.8125 L 1.125 -8.8125 L 1.125 -6.921875 L 0.1875 -6.921875 L 0.1875 -6.015625 L 1.125 -6.015625 L 1.125 -0.796875 C 1.125 -0.078125 1.59375 0.296875 2.453125 0.296875 C 2.75 0.296875 2.984375 0.28125 3.359375 0.21875 L 3.359375 -0.71875 C 3.1875 -0.671875 3.046875 -0.65625 2.828125 -0.65625 C 2.34375 -0.65625 2.21875 -0.796875 2.21875 -1.28125 L 2.21875 -6.015625 L 3.359375 -6.015625 Z M 3.359375 -6.921875 "/>
</g>
<g id="glyph-3-9">
</g>
<g id="glyph-3-10">
<path d="M 6.359375 0 L 6.359375 -6.921875 L 5.265625 -6.921875 L 5.265625 -3 C 5.265625 -1.578125 4.53125 -0.65625 3.375 -0.65625 C 2.515625 -0.65625 1.953125 -1.1875 1.953125 -2.015625 L 1.953125 -6.921875 L 0.859375 -6.921875 L 0.859375 -1.578125 C 0.859375 -0.4375 1.71875 0.296875 3.0625 0.296875 C 4.078125 0.296875 4.734375 -0.046875 5.375 -0.96875 L 5.375 0 Z M 6.359375 0 "/>
</g>
<g id="glyph-3-11">
<path d="M 3.765625 0 L 6.421875 -6.921875 L 5.171875 -6.921875 L 3.21875 -1.3125 L 1.375 -6.921875 L 0.125 -6.921875 L 2.5625 0 Z M 3.765625 0 "/>
</g>
<g id="glyph-3-12">
<path d="M 6.21875 -4.59375 C 6.171875 -5.265625 6.015625 -5.703125 5.75 -6.09375 C 5.28125 -6.734375 4.453125 -7.109375 3.484375 -7.109375 C 1.609375 -7.109375 0.40625 -5.640625 0.40625 -3.34375 C 0.40625 -1.109375 1.59375 0.296875 3.46875 0.296875 C 5.125 0.296875 6.171875 -0.6875 6.296875 -2.375 L 5.1875 -2.375 C 5 -1.265625 4.4375 -0.71875 3.5 -0.71875 C 2.28125 -0.71875 1.5625 -1.703125 1.5625 -3.34375 C 1.5625 -5.0625 2.265625 -6.09375 3.46875 -6.09375 C 4.390625 -6.09375 4.984375 -5.5625 5.109375 -4.59375 Z M 6.21875 -4.59375 "/>
</g>
<g id="glyph-3-13">
<path d="M 0.921875 -9.625 L 0.921875 0 L 2.015625 0 L 2.015625 -3.8125 C 2.015625 -5.234375 2.765625 -6.15625 3.890625 -6.15625 C 4.265625 -6.15625 4.609375 -6.046875 4.875 -5.84375 C 5.1875 -5.609375 5.328125 -5.28125 5.328125 -4.796875 L 5.328125 0 L 6.421875 0 L 6.421875 -5.234375 C 6.421875 -6.390625 5.578125 -7.109375 4.234375 -7.109375 C 3.265625 -7.109375 2.671875 -6.8125 2.015625 -5.96875 L 2.015625 -9.625 Z M 0.921875 -9.625 "/>
</g>
<g id="glyph-3-14">
<path d="M 1.984375 -6.921875 L 0.890625 -6.921875 L 0.890625 0 L 1.984375 0 Z M 1.984375 -9.625 L 0.875 -9.625 L 0.875 -8.234375 L 1.984375 -8.234375 Z M 1.984375 -9.625 "/>
</g>
<g id="glyph-3-15">
<path d="M 6.53125 -9.625 L 5.4375 -9.625 L 5.4375 -6.046875 C 4.984375 -6.75 4.234375 -7.109375 3.3125 -7.109375 C 1.515625 -7.109375 0.34375 -5.671875 0.34375 -3.46875 C 0.34375 -1.140625 1.484375 0.296875 3.359375 0.296875 C 4.296875 0.296875 4.96875 -0.046875 5.5625 -0.90625 L 5.5625 0 L 6.53125 0 Z M 3.5 -6.09375 C 4.6875 -6.09375 5.4375 -5.046875 5.4375 -3.375 C 5.4375 -1.78125 4.671875 -0.71875 3.515625 -0.71875 C 2.296875 -0.71875 1.484375 -1.796875 1.484375 -3.40625 C 1.484375 -5.015625 2.296875 -6.09375 3.5 -6.09375 Z M 3.5 -6.09375 "/>
</g>
<g id="glyph-3-16">
<path d="M 5.171875 0 L 8.515625 -9.625 L 7.203125 -9.625 L 4.546875 -1.484375 L 1.71875 -9.625 L 0.390625 -9.625 L 3.859375 0 Z M 5.171875 0 "/>
</g>
<g id="glyph-3-17">
<path d="M 2 -9.625 L 0.890625 -9.625 L 0.890625 0 L 2 0 Z M 2 -9.625 "/>
</g>
<g id="glyph-3-18">
<path d="M 3.40625 -6.921875 L 2.25 -6.921875 L 2.25 -8 C 2.25 -8.46875 2.515625 -8.703125 3.03125 -8.703125 C 3.109375 -8.703125 3.15625 -8.703125 3.40625 -8.6875 L 3.40625 -9.59375 C 3.15625 -9.65625 3.015625 -9.671875 2.78125 -9.671875 C 1.765625 -9.671875 1.15625 -9.078125 1.15625 -8.09375 L 1.15625 -6.921875 L 0.234375 -6.921875 L 0.234375 -6.015625 L 1.15625 -6.015625 L 1.15625 0 L 2.25 0 L 2.25 -6.015625 L 3.40625 -6.015625 Z M 3.40625 -6.921875 "/>
</g>
<g id="glyph-3-19">
<path d="M 1.859375 -9.625 L 0.765625 -9.625 L 0.765625 0 L 1.859375 0 L 1.859375 -2.6875 L 2.9375 -3.75 L 5.265625 0 L 6.625 0 L 3.796875 -4.53125 L 6.203125 -6.921875 L 4.796875 -6.921875 L 1.859375 -3.984375 Z M 1.859375 -9.625 "/>
</g>
</g>
<clipPath id="clip-0">
<path clip-rule="nonzero" d="M 37.152344 286 L 269.257812 286 L 269.257812 288 L 37.152344 288 Z M 37.152344 286 "/>
</clipPath>
<clipPath id="clip-1">
<path clip-rule="nonzero" d="M 37.152344 235 L 269.257812 235 L 269.257812 236 L 37.152344 236 Z M 37.152344 235 "/>
</clipPath>
<clipPath id="clip-2">
<path clip-rule="nonzero" d="M 37.152344 183 L 269.257812 183 L 269.257812 185 L 37.152344 185 Z M 37.152344 183 "/>
</clipPath>
<clipPath id="clip-3">
<path clip-rule="nonzero" d="M 37.152344 131 L 269.257812 131 L 269.257812 133 L 37.152344 133 Z M 37.152344 131 "/>
</clipPath>
<clipPath id="clip-4">
<path clip-rule="nonzero" d="M 37.152344 80 L 269.257812 80 L 269.257812 81 L 37.152344 81 Z M 37.152344 80 "/>
</clipPath>
<clipPath id="clip-5">
<path clip-rule="nonzero" d="M 37.152344 312 L 269.257812 312 L 269.257812 314 L 37.152344 314 Z M 37.152344 312 "/>
</clipPath>
<clipPath id="clip-6">
<path clip-rule="nonzero" d="M 37.152344 260 L 269.257812 260 L 269.257812 262 L 37.152344 262 Z M 37.152344 260 "/>
</clipPath>
<clipPath id="clip-7">
<path clip-rule="nonzero" d="M 37.152344 209 L 269.257812 209 L 269.257812 211 L 37.152344 211 Z M 37.152344 209 "/>
</clipPath>
<clipPath id="clip-8">
<path clip-rule="nonzero" d="M 37.152344 157 L 269.257812 157 L 269.257812 159 L 37.152344 159 Z M 37.152344 157 "/>
</clipPath>
<clipPath id="clip-9">
<path clip-rule="nonzero" d="M 37.152344 105 L 269.257812 105 L 269.257812 107 L 37.152344 107 Z M 37.152344 105 "/>
</clipPath>
<clipPath id="clip-10">
<path clip-rule="nonzero" d="M 37.152344 54 L 269.257812 54 L 269.257812 56 L 37.152344 56 Z M 37.152344 54 "/>
</clipPath>
<clipPath id="clip-11">
<path clip-rule="nonzero" d="M 69 41.726562 L 71 41.726562 L 71 325.851562 L 69 325.851562 Z M 69 41.726562 "/>
</clipPath>
<clipPath id="clip-12">
<path clip-rule="nonzero" d="M 125 41.726562 L 127 41.726562 L 127 325.851562 L 125 325.851562 Z M 125 41.726562 "/>
</clipPath>
<clipPath id="clip-13">
<path clip-rule="nonzero" d="M 180 41.726562 L 182 41.726562 L 182 325.851562 L 180 325.851562 Z M 180 41.726562 "/>
</clipPath>
<clipPath id="clip-14">
<path clip-rule="nonzero" d="M 235 41.726562 L 237 41.726562 L 237 325.851562 L 235 325.851562 Z M 235 41.726562 "/>
</clipPath>
<clipPath id="clip-15">
<path clip-rule="nonzero" d="M 274.738281 286 L 506.84375 286 L 506.84375 288 L 274.738281 288 Z M 274.738281 286 "/>
</clipPath>
<clipPath id="clip-16">
<path clip-rule="nonzero" d="M 274.738281 235 L 506.84375 235 L 506.84375 236 L 274.738281 236 Z M 274.738281 235 "/>
</clipPath>
<clipPath id="clip-17">
<path clip-rule="nonzero" d="M 274.738281 183 L 506.84375 183 L 506.84375 185 L 274.738281 185 Z M 274.738281 183 "/>
</clipPath>
<clipPath id="clip-18">
<path clip-rule="nonzero" d="M 274.738281 131 L 506.84375 131 L 506.84375 133 L 274.738281 133 Z M 274.738281 131 "/>
</clipPath>
<clipPath id="clip-19">
<path clip-rule="nonzero" d="M 274.738281 80 L 506.84375 80 L 506.84375 81 L 274.738281 81 Z M 274.738281 80 "/>
</clipPath>
<clipPath id="clip-20">
<path clip-rule="nonzero" d="M 274.738281 312 L 506.84375 312 L 506.84375 314 L 274.738281 314 Z M 274.738281 312 "/>
</clipPath>
<clipPath id="clip-21">
<path clip-rule="nonzero" d="M 274.738281 260 L 506.84375 260 L 506.84375 262 L 274.738281 262 Z M 274.738281 260 "/>
</clipPath>
<clipPath id="clip-22">
<path clip-rule="nonzero" d="M 274.738281 209 L 506.84375 209 L 506.84375 211 L 274.738281 211 Z M 274.738281 209 "/>
</clipPath>
<clipPath id="clip-23">
<path clip-rule="nonzero" d="M 274.738281 157 L 506.84375 157 L 506.84375 159 L 274.738281 159 Z M 274.738281 157 "/>
</clipPath>
<clipPath id="clip-24">
<path clip-rule="nonzero" d="M 274.738281 105 L 506.84375 105 L 506.84375 107 L 274.738281 107 Z M 274.738281 105 "/>
</clipPath>
<clipPath id="clip-25">
<path clip-rule="nonzero" d="M 274.738281 54 L 506.84375 54 L 506.84375 56 L 274.738281 56 Z M 274.738281 54 "/>
</clipPath>
<clipPath id="clip-26">
<path clip-rule="nonzero" d="M 307 41.726562 L 309 41.726562 L 309 325.851562 L 307 325.851562 Z M 307 41.726562 "/>
</clipPath>
<clipPath id="clip-27">
<path clip-rule="nonzero" d="M 362 41.726562 L 364 41.726562 L 364 325.851562 L 362 325.851562 Z M 362 41.726562 "/>
</clipPath>
<clipPath id="clip-28">
<path clip-rule="nonzero" d="M 417 41.726562 L 419 41.726562 L 419 325.851562 L 417 325.851562 Z M 417 41.726562 "/>
</clipPath>
<clipPath id="clip-29">
<path clip-rule="nonzero" d="M 473 41.726562 L 475 41.726562 L 475 325.851562 L 473 325.851562 Z M 473 41.726562 "/>
</clipPath>
</defs>
<rect x="-57.6" y="-36" width="691.2" height="432" fill="rgb(100%, 100%, 100%)" fill-opacity="1"/>
<rect x="-57.6" y="-36" width="691.2" height="432" fill="rgb(100%, 100%, 100%)" fill-opacity="1"/>
<g clip-path="url(#clip-0)">
<path fill="none" stroke-width="0.533489" stroke-linecap="butt" stroke-linejoin="round" stroke="rgb(92.156863%, 92.156863%, 92.156863%)" stroke-opacity="1" stroke-miterlimit="10" d="M 37.152344 287.101562 L 269.257812 287.101562 "/>
</g>
<g clip-path="url(#clip-1)">
<path fill="none" stroke-width="0.533489" stroke-linecap="butt" stroke-linejoin="round" stroke="rgb(92.156863%, 92.156863%, 92.156863%)" stroke-opacity="1" stroke-miterlimit="10" d="M 37.152344 235.433594 L 269.257812 235.433594 "/>
</g>
<g clip-path="url(#clip-2)">
<path fill="none" stroke-width="0.533489" stroke-linecap="butt" stroke-linejoin="round" stroke="rgb(92.156863%, 92.156863%, 92.156863%)" stroke-opacity="1" stroke-miterlimit="10" d="M 37.152344 183.765625 L 269.257812 183.765625 "/>
</g>
<g clip-path="url(#clip-3)">
<path fill="none" stroke-width="0.533489" stroke-linecap="butt" stroke-linejoin="round" stroke="rgb(92.156863%, 92.156863%, 92.156863%)" stroke-opacity="1" stroke-miterlimit="10" d="M 37.152344 132.097656 L 269.257812 132.097656 "/>
</g>
<g clip-path="url(#clip-4)">
<path fill="none" stroke-width="0.533489" stroke-linecap="butt" stroke-linejoin="round" stroke="rgb(92.156863%, 92.156863%, 92.156863%)" stroke-opacity="1" stroke-miterlimit="10" d="M 37.152344 80.429688 L 269.257812 80.429688 "/>
</g>
<g clip-path="url(#clip-5)">
<path fill="none" stroke-width="1.066978" stroke-linecap="butt" stroke-linejoin="round" stroke="rgb(92.156863%, 92.156863%, 92.156863%)" stroke-opacity="1" stroke-miterlimit="10" d="M 37.152344 312.933594 L 269.257812 312.933594 "/>
</g>
<g clip-path="url(#clip-6)">
<path fill="none" stroke-width="1.066978" stroke-linecap="butt" stroke-linejoin="round" stroke="rgb(92.156863%, 92.156863%, 92.156863%)" stroke-opacity="1" stroke-miterlimit="10" d="M 37.152344 261.265625 L 269.257812 261.265625 "/>
</g>
<g clip-path="url(#clip-7)">
<path fill="none" stroke-width="1.066978" stroke-linecap="butt" stroke-linejoin="round" stroke="rgb(92.156863%, 92.156863%, 92.156863%)" stroke-opacity="1" stroke-miterlimit="10" d="M 37.152344 209.597656 L 269.257812 209.597656 "/>
</g>
<g clip-path="url(#clip-8)">
<path fill="none" stroke-width="1.066978" stroke-linecap="butt" stroke-linejoin="round" stroke="rgb(92.156863%, 92.156863%, 92.156863%)" stroke-opacity="1" stroke-miterlimit="10" d="M 37.152344 157.933594 L 269.257812 157.933594 "/>
</g>
<g clip-path="url(#clip-9)">
<path fill="none" stroke-width="1.066978" stroke-linecap="butt" stroke-linejoin="round" stroke="rgb(92.156863%, 92.156863%, 92.156863%)" stroke-opacity="1" stroke-miterlimit="10" d="M 37.152344 106.265625 L 269.257812 106.265625 "/>
</g>
<g clip-path="url(#clip-10)">
<path fill="none" stroke-width="1.066978" stroke-linecap="butt" stroke-linejoin="round" stroke="rgb(92.156863%, 92.156863%, 92.156863%)" stroke-opacity="1" stroke-miterlimit="10" d="M 37.152344 54.597656 L 269.257812 54.597656 "/>
</g>
<g clip-path="url(#clip-11)">
<path fill="none" stroke-width="1.066978" stroke-linecap="butt" stroke-linejoin="round" stroke="rgb(92.156863%, 92.156863%, 92.156863%)" stroke-opacity="1" stroke-miterlimit="10" d="M 70.308594 325.847656 L 70.308594 41.726562 "/>
</g>
<g clip-path="url(#clip-12)">
<path fill="none" stroke-width="1.066978" stroke-linecap="butt" stroke-linejoin="round" stroke="rgb(92.156863%, 92.156863%, 92.156863%)" stroke-opacity="1" stroke-miterlimit="10" d="M 125.570312 325.847656 L 125.570312 41.726562 "/>
</g>
<g clip-path="url(#clip-13)">
<path fill="none" stroke-width="1.066978" stroke-linecap="butt" stroke-linejoin="round" stroke="rgb(92.156863%, 92.156863%, 92.156863%)" stroke-opacity="1" stroke-miterlimit="10" d="M 180.835938 325.847656 L 180.835938 41.726562 "/>
</g>
<g clip-path="url(#clip-14)">
<path fill="none" stroke-width="1.066978" stroke-linecap="butt" stroke-linejoin="round" stroke="rgb(92.156863%, 92.156863%, 92.156863%)" stroke-opacity="1" stroke-miterlimit="10" d="M 236.097656 325.847656 L 236.097656 41.726562 "/>
</g>
<path fill-rule="nonzero" fill="rgb(0%, 74.901961%, 76.862745%)" fill-opacity="1" d="M 180.835938 312.933594 L 205.703125 312.933594 L 205.703125 183.941406 L 180.835938 183.941406 Z M 180.835938 312.933594 "/>
<path fill-rule="nonzero" fill="rgb(97.254902%, 46.27451%, 42.745098%)" fill-opacity="1" d="M 155.96875 312.933594 L 180.835938 312.933594 L 180.835938 54.96875 L 155.96875 54.96875 Z M 155.96875 312.933594 "/>
<path fill-rule="nonzero" fill="rgb(0%, 74.901961%, 76.862745%)" fill-opacity="1" d="M 70.308594 312.933594 L 95.175781 312.933594 L 95.175781 231.160156 L 70.308594 231.160156 Z M 70.308594 312.933594 "/>
<path fill-rule="nonzero" fill="rgb(97.254902%, 46.27451%, 42.745098%)" fill-opacity="1" d="M 45.441406 312.933594 L 70.308594 312.933594 L 70.308594 149.390625 L 45.441406 149.390625 Z M 45.441406 312.933594 "/>
<path fill-rule="nonzero" fill="rgb(0%, 74.901961%, 76.862745%)" fill-opacity="1" d="M 236.097656 312.933594 L 260.964844 312.933594 L 260.964844 64.164062 L 236.097656 64.164062 Z M 236.097656 312.933594 "/>
<path fill-rule="nonzero" fill="rgb(97.254902%, 46.27451%, 42.745098%)" fill-opacity="1" d="M 211.230469 312.933594 L 236.097656 312.933594 L 236.097656 64.164062 L 211.230469 64.164062 Z M 211.230469 312.933594 "/>
<path fill-rule="nonzero" fill="rgb(0%, 74.901961%, 76.862745%)" fill-opacity="1" d="M 125.570312 312.933594 L 150.4375 312.933594 L 150.4375 211.046875 L 125.570312 211.046875 Z M 125.570312 312.933594 "/>
<path fill-rule="nonzero" fill="rgb(97.254902%, 46.27451%, 42.745098%)" fill-opacity="1" d="M 100.703125 312.933594 L 125.570312 312.933594 L 125.570312 211.046875 L 100.703125 211.046875 Z M 100.703125 312.933594 "/>
<g clip-path="url(#clip-15)">
<path fill="none" stroke-width="0.533489" stroke-linecap="butt" stroke-linejoin="round" stroke="rgb(92.156863%, 92.156863%, 92.156863%)" stroke-opacity="1" stroke-miterlimit="10" d="M 274.738281 287.101562 L 506.84375 287.101562 "/>
</g>
<g clip-path="url(#clip-16)">
<path fill="none" stroke-width="0.533489" stroke-linecap="butt" stroke-linejoin="round" stroke="rgb(92.156863%, 92.156863%, 92.156863%)" stroke-opacity="1" stroke-miterlimit="10" d="M 274.738281 235.433594 L 506.84375 235.433594 "/>
</g>
<g clip-path="url(#clip-17)">
<path fill="none" stroke-width="0.533489" stroke-linecap="butt" stroke-linejoin="round" stroke="rgb(92.156863%, 92.156863%, 92.156863%)" stroke-opacity="1" stroke-miterlimit="10" d="M 274.738281 183.765625 L 506.84375 183.765625 "/>
</g>
<g clip-path="url(#clip-18)">
<path fill="none" stroke-width="0.533489" stroke-linecap="butt" stroke-linejoin="round" stroke="rgb(92.156863%, 92.156863%, 92.156863%)" stroke-opacity="1" stroke-miterlimit="10" d="M 274.738281 132.097656 L 506.84375 132.097656 "/>
</g>
<g clip-path="url(#clip-19)">
<path fill="none" stroke-width="0.533489" stroke-linecap="butt" stroke-linejoin="round" stroke="rgb(92.156863%, 92.156863%, 92.156863%)" stroke-opacity="1" stroke-miterlimit="10" d="M 274.738281 80.429688 L 506.84375 80.429688 "/>
</g>
<g clip-path="url(#clip-20)">
<path fill="none" stroke-width="1.066978" stroke-linecap="butt" stroke-linejoin="round" stroke="rgb(92.156863%, 92.156863%, 92.156863%)" stroke-opacity="1" stroke-miterlimit="10" d="M 274.738281 312.933594 L 506.84375 312.933594 "/>
</g>
<g clip-path="url(#clip-21)">
<path fill="none" stroke-width="1.066978" stroke-linecap="butt" stroke-linejoin="round" stroke="rgb(92.156863%, 92.156863%, 92.156863%)" stroke-opacity="1" stroke-miterlimit="10" d="M 274.738281 261.265625 L 506.84375 261.265625 "/>
</g>
<g clip-path="url(#clip-22)">
<path fill="none" stroke-width="1.066978" stroke-linecap="butt" stroke-linejoin="round" stroke="rgb(92.156863%, 92.156863%, 92.156863%)" stroke-opacity="1" stroke-miterlimit="10" d="M 274.738281 209.597656 L 506.84375 209.597656 "/>
</g>
<g clip-path="url(#clip-23)">
<path fill="none" stroke-width="1.066978" stroke-linecap="butt" stroke-linejoin="round" stroke="rgb(92.156863%, 92.156863%, 92.156863%)" stroke-opacity="1" stroke-miterlimit="10" d="M 274.738281 157.933594 L 506.84375 157.933594 "/>
</g>
<g clip-path="url(#clip-24)">
<path fill="none" stroke-width="1.066978" stroke-linecap="butt" stroke-linejoin="round" stroke="rgb(92.156863%, 92.156863%, 92.156863%)" stroke-opacity="1" stroke-miterlimit="10" d="M 274.738281 106.265625 L 506.84375 106.265625 "/>
</g>
<g clip-path="url(#clip-25)">
<path fill="none" stroke-width="1.066978" stroke-linecap="butt" stroke-linejoin="round" stroke="rgb(92.156863%, 92.156863%, 92.156863%)" stroke-opacity="1" stroke-miterlimit="10" d="M 274.738281 54.597656 L 506.84375 54.597656 "/>
</g>
<g clip-path="url(#clip-26)">
<path fill="none" stroke-width="1.066978" stroke-linecap="butt" stroke-linejoin="round" stroke="rgb(92.156863%, 92.156863%, 92.156863%)" stroke-opacity="1" stroke-miterlimit="10" d="M 307.894531 325.847656 L 307.894531 41.726562 "/>
</g>
<g clip-path="url(#clip-27)">
<path fill="none" stroke-width="1.066978" stroke-linecap="butt" stroke-linejoin="round" stroke="rgb(92.156863%, 92.156863%, 92.156863%)" stroke-opacity="1" stroke-miterlimit="10" d="M 363.160156 325.847656 L 363.160156 41.726562 "/>
</g>
<g clip-path="url(#clip-28)">
<path fill="none" stroke-width="1.066978" stroke-linecap="butt" stroke-linejoin="round" stroke="rgb(92.156863%, 92.156863%, 92.156863%)" stroke-opacity="1" stroke-miterlimit="10" d="M 418.421875 325.847656 L 418.421875 41.726562 "/>
</g>
<g clip-path="url(#clip-29)">
<path fill="none" stroke-width="1.066978" stroke-linecap="butt" stroke-linejoin="round" stroke="rgb(92.156863%, 92.156863%, 92.156863%)" stroke-opacity="1" stroke-miterlimit="10" d="M 473.683594 325.847656 L 473.683594 41.726562 "/>
</g>
<path fill-rule="nonzero" fill="rgb(0%, 74.901961%, 76.862745%)" fill-opacity="1" d="M 418.421875 312.933594 L 443.289062 312.933594 L 443.289062 183.785156 L 418.421875 183.785156 Z M 418.421875 312.933594 "/>
<path fill-rule="nonzero" fill="rgb(97.254902%, 46.27451%, 42.745098%)" fill-opacity="1" d="M 393.554688 312.933594 L 418.421875 312.933594 L 418.421875 54.640625 L 393.554688 54.640625 Z M 393.554688 312.933594 "/>
<path fill-rule="nonzero" fill="rgb(0%, 74.901961%, 76.862745%)" fill-opacity="1" d="M 307.894531 312.933594 L 332.761719 312.933594 L 332.761719 183.855469 L 307.894531 183.855469 Z M 307.894531 312.933594 "/>
<path fill-rule="nonzero" fill="rgb(97.254902%, 46.27451%, 42.745098%)" fill-opacity="1" d="M 283.027344 312.933594 L 307.894531 312.933594 L 307.894531 54.773438 L 283.027344 54.773438 Z M 283.027344 312.933594 "/>
<path fill-rule="nonzero" fill="rgb(0%, 74.901961%, 76.862745%)" fill-opacity="1" d="M 473.683594 312.933594 L 498.550781 312.933594 L 498.550781 57.957031 L 473.683594 57.957031 Z M 473.683594 312.933594 "/>
<path fill-rule="nonzero" fill="rgb(97.254902%, 46.27451%, 42.745098%)" fill-opacity="1" d="M 448.816406 312.933594 L 473.683594 312.933594 L 473.683594 57.957031 L 448.816406 57.957031 Z M 448.816406 312.933594 "/>
<path fill-rule="nonzero" fill="rgb(0%, 74.901961%, 76.862745%)" fill-opacity="1" d="M 363.160156 312.933594 L 388.027344 312.933594 L 388.027344 60.542969 L 363.160156 60.542969 Z M 363.160156 312.933594 "/>
<path fill-rule="nonzero" fill="rgb(97.254902%, 46.27451%, 42.745098%)" fill-opacity="1" d="M 338.289062 312.933594 L 363.15625 312.933594 L 363.15625 60.542969 L 338.289062 60.542969 Z M 338.289062 312.933594 "/>
<g fill="rgb(10.196078%, 10.196078%, 10.196078%)" fill-opacity="1">
<use xlink:href="#glyph-0-0" x="132.703125" y="35.758789"/>
<use xlink:href="#glyph-0-1" x="138.703125" y="35.758789"/>
<use xlink:href="#glyph-0-2" x="143.703125" y="35.758789"/>
<use xlink:href="#glyph-0-2" x="146.703125" y="35.758789"/>
<use xlink:href="#glyph-0-3" x="149.703125" y="35.758789"/>
<use xlink:href="#glyph-0-4" x="154.703125" y="35.758789"/>
<use xlink:href="#glyph-0-5" x="156.703125" y="35.758789"/>
<use xlink:href="#glyph-0-3" x="158.703125" y="35.758789"/>
<use xlink:href="#glyph-0-2" x="163.703125" y="35.758789"/>
<use xlink:href="#glyph-0-6" x="166.703125" y="35.758789"/>
<use xlink:href="#glyph-0-3" x="168.703125" y="35.758789"/>
</g>
<g fill="rgb(10.196078%, 10.196078%, 10.196078%)" fill-opacity="1">
<use xlink:href="#glyph-0-7" x="368.289062" y="35.758789"/>
<use xlink:href="#glyph-0-8" x="374.289062" y="35.758789"/>
<use xlink:href="#glyph-0-9" x="379.289062" y="35.758789"/>
<use xlink:href="#glyph-0-1" x="383.289062" y="35.758789"/>
<use xlink:href="#glyph-0-2" x="388.289062" y="35.758789"/>
<use xlink:href="#glyph-0-2" x="391.289062" y="35.758789"/>
<use xlink:href="#glyph-0-3" x="394.289062" y="35.758789"/>
<use xlink:href="#glyph-0-4" x="399.289062" y="35.758789"/>
<use xlink:href="#glyph-0-5" x="401.289062" y="35.758789"/>
<use xlink:href="#glyph-0-3" x="403.289062" y="35.758789"/>
<use xlink:href="#glyph-0-2" x="408.289062" y="35.758789"/>
<use xlink:href="#glyph-0-6" x="411.289062" y="35.758789"/>
</g>
<g fill="rgb(30.196078%, 30.196078%, 30.196078%)" fill-opacity="1">
<use xlink:href="#glyph-0-10" x="46.308594" y="337.196289"/>
<use xlink:href="#glyph-0-1" x="52.308594" y="337.196289"/>
<use xlink:href="#glyph-0-8" x="57.308594" y="337.196289"/>
<use xlink:href="#glyph-0-11" x="62.308594" y="337.196289"/>
<use xlink:href="#glyph-0-12" x="67.308594" y="337.196289"/>
<use xlink:href="#glyph-0-13" x="72.308594" y="337.196289"/>
<use xlink:href="#glyph-0-3" x="79.308594" y="337.196289"/>
<use xlink:href="#glyph-0-14" x="84.308594" y="337.196289"/>
<use xlink:href="#glyph-0-8" x="89.308594" y="337.196289"/>
</g>
<g fill="rgb(30.196078%, 30.196078%, 30.196078%)" fill-opacity="1">
<use xlink:href="#glyph-0-10" x="98.070312" y="337.196289"/>
<use xlink:href="#glyph-0-1" x="104.070312" y="337.196289"/>
<use xlink:href="#glyph-0-8" x="109.070312" y="337.196289"/>
<use xlink:href="#glyph-0-11" x="114.070312" y="337.196289"/>
<use xlink:href="#glyph-0-12" x="119.070312" y="337.196289"/>
<use xlink:href="#glyph-0-13" x="124.070312" y="337.196289"/>
<use xlink:href="#glyph-0-3" x="131.070312" y="337.196289"/>
<use xlink:href="#glyph-0-11" x="136.070312" y="337.196289"/>
<use xlink:href="#glyph-0-5" x="141.070312" y="337.196289"/>
<use xlink:href="#glyph-0-14" x="143.070312" y="337.196289"/>
<use xlink:href="#glyph-0-8" x="148.070312" y="337.196289"/>
</g>
<g fill="rgb(30.196078%, 30.196078%, 30.196078%)" fill-opacity="1">
<use xlink:href="#glyph-0-7" x="152.335938" y="337.196289"/>
<use xlink:href="#glyph-0-8" x="158.335938" y="337.196289"/>
<use xlink:href="#glyph-0-15" x="163.335938" y="337.196289"/>
<use xlink:href="#glyph-0-1" x="167.335938" y="337.196289"/>
<use xlink:href="#glyph-0-8" x="172.335938" y="337.196289"/>
<use xlink:href="#glyph-0-11" x="177.335938" y="337.196289"/>
<use xlink:href="#glyph-0-12" x="182.335938" y="337.196289"/>
<use xlink:href="#glyph-0-13" x="187.335938" y="337.196289"/>
<use xlink:href="#glyph-0-3" x="194.335938" y="337.196289"/>
<use xlink:href="#glyph-0-14" x="199.335938" y="337.196289"/>
<use xlink:href="#glyph-0-8" x="204.335938" y="337.196289"/>
</g>
<g fill="rgb(30.196078%, 30.196078%, 30.196078%)" fill-opacity="1">
<use xlink:href="#glyph-0-7" x="204.097656" y="337.196289"/>
<use xlink:href="#glyph-0-8" x="210.097656" y="337.196289"/>
<use xlink:href="#glyph-0-15" x="215.097656" y="337.196289"/>
<use xlink:href="#glyph-0-1" x="219.097656" y="337.196289"/>
<use xlink:href="#glyph-0-8" x="224.097656" y="337.196289"/>
<use xlink:href="#glyph-0-11" x="229.097656" y="337.196289"/>
<use xlink:href="#glyph-0-12" x="234.097656" y="337.196289"/>
<use xlink:href="#glyph-0-13" x="239.097656" y="337.196289"/>
<use xlink:href="#glyph-0-3" x="246.097656" y="337.196289"/>
<use xlink:href="#glyph-0-11" x="251.097656" y="337.196289"/>
<use xlink:href="#glyph-0-5" x="256.097656" y="337.196289"/>
<use xlink:href="#glyph-0-14" x="258.097656" y="337.196289"/>
<use xlink:href="#glyph-0-8" x="263.097656" y="337.196289"/>
</g>
<g fill="rgb(30.196078%, 30.196078%, 30.196078%)" fill-opacity="1">
<use xlink:href="#glyph-0-10" x="283.894531" y="337.196289"/>
<use xlink:href="#glyph-0-1" x="289.894531" y="337.196289"/>
<use xlink:href="#glyph-0-8" x="294.894531" y="337.196289"/>
<use xlink:href="#glyph-0-11" x="299.894531" y="337.196289"/>
<use xlink:href="#glyph-0-12" x="304.894531" y="337.196289"/>
<use xlink:href="#glyph-0-13" x="309.894531" y="337.196289"/>
<use xlink:href="#glyph-0-3" x="316.894531" y="337.196289"/>
<use xlink:href="#glyph-0-14" x="321.894531" y="337.196289"/>
<use xlink:href="#glyph-0-8" x="326.894531" y="337.196289"/>
</g>
<g fill="rgb(30.196078%, 30.196078%, 30.196078%)" fill-opacity="1">
<use xlink:href="#glyph-0-10" x="335.660156" y="337.196289"/>
<use xlink:href="#glyph-0-1" x="341.660156" y="337.196289"/>
<use xlink:href="#glyph-0-8" x="346.660156" y="337.196289"/>
<use xlink:href="#glyph-0-11" x="351.660156" y="337.196289"/>
<use xlink:href="#glyph-0-12" x="356.660156" y="337.196289"/>
<use xlink:href="#glyph-0-13" x="361.660156" y="337.196289"/>
<use xlink:href="#glyph-0-3" x="368.660156" y="337.196289"/>
<use xlink:href="#glyph-0-11" x="373.660156" y="337.196289"/>
<use xlink:href="#glyph-0-5" x="378.660156" y="337.196289"/>
<use xlink:href="#glyph-0-14" x="380.660156" y="337.196289"/>
<use xlink:href="#glyph-0-8" x="385.660156" y="337.196289"/>
</g>
<g fill="rgb(30.196078%, 30.196078%, 30.196078%)" fill-opacity="1">
<use xlink:href="#glyph-0-7" x="389.921875" y="337.196289"/>
<use xlink:href="#glyph-0-8" x="395.921875" y="337.196289"/>
<use xlink:href="#glyph-0-15" x="400.921875" y="337.196289"/>
<use xlink:href="#glyph-0-1" x="404.921875" y="337.196289"/>
<use xlink:href="#glyph-0-8" x="409.921875" y="337.196289"/>
<use xlink:href="#glyph-0-11" x="414.921875" y="337.196289"/>
<use xlink:href="#glyph-0-12" x="419.921875" y="337.196289"/>
<use xlink:href="#glyph-0-13" x="424.921875" y="337.196289"/>
<use xlink:href="#glyph-0-3" x="431.921875" y="337.196289"/>
<use xlink:href="#glyph-0-14" x="436.921875" y="337.196289"/>
<use xlink:href="#glyph-0-8" x="441.921875" y="337.196289"/>
</g>
<g fill="rgb(30.196078%, 30.196078%, 30.196078%)" fill-opacity="1">
<use xlink:href="#glyph-0-7" x="441.683594" y="337.196289"/>
<use xlink:href="#glyph-0-8" x="447.683594" y="337.196289"/>
<use xlink:href="#glyph-0-15" x="452.683594" y="337.196289"/>
<use xlink:href="#glyph-0-1" x="456.683594" y="337.196289"/>
<use xlink:href="#glyph-0-8" x="461.683594" y="337.196289"/>
<use xlink:href="#glyph-0-11" x="466.683594" y="337.196289"/>
<use xlink:href="#glyph-0-12" x="471.683594" y="337.196289"/>
<use xlink:href="#glyph-0-13" x="476.683594" y="337.196289"/>
<use xlink:href="#glyph-0-3" x="483.683594" y="337.196289"/>
<use xlink:href="#glyph-0-11" x="488.683594" y="337.196289"/>
<use xlink:href="#glyph-0-5" x="493.683594" y="337.196289"/>
<use xlink:href="#glyph-0-14" x="495.683594" y="337.196289"/>
<use xlink:href="#glyph-0-8" x="500.683594" y="337.196289"/>
</g>
<g fill="rgb(30.196078%, 30.196078%, 30.196078%)" fill-opacity="1">
<use xlink:href="#glyph-0-16" x="20.21875" y="315.848633"/>
<use xlink:href="#glyph-0-17" x="25.21875" y="315.848633"/>
<use xlink:href="#glyph-0-16" x="27.21875" y="315.848633"/>
</g>
<g fill="rgb(30.196078%, 30.196078%, 30.196078%)" fill-opacity="1">
<use xlink:href="#glyph-0-16" x="20.21875" y="264.180664"/>
<use xlink:href="#glyph-0-17" x="25.21875" y="264.180664"/>
<use xlink:href="#glyph-0-18" x="27.21875" y="264.180664"/>
</g>
<g fill="rgb(30.196078%, 30.196078%, 30.196078%)" fill-opacity="1">
<use xlink:href="#glyph-0-16" x="20.21875" y="212.512695"/>
<use xlink:href="#glyph-0-17" x="25.21875" y="212.512695"/>
<use xlink:href="#glyph-0-19" x="27.21875" y="212.512695"/>
</g>
<g fill="rgb(30.196078%, 30.196078%, 30.196078%)" fill-opacity="1">
<use xlink:href="#glyph-0-16" x="20.21875" y="160.848633"/>
<use xlink:href="#glyph-0-17" x="25.21875" y="160.848633"/>
<use xlink:href="#glyph-0-20" x="27.21875" y="160.848633"/>
</g>
<g fill="rgb(30.196078%, 30.196078%, 30.196078%)" fill-opacity="1">
<use xlink:href="#glyph-0-16" x="20.21875" y="109.180664"/>
<use xlink:href="#glyph-0-17" x="25.21875" y="109.180664"/>
<use xlink:href="#glyph-0-21" x="27.21875" y="109.180664"/>
</g>
<g fill="rgb(30.196078%, 30.196078%, 30.196078%)" fill-opacity="1">
<use xlink:href="#glyph-0-16" x="20.21875" y="57.512695"/>
<use xlink:href="#glyph-0-17" x="25.21875" y="57.512695"/>
<use xlink:href="#glyph-0-22" x="27.21875" y="57.512695"/>
</g>
<g fill="rgb(0%, 0%, 0%)" fill-opacity="1">
<use xlink:href="#glyph-1-0" x="240.996094" y="350.538086"/>
<use xlink:href="#glyph-1-1" x="247.996094" y="350.538086"/>
<use xlink:href="#glyph-1-2" x="251.996094" y="350.538086"/>
<use xlink:href="#glyph-1-3" x="257.996094" y="350.538086"/>
<use xlink:href="#glyph-1-4" x="263.996094" y="350.538086"/>
<use xlink:href="#glyph-1-2" x="269.996094" y="350.538086"/>
<use xlink:href="#glyph-1-5" x="275.996094" y="350.538086"/>
<use xlink:href="#glyph-1-6" x="281.996094" y="350.538086"/>
<use xlink:href="#glyph-1-7" x="287.996094" y="350.538086"/>
<use xlink:href="#glyph-1-8" x="290.996094" y="350.538086"/>
<use xlink:href="#glyph-1-9" x="296.996094" y="350.538086"/>
</g>
<g fill="rgb(0%, 0%, 0%)" fill-opacity="1">
<use xlink:href="#glyph-2-0" x="13.499023" y="198.789062"/>
<use xlink:href="#glyph-2-1" x="13.499023" y="192.789062"/>
<use xlink:href="#glyph-2-2" x="13.499023" y="186.789062"/>
<use xlink:href="#glyph-2-3" x="13.499023" y="180.789062"/>
<use xlink:href="#glyph-2-1" x="13.499023" y="178.789062"/>
<use xlink:href="#glyph-2-4" x="13.499023" y="172.789062"/>
</g>
<g fill="rgb(0%, 0%, 0%)" fill-opacity="1">
<use xlink:href="#glyph-1-10" x="523.28125" y="167.288086"/>
<use xlink:href="#glyph-1-2" x="529.28125" y="167.288086"/>
<use xlink:href="#glyph-1-5" x="535.28125" y="167.288086"/>
<use xlink:href="#glyph-1-5" x="541.28125" y="167.288086"/>
</g>
<path fill-rule="nonzero" fill="rgb(97.254902%, 46.27451%, 42.745098%)" fill-opacity="1" d="M 523.992188 191.820312 L 539.855469 191.820312 L 539.855469 175.957031 L 523.992188 175.957031 Z M 523.992188 191.820312 "/>
<path fill-rule="nonzero" fill="rgb(0%, 74.901961%, 76.862745%)" fill-opacity="1" d="M 523.992188 209.097656 L 539.855469 209.097656 L 539.855469 193.234375 L 523.992188 193.234375 Z M 523.992188 209.097656 "/>
<g fill="rgb(0%, 0%, 0%)" fill-opacity="1">
<use xlink:href="#glyph-0-13" x="546.042969" y="186.801758"/>
<use xlink:href="#glyph-0-23" x="553.042969" y="186.801758"/>
<use xlink:href="#glyph-0-24" x="559.042969" y="186.801758"/>
</g>
<g fill="rgb(0%, 0%, 0%)" fill-opacity="1">
<use xlink:href="#glyph-0-13" x="546.042969" y="204.083008"/>
<use xlink:href="#glyph-0-25" x="553.042969" y="204.083008"/>
<use xlink:href="#glyph-0-24" x="559.042969" y="204.083008"/>
</g>
<g fill="rgb(0%, 0%, 0%)" fill-opacity="1">
<use xlink:href="#glyph-3-0" x="37.152344" y="15.102539"/>
<use xlink:href="#glyph-3-1" x="46.152344" y="15.102539"/>
<use xlink:href="#glyph-3-2" x="50.152344" y="15.102539"/>
<use xlink:href="#glyph-3-3" x="57.152344" y="15.102539"/>
<use xlink:href="#glyph-3-4" x="64.152344" y="15.102539"/>
<use xlink:href="#glyph-3-2" x="71.152344" y="15.102539"/>
<use xlink:href="#glyph-3-5" x="78.152344" y="15.102539"/>
<use xlink:href="#glyph-3-6" x="85.152344" y="15.102539"/>
<use xlink:href="#glyph-3-3" x="92.152344" y="15.102539"/>
<use xlink:href="#glyph-3-7" x="99.152344" y="15.102539"/>
<use xlink:href="#glyph-3-8" x="106.152344" y="15.102539"/>
<use xlink:href="#glyph-3-6" x="109.152344" y="15.102539"/>
<use xlink:href="#glyph-3-9" x="116.152344" y="15.102539"/>
<use xlink:href="#glyph-3-10" x="120.152344" y="15.102539"/>
<use xlink:href="#glyph-3-4" x="127.152344" y="15.102539"/>
<use xlink:href="#glyph-3-8" x="134.152344" y="15.102539"/>
<use xlink:href="#glyph-3-6" x="137.152344" y="15.102539"/>
<use xlink:href="#glyph-3-1" x="144.152344" y="15.102539"/>
<use xlink:href="#glyph-3-9" x="148.152344" y="15.102539"/>
<use xlink:href="#glyph-3-11" x="152.152344" y="15.102539"/>
<use xlink:href="#glyph-3-6" x="158.152344" y="15.102539"/>
<use xlink:href="#glyph-3-1" x="165.152344" y="15.102539"/>
<use xlink:href="#glyph-3-5" x="169.152344" y="15.102539"/>
<use xlink:href="#glyph-3-12" x="176.152344" y="15.102539"/>
<use xlink:href="#glyph-3-13" x="183.152344" y="15.102539"/>
<use xlink:href="#glyph-3-14" x="190.152344" y="15.102539"/>
<use xlink:href="#glyph-3-6" x="193.152344" y="15.102539"/>
<use xlink:href="#glyph-3-15" x="200.152344" y="15.102539"/>
<use xlink:href="#glyph-3-6" x="207.152344" y="15.102539"/>
<use xlink:href="#glyph-3-4" x="214.152344" y="15.102539"/>
<use xlink:href="#glyph-3-6" x="221.152344" y="15.102539"/>
<use xlink:href="#glyph-3-4" x="228.152344" y="15.102539"/>
<use xlink:href="#glyph-3-9" x="235.152344" y="15.102539"/>
<use xlink:href="#glyph-3-16" x="239.152344" y="15.102539"/>
<use xlink:href="#glyph-3-6" x="247.152344" y="15.102539"/>
<use xlink:href="#glyph-3-1" x="254.152344" y="15.102539"/>
<use xlink:href="#glyph-3-17" x="258.152344" y="15.102539"/>
<use xlink:href="#glyph-3-10" x="261.152344" y="15.102539"/>
<use xlink:href="#glyph-3-5" x="268.152344" y="15.102539"/>
<use xlink:href="#glyph-3-8" x="275.152344" y="15.102539"/>
<use xlink:href="#glyph-3-18" x="279.152344" y="15.102539"/>
<use xlink:href="#glyph-3-10" x="283.152344" y="15.102539"/>
<use xlink:href="#glyph-3-4" x="290.152344" y="15.102539"/>
<use xlink:href="#glyph-3-19" x="297.152344" y="15.102539"/>
<use xlink:href="#glyph-3-8" x="304.152344" y="15.102539"/>
<use xlink:href="#glyph-3-14" x="308.152344" y="15.102539"/>
<use xlink:href="#glyph-3-2" x="311.152344" y="15.102539"/>
<use xlink:href="#glyph-3-4" x="318.152344" y="15.102539"/>
<use xlink:href="#glyph-3-6" x="325.152344" y="15.102539"/>
<use xlink:href="#glyph-3-4" x="332.152344" y="15.102539"/>
</g>
</svg>
