<?xml version="1.0" encoding="UTF-8"?>
<svg xmlns="http://www.w3.org/2000/svg" xmlns:xlink="http://www.w3.org/1999/xlink" width="576pt" height="360pt" viewBox="0 0 576 360" version="1.1">
<defs>
<g>
<symbol overflow="visible" id="glyph0-0">
<path style="stroke:none;" d=""/>
</symbol>
<symbol overflow="visible" id="glyph0-1">
<path style="stroke:none;" d="M 3.3125 -4.15625 L 5.796875 -4.15625 C 6.734375 -4.15625 7.125 -3.78125 7.125 -2.921875 L 7.125 -2.5 C 7.109375 -2.21875 7.109375 -1.953125 7.109375 -1.796875 C 7.109375 -0.8125 7.171875 -0.5 7.4375 0 L 9.75 0 L 9.75 -0.390625 C 9.421875 -0.578125 9.296875 -0.796875 9.296875 -1.25 C 9.234375 -4.34375 9.171875 -4.5 7.84375 -5.078125 C 9.015625 -5.53125 9.609375 -6.375 9.609375 -7.671875 C 9.609375 -8.5 9.328125 -9.265625 8.8125 -9.78125 C 8.34375 -10.265625 7.671875 -10.5 6.78125 -10.5 L 1.15625 -10.5 L 1.15625 0 L 3.3125 0 Z M 3.3125 -5.96875 L 3.3125 -8.703125 L 5.921875 -8.703125 C 6.546875 -8.703125 6.78125 -8.640625 7.0625 -8.421875 C 7.3125 -8.21875 7.453125 -7.84375 7.453125 -7.359375 C 7.453125 -6.859375 7.3125 -6.453125 7.0625 -6.234375 C 6.8125 -6.03125 6.546875 -5.96875 5.921875 -5.96875 Z M 3.3125 -5.96875 "/>
</symbol>
<symbol overflow="visible" id="glyph0-2">
<path style="stroke:none;" d="M 7.546875 -3.25 C 7.5625 -3.421875 7.5625 -3.5 7.5625 -3.59375 C 7.5625 -4.375 7.453125 -5.09375 7.265625 -5.640625 C 6.734375 -7.0625 5.484375 -7.90625 3.921875 -7.90625 C 1.6875 -7.90625 0.3125 -6.296875 0.3125 -3.6875 C 0.3125 -1.203125 1.671875 0.328125 3.875 0.328125 C 5.625 0.328125 7.03125 -0.640625 7.484375 -2.1875 L 5.484375 -2.1875 C 5.25 -1.5625 4.6875 -1.203125 3.953125 -1.203125 C 3.375 -1.203125 2.90625 -1.453125 2.625 -1.890625 C 2.4375 -2.171875 2.359375 -2.515625 2.328125 -3.25 Z M 2.359375 -4.59375 C 2.5 -5.796875 3 -6.375 3.890625 -6.375 C 4.8125 -6.375 5.359375 -5.75 5.453125 -4.59375 Z M 2.359375 -4.59375 "/>
</symbol>
<symbol overflow="visible" id="glyph0-3">
<path style="stroke:none;" d="M 7.546875 -0.25 C 7.203125 -0.578125 7.09375 -0.8125 7.09375 -1.203125 L 7.09375 -5.515625 C 7.09375 -7.109375 6 -7.90625 3.90625 -7.90625 C 1.796875 -7.90625 0.703125 -7.015625 0.578125 -5.21875 L 2.515625 -5.21875 C 2.625 -6.015625 2.953125 -6.28125 3.953125 -6.28125 C 4.71875 -6.28125 5.109375 -6.015625 5.109375 -5.5 C 5.109375 -5.25 4.984375 -5.03125 4.765625 -4.890625 C 4.5 -4.75 4.5 -4.75 3.5 -4.59375 L 2.6875 -4.453125 C 1.15625 -4.1875 0.40625 -3.40625 0.40625 -2 C 0.40625 -0.609375 1.34375 0.328125 2.765625 0.328125 C 3.625 0.328125 4.40625 -0.03125 5.125 -0.78125 C 5.125 -0.375 5.171875 -0.234375 5.359375 0 L 7.546875 0 Z M 5.109375 -3.125 C 5.109375 -1.953125 4.53125 -1.296875 3.515625 -1.296875 C 2.84375 -1.296875 2.421875 -1.65625 2.421875 -2.234375 C 2.421875 -2.84375 2.734375 -3.125 3.578125 -3.296875 L 4.265625 -3.421875 C 4.796875 -3.53125 4.890625 -3.5625 5.109375 -3.671875 Z M 5.109375 -3.125 "/>
</symbol>
<symbol overflow="visible" id="glyph0-4">
<path style="stroke:none;" d="M 2.984375 -10.5 L 0.96875 -10.5 L 0.96875 0 L 2.984375 0 Z M 2.984375 -10.5 "/>
</symbol>
<symbol overflow="visible" id="glyph0-5">
<path style="stroke:none;" d="M 7.28125 -5.265625 C 7.25 -6.921875 5.984375 -7.90625 3.890625 -7.90625 C 1.921875 -7.90625 0.6875 -6.921875 0.6875 -5.3125 C 0.6875 -4.796875 0.84375 -4.34375 1.125 -4.046875 C 1.390625 -3.78125 1.640625 -3.640625 2.390625 -3.40625 L 4.796875 -2.65625 C 5.296875 -2.5 5.46875 -2.328125 5.46875 -2.015625 C 5.46875 -1.546875 4.90625 -1.25 3.96875 -1.25 C 3.4375 -1.25 3.046875 -1.34375 2.78125 -1.53125 C 2.5625 -1.6875 2.484375 -1.84375 2.390625 -2.265625 L 0.421875 -2.265625 C 0.46875 -0.546875 1.734375 0.328125 4.09375 0.328125 C 5.171875 0.328125 6 0.09375 6.5625 -0.359375 C 7.140625 -0.828125 7.484375 -1.546875 7.484375 -2.3125 C 7.484375 -3.3125 6.984375 -3.96875 5.96875 -4.265625 L 3.421875 -5 C 2.859375 -5.171875 2.703125 -5.28125 2.703125 -5.609375 C 2.703125 -6.03125 3.171875 -6.328125 3.875 -6.328125 C 4.84375 -6.328125 5.3125 -5.984375 5.328125 -5.265625 Z M 7.28125 -5.265625 "/>
</symbol>
<symbol overflow="visible" id="glyph0-6">
<path style="stroke:none;" d=""/>
</symbol>
<symbol overflow="visible" id="glyph0-7">
<path style="stroke:none;" d="M 7.265625 -10.5 L 7.265625 -3.390625 C 7.265625 -2.125 6.609375 -1.515625 5.265625 -1.515625 C 3.90625 -1.515625 3.25 -2.125 3.25 -3.390625 L 3.25 -10.5 L 1.09375 -10.5 L 1.09375 -3.390625 C 1.09375 -2.203125 1.40625 -1.375 2.125 -0.734375 C 2.875 -0.046875 3.984375 0.328125 5.265625 0.328125 C 6.53125 0.328125 7.640625 -0.046875 8.40625 -0.734375 C 9.109375 -1.375 9.421875 -2.203125 9.421875 -3.390625 L 9.421875 -10.5 Z M 7.265625 -10.5 "/>
</symbol>
<symbol overflow="visible" id="glyph0-8">
<path style="stroke:none;" d="M 8.75 -7.296875 C 8.734375 -9.484375 7.28125 -10.671875 4.625 -10.671875 C 2.109375 -10.671875 0.640625 -9.5 0.640625 -7.453125 C 0.640625 -5.8125 1.46875 -5.03125 3.59375 -4.625 L 5.078125 -4.34375 C 6.515625 -4.0625 7.046875 -3.65625 7.046875 -2.8125 C 7.046875 -1.9375 6.234375 -1.390625 4.921875 -1.390625 C 3.453125 -1.390625 2.640625 -2.015625 2.5625 -3.140625 L 0.46875 -3.140625 C 0.59375 -0.890625 2.125 0.328125 4.8125 0.328125 C 7.515625 0.328125 9.125 -0.921875 9.125 -3.0625 C 9.125 -4.71875 8.28125 -5.59375 6.34375 -5.96875 L 4.703125 -6.28125 C 3.15625 -6.578125 2.703125 -6.890625 2.703125 -7.65625 C 2.703125 -8.4375 3.40625 -8.953125 4.53125 -8.953125 C 5.890625 -8.953125 6.65625 -8.375 6.734375 -7.296875 Z M 8.75 -7.296875 "/>
</symbol>
<symbol overflow="visible" id="glyph0-9">
<path style="stroke:none;" d="M 4.296875 -4.921875 L 0.375 -4.921875 L 0.375 -2.984375 L 4.296875 -2.984375 Z M 4.296875 -4.921875 "/>
</symbol>
<symbol overflow="visible" id="glyph0-10">
<path style="stroke:none;" d="M 1.1875 0 L 5.90625 0 C 7.109375 0 7.921875 -0.234375 8.5625 -0.765625 C 9.1875 -1.296875 9.59375 -2.171875 9.59375 -3.03125 C 9.59375 -4.0625 9.046875 -4.890625 7.84375 -5.578125 C 8.890625 -6.234375 9.296875 -6.84375 9.296875 -7.734375 C 9.296875 -8.46875 8.9375 -9.21875 8.34375 -9.734375 C 7.71875 -10.265625 6.984375 -10.5 5.859375 -10.5 L 1.1875 -10.5 Z M 3.34375 -8.703125 L 5.6875 -8.703125 C 6.703125 -8.703125 7.21875 -8.296875 7.21875 -7.515625 C 7.21875 -6.734375 6.703125 -6.328125 5.6875 -6.328125 L 3.34375 -6.328125 Z M 3.34375 -4.53125 L 5.921875 -4.53125 C 6.96875 -4.53125 7.515625 -4.0625 7.515625 -3.15625 C 7.515625 -2.265625 6.96875 -1.796875 5.921875 -1.796875 L 3.34375 -1.796875 Z M 3.34375 -4.53125 "/>
</symbol>
<symbol overflow="visible" id="glyph0-11">
<path style="stroke:none;" d="M 3.0625 -10.5 L 0.90625 -10.5 L 0.90625 0 L 3.0625 0 Z M 3.0625 -10.5 "/>
</symbol>
<symbol overflow="visible" id="glyph0-12">
<path style="stroke:none;" d="M 3.25 -3.75 L 5.953125 -3.75 C 7.875 -3.75 9.125 -5.109375 9.125 -7.25 C 9.125 -9.34375 7.921875 -10.5 5.734375 -10.5 L 1.09375 -10.5 L 1.09375 0 L 3.25 0 Z M 3.25 -5.546875 L 3.25 -8.703125 L 5.265625 -8.703125 C 6.421875 -8.703125 6.953125 -8.203125 6.953125 -7.125 C 6.953125 -6.046875 6.421875 -5.546875 5.265625 -5.546875 Z M 3.25 -5.546875 "/>
</symbol>
<symbol overflow="visible" id="glyph1-0">
<path style="stroke:none;" d=""/>
</symbol>
<symbol overflow="visible" id="glyph1-1">
<path style="stroke:none;" d="M 1.0625 0 L 4.4375 0 C 6.640625 0 8 -1.65625 8 -4.375 C 8 -7.09375 6.65625 -8.75 4.4375 -8.75 L 1.0625 -8.75 Z M 2.1875 -0.984375 L 2.1875 -7.765625 L 4.25 -7.765625 C 5.96875 -7.765625 6.890625 -6.59375 6.890625 -4.375 C 6.890625 -2.140625 5.96875 -0.984375 4.25 -0.984375 Z M 2.1875 -0.984375 "/>
</symbol>
<symbol overflow="visible" id="glyph1-2">
<path style="stroke:none;" d="M 6.421875 -0.59375 C 6.3125 -0.5625 6.265625 -0.5625 6.203125 -0.5625 C 5.859375 -0.5625 5.65625 -0.75 5.65625 -1.0625 L 5.65625 -4.75 C 5.65625 -5.875 4.84375 -6.46875 3.296875 -6.46875 C 2.375 -6.46875 1.640625 -6.203125 1.21875 -5.734375 C 0.921875 -5.40625 0.796875 -5.046875 0.78125 -4.421875 L 1.78125 -4.421875 C 1.875 -5.203125 2.328125 -5.546875 3.265625 -5.546875 C 4.171875 -5.546875 4.671875 -5.203125 4.671875 -4.609375 L 4.671875 -4.34375 C 4.65625 -3.90625 4.4375 -3.75 3.625 -3.640625 C 2.203125 -3.46875 1.984375 -3.421875 1.609375 -3.265625 C 0.875 -2.953125 0.5 -2.40625 0.5 -1.578125 C 0.5 -0.4375 1.296875 0.28125 2.5625 0.28125 C 3.359375 0.28125 4 0 4.703125 -0.640625 C 4.78125 0 5.09375 0.28125 5.734375 0.28125 C 5.953125 0.28125 6.078125 0.25 6.421875 0.171875 Z M 4.671875 -1.984375 C 4.671875 -1.640625 4.578125 -1.4375 4.265625 -1.15625 C 3.859375 -0.796875 3.375 -0.59375 2.78125 -0.59375 C 2 -0.59375 1.546875 -0.96875 1.546875 -1.609375 C 1.546875 -2.265625 1.984375 -2.609375 3.0625 -2.765625 C 4.125 -2.90625 4.328125 -2.953125 4.671875 -3.109375 Z M 4.671875 -1.984375 "/>
</symbol>
<symbol overflow="visible" id="glyph1-3">
<path style="stroke:none;" d="M 3.046875 -6.28125 L 2.015625 -6.28125 L 2.015625 -8.015625 L 1.015625 -8.015625 L 1.015625 -6.28125 L 0.171875 -6.28125 L 0.171875 -5.46875 L 1.015625 -5.46875 L 1.015625 -0.71875 C 1.015625 -0.078125 1.453125 0.28125 2.234375 0.28125 C 2.5 0.28125 2.71875 0.25 3.046875 0.1875 L 3.046875 -0.640625 C 2.90625 -0.609375 2.765625 -0.59375 2.5625 -0.59375 C 2.140625 -0.59375 2.015625 -0.71875 2.015625 -1.15625 L 2.015625 -5.46875 L 3.046875 -5.46875 Z M 3.046875 -6.28125 "/>
</symbol>
<symbol overflow="visible" id="glyph1-4">
<path style="stroke:none;" d="M 5.78125 0 L 5.78125 -6.28125 L 4.78125 -6.28125 L 4.78125 -2.71875 C 4.78125 -1.4375 4.109375 -0.59375 3.078125 -0.59375 C 2.28125 -0.59375 1.78125 -1.078125 1.78125 -1.84375 L 1.78125 -6.28125 L 0.78125 -6.28125 L 0.78125 -1.4375 C 0.78125 -0.390625 1.5625 0.28125 2.78125 0.28125 C 3.703125 0.28125 4.296875 -0.046875 4.890625 -0.875 L 4.890625 0 Z M 5.78125 0 "/>
</symbol>
<symbol overflow="visible" id="glyph1-5">
<path style="stroke:none;" d="M 0.84375 -6.28125 L 0.84375 0 L 1.84375 0 L 1.84375 -3.953125 C 1.84375 -4.859375 2.515625 -5.59375 3.328125 -5.59375 C 4.0625 -5.59375 4.484375 -5.140625 4.484375 -4.328125 L 4.484375 0 L 5.5 0 L 5.5 -3.953125 C 5.5 -4.859375 6.15625 -5.59375 6.96875 -5.59375 C 7.703125 -5.59375 8.140625 -5.125 8.140625 -4.328125 L 8.140625 0 L 9.140625 0 L 9.140625 -4.71875 C 9.140625 -5.84375 8.5 -6.46875 7.3125 -6.46875 C 6.484375 -6.46875 5.96875 -6.21875 5.390625 -5.515625 C 5.015625 -6.1875 4.515625 -6.46875 3.703125 -6.46875 C 2.859375 -6.46875 2.296875 -6.15625 1.765625 -5.40625 L 1.765625 -6.28125 Z M 0.84375 -6.28125 "/>
</symbol>
<symbol overflow="visible" id="glyph1-6">
<path style="stroke:none;" d="M 3.109375 -6.1875 L 3.109375 0 L 4.15625 0 L 4.15625 -8.671875 L 3.46875 -8.671875 C 3.09375 -7.34375 2.859375 -7.15625 1.21875 -6.953125 L 1.21875 -6.1875 Z M 3.109375 -6.1875 "/>
</symbol>
<symbol overflow="visible" id="glyph1-7">
<path style="stroke:none;" d="M 0.640625 -1.984375 C 0.84375 -0.5625 1.75 0.28125 3.046875 0.28125 C 4 0.28125 4.84375 -0.1875 5.34375 -0.953125 C 5.875 -1.8125 6.109375 -2.875 6.109375 -4.4375 C 6.109375 -5.90625 5.890625 -6.828125 5.390625 -7.59375 C 4.921875 -8.296875 4.171875 -8.671875 3.234375 -8.671875 C 1.625 -8.671875 0.453125 -7.46875 0.453125 -5.78125 C 0.453125 -4.1875 1.53125 -3.0625 3.078125 -3.0625 C 3.875 -3.0625 4.46875 -3.34375 5.015625 -4.015625 C 5 -1.84375 4.328125 -0.65625 3.125 -0.65625 C 2.375 -0.65625 1.859375 -1.140625 1.6875 -1.984375 Z M 3.234375 -7.75 C 4.21875 -7.75 4.953125 -6.921875 4.953125 -5.8125 C 4.953125 -4.734375 4.234375 -4 3.1875 -4 C 2.171875 -4 1.53125 -4.71875 1.53125 -5.875 C 1.53125 -6.953125 2.25 -7.75 3.234375 -7.75 Z M 3.234375 -7.75 "/>
</symbol>
<symbol overflow="visible" id="glyph1-8">
<path style="stroke:none;" d="M 5.96875 -6.421875 C 5.765625 -7.84375 4.859375 -8.671875 3.5625 -8.671875 C 2.625 -8.671875 1.78125 -8.21875 1.28125 -7.4375 C 0.75 -6.59375 0.515625 -5.53125 0.515625 -3.953125 C 0.515625 -2.5 0.71875 -1.578125 1.234375 -0.796875 C 1.6875 -0.09375 2.4375 0.28125 3.375 0.28125 C 4.984375 0.28125 6.15625 -0.9375 6.15625 -2.625 C 6.15625 -4.21875 5.078125 -5.359375 3.546875 -5.359375 C 2.71875 -5.359375 2.046875 -5.046875 1.59375 -4.40625 C 1.609375 -6.546875 2.28125 -7.734375 3.484375 -7.734375 C 4.234375 -7.734375 4.75 -7.265625 4.921875 -6.421875 Z M 3.421875 -4.421875 C 4.4375 -4.421875 5.078125 -3.703125 5.078125 -2.546875 C 5.078125 -1.453125 4.359375 -0.65625 3.390625 -0.65625 C 2.40625 -0.65625 1.65625 -1.484375 1.65625 -2.59375 C 1.65625 -3.671875 2.375 -4.421875 3.421875 -4.421875 Z M 3.421875 -4.421875 "/>
</symbol>
<symbol overflow="visible" id="glyph1-9">
<path style="stroke:none;" d="M 3.296875 -8.671875 C 2.515625 -8.671875 1.78125 -8.3125 1.34375 -7.734375 C 0.796875 -6.953125 0.515625 -5.8125 0.515625 -4.203125 C 0.515625 -1.265625 1.46875 0.28125 3.296875 0.28125 C 5.09375 0.28125 6.078125 -1.265625 6.078125 -4.125 C 6.078125 -5.8125 5.8125 -6.9375 5.25 -7.734375 C 4.8125 -8.328125 4.109375 -8.671875 3.296875 -8.671875 Z M 3.296875 -7.734375 C 4.4375 -7.734375 5 -6.578125 5 -4.21875 C 5 -1.75 4.453125 -0.59375 3.28125 -0.59375 C 2.15625 -0.59375 1.59375 -1.796875 1.59375 -4.1875 C 1.59375 -6.578125 2.15625 -7.734375 3.296875 -7.734375 Z M 3.296875 -7.734375 "/>
</symbol>
<symbol overflow="visible" id="glyph1-10">
<path style="stroke:none;" d="M 6.234375 -8.515625 L 0.546875 -8.515625 L 0.546875 -7.46875 L 5.140625 -7.46875 C 3.125 -4.578125 2.296875 -2.796875 1.65625 0 L 2.78125 0 C 3.25 -2.71875 4.3125 -5.0625 6.234375 -7.625 Z M 6.234375 -8.515625 "/>
</symbol>
<symbol overflow="visible" id="glyph1-11">
<path style="stroke:none;" d="M 4.6875 -4.578125 C 5.578125 -5.109375 5.859375 -5.546875 5.859375 -6.359375 C 5.859375 -7.734375 4.8125 -8.671875 3.296875 -8.671875 C 1.796875 -8.671875 0.75 -7.734375 0.75 -6.375 C 0.75 -5.546875 1.015625 -5.125 1.890625 -4.578125 C 0.921875 -4.078125 0.4375 -3.375 0.4375 -2.40625 C 0.4375 -0.828125 1.609375 0.28125 3.296875 0.28125 C 4.984375 0.28125 6.15625 -0.828125 6.15625 -2.40625 C 6.15625 -3.375 5.671875 -4.078125 4.6875 -4.578125 Z M 3.296875 -7.734375 C 4.203125 -7.734375 4.78125 -7.203125 4.78125 -6.34375 C 4.78125 -5.515625 4.1875 -4.984375 3.296875 -4.984375 C 2.40625 -4.984375 1.828125 -5.515625 1.828125 -6.359375 C 1.828125 -7.203125 2.40625 -7.734375 3.296875 -7.734375 Z M 3.296875 -4.09375 C 4.359375 -4.09375 5.078125 -3.390625 5.078125 -2.390625 C 5.078125 -1.34375 4.375 -0.65625 3.28125 -0.65625 C 2.25 -0.65625 1.53125 -1.375 1.53125 -2.375 C 1.53125 -3.40625 2.234375 -4.09375 3.296875 -4.09375 Z M 3.296875 -4.09375 "/>
</symbol>
<symbol overflow="visible" id="glyph1-12">
<path style="stroke:none;" d="M 6.078125 -1.046875 L 1.59375 -1.046875 C 1.703125 -1.765625 2.09375 -2.21875 3.125 -2.859375 L 4.328125 -3.53125 C 5.515625 -4.1875 6.125 -5.078125 6.125 -6.140625 C 6.125 -6.859375 5.84375 -7.53125 5.34375 -8 C 4.84375 -8.453125 4.21875 -8.671875 3.40625 -8.671875 C 2.328125 -8.671875 1.53125 -8.296875 1.0625 -7.546875 C 0.75 -7.09375 0.625 -6.546875 0.59375 -5.671875 L 1.65625 -5.671875 C 1.6875 -6.265625 1.765625 -6.609375 1.90625 -6.90625 C 2.1875 -7.421875 2.734375 -7.75 3.375 -7.75 C 4.328125 -7.75 5.046875 -7.0625 5.046875 -6.125 C 5.046875 -5.421875 4.65625 -4.828125 3.90625 -4.390625 L 2.796875 -3.75 C 1.015625 -2.71875 0.5 -1.90625 0.40625 -0.015625 L 6.078125 -0.015625 Z M 6.078125 -1.046875 "/>
</symbol>
<symbol overflow="visible" id="glyph2-0">
<path style="stroke:none;" d=""/>
</symbol>
<symbol overflow="visible" id="glyph2-1">
<path style="stroke:none;" d="M 0 -0.953125 L 0 -4.890625 C 0 -5.71875 -0.234375 -6.34375 -0.734375 -6.796875 C -1.1875 -7.234375 -1.8125 -7.46875 -2.5 -7.46875 C -3.546875 -7.46875 -4.1875 -7 -4.625 -5.875 C -4.984375 -6.6875 -5.625 -7.09375 -6.53125 -7.09375 C -7.171875 -7.09375 -7.734375 -6.859375 -8.140625 -6.390625 C -8.5625 -5.921875 -8.75 -5.34375 -8.75 -4.5 L -8.75 -0.953125 Z M -4.984375 -2.0625 L -7.765625 -2.0625 L -7.765625 -4.21875 C -7.765625 -4.84375 -7.6875 -5.203125 -7.453125 -5.5 C -7.21875 -5.8125 -6.859375 -5.96875 -6.375 -5.96875 C -5.890625 -5.96875 -5.53125 -5.8125 -5.296875 -5.5 C -5.0625 -5.203125 -4.984375 -4.84375 -4.984375 -4.21875 Z M -0.984375 -2.0625 L -4 -2.0625 L -4 -4.78125 C -4 -5.765625 -3.4375 -6.359375 -2.484375 -6.359375 C -1.546875 -6.359375 -0.984375 -5.765625 -0.984375 -4.78125 Z M -0.984375 -2.0625 "/>
</symbol>
<symbol overflow="visible" id="glyph2-2">
<path style="stroke:none;" d="M -6.28125 -1.796875 L -6.28125 -0.796875 L 0 -0.796875 L 0 -1.796875 Z M -8.75 -1.796875 L -8.75 -0.796875 L -7.484375 -0.796875 L -7.484375 -1.796875 Z M -8.75 -1.796875 "/>
</symbol>
<symbol overflow="visible" id="glyph2-3">
<path style="stroke:none;" d="M -8.75 -1.828125 L -8.75 -0.8125 L 0 -0.8125 L 0 -1.828125 Z M -8.75 -1.828125 "/>
</symbol>
<symbol overflow="visible" id="glyph2-4">
<path style="stroke:none;" d="M -6.46875 -3.265625 C -6.46875 -1.484375 -5.203125 -0.4375 -3.09375 -0.4375 C -0.96875 -0.4375 0.28125 -1.484375 0.28125 -3.28125 C 0.28125 -5.046875 -0.984375 -6.125 -3.046875 -6.125 C -5.234375 -6.125 -6.46875 -5.09375 -6.46875 -3.265625 Z M -5.546875 -3.28125 C -5.546875 -4.40625 -4.625 -5.078125 -3.0625 -5.078125 C -1.578125 -5.078125 -0.640625 -4.375 -0.640625 -3.28125 C -0.640625 -2.15625 -1.578125 -1.46875 -3.09375 -1.46875 C -4.625 -1.46875 -5.546875 -2.15625 -5.546875 -3.28125 Z M -5.546875 -3.28125 "/>
</symbol>
<symbol overflow="visible" id="glyph2-5">
<path style="stroke:none;" d="M -6.28125 -0.84375 L 0 -0.84375 L 0 -1.84375 L -3.46875 -1.84375 C -4.75 -1.84375 -5.59375 -2.515625 -5.59375 -3.546875 C -5.59375 -4.34375 -5.109375 -4.84375 -4.359375 -4.84375 L 0 -4.84375 L 0 -5.84375 L -4.75 -5.84375 C -5.796875 -5.84375 -6.46875 -5.0625 -6.46875 -3.859375 C -6.46875 -2.921875 -6.109375 -2.3125 -5.234375 -1.765625 L -6.28125 -1.765625 Z M -6.28125 -0.84375 "/>
</symbol>
<symbol overflow="visible" id="glyph2-6">
<path style="stroke:none;" d="M -2.8125 -6.15625 C -3.765625 -6.15625 -4.34375 -6.078125 -4.8125 -5.90625 C -5.84375 -5.5 -6.46875 -4.53125 -6.46875 -3.359375 C -6.46875 -1.609375 -5.140625 -0.484375 -3.0625 -0.484375 C -0.984375 -0.484375 0.28125 -1.5625 0.28125 -3.34375 C 0.28125 -4.78125 -0.546875 -5.765625 -1.90625 -6.03125 L -1.90625 -5.015625 C -1.078125 -4.734375 -0.640625 -4.171875 -0.640625 -3.375 C -0.640625 -2.734375 -0.9375 -2.203125 -1.46875 -1.859375 C -1.828125 -1.625 -2.1875 -1.53125 -2.8125 -1.53125 Z M -3.625 -1.546875 C -4.78125 -1.625 -5.546875 -2.34375 -5.546875 -3.34375 C -5.546875 -4.375 -4.75 -5.078125 -3.625 -5.078125 Z M -3.625 -1.546875 "/>
</symbol>
<symbol overflow="visible" id="glyph2-7">
<path style="stroke:none;" d=""/>
</symbol>
<symbol overflow="visible" id="glyph2-8">
<path style="stroke:none;" d="M -1.046875 -6.078125 L -1.046875 -1.59375 C -1.765625 -1.703125 -2.21875 -2.09375 -2.859375 -3.125 L -3.53125 -4.328125 C -4.1875 -5.515625 -5.078125 -6.125 -6.140625 -6.125 C -6.859375 -6.125 -7.53125 -5.84375 -8 -5.34375 C -8.453125 -4.84375 -8.671875 -4.21875 -8.671875 -3.40625 C -8.671875 -2.328125 -8.296875 -1.53125 -7.546875 -1.0625 C -7.09375 -0.75 -6.546875 -0.625 -5.671875 -0.59375 L -5.671875 -1.65625 C -6.265625 -1.6875 -6.609375 -1.765625 -6.90625 -1.90625 C -7.421875 -2.1875 -7.75 -2.734375 -7.75 -3.375 C -7.75 -4.328125 -7.0625 -5.046875 -6.125 -5.046875 C -5.421875 -5.046875 -4.828125 -4.65625 -4.390625 -3.90625 L -3.75 -2.796875 C -2.71875 -1.015625 -1.90625 -0.5 -0.015625 -0.40625 L -0.015625 -6.078125 Z M -1.046875 -6.078125 "/>
</symbol>
<symbol overflow="visible" id="glyph2-9">
<path style="stroke:none;" d="M -8.671875 -3.296875 C -8.671875 -2.515625 -8.3125 -1.78125 -7.734375 -1.34375 C -6.953125 -0.796875 -5.8125 -0.515625 -4.203125 -0.515625 C -1.265625 -0.515625 0.28125 -1.46875 0.28125 -3.296875 C 0.28125 -5.09375 -1.265625 -6.078125 -4.125 -6.078125 C -5.8125 -6.078125 -6.9375 -5.8125 -7.734375 -5.25 C -8.328125 -4.8125 -8.671875 -4.109375 -8.671875 -3.296875 Z M -7.734375 -3.296875 C -7.734375 -4.4375 -6.578125 -5 -4.21875 -5 C -1.75 -5 -0.59375 -4.453125 -0.59375 -3.28125 C -0.59375 -2.15625 -1.796875 -1.59375 -4.1875 -1.59375 C -6.578125 -1.59375 -7.734375 -2.15625 -7.734375 -3.296875 Z M -7.734375 -3.296875 "/>
</symbol>
<symbol overflow="visible" id="glyph2-10">
<path style="stroke:none;" d="M -1.984375 -0.640625 C -0.5625 -0.84375 0.28125 -1.75 0.28125 -3.046875 C 0.28125 -4 -0.1875 -4.84375 -0.953125 -5.34375 C -1.8125 -5.875 -2.875 -6.109375 -4.4375 -6.109375 C -5.90625 -6.109375 -6.828125 -5.890625 -7.59375 -5.390625 C -8.296875 -4.921875 -8.671875 -4.171875 -8.671875 -3.234375 C -8.671875 -1.625 -7.46875 -0.453125 -5.78125 -0.453125 C -4.1875 -0.453125 -3.0625 -1.53125 -3.0625 -3.078125 C -3.0625 -3.875 -3.34375 -4.46875 -4.015625 -5.015625 C -1.84375 -5 -0.65625 -4.328125 -0.65625 -3.125 C -0.65625 -2.375 -1.140625 -1.859375 -1.984375 -1.6875 Z M -7.75 -3.234375 C -7.75 -4.21875 -6.921875 -4.953125 -5.8125 -4.953125 C -4.734375 -4.953125 -4 -4.234375 -4 -3.1875 C -4 -2.171875 -4.71875 -1.53125 -5.875 -1.53125 C -6.953125 -1.53125 -7.75 -2.25 -7.75 -3.234375 Z M -7.75 -3.234375 "/>
</symbol>
<symbol overflow="visible" id="glyph2-11">
<path style="stroke:none;" d="M -8.75 -6.625 L -2.609375 -6.625 C -1.421875 -6.625 -0.703125 -5.765625 -0.703125 -4.375 C -0.703125 -3.71875 -0.859375 -3.1875 -1.15625 -2.765625 C -1.5 -2.34375 -1.9375 -2.140625 -2.609375 -2.140625 L -8.75 -2.140625 L -8.75 -1.015625 L -2.609375 -1.015625 C -0.828125 -1.015625 0.28125 -2.296875 0.28125 -4.375 C 0.28125 -6.421875 -0.859375 -7.734375 -2.609375 -7.734375 L -8.75 -7.734375 Z M -8.75 -6.625 "/>
</symbol>
<symbol overflow="visible" id="glyph2-12">
<path style="stroke:none;" d="M -6.1875 -7.15625 C -6.78125 -7.15625 -6.953125 -7.109375 -7.359375 -6.921875 C -8.359375 -6.4375 -8.890625 -5.421875 -8.890625 -3.953125 C -8.890625 -2.03125 -7.90625 -0.84375 -6.328125 -0.84375 C -5.25 -0.84375 -4.578125 -1.40625 -4.28125 -2.5625 L -3.703125 -4.734375 C -3.421875 -5.84375 -2.96875 -6.34375 -2.296875 -6.34375 C -1.828125 -6.34375 -1.34375 -6.078125 -1.078125 -5.71875 C -0.828125 -5.359375 -0.703125 -4.8125 -0.703125 -4.109375 C -0.703125 -3.140625 -0.9375 -2.515625 -1.4375 -2.09375 C -1.828125 -1.765625 -2.25 -1.625 -2.78125 -1.625 L -2.78125 -0.578125 C -1.984375 -0.59375 -1.453125 -0.75 -0.96875 -1.09375 C -0.140625 -1.6875 0.28125 -2.703125 0.28125 -4.03125 C 0.28125 -5.078125 0.03125 -5.921875 -0.390625 -6.484375 C -0.859375 -7.078125 -1.640625 -7.453125 -2.40625 -7.453125 C -3.484375 -7.453125 -4.265625 -6.78125 -4.59375 -5.59375 L -5.1875 -3.390625 C -5.46875 -2.34375 -5.8125 -1.953125 -6.484375 -1.953125 C -7.375 -1.953125 -7.953125 -2.734375 -7.953125 -3.90625 C -7.953125 -5.296875 -7.328125 -6.078125 -6.1875 -6.09375 Z M -6.1875 -7.15625 "/>
</symbol>
<symbol overflow="visible" id="glyph2-13">
<path style="stroke:none;" d="M 0 -1.0625 L 0 -4.4375 C 0 -6.640625 -1.65625 -8 -4.375 -8 C -7.09375 -8 -8.75 -6.65625 -8.75 -4.4375 L -8.75 -1.0625 Z M -0.984375 -2.1875 L -7.765625 -2.1875 L -7.765625 -4.25 C -7.765625 -5.96875 -6.59375 -6.890625 -4.375 -6.890625 C -2.140625 -6.890625 -0.984375 -5.96875 -0.984375 -4.25 Z M -0.984375 -2.1875 "/>
</symbol>
<symbol overflow="visible" id="glyph2-14">
<path style="stroke:none;" d="M -8.515625 -5.71875 L -8.515625 -1.3125 L -3.875 -0.6875 L -3.875 -1.65625 C -4.46875 -2.140625 -4.671875 -2.5625 -4.671875 -3.234375 C -4.671875 -4.375 -3.890625 -5.078125 -2.625 -5.078125 C -1.40625 -5.078125 -0.65625 -4.375 -0.65625 -3.21875 C -0.65625 -2.296875 -1.125 -1.734375 -2.09375 -1.46875 L -2.09375 -0.421875 C -1.390625 -0.5625 -1.0625 -0.6875 -0.75 -0.9375 C -0.09375 -1.421875 0.28125 -2.28125 0.28125 -3.234375 C 0.28125 -4.953125 -0.96875 -6.15625 -2.765625 -6.15625 C -4.453125 -6.15625 -5.609375 -5.046875 -5.609375 -3.40625 C -5.609375 -2.8125 -5.453125 -2.328125 -5.09375 -1.84375 L -7.46875 -2.171875 L -7.46875 -5.71875 Z M -8.515625 -5.71875 "/>
</symbol>
<symbol overflow="visible" id="glyph2-15">
<path style="stroke:none;" d="M -6.1875 -3.109375 L 0 -3.109375 L 0 -4.15625 L -8.671875 -4.15625 L -8.671875 -3.46875 C -7.34375 -3.09375 -7.15625 -2.859375 -6.953125 -1.21875 L -6.1875 -1.21875 Z M -6.1875 -3.109375 "/>
</symbol>
</g>
</defs>
<g id="surface2660">
<rect x="0" y="0" width="576" height="360" style="fill:rgb(100%,100%,100%);fill-opacity:1;stroke:none;"/>
<path style="fill:none;stroke-width:1.5;stroke-linecap:round;stroke-linejoin:round;stroke:rgb(27.45098%,50.980392%,70.588235%);stroke-opacity:1;stroke-miterlimit:10;" d="M 77.066406 278.132812 L 78.863281 277.503906 L 80.65625 276.972656 L 82.453125 276.734375 L 84.25 276.886719 L 86.042969 276.558594 L 87.839844 276.589844 L 89.636719 275.929688 L 91.429688 275.667969 L 93.226562 275.757812 L 95.023438 275.359375 L 96.816406 275.785156 L 98.613281 276.851562 L 100.40625 276.585938 L 102.203125 275.652344 L 104 274.6875 L 105.792969 273.902344 L 107.589844 272.859375 L 109.386719 272.945312 L 111.179688 272.769531 L 112.976562 271.789062 L 114.773438 271.960938 L 116.566406 271.847656 L 118.363281 272.390625 L 120.160156 272.089844 L 121.953125 271.257812 L 123.75 270.496094 L 125.542969 269.554688 L 127.339844 268.703125 L 129.136719 268.183594 L 130.929688 267.71875 L 132.726562 267.53125 L 134.523438 266.980469 L 136.316406 266.328125 L 138.113281 265.34375 L 139.910156 264.976562 L 141.703125 263.851562 L 143.5 263.222656 L 145.296875 262.492188 L 147.089844 262.300781 L 148.886719 260.953125 L 150.679688 260.1875 L 152.476562 259.035156 L 154.273438 257.671875 L 156.066406 256.210938 L 157.863281 255.960938 L 159.660156 255.527344 L 161.453125 255 L 163.25 254.433594 L 165.046875 254.378906 L 166.839844 253.839844 L 168.636719 253.332031 L 170.433594 252.039062 L 172.226562 250.945312 L 174.023438 250.46875 L 175.816406 250.175781 L 177.613281 249.136719 L 179.410156 248.921875 L 181.203125 248.496094 L 183 248.792969 L 184.796875 248.914062 L 186.589844 248.792969 L 188.386719 248.191406 L 190.183594 248.898438 L 191.976562 247.078125 L 193.773438 246.679688 L 195.570312 246.128906 L 197.363281 245.921875 L 199.160156 244.648438 L 200.957031 242.976562 L 202.75 242.296875 L 204.546875 241.054688 L 206.339844 239.1875 L 208.136719 238.308594 L 209.933594 238.734375 L 211.726562 238.007812 L 213.523438 238.660156 L 215.320312 238.457031 L 217.113281 239.214844 L 218.910156 239.527344 L 220.707031 240.460938 L 222.5 239.871094 L 224.296875 238.597656 L 226.09375 237.542969 L 227.886719 235.753906 L 229.683594 235.140625 L 231.476562 234.722656 L 233.273438 234.105469 L 235.070312 233.144531 L 236.863281 231.5 L 238.660156 229.988281 L 240.457031 229.980469 L 242.25 229.675781 L 244.046875 226.285156 L 245.84375 225.402344 L 247.636719 224.171875 L 249.433594 223.988281 L 251.230469 223.878906 L 253.023438 223.210938 L 254.820312 222.964844 L 256.613281 222.664062 L 258.410156 224.574219 L 260.207031 224.714844 L 262 223.003906 L 263.796875 221.0625 L 265.59375 221.761719 L 267.386719 220.671875 L 269.183594 221.792969 L 270.980469 223.382812 L 272.773438 222.875 L 274.570312 223.214844 L 276.367188 223.121094 L 278.160156 221.894531 L 279.957031 219.726562 L 281.75 217.824219 L 283.546875 215.78125 L 285.34375 213.773438 L 287.136719 211.960938 L 288.933594 210.929688 L 290.730469 210.082031 L 292.523438 209.019531 L 294.320312 208.035156 L 296.117188 206.339844 L 297.910156 205.511719 L 299.707031 204.476562 L 301.503906 203.960938 L 303.296875 202.824219 L 305.09375 202.234375 L 306.890625 201.433594 L 308.683594 200.136719 L 310.480469 199.078125 L 312.273438 197.132812 L 314.070312 196.460938 L 315.867188 194.871094 L 317.660156 194.164062 L 319.457031 192.539062 L 321.253906 191.285156 L 323.046875 190.296875 L 324.84375 189.351562 L 326.640625 189.082031 L 328.433594 187.683594 L 330.230469 187.183594 L 332.027344 187.152344 L 333.820312 188.257812 L 335.617188 188.859375 L 337.410156 187.867188 L 339.207031 187.25 L 341.003906 186.683594 L 342.796875 185.144531 L 344.59375 183.691406 L 346.390625 182.398438 L 348.183594 181.050781 L 349.980469 180.796875 L 351.777344 179.984375 L 353.570312 179.320312 L 355.367188 177.480469 L 357.164062 176.117188 L 358.957031 174.191406 L 360.753906 173.351562 L 362.546875 171.71875 L 364.34375 171.222656 L 366.140625 170.714844 L 367.933594 169.464844 L 369.730469 168.417969 L 371.527344 167.441406 L 373.320312 164.832031 L 375.117188 163.425781 L 376.914062 161.804688 L 378.707031 160.625 L 380.503906 158.265625 L 382.300781 156.246094 L 384.09375 155 L 385.890625 153.398438 L 387.683594 151.8125 L 389.480469 149.652344 L 391.277344 146.90625 L 393.070312 145.550781 L 394.867188 144.136719 L 396.664062 141.964844 L 398.457031 138.925781 L 400.253906 138.410156 L 402.050781 135.039062 L 403.84375 134.820312 L 405.640625 133.785156 L 407.4375 134.304688 L 409.230469 133.339844 L 411.027344 133.917969 L 412.824219 133.410156 L 414.617188 131.722656 L 416.414062 130.699219 L 418.207031 129.792969 L 420.003906 129.675781 L 421.800781 128.703125 L 423.59375 126.957031 L 425.390625 123.777344 L 427.1875 121.519531 L 428.980469 120.394531 L 430.777344 118.957031 L 432.574219 117.15625 L 434.367188 115.429688 L 436.164062 113.28125 L 437.960938 112.21875 L 439.753906 110.5 L 441.550781 109.320312 L 443.34375 106.828125 L 445.140625 106.199219 L 446.9375 106.011719 L 448.730469 104.359375 L 450.527344 104.230469 L 452.324219 102.601562 L 454.117188 101.160156 L 455.914062 100.390625 L 457.710938 101.867188 L 459.503906 100.800781 L 461.300781 101.835938 L 463.097656 106.382812 L 464.890625 109.296875 L 466.6875 109.578125 L 468.480469 108.902344 L 470.277344 106.886719 L 472.074219 105.980469 L 473.867188 103.941406 L 475.664062 102.503906 L 477.460938 101.152344 L 479.253906 101.988281 L 481.050781 100.421875 L 482.847656 99.96875 L 484.640625 97.523438 L 486.4375 96.070312 L 488.234375 95.039062 L 490.027344 94.773438 L 491.824219 94.722656 L 493.617188 93.167969 L 495.414062 92.742188 L 497.210938 91.011719 L 499.003906 88.808594 L 500.800781 89.332031 L 502.597656 86.757812 L 504.390625 83.816406 L 506.1875 82.652344 L 507.984375 80.777344 L 509.777344 79.175781 L 511.574219 78.210938 L 513.371094 77.921875 L 515.164062 77.578125 L 516.960938 76.25 L 518.757812 74.59375 L 520.550781 73.535156 L 522.347656 72.789062 L 524.140625 70.941406 L 525.9375 69.023438 L 527.734375 67.464844 "/>
<g style="fill:rgb(0%,0%,0%);fill-opacity:1;">
  <use xlink:href="#glyph0-1" x="252.898438" y="34.516602"/>
  <use xlink:href="#glyph0-2" x="262.898438" y="34.516602"/>
  <use xlink:href="#glyph0-3" x="270.898438" y="34.516602"/>
  <use xlink:href="#glyph0-4" x="278.898438" y="34.516602"/>
  <use xlink:href="#glyph0-2" x="282.898438" y="34.516602"/>
  <use xlink:href="#glyph0-5" x="290.898438" y="34.516602"/>
  <use xlink:href="#glyph0-6" x="298.898438" y="34.516602"/>
  <use xlink:href="#glyph0-7" x="302.898438" y="34.516602"/>
  <use xlink:href="#glyph0-8" x="312.898438" y="34.516602"/>
  <use xlink:href="#glyph0-9" x="322.898438" y="34.516602"/>
  <use xlink:href="#glyph0-10" x="327.898438" y="34.516602"/>
  <use xlink:href="#glyph0-11" x="337.898438" y="34.516602"/>
  <use xlink:href="#glyph0-12" x="341.898438" y="34.516602"/>
</g>
<g style="fill:rgb(0%,0%,0%);fill-opacity:1;">
  <use xlink:href="#glyph1-1" x="284.898438" y="341.029297"/>
  <use xlink:href="#glyph1-2" x="292.898438" y="341.029297"/>
  <use xlink:href="#glyph1-3" x="299.898438" y="341.029297"/>
  <use xlink:href="#glyph1-4" x="302.898438" y="341.029297"/>
  <use xlink:href="#glyph1-5" x="309.898438" y="341.029297"/>
</g>
<g style="fill:rgb(0%,0%,0%);fill-opacity:1;">
  <use xlink:href="#glyph2-1" x="12.708984" y="226.800781"/>
  <use xlink:href="#glyph2-2" x="12.708984" y="218.800781"/>
  <use xlink:href="#glyph2-3" x="12.708984" y="215.800781"/>
  <use xlink:href="#glyph2-3" x="12.708984" y="212.800781"/>
  <use xlink:href="#glyph2-2" x="12.708984" y="209.800781"/>
  <use xlink:href="#glyph2-4" x="12.708984" y="206.800781"/>
  <use xlink:href="#glyph2-5" x="12.708984" y="199.800781"/>
  <use xlink:href="#glyph2-6" x="12.708984" y="192.800781"/>
  <use xlink:href="#glyph2-5" x="12.708984" y="185.800781"/>
  <use xlink:href="#glyph2-7" x="12.708984" y="178.800781"/>
  <use xlink:href="#glyph2-8" x="12.708984" y="175.800781"/>
  <use xlink:href="#glyph2-9" x="12.708984" y="168.800781"/>
  <use xlink:href="#glyph2-9" x="12.708984" y="161.800781"/>
  <use xlink:href="#glyph2-10" x="12.708984" y="154.800781"/>
  <use xlink:href="#glyph2-7" x="12.708984" y="147.800781"/>
  <use xlink:href="#glyph2-11" x="12.708984" y="144.800781"/>
  <use xlink:href="#glyph2-12" x="12.708984" y="135.800781"/>
  <use xlink:href="#glyph2-13" x="12.708984" y="127.800781"/>
</g>
<path style="fill:none;stroke-width:0.75;stroke-linecap:round;stroke-linejoin:round;stroke:rgb(0%,0%,0%);stroke-opacity:1;stroke-miterlimit:10;" d="M 112.976562 286.558594 L 543.894531 286.558594 "/>
<path style="fill:none;stroke-width:0.75;stroke-linecap:round;stroke-linejoin:round;stroke:rgb(0%,0%,0%);stroke-opacity:1;stroke-miterlimit:10;" d="M 112.976562 286.558594 L 112.976562 293.761719 "/>
<path style="fill:none;stroke-width:0.75;stroke-linecap:round;stroke-linejoin:round;stroke:rgb(0%,0%,0%);stroke-opacity:1;stroke-miterlimit:10;" d="M 184.796875 286.558594 L 184.796875 293.761719 "/>
<path style="fill:none;stroke-width:0.75;stroke-linecap:round;stroke-linejoin:round;stroke:rgb(0%,0%,0%);stroke-opacity:1;stroke-miterlimit:10;" d="M 256.613281 286.558594 L 256.613281 293.761719 "/>
<path style="fill:none;stroke-width:0.75;stroke-linecap:round;stroke-linejoin:round;stroke:rgb(0%,0%,0%);stroke-opacity:1;stroke-miterlimit:10;" d="M 328.433594 286.558594 L 328.433594 293.761719 "/>
<path style="fill:none;stroke-width:0.75;stroke-linecap:round;stroke-linejoin:round;stroke:rgb(0%,0%,0%);stroke-opacity:1;stroke-miterlimit:10;" d="M 400.253906 286.558594 L 400.253906 293.761719 "/>
<path style="fill:none;stroke-width:0.75;stroke-linecap:round;stroke-linejoin:round;stroke:rgb(0%,0%,0%);stroke-opacity:1;stroke-miterlimit:10;" d="M 472.074219 286.558594 L 472.074219 293.761719 "/>
<path style="fill:none;stroke-width:0.75;stroke-linecap:round;stroke-linejoin:round;stroke:rgb(0%,0%,0%);stroke-opacity:1;stroke-miterlimit:10;" d="M 543.894531 286.558594 L 543.894531 293.761719 "/>
<g style="fill:rgb(0%,0%,0%);fill-opacity:1;">
  <use xlink:href="#glyph1-6" x="98.976562" y="312.228516"/>
  <use xlink:href="#glyph1-7" x="105.976562" y="312.228516"/>
  <use xlink:href="#glyph1-8" x="112.976562" y="312.228516"/>
  <use xlink:href="#glyph1-9" x="119.976562" y="312.228516"/>
</g>
<g style="fill:rgb(0%,0%,0%);fill-opacity:1;">
  <use xlink:href="#glyph1-6" x="170.796875" y="312.228516"/>
  <use xlink:href="#glyph1-7" x="177.796875" y="312.228516"/>
  <use xlink:href="#glyph1-10" x="184.796875" y="312.228516"/>
  <use xlink:href="#glyph1-9" x="191.796875" y="312.228516"/>
</g>
<g style="fill:rgb(0%,0%,0%);fill-opacity:1;">
  <use xlink:href="#glyph1-6" x="242.613281" y="312.228516"/>
  <use xlink:href="#glyph1-7" x="249.613281" y="312.228516"/>
  <use xlink:href="#glyph1-11" x="256.613281" y="312.228516"/>
  <use xlink:href="#glyph1-9" x="263.613281" y="312.228516"/>
</g>
<g style="fill:rgb(0%,0%,0%);fill-opacity:1;">
  <use xlink:href="#glyph1-6" x="314.433594" y="312.228516"/>
  <use xlink:href="#glyph1-7" x="321.433594" y="312.228516"/>
  <use xlink:href="#glyph1-7" x="328.433594" y="312.228516"/>
  <use xlink:href="#glyph1-9" x="335.433594" y="312.228516"/>
</g>
<g style="fill:rgb(0%,0%,0%);fill-opacity:1;">
  <use xlink:href="#glyph1-12" x="386.253906" y="312.228516"/>
  <use xlink:href="#glyph1-9" x="393.253906" y="312.228516"/>
  <use xlink:href="#glyph1-9" x="400.253906" y="312.228516"/>
  <use xlink:href="#glyph1-9" x="407.253906" y="312.228516"/>
</g>
<g style="fill:rgb(0%,0%,0%);fill-opacity:1;">
  <use xlink:href="#glyph1-12" x="458.074219" y="312.228516"/>
  <use xlink:href="#glyph1-9" x="465.074219" y="312.228516"/>
  <use xlink:href="#glyph1-6" x="472.074219" y="312.228516"/>
  <use xlink:href="#glyph1-9" x="479.074219" y="312.228516"/>
</g>
<g style="fill:rgb(0%,0%,0%);fill-opacity:1;">
  <use xlink:href="#glyph1-12" x="529.894531" y="312.228516"/>
  <use xlink:href="#glyph1-9" x="536.894531" y="312.228516"/>
  <use xlink:href="#glyph1-12" x="543.894531" y="312.228516"/>
  <use xlink:href="#glyph1-9" x="550.894531" y="312.228516"/>
</g>
<path style="fill:none;stroke-width:0.75;stroke-linecap:round;stroke-linejoin:round;stroke:rgb(0%,0%,0%);stroke-opacity:1;stroke-miterlimit:10;" d="M 59.039062 244.683594 L 59.039062 100.273438 "/>
<path style="fill:none;stroke-width:0.75;stroke-linecap:round;stroke-linejoin:round;stroke:rgb(0%,0%,0%);stroke-opacity:1;stroke-miterlimit:10;" d="M 59.039062 244.683594 L 51.839844 244.683594 "/>
<path style="fill:none;stroke-width:0.75;stroke-linecap:round;stroke-linejoin:round;stroke:rgb(0%,0%,0%);stroke-opacity:1;stroke-miterlimit:10;" d="M 59.039062 172.476562 L 51.839844 172.476562 "/>
<path style="fill:none;stroke-width:0.75;stroke-linecap:round;stroke-linejoin:round;stroke:rgb(0%,0%,0%);stroke-opacity:1;stroke-miterlimit:10;" d="M 59.039062 100.273438 L 51.839844 100.273438 "/>
<g style="fill:rgb(0%,0%,0%);fill-opacity:1;">
  <use xlink:href="#glyph2-14" x="41.509766" y="258.683594"/>
  <use xlink:href="#glyph2-9" x="41.509766" y="251.683594"/>
  <use xlink:href="#glyph2-9" x="41.509766" y="244.683594"/>
  <use xlink:href="#glyph2-9" x="41.509766" y="237.683594"/>
</g>
<g style="fill:rgb(0%,0%,0%);fill-opacity:1;">
  <use xlink:href="#glyph2-15" x="41.509766" y="189.976562"/>
  <use xlink:href="#glyph2-9" x="41.509766" y="182.976562"/>
  <use xlink:href="#glyph2-9" x="41.509766" y="175.976562"/>
  <use xlink:href="#glyph2-9" x="41.509766" y="168.976562"/>
  <use xlink:href="#glyph2-9" x="41.509766" y="161.976562"/>
</g>
<g style="fill:rgb(0%,0%,0%);fill-opacity:1;">
  <use xlink:href="#glyph2-15" x="41.509766" y="117.773438"/>
  <use xlink:href="#glyph2-14" x="41.509766" y="110.773438"/>
  <use xlink:href="#glyph2-9" x="41.509766" y="103.773438"/>
  <use xlink:href="#glyph2-9" x="41.509766" y="96.773438"/>
  <use xlink:href="#glyph2-9" x="41.509766" y="89.773438"/>
</g>
<path style="fill:none;stroke-width:0.75;stroke-linecap:round;stroke-linejoin:round;stroke:rgb(0%,0%,0%);stroke-opacity:1;stroke-miterlimit:10;" d="M 59.039062 286.558594 L 545.761719 286.558594 L 545.761719 59.039062 L 59.039062 59.039062 Z M 59.039062 286.558594 "/>
</g>
</svg>
