<?xml version="1.0" encoding="UTF-8"?>
<svg xmlns="http://www.w3.org/2000/svg" xmlns:xlink="http://www.w3.org/1999/xlink" width="576pt" height="360pt" viewBox="0 0 576 360" version="1.1">
<defs>
<g>
<symbol overflow="visible" id="glyph0-0">
<path style="stroke:none;" d=""/>
</symbol>
<symbol overflow="visible" id="glyph0-1">
<path style="stroke:none;" d="M 8.75 -7.296875 C 8.734375 -9.484375 7.28125 -10.671875 4.625 -10.671875 C 2.109375 -10.671875 0.640625 -9.5 0.640625 -7.453125 C 0.640625 -5.8125 1.46875 -5.03125 3.59375 -4.625 L 5.078125 -4.34375 C 6.515625 -4.0625 7.046875 -3.65625 7.046875 -2.8125 C 7.046875 -1.9375 6.234375 -1.390625 4.921875 -1.390625 C 3.453125 -1.390625 2.640625 -2.015625 2.5625 -3.140625 L 0.46875 -3.140625 C 0.59375 -0.890625 2.125 0.328125 4.8125 0.328125 C 7.515625 0.328125 9.125 -0.921875 9.125 -3.0625 C 9.125 -4.71875 8.28125 -5.59375 6.34375 -5.96875 L 4.703125 -6.28125 C 3.15625 -6.578125 2.703125 -6.890625 2.703125 -7.65625 C 2.703125 -8.4375 3.40625 -8.953125 4.53125 -8.953125 C 5.890625 -8.953125 6.65625 -8.375 6.734375 -7.296875 Z M 8.75 -7.296875 "/>
</symbol>
<symbol overflow="visible" id="glyph0-2">
<path style="stroke:none;" d="M 4.34375 -7.90625 C 1.953125 -7.90625 0.5 -6.34375 0.5 -3.78125 C 0.5 -1.21875 1.953125 0.328125 4.34375 0.328125 C 6.734375 0.328125 8.203125 -1.21875 8.203125 -3.734375 C 8.203125 -6.375 6.765625 -7.90625 4.34375 -7.90625 Z M 4.34375 -6.28125 C 5.453125 -6.28125 6.1875 -5.28125 6.1875 -3.765625 C 6.1875 -2.3125 5.4375 -1.296875 4.34375 -1.296875 C 3.25 -1.296875 2.515625 -2.296875 2.515625 -3.78125 C 2.515625 -5.28125 3.25 -6.28125 4.34375 -6.28125 Z M 4.34375 -6.28125 "/>
</symbol>
<symbol overflow="visible" id="glyph0-3">
<path style="stroke:none;" d="M 7.796875 0 L 7.796875 -7.78125 L 5.78125 -7.78125 L 5.78125 -2.90625 C 5.78125 -1.984375 5.140625 -1.390625 4.15625 -1.390625 C 3.28125 -1.390625 2.859375 -1.84375 2.859375 -2.78125 L 2.859375 -7.78125 L 0.828125 -7.78125 L 0.828125 -2.359375 C 0.828125 -0.640625 1.765625 0.328125 3.4375 0.328125 C 4.5 0.328125 5.203125 -0.046875 5.78125 -0.921875 L 5.78125 0 Z M 7.796875 0 "/>
</symbol>
<symbol overflow="visible" id="glyph0-4">
<path style="stroke:none;" d="M 4.34375 -7.625 L 3.21875 -7.625 L 3.21875 -9.703125 L 1.203125 -9.703125 L 1.203125 -7.625 L 0.203125 -7.625 L 0.203125 -6.28125 L 1.203125 -6.28125 L 1.203125 -1.5 C 1.203125 -0.28125 1.84375 0.328125 3.171875 0.328125 C 3.625 0.328125 3.96875 0.28125 4.34375 0.171875 L 4.34375 -1.234375 C 4.140625 -1.203125 4.03125 -1.203125 3.875 -1.203125 C 3.34375 -1.203125 3.21875 -1.359375 3.21875 -2.046875 L 3.21875 -6.28125 L 4.34375 -6.28125 Z M 4.34375 -7.625 "/>
</symbol>
<symbol overflow="visible" id="glyph0-5">
<path style="stroke:none;" d="M 0.96875 -10.5 L 0.96875 0 L 2.984375 0 L 2.984375 -4.671875 C 2.984375 -5.5625 3.625 -6.1875 4.53125 -6.1875 C 4.984375 -6.1875 5.3125 -6.03125 5.546875 -5.71875 C 5.734375 -5.453125 5.78125 -5.25 5.78125 -4.75 L 5.78125 0 L 7.796875 0 L 7.796875 -5.21875 C 7.796875 -6.1875 7.53125 -6.875 7 -7.3125 C 6.5625 -7.6875 5.90625 -7.90625 5.265625 -7.90625 C 4.265625 -7.90625 3.546875 -7.515625 2.984375 -6.65625 L 2.984375 -10.5 Z M 0.96875 -10.5 "/>
</symbol>
<symbol overflow="visible" id="glyph0-6">
<path style="stroke:none;" d="M 7.546875 -3.25 C 7.5625 -3.421875 7.5625 -3.5 7.5625 -3.59375 C 7.5625 -4.375 7.453125 -5.09375 7.265625 -5.640625 C 6.734375 -7.0625 5.484375 -7.90625 3.921875 -7.90625 C 1.6875 -7.90625 0.3125 -6.296875 0.3125 -3.6875 C 0.3125 -1.203125 1.671875 0.328125 3.875 0.328125 C 5.625 0.328125 7.03125 -0.640625 7.484375 -2.1875 L 5.484375 -2.1875 C 5.25 -1.5625 4.6875 -1.203125 3.953125 -1.203125 C 3.375 -1.203125 2.90625 -1.453125 2.625 -1.890625 C 2.4375 -2.171875 2.359375 -2.515625 2.328125 -3.25 Z M 2.359375 -4.59375 C 2.5 -5.796875 3 -6.375 3.890625 -6.375 C 4.8125 -6.375 5.359375 -5.75 5.453125 -4.59375 Z M 2.359375 -4.59375 "/>
</symbol>
<symbol overflow="visible" id="glyph0-7">
<path style="stroke:none;" d="M 0.90625 -7.78125 L 0.90625 0 L 2.921875 0 L 2.921875 -4.140625 C 2.921875 -5.3125 3.515625 -5.90625 4.703125 -5.90625 C 4.90625 -5.90625 5.0625 -5.890625 5.328125 -5.84375 L 5.328125 -7.890625 C 5.21875 -7.90625 5.171875 -7.90625 5.078125 -7.90625 C 4.15625 -7.90625 3.375 -7.296875 2.921875 -6.25 L 2.921875 -7.78125 Z M 0.90625 -7.78125 "/>
</symbol>
<symbol overflow="visible" id="glyph0-8">
<path style="stroke:none;" d="M 0.90625 -7.78125 L 0.90625 0 L 2.921875 0 L 2.921875 -4.671875 C 2.921875 -5.59375 3.5625 -6.1875 4.546875 -6.1875 C 5.421875 -6.1875 5.84375 -5.71875 5.84375 -4.796875 L 5.84375 0 L 7.859375 0 L 7.859375 -5.21875 C 7.859375 -6.9375 6.921875 -7.90625 5.265625 -7.90625 C 4.203125 -7.90625 3.5 -7.53125 2.921875 -6.65625 L 2.921875 -7.78125 Z M 0.90625 -7.78125 "/>
</symbol>
<symbol overflow="visible" id="glyph0-9">
<path style="stroke:none;" d=""/>
</symbol>
<symbol overflow="visible" id="glyph0-10">
<path style="stroke:none;" d="M 5.625 -10.671875 C 4.15625 -10.671875 2.9375 -10.1875 2.046875 -9.21875 C 1.109375 -8.21875 0.578125 -6.734375 0.578125 -5.171875 C 0.578125 -3.59375 1.109375 -2.125 2.046875 -1.125 C 2.953125 -0.140625 4.140625 0.328125 5.640625 0.328125 C 7.125 0.328125 8.3125 -0.140625 9.21875 -1.125 C 10.125 -2.09375 10.6875 -3.609375 10.6875 -5.09375 C 10.6875 -6.734375 10.15625 -8.21875 9.21875 -9.21875 C 8.296875 -10.21875 7.140625 -10.671875 5.625 -10.671875 Z M 5.640625 -8.828125 C 7.40625 -8.828125 8.53125 -7.390625 8.53125 -5.109375 C 8.53125 -2.953125 7.359375 -1.515625 5.640625 -1.515625 C 3.875 -1.515625 2.734375 -2.953125 2.734375 -5.171875 C 2.734375 -7.390625 3.875 -8.828125 5.640625 -8.828125 Z M 5.640625 -8.828125 "/>
</symbol>
<symbol overflow="visible" id="glyph0-11">
<path style="stroke:none;" d="M 7.28125 -5.265625 C 7.25 -6.921875 5.984375 -7.90625 3.890625 -7.90625 C 1.921875 -7.90625 0.6875 -6.921875 0.6875 -5.3125 C 0.6875 -4.796875 0.84375 -4.34375 1.125 -4.046875 C 1.390625 -3.78125 1.640625 -3.640625 2.390625 -3.40625 L 4.796875 -2.65625 C 5.296875 -2.5 5.46875 -2.328125 5.46875 -2.015625 C 5.46875 -1.546875 4.90625 -1.25 3.96875 -1.25 C 3.4375 -1.25 3.046875 -1.34375 2.78125 -1.53125 C 2.5625 -1.6875 2.484375 -1.84375 2.390625 -2.265625 L 0.421875 -2.265625 C 0.46875 -0.546875 1.734375 0.328125 4.09375 0.328125 C 5.171875 0.328125 6 0.09375 6.5625 -0.359375 C 7.140625 -0.828125 7.484375 -1.546875 7.484375 -2.3125 C 7.484375 -3.3125 6.984375 -3.96875 5.96875 -4.265625 L 3.421875 -5 C 2.859375 -5.171875 2.703125 -5.28125 2.703125 -5.609375 C 2.703125 -6.03125 3.171875 -6.328125 3.875 -6.328125 C 4.84375 -6.328125 5.3125 -5.984375 5.328125 -5.265625 Z M 7.28125 -5.265625 "/>
</symbol>
<symbol overflow="visible" id="glyph0-12">
<path style="stroke:none;" d="M 7.515625 -4.875 C 7.375 -6.765625 6.125 -7.90625 4.15625 -7.90625 C 1.828125 -7.90625 0.484375 -6.375 0.484375 -3.734375 C 0.484375 -1.171875 1.828125 0.328125 4.140625 0.328125 C 6.015625 0.328125 7.328125 -0.828125 7.515625 -2.6875 L 5.59375 -2.6875 C 5.34375 -1.6875 4.9375 -1.296875 4.140625 -1.296875 C 3.109375 -1.296875 2.5 -2.203125 2.5 -3.734375 C 2.5 -4.484375 2.65625 -5.15625 2.890625 -5.625 C 3.125 -6.046875 3.578125 -6.28125 4.15625 -6.28125 C 4.96875 -6.28125 5.359375 -5.890625 5.59375 -4.875 Z M 7.515625 -4.875 "/>
</symbol>
<symbol overflow="visible" id="glyph0-13">
<path style="stroke:none;" d="M 2.984375 -7.78125 L 0.96875 -7.78125 L 0.96875 0 L 2.984375 0 Z M 2.984375 -10.5 L 0.96875 -10.5 L 0.96875 -8.703125 L 2.984375 -8.703125 Z M 2.984375 -10.5 "/>
</symbol>
<symbol overflow="visible" id="glyph0-14">
<path style="stroke:none;" d="M 2.984375 -10.5 L 0.96875 -10.5 L 0.96875 0 L 2.984375 0 Z M 2.984375 -10.5 "/>
</symbol>
<symbol overflow="visible" id="glyph0-15">
<path style="stroke:none;" d="M 7.546875 -0.25 C 7.203125 -0.578125 7.09375 -0.8125 7.09375 -1.203125 L 7.09375 -5.515625 C 7.09375 -7.109375 6 -7.90625 3.90625 -7.90625 C 1.796875 -7.90625 0.703125 -7.015625 0.578125 -5.21875 L 2.515625 -5.21875 C 2.625 -6.015625 2.953125 -6.28125 3.953125 -6.28125 C 4.71875 -6.28125 5.109375 -6.015625 5.109375 -5.5 C 5.109375 -5.25 4.984375 -5.03125 4.765625 -4.890625 C 4.5 -4.75 4.5 -4.75 3.5 -4.59375 L 2.6875 -4.453125 C 1.15625 -4.1875 0.40625 -3.40625 0.40625 -2 C 0.40625 -0.609375 1.34375 0.328125 2.765625 0.328125 C 3.625 0.328125 4.40625 -0.03125 5.125 -0.78125 C 5.125 -0.375 5.171875 -0.234375 5.359375 0 L 7.546875 0 Z M 5.109375 -3.125 C 5.109375 -1.953125 4.53125 -1.296875 3.515625 -1.296875 C 2.84375 -1.296875 2.421875 -1.65625 2.421875 -2.234375 C 2.421875 -2.84375 2.734375 -3.125 3.578125 -3.296875 L 4.265625 -3.421875 C 4.796875 -3.53125 4.890625 -3.5625 5.109375 -3.671875 Z M 5.109375 -3.125 "/>
</symbol>
<symbol overflow="visible" id="glyph0-16">
<path style="stroke:none;" d="M 3.0625 -10.5 L 0.90625 -10.5 L 0.90625 0 L 3.0625 0 Z M 3.0625 -10.5 "/>
</symbol>
<symbol overflow="visible" id="glyph0-17">
<path style="stroke:none;" d="M 5.828125 0 L 7.84375 0 L 7.84375 -10.5 L 5.828125 -10.5 L 5.828125 -6.765625 C 5.328125 -7.546875 4.671875 -7.90625 3.6875 -7.90625 C 1.828125 -7.90625 0.421875 -6.125 0.421875 -3.78125 C 0.421875 -2.71875 0.734375 -1.65625 1.25 -0.90625 C 1.78125 -0.140625 2.734375 0.328125 3.6875 0.328125 C 4.671875 0.328125 5.328125 -0.015625 5.828125 -0.796875 Z M 4.140625 -6.21875 C 5.15625 -6.21875 5.828125 -5.25 5.828125 -3.75 C 5.828125 -2.328125 5.140625 -1.359375 4.140625 -1.359375 C 3.125 -1.359375 2.4375 -2.34375 2.4375 -3.78125 C 2.4375 -5.234375 3.125 -6.21875 4.140625 -6.21875 Z M 4.140625 -6.21875 "/>
</symbol>
<symbol overflow="visible" id="glyph0-18">
<path style="stroke:none;" d="M 5.109375 -3.921875 L 7.65625 -7.78125 L 5.234375 -7.78125 L 3.96875 -5.4375 L 2.703125 -7.78125 L 0.28125 -7.78125 L 2.828125 -3.921875 L 0.234375 0 L 2.65625 0 L 3.96875 -2.421875 L 5.28125 0 L 7.703125 0 Z M 5.109375 -3.921875 "/>
</symbol>
<symbol overflow="visible" id="glyph0-19">
<path style="stroke:none;" d="M 3.3125 -4.15625 L 5.796875 -4.15625 C 6.734375 -4.15625 7.125 -3.78125 7.125 -2.921875 L 7.125 -2.5 C 7.109375 -2.21875 7.109375 -1.953125 7.109375 -1.796875 C 7.109375 -0.8125 7.171875 -0.5 7.4375 0 L 9.75 0 L 9.75 -0.390625 C 9.421875 -0.578125 9.296875 -0.796875 9.296875 -1.25 C 9.234375 -4.34375 9.171875 -4.5 7.84375 -5.078125 C 9.015625 -5.53125 9.609375 -6.375 9.609375 -7.671875 C 9.609375 -8.5 9.328125 -9.265625 8.8125 -9.78125 C 8.34375 -10.265625 7.671875 -10.5 6.78125 -10.5 L 1.15625 -10.5 L 1.15625 0 L 3.3125 0 Z M 3.3125 -5.96875 L 3.3125 -8.703125 L 5.921875 -8.703125 C 6.546875 -8.703125 6.78125 -8.640625 7.0625 -8.421875 C 7.3125 -8.21875 7.453125 -7.84375 7.453125 -7.359375 C 7.453125 -6.859375 7.3125 -6.453125 7.0625 -6.234375 C 6.8125 -6.03125 6.546875 -5.96875 5.921875 -5.96875 Z M 3.3125 -5.96875 "/>
</symbol>
<symbol overflow="visible" id="glyph0-20">
<path style="stroke:none;" d="M 2.859375 -4.75 L 2.859375 -10.5 L 0.84375 -10.5 L 0.84375 0 L 2.859375 0 L 2.859375 -2.546875 L 3.671875 -3.421875 L 5.53125 0 L 7.890625 0 L 5.0625 -4.84375 L 7.703125 -7.78125 L 5.421875 -7.78125 Z M 2.859375 -4.75 "/>
</symbol>
<symbol overflow="visible" id="glyph0-21">
<path style="stroke:none;" d="M 5.765625 -7.78125 L 5.765625 -6.578125 C 5.203125 -7.484375 4.578125 -7.90625 3.765625 -7.90625 C 3.0625 -7.90625 2.3125 -7.5625 1.765625 -7 C 1 -6.1875 0.59375 -5.078125 0.59375 -3.703125 C 0.59375 -1.3125 1.859375 0.328125 3.71875 0.328125 C 4.546875 0.328125 5.0625 0.0625 5.765625 -0.796875 L 5.765625 0.265625 C 5.765625 1.203125 5.09375 1.84375 4.15625 1.84375 C 3.421875 1.84375 2.984375 1.53125 2.828125 0.9375 L 0.75 0.9375 C 0.765625 1.546875 0.984375 1.953125 1.515625 2.390625 C 2.125 2.890625 2.984375 3.140625 4.078125 3.140625 C 6.328125 3.140625 7.671875 2.0625 7.671875 0.265625 L 7.671875 -7.78125 Z M 4.140625 -6.21875 C 5.078125 -6.21875 5.796875 -5.171875 5.796875 -3.734375 C 5.796875 -2.3125 5.109375 -1.359375 4.109375 -1.359375 C 3.234375 -1.359375 2.609375 -2.3125 2.609375 -3.734375 C 2.609375 -5.203125 3.234375 -6.21875 4.140625 -6.21875 Z M 4.140625 -6.21875 "/>
</symbol>
<symbol overflow="visible" id="glyph1-0">
<path style="stroke:none;" d=""/>
</symbol>
<symbol overflow="visible" id="glyph1-1">
<path style="stroke:none;" d="M 3.109375 -6.1875 L 3.109375 0 L 4.15625 0 L 4.15625 -8.671875 L 3.46875 -8.671875 C 3.09375 -7.34375 2.859375 -7.15625 1.21875 -6.953125 L 1.21875 -6.1875 Z M 3.109375 -6.1875 "/>
</symbol>
<symbol overflow="visible" id="glyph1-2">
<path style="stroke:none;" d="M 0.640625 -1.984375 C 0.84375 -0.5625 1.75 0.28125 3.046875 0.28125 C 4 0.28125 4.84375 -0.1875 5.34375 -0.953125 C 5.875 -1.8125 6.109375 -2.875 6.109375 -4.4375 C 6.109375 -5.90625 5.890625 -6.828125 5.390625 -7.59375 C 4.921875 -8.296875 4.171875 -8.671875 3.234375 -8.671875 C 1.625 -8.671875 0.453125 -7.46875 0.453125 -5.78125 C 0.453125 -4.1875 1.53125 -3.0625 3.078125 -3.0625 C 3.875 -3.0625 4.46875 -3.34375 5.015625 -4.015625 C 5 -1.84375 4.328125 -0.65625 3.125 -0.65625 C 2.375 -0.65625 1.859375 -1.140625 1.6875 -1.984375 Z M 3.234375 -7.75 C 4.21875 -7.75 4.953125 -6.921875 4.953125 -5.8125 C 4.953125 -4.734375 4.234375 -4 3.1875 -4 C 2.171875 -4 1.53125 -4.71875 1.53125 -5.875 C 1.53125 -6.953125 2.25 -7.75 3.234375 -7.75 Z M 3.234375 -7.75 "/>
</symbol>
<symbol overflow="visible" id="glyph1-3">
<path style="stroke:none;" d="M 5.71875 -8.515625 L 1.3125 -8.515625 L 0.6875 -3.875 L 1.65625 -3.875 C 2.140625 -4.46875 2.5625 -4.671875 3.234375 -4.671875 C 4.375 -4.671875 5.078125 -3.890625 5.078125 -2.625 C 5.078125 -1.40625 4.375 -0.65625 3.21875 -0.65625 C 2.296875 -0.65625 1.734375 -1.125 1.46875 -2.09375 L 0.421875 -2.09375 C 0.5625 -1.390625 0.6875 -1.0625 0.9375 -0.75 C 1.421875 -0.09375 2.28125 0.28125 3.234375 0.28125 C 4.953125 0.28125 6.15625 -0.96875 6.15625 -2.765625 C 6.15625 -4.453125 5.046875 -5.609375 3.40625 -5.609375 C 2.8125 -5.609375 2.328125 -5.453125 1.84375 -5.09375 L 2.171875 -7.46875 L 5.71875 -7.46875 Z M 5.71875 -8.515625 "/>
</symbol>
<symbol overflow="visible" id="glyph1-4">
<path style="stroke:none;" d="M 3.296875 -8.671875 C 2.515625 -8.671875 1.78125 -8.3125 1.34375 -7.734375 C 0.796875 -6.953125 0.515625 -5.8125 0.515625 -4.203125 C 0.515625 -1.265625 1.46875 0.28125 3.296875 0.28125 C 5.09375 0.28125 6.078125 -1.265625 6.078125 -4.125 C 6.078125 -5.8125 5.8125 -6.9375 5.25 -7.734375 C 4.8125 -8.328125 4.109375 -8.671875 3.296875 -8.671875 Z M 3.296875 -7.734375 C 4.4375 -7.734375 5 -6.578125 5 -4.21875 C 5 -1.75 4.453125 -0.59375 3.28125 -0.59375 C 2.15625 -0.59375 1.59375 -1.796875 1.59375 -4.1875 C 1.59375 -6.578125 2.15625 -7.734375 3.296875 -7.734375 Z M 3.296875 -7.734375 "/>
</symbol>
<symbol overflow="visible" id="glyph1-5">
<path style="stroke:none;" d="M 5.96875 -6.421875 C 5.765625 -7.84375 4.859375 -8.671875 3.5625 -8.671875 C 2.625 -8.671875 1.78125 -8.21875 1.28125 -7.4375 C 0.75 -6.59375 0.515625 -5.53125 0.515625 -3.953125 C 0.515625 -2.5 0.71875 -1.578125 1.234375 -0.796875 C 1.6875 -0.09375 2.4375 0.28125 3.375 0.28125 C 4.984375 0.28125 6.15625 -0.9375 6.15625 -2.625 C 6.15625 -4.21875 5.078125 -5.359375 3.546875 -5.359375 C 2.71875 -5.359375 2.046875 -5.046875 1.59375 -4.40625 C 1.609375 -6.546875 2.28125 -7.734375 3.484375 -7.734375 C 4.234375 -7.734375 4.75 -7.265625 4.921875 -6.421875 Z M 3.421875 -4.421875 C 4.4375 -4.421875 5.078125 -3.703125 5.078125 -2.546875 C 5.078125 -1.453125 4.359375 -0.65625 3.390625 -0.65625 C 2.40625 -0.65625 1.65625 -1.484375 1.65625 -2.59375 C 1.65625 -3.671875 2.375 -4.421875 3.421875 -4.421875 Z M 3.421875 -4.421875 "/>
</symbol>
<symbol overflow="visible" id="glyph1-6">
<path style="stroke:none;" d="M 6.234375 -8.515625 L 0.546875 -8.515625 L 0.546875 -7.46875 L 5.140625 -7.46875 C 3.125 -4.578125 2.296875 -2.796875 1.65625 0 L 2.78125 0 C 3.25 -2.71875 4.3125 -5.0625 6.234375 -7.625 Z M 6.234375 -8.515625 "/>
</symbol>
<symbol overflow="visible" id="glyph1-7">
<path style="stroke:none;" d="M 4.6875 -4.578125 C 5.578125 -5.109375 5.859375 -5.546875 5.859375 -6.359375 C 5.859375 -7.734375 4.8125 -8.671875 3.296875 -8.671875 C 1.796875 -8.671875 0.75 -7.734375 0.75 -6.375 C 0.75 -5.546875 1.015625 -5.125 1.890625 -4.578125 C 0.921875 -4.078125 0.4375 -3.375 0.4375 -2.40625 C 0.4375 -0.828125 1.609375 0.28125 3.296875 0.28125 C 4.984375 0.28125 6.15625 -0.828125 6.15625 -2.40625 C 6.15625 -3.375 5.671875 -4.078125 4.6875 -4.578125 Z M 3.296875 -7.734375 C 4.203125 -7.734375 4.78125 -7.203125 4.78125 -6.34375 C 4.78125 -5.515625 4.1875 -4.984375 3.296875 -4.984375 C 2.40625 -4.984375 1.828125 -5.515625 1.828125 -6.359375 C 1.828125 -7.203125 2.40625 -7.734375 3.296875 -7.734375 Z M 3.296875 -4.09375 C 4.359375 -4.09375 5.078125 -3.390625 5.078125 -2.390625 C 5.078125 -1.34375 4.375 -0.65625 3.28125 -0.65625 C 2.25 -0.65625 1.53125 -1.375 1.53125 -2.375 C 1.53125 -3.40625 2.234375 -4.09375 3.296875 -4.09375 Z M 3.296875 -4.09375 "/>
</symbol>
<symbol overflow="visible" id="glyph2-0">
<path style="stroke:none;" d=""/>
</symbol>
<symbol overflow="visible" id="glyph2-1">
<path style="stroke:none;" d="M -3.75 -3.40625 L -3.75 -0.546875 L -2.875 -0.546875 L -2.875 -3.40625 Z M -3.75 -3.40625 "/>
</symbol>
<symbol overflow="visible" id="glyph2-2">
<path style="stroke:none;" d="M -6.1875 -3.109375 L 0 -3.109375 L 0 -4.15625 L -8.671875 -4.15625 L -8.671875 -3.46875 C -7.34375 -3.09375 -7.15625 -2.859375 -6.953125 -1.21875 L -6.1875 -1.21875 Z M -6.1875 -3.109375 "/>
</symbol>
<symbol overflow="visible" id="glyph2-3">
<path style="stroke:none;" d="M -1.25 -2.296875 L -1.25 -1.046875 L 0 -1.046875 L 0 -2.296875 Z M -1.25 -2.296875 "/>
</symbol>
<symbol overflow="visible" id="glyph2-4">
<path style="stroke:none;" d="M -8.671875 -3.296875 C -8.671875 -2.515625 -8.3125 -1.78125 -7.734375 -1.34375 C -6.953125 -0.796875 -5.8125 -0.515625 -4.203125 -0.515625 C -1.265625 -0.515625 0.28125 -1.46875 0.28125 -3.296875 C 0.28125 -5.09375 -1.265625 -6.078125 -4.125 -6.078125 C -5.8125 -6.078125 -6.9375 -5.8125 -7.734375 -5.25 C -8.328125 -4.8125 -8.671875 -4.109375 -8.671875 -3.296875 Z M -7.734375 -3.296875 C -7.734375 -4.4375 -6.578125 -5 -4.21875 -5 C -1.75 -5 -0.59375 -4.453125 -0.59375 -3.28125 C -0.59375 -2.15625 -1.796875 -1.59375 -4.1875 -1.59375 C -6.578125 -1.59375 -7.734375 -2.15625 -7.734375 -3.296875 Z M -7.734375 -3.296875 "/>
</symbol>
<symbol overflow="visible" id="glyph2-5">
<path style="stroke:none;" d="M -8.515625 -5.71875 L -8.515625 -1.3125 L -3.875 -0.6875 L -3.875 -1.65625 C -4.46875 -2.140625 -4.671875 -2.5625 -4.671875 -3.234375 C -4.671875 -4.375 -3.890625 -5.078125 -2.625 -5.078125 C -1.40625 -5.078125 -0.65625 -4.375 -0.65625 -3.21875 C -0.65625 -2.296875 -1.125 -1.734375 -2.09375 -1.46875 L -2.09375 -0.421875 C -1.390625 -0.5625 -1.0625 -0.6875 -0.75 -0.9375 C -0.09375 -1.421875 0.28125 -2.28125 0.28125 -3.234375 C 0.28125 -4.953125 -0.96875 -6.15625 -2.765625 -6.15625 C -4.453125 -6.15625 -5.609375 -5.046875 -5.609375 -3.40625 C -5.609375 -2.8125 -5.453125 -2.328125 -5.09375 -1.84375 L -7.46875 -2.171875 L -7.46875 -5.71875 Z M -8.515625 -5.71875 "/>
</symbol>
<symbol overflow="visible" id="glyph2-6">
<path style="stroke:none;" d="M -6.421875 -5.96875 C -7.84375 -5.765625 -8.671875 -4.859375 -8.671875 -3.5625 C -8.671875 -2.625 -8.21875 -1.78125 -7.4375 -1.28125 C -6.59375 -0.75 -5.53125 -0.515625 -3.953125 -0.515625 C -2.5 -0.515625 -1.578125 -0.71875 -0.796875 -1.234375 C -0.09375 -1.6875 0.28125 -2.4375 0.28125 -3.375 C 0.28125 -4.984375 -0.9375 -6.15625 -2.625 -6.15625 C -4.21875 -6.15625 -5.359375 -5.078125 -5.359375 -3.546875 C -5.359375 -2.71875 -5.046875 -2.046875 -4.40625 -1.59375 C -6.546875 -1.609375 -7.734375 -2.28125 -7.734375 -3.484375 C -7.734375 -4.234375 -7.265625 -4.75 -6.421875 -4.921875 Z M -4.421875 -3.421875 C -4.421875 -4.4375 -3.703125 -5.078125 -2.546875 -5.078125 C -1.453125 -5.078125 -0.65625 -4.359375 -0.65625 -3.390625 C -0.65625 -2.40625 -1.484375 -1.65625 -2.59375 -1.65625 C -3.671875 -1.65625 -4.421875 -2.375 -4.421875 -3.421875 Z M -4.421875 -3.421875 "/>
</symbol>
</g>
</defs>
<g id="surface3035">
<rect x="0" y="0" width="576" height="360" style="fill:rgb(100%,100%,100%);fill-opacity:1;stroke:none;"/>
<path style="fill:none;stroke-width:0.75;stroke-linecap:round;stroke-linejoin:round;stroke:rgb(0%,0%,0%);stroke-opacity:1;stroke-miterlimit:10;" d="M 77.066406 74.507812 L 78.0625 77.386719 L 79.0625 75.957031 L 80.058594 80.511719 L 81.054688 83.152344 L 82.050781 77.628906 L 83.050781 79.785156 L 84.046875 78.597656 L 85.042969 83.152344 L 86.039062 76.421875 L 87.039062 81.964844 L 88.035156 83.152344 L 89.03125 86.277344 L 90.027344 74.746094 L 91.023438 69.445312 L 92.023438 90.609375 L 93.019531 86.761719 L 94.015625 76.902344 L 95.011719 80.753906 L 96.011719 82.207031 L 97.007812 77.386719 L 98.003906 78.355469 L 99 73.296875 L 100 69.226562 L 100.996094 66.078125 L 101.992188 63.199219 L 102.988281 69.445312 L 103.988281 70.171875 L 104.984375 82.691406 L 105.980469 72.351562 L 106.976562 78.355469 L 107.976562 83.394531 L 108.972656 83.636719 L 109.96875 67.046875 L 110.964844 64.40625 L 111.964844 63.199219 L 112.960938 71.140625 L 113.957031 71.140625 L 114.953125 74.507812 L 115.953125 87.96875 L 116.949219 95.671875 L 117.945312 86.761719 L 118.941406 94.460938 L 119.941406 93.007812 L 120.9375 92.546875 L 121.933594 81.722656 L 122.929688 72.8125 L 123.929688 77.144531 L 124.925781 73.78125 L 125.921875 77.871094 L 126.917969 79.542969 L 127.917969 92.304688 L 128.914062 84.847656 L 129.910156 88.695312 L 130.90625 79.324219 L 131.90625 84.121094 L 132.902344 91.578125 L 133.898438 77.628906 L 134.894531 74.746094 L 135.894531 78.355469 L 136.890625 75.230469 L 137.886719 83.636719 L 138.882812 76.421875 L 139.878906 85.570312 L 140.878906 90.851562 L 141.875 85.328125 L 142.871094 89.421875 L 143.867188 93.492188 L 144.867188 85.8125 L 145.863281 66.5625 L 146.859375 74.746094 L 147.855469 74.746094 L 148.855469 68.5 L 149.851562 68.984375 L 150.847656 80.027344 L 151.84375 79.082031 L 152.84375 79.785156 L 153.839844 88.453125 L 154.835938 79.082031 L 155.832031 84.847656 L 156.832031 72.351562 L 157.828125 68.742188 L 158.824219 69.6875 L 159.820312 66.320312 L 160.820312 78.597656 L 161.816406 60.800781 L 162.8125 72.109375 L 163.808594 73.78125 L 164.808594 79.324219 L 165.804688 80.027344 L 166.800781 81.480469 L 167.796875 77.386719 L 168.796875 66.5625 L 169.792969 65.132812 L 170.789062 73.539062 L 171.785156 69.226562 L 172.785156 67.289062 L 173.78125 68.742188 L 174.777344 72.8125 L 175.773438 75.957031 L 176.773438 74.988281 L 177.769531 86.277344 L 178.765625 83.636719 L 179.761719 80.269531 L 180.761719 79.785156 L 181.757812 77.144531 L 182.753906 80.269531 L 183.75 81.964844 L 184.75 80.996094 L 185.746094 79.542969 L 186.742188 81.480469 L 187.738281 87.003906 L 188.734375 96.152344 L 189.734375 95.671875 L 190.730469 88.695312 L 191.726562 84.847656 L 192.722656 84.847656 L 193.722656 77.144531 L 194.71875 82.910156 L 195.714844 77.871094 L 196.710938 79.082031 L 197.710938 73.296875 L 198.707031 78.355469 L 199.703125 90.851562 L 200.699219 97.34375 L 201.699219 80.753906 L 202.695312 98.550781 L 203.691406 79.542969 L 204.6875 84.847656 L 205.6875 76.660156 L 206.683594 73.296875 L 207.679688 85.089844 L 208.675781 69.445312 L 209.675781 78.839844 L 210.671875 81.238281 L 211.667969 77.386719 L 212.664062 92.304688 L 213.664062 81.480469 L 214.660156 91.335938 L 215.65625 78.355469 L 216.652344 85.089844 L 217.652344 78.597656 L 218.648438 72.351562 L 219.644531 70.65625 L 220.640625 79.082031 L 221.640625 75.472656 L 222.636719 82.910156 L 223.632812 83.636719 L 224.628906 85.570312 L 225.628906 92.546875 L 226.625 83.152344 L 227.621094 82.207031 L 228.617188 75.472656 L 229.617188 74.988281 L 230.613281 75.230469 L 231.609375 80.269531 L 232.605469 75.957031 L 233.605469 69.6875 L 234.601562 82.691406 L 235.597656 74.265625 L 236.59375 93.976562 L 237.589844 94.945312 L 238.589844 101.675781 L 239.585938 95.910156 L 240.582031 81.480469 L 241.578125 81.238281 L 242.578125 77.871094 L 243.574219 76.660156 L 244.570312 75.714844 L 245.566406 78.839844 L 246.566406 80.027344 L 247.5625 80.996094 L 248.558594 80.027344 L 249.554688 87.484375 L 250.554688 87.96875 L 251.550781 79.082031 L 252.546875 74.265625 L 253.542969 71.382812 L 254.542969 80.027344 L 255.539062 73.78125 L 256.535156 66.5625 L 257.53125 73.054688 L 258.53125 69.6875 L 259.527344 85.8125 L 260.523438 93.492188 L 261.519531 91.09375 L 262.519531 76.902344 L 263.515625 86.519531 L 264.511719 87.484375 L 265.507812 87.003906 L 266.507812 74.507812 L 267.503906 80.027344 L 268.5 75.957031 L 269.496094 74.265625 L 270.496094 74.265625 L 271.492188 78.839844 L 272.488281 90.125 L 273.484375 81.722656 L 274.484375 84.605469 L 275.480469 78.597656 L 276.476562 74.023438 L 277.472656 80.753906 L 278.472656 82.691406 L 279.46875 74.746094 L 280.464844 75.472656 L 281.460938 74.507812 L 282.460938 81.238281 L 283.457031 86.277344 L 284.453125 94.703125 L 285.449219 97.824219 L 286.445312 97.824219 L 287.445312 90.367188 L 288.441406 89.421875 L 289.4375 78.355469 L 290.433594 85.570312 L 291.433594 80.996094 L 292.429688 80.269531 L 293.425781 72.59375 L 294.421875 80.511719 L 295.421875 86.761719 L 296.417969 97.585938 L 297.414062 80.511719 L 298.410156 93.492188 L 299.410156 80.753906 L 300.40625 76.660156 L 301.402344 80.511719 L 302.398438 78.839844 L 303.398438 72.351562 L 304.394531 71.140625 L 305.390625 68.257812 L 306.386719 74.988281 L 307.386719 90.367188 L 308.382812 83.636719 L 309.378906 77.628906 L 310.375 72.109375 L 311.375 79.082031 L 312.371094 75.472656 L 313.367188 79.785156 L 314.363281 79.082031 L 315.363281 75.472656 L 316.359375 67.289062 L 317.355469 74.507812 L 318.351562 69.929688 L 319.351562 85.570312 L 320.347656 87.484375 L 321.34375 79.542969 L 322.339844 85.570312 L 323.339844 90.367188 L 324.335938 93.976562 L 325.332031 76.660156 L 326.328125 80.996094 L 327.328125 74.988281 L 328.324219 80.996094 L 329.320312 70.171875 L 330.316406 74.988281 L 331.316406 88.453125 L 332.3125 91.09375 L 333.308594 90.367188 L 334.304688 97.101562 L 335.300781 84.847656 L 336.300781 85.8125 L 337.296875 80.269531 L 338.292969 67.289062 L 339.289062 74.023438 L 340.289062 74.746094 L 341.285156 74.746094 L 342.28125 81.964844 L 343.277344 88.695312 L 344.277344 75.714844 L 345.273438 80.996094 L 346.269531 80.996094 L 347.265625 81.480469 L 348.265625 76.902344 L 349.261719 73.539062 L 350.257812 65.859375 L 351.253906 65.132812 L 352.253906 68.257812 L 353.25 67.046875 L 354.246094 68.984375 L 355.242188 78.597656 L 356.242188 71.140625 L 357.238281 78.839844 L 358.234375 93.007812 L 359.230469 76.660156 L 360.230469 74.988281 L 361.226562 78.355469 L 362.222656 70.65625 L 363.21875 69.226562 L 364.21875 80.511719 L 365.214844 77.871094 L 366.210938 73.296875 L 367.207031 87.484375 L 368.207031 104.074219 L 369.203125 104.800781 L 370.199219 92.304688 L 371.195312 97.824219 L 372.195312 93.976562 L 373.191406 85.8125 L 374.1875 80.996094 L 375.183594 84.121094 L 376.183594 75.472656 L 377.179688 74.988281 L 378.175781 74.265625 L 379.171875 84.121094 L 380.167969 87.242188 L 381.167969 82.691406 L 382.164062 85.328125 L 383.160156 79.785156 L 384.15625 72.8125 L 385.15625 74.265625 L 386.152344 66.5625 L 387.148438 65.859375 L 388.144531 65.132812 L 389.144531 64.40625 L 390.140625 68.5 L 391.136719 82.691406 L 392.132812 90.851562 L 393.132812 81.238281 L 394.128906 82.910156 L 395.125 92.789062 L 396.121094 78.597656 L 397.121094 73.296875 L 398.117188 67.773438 L 399.113281 74.265625 L 400.109375 77.628906 L 401.109375 84.847656 L 402.105469 72.351562 L 403.101562 84.605469 L 404.097656 96.375 L 405.097656 84.847656 L 406.09375 84.363281 L 407.089844 73.296875 L 408.085938 73.539062 L 409.085938 71.867188 L 410.082031 72.8125 L 411.078125 69.6875 L 412.074219 70.65625 L 413.074219 69.445312 L 414.070312 72.59375 L 415.066406 89.421875 L 416.0625 99.738281 L 417.0625 97.101562 L 418.058594 98.066406 L 419.054688 85.8125 L 420.050781 93.007812 L 421.050781 88.210938 L 422.046875 79.082031 L 423.042969 87.242188 L 424.039062 80.996094 L 425.039062 69.445312 L 426.035156 86.277344 L 427.03125 92.789062 L 428.027344 99.980469 L 429.023438 91.335938 L 430.023438 78.839844 L 431.019531 81.480469 L 432.015625 93.976562 L 433.011719 88.695312 L 434.011719 77.871094 L 435.007812 80.269531 L 436.003906 74.023438 L 437 82.207031 L 438 82.449219 L 438.996094 91.09375 L 439.992188 86.761719 L 440.988281 83.636719 L 441.988281 87.242188 L 442.984375 79.785156 L 443.980469 80.753906 L 444.976562 88.9375 L 445.976562 83.636719 L 446.972656 77.628906 L 447.96875 79.082031 L 448.964844 74.023438 L 449.964844 79.324219 L 450.960938 94.703125 L 451.957031 96.617188 L 452.953125 82.207031 L 453.953125 99.035156 L 454.949219 102.886719 L 455.945312 83.394531 L 456.941406 81.238281 L 457.941406 85.570312 L 458.9375 81.722656 L 459.933594 72.8125 L 460.929688 76.179688 L 461.929688 82.910156 L 462.925781 84.847656 L 463.921875 87.726562 L 464.917969 87.484375 L 465.917969 89.640625 L 466.914062 87.96875 L 467.910156 89.882812 L 468.90625 75.714844 L 469.90625 80.753906 L 470.902344 80.269531 L 471.898438 65.859375 L 472.894531 69.445312 L 473.894531 86.277344 L 474.890625 87.96875 L 475.886719 87.242188 L 476.882812 90.125 L 477.878906 86.277344 L 478.878906 87.726562 L 479.875 90.609375 L 480.871094 82.691406 L 481.867188 72.8125 L 482.867188 73.78125 L 483.863281 71.382812 L 484.859375 70.898438 L 485.855469 76.179688 L 486.855469 95.429688 L 487.851562 90.367188 L 488.847656 88.9375 L 489.84375 98.550781 L 490.84375 101.917969 L 491.839844 95.910156 L 492.835938 89.179688 L 493.832031 92.789062 L 494.832031 88.210938 L 495.828125 96.152344 L 496.824219 95.1875 L 497.820312 87.96875 L 498.820312 88.210938 L 499.816406 91.578125 L 500.8125 90.125 L 501.808594 94.460938 L 502.808594 83.878906 L 503.804688 79.324219 L 504.800781 80.269531 L 505.796875 75.714844 L 506.796875 80.269531 L 507.792969 81.722656 L 508.789062 72.8125 L 509.785156 79.324219 L 510.785156 92.0625 L 511.78125 88.695312 L 512.777344 89.640625 L 513.773438 85.328125 L 514.773438 89.882812 L 515.769531 89.882812 L 516.765625 80.027344 L 517.761719 75.472656 L 518.761719 71.382812 L 519.757812 74.023438 L 520.753906 71.382812 L 521.75 73.296875 L 522.75 74.988281 L 523.746094 85.570312 L 524.742188 93.976562 L 525.738281 91.335938 L 526.734375 74.265625 L 527.734375 81.238281 "/>
<g style="fill:rgb(0%,0%,0%);fill-opacity:1;">
  <use xlink:href="#glyph0-1" x="209.898438" y="34.516602"/>
  <use xlink:href="#glyph0-2" x="219.898438" y="34.516602"/>
  <use xlink:href="#glyph0-3" x="228.898438" y="34.516602"/>
  <use xlink:href="#glyph0-4" x="237.898438" y="34.516602"/>
  <use xlink:href="#glyph0-5" x="242.898438" y="34.516602"/>
  <use xlink:href="#glyph0-6" x="251.898438" y="34.516602"/>
  <use xlink:href="#glyph0-7" x="259.898438" y="34.516602"/>
  <use xlink:href="#glyph0-8" x="265.898438" y="34.516602"/>
  <use xlink:href="#glyph0-9" x="274.898438" y="34.516602"/>
  <use xlink:href="#glyph0-10" x="278.898438" y="34.516602"/>
  <use xlink:href="#glyph0-11" x="289.898438" y="34.516602"/>
  <use xlink:href="#glyph0-12" x="297.898438" y="34.516602"/>
  <use xlink:href="#glyph0-13" x="305.898438" y="34.516602"/>
  <use xlink:href="#glyph0-14" x="309.898438" y="34.516602"/>
  <use xlink:href="#glyph0-14" x="313.898438" y="34.516602"/>
  <use xlink:href="#glyph0-15" x="317.898438" y="34.516602"/>
  <use xlink:href="#glyph0-4" x="325.898438" y="34.516602"/>
  <use xlink:href="#glyph0-13" x="330.898438" y="34.516602"/>
  <use xlink:href="#glyph0-2" x="334.898438" y="34.516602"/>
  <use xlink:href="#glyph0-8" x="343.898438" y="34.516602"/>
  <use xlink:href="#glyph0-9" x="352.898438" y="34.516602"/>
  <use xlink:href="#glyph0-16" x="356.898438" y="34.516602"/>
  <use xlink:href="#glyph0-8" x="360.898438" y="34.516602"/>
  <use xlink:href="#glyph0-17" x="369.898438" y="34.516602"/>
  <use xlink:href="#glyph0-6" x="378.898438" y="34.516602"/>
  <use xlink:href="#glyph0-18" x="386.898438" y="34.516602"/>
</g>
<path style="fill:none;stroke-width:0.75;stroke-linecap:round;stroke-linejoin:round;stroke:rgb(0%,0%,0%);stroke-opacity:1;stroke-miterlimit:10;" d="M 77.066406 106.558594 L 436.003906 106.558594 "/>
<path style="fill:none;stroke-width:0.75;stroke-linecap:round;stroke-linejoin:round;stroke:rgb(0%,0%,0%);stroke-opacity:1;stroke-miterlimit:10;" d="M 77.066406 106.558594 L 77.066406 113.761719 "/>
<path style="fill:none;stroke-width:0.75;stroke-linecap:round;stroke-linejoin:round;stroke:rgb(0%,0%,0%);stroke-opacity:1;stroke-miterlimit:10;" d="M 196.710938 106.558594 L 196.710938 113.761719 "/>
<path style="fill:none;stroke-width:0.75;stroke-linecap:round;stroke-linejoin:round;stroke:rgb(0%,0%,0%);stroke-opacity:1;stroke-miterlimit:10;" d="M 316.359375 106.558594 L 316.359375 113.761719 "/>
<path style="fill:none;stroke-width:0.75;stroke-linecap:round;stroke-linejoin:round;stroke:rgb(0%,0%,0%);stroke-opacity:1;stroke-miterlimit:10;" d="M 436.003906 106.558594 L 436.003906 113.761719 "/>
<g style="fill:rgb(0%,0%,0%);fill-opacity:1;">
  <use xlink:href="#glyph1-1" x="63.066406" y="132.228516"/>
  <use xlink:href="#glyph1-2" x="70.066406" y="132.228516"/>
  <use xlink:href="#glyph1-3" x="77.066406" y="132.228516"/>
  <use xlink:href="#glyph1-4" x="84.066406" y="132.228516"/>
</g>
<g style="fill:rgb(0%,0%,0%);fill-opacity:1;">
  <use xlink:href="#glyph1-1" x="182.710938" y="132.228516"/>
  <use xlink:href="#glyph1-2" x="189.710938" y="132.228516"/>
  <use xlink:href="#glyph1-5" x="196.710938" y="132.228516"/>
  <use xlink:href="#glyph1-4" x="203.710938" y="132.228516"/>
</g>
<g style="fill:rgb(0%,0%,0%);fill-opacity:1;">
  <use xlink:href="#glyph1-1" x="302.359375" y="132.228516"/>
  <use xlink:href="#glyph1-2" x="309.359375" y="132.228516"/>
  <use xlink:href="#glyph1-6" x="316.359375" y="132.228516"/>
  <use xlink:href="#glyph1-4" x="323.359375" y="132.228516"/>
</g>
<g style="fill:rgb(0%,0%,0%);fill-opacity:1;">
  <use xlink:href="#glyph1-1" x="422.003906" y="132.228516"/>
  <use xlink:href="#glyph1-2" x="429.003906" y="132.228516"/>
  <use xlink:href="#glyph1-7" x="436.003906" y="132.228516"/>
  <use xlink:href="#glyph1-4" x="443.003906" y="132.228516"/>
</g>
<path style="fill:none;stroke-width:0.75;stroke-linecap:round;stroke-linejoin:round;stroke:rgb(0%,0%,0%);stroke-opacity:1;stroke-miterlimit:10;" d="M 59.039062 104.800781 L 59.039062 60.800781 "/>
<path style="fill:none;stroke-width:0.75;stroke-linecap:round;stroke-linejoin:round;stroke:rgb(0%,0%,0%);stroke-opacity:1;stroke-miterlimit:10;" d="M 59.039062 104.800781 L 51.839844 104.800781 "/>
<path style="fill:none;stroke-width:0.75;stroke-linecap:round;stroke-linejoin:round;stroke:rgb(0%,0%,0%);stroke-opacity:1;stroke-miterlimit:10;" d="M 59.039062 93.800781 L 51.839844 93.800781 "/>
<path style="fill:none;stroke-width:0.75;stroke-linecap:round;stroke-linejoin:round;stroke:rgb(0%,0%,0%);stroke-opacity:1;stroke-miterlimit:10;" d="M 59.039062 82.800781 L 51.839844 82.800781 "/>
<path style="fill:none;stroke-width:0.75;stroke-linecap:round;stroke-linejoin:round;stroke:rgb(0%,0%,0%);stroke-opacity:1;stroke-miterlimit:10;" d="M 59.039062 71.800781 L 51.839844 71.800781 "/>
<path style="fill:none;stroke-width:0.75;stroke-linecap:round;stroke-linejoin:round;stroke:rgb(0%,0%,0%);stroke-opacity:1;stroke-miterlimit:10;" d="M 59.039062 60.800781 L 51.839844 60.800781 "/>
<g style="fill:rgb(0%,0%,0%);fill-opacity:1;">
  <use xlink:href="#glyph2-1" x="41.509766" y="115.300781"/>
  <use xlink:href="#glyph2-2" x="41.509766" y="111.300781"/>
  <use xlink:href="#glyph2-3" x="41.509766" y="104.300781"/>
  <use xlink:href="#glyph2-4" x="41.509766" y="101.300781"/>
</g>
<g style="fill:rgb(0%,0%,0%);fill-opacity:1;">
  <use xlink:href="#glyph2-4" x="41.509766" y="80.300781"/>
  <use xlink:href="#glyph2-3" x="41.509766" y="73.300781"/>
  <use xlink:href="#glyph2-5" x="41.509766" y="70.300781"/>
</g>
<path style="fill:none;stroke-width:0.75;stroke-linecap:round;stroke-linejoin:round;stroke:rgb(0%,0%,0%);stroke-opacity:1;stroke-miterlimit:10;" d="M 59.039062 106.558594 L 545.761719 106.558594 L 545.761719 59.039062 L 59.039062 59.039062 Z M 59.039062 106.558594 "/>
<path style="fill:none;stroke-width:0.75;stroke-linecap:round;stroke-linejoin:round;stroke:rgb(0%,0%,0%);stroke-opacity:1;stroke-miterlimit:10;" d="M 77.066406 254.84375 L 82.050781 254.84375 L 83.050781 259.085938 L 84.046875 263.765625 L 85.042969 264.285156 L 86.039062 262.777344 L 87.039062 265.558594 L 88.035156 266.386719 L 89.03125 267.832031 L 90.027344 265.667969 L 91.023438 268.117188 L 92.023438 266.488281 L 93.019531 263.960938 L 94.015625 258.980469 L 95.011719 262.441406 L 96.011719 268.3125 L 97.007812 258.558594 L 98.003906 253.214844 L 99 254.847656 L 100 254.398438 L 100.996094 253.246094 L 101.992188 255.183594 L 102.988281 256.511719 L 103.988281 261.460938 L 104.984375 268.574219 L 105.980469 275.171875 L 106.976562 279.894531 L 107.976562 281.164062 L 108.972656 282.070312 L 109.96875 280.296875 L 110.964844 280.996094 L 111.964844 280.113281 L 112.960938 277.242188 L 113.957031 273.496094 L 114.953125 275.488281 L 115.953125 276.984375 L 116.949219 277.894531 L 117.945312 277.238281 L 118.941406 276.605469 L 119.941406 275.429688 L 120.9375 268.113281 L 121.933594 251.296875 L 122.929688 246.175781 L 123.929688 240.890625 L 124.925781 242.28125 L 125.921875 246.417969 L 126.917969 245.917969 L 127.917969 241.949219 L 128.914062 240.804688 L 129.910156 243.09375 L 130.90625 246.625 L 131.90625 249.875 L 132.902344 244.226562 L 133.898438 244.699219 L 134.894531 243.347656 L 135.894531 247.539062 L 136.890625 248.425781 L 137.886719 243.941406 L 138.882812 249.28125 L 139.878906 257.648438 L 140.878906 261.847656 L 141.875 267.871094 L 142.871094 266.363281 L 143.867188 270.457031 L 144.867188 267.226562 L 145.863281 258.484375 L 146.859375 255.75 L 147.855469 249.582031 L 148.855469 242.652344 L 149.851562 241.8125 L 150.847656 249.648438 L 151.84375 252.691406 L 152.84375 256.167969 L 153.839844 264.164062 L 154.835938 270.566406 L 155.832031 270.25 L 156.832031 270.816406 L 157.828125 270.996094 L 158.824219 264.5625 L 159.820312 265.585938 L 160.820312 261.832031 L 161.816406 266.777344 L 162.8125 271.945312 L 163.808594 274.632812 L 164.808594 277.488281 L 165.804688 276.175781 L 166.800781 280.03125 L 167.796875 280.183594 L 168.796875 280.015625 L 169.792969 278.457031 L 170.789062 276.410156 L 171.785156 273.503906 L 172.785156 272.007812 L 173.78125 273.835938 L 174.777344 275.121094 L 175.773438 274.132812 L 176.773438 274.199219 L 177.769531 274.753906 L 178.765625 275.121094 L 179.761719 274.65625 L 180.761719 273.394531 L 181.757812 272.507812 L 182.753906 266.183594 L 183.75 261.429688 L 184.75 258.816406 L 185.746094 256.683594 L 186.742188 256.09375 L 187.738281 254.144531 L 188.734375 251.871094 L 189.734375 250.816406 L 190.730469 251.113281 L 191.726562 250.785156 L 192.722656 247.457031 L 193.722656 241.09375 L 194.71875 241.828125 L 195.714844 242.132812 L 196.710938 241.324219 L 197.710938 240.890625 L 198.707031 242.257812 L 199.703125 243.691406 L 200.699219 248.824219 L 201.699219 253.554688 L 202.695312 263.359375 L 203.691406 266.875 L 204.6875 258.804688 L 205.6875 244.84375 L 206.683594 247.398438 L 207.679688 240.800781 L 208.675781 241.472656 L 209.675781 241.382812 L 210.671875 243.890625 L 211.667969 250.035156 L 212.664062 248.871094 L 213.664062 260.527344 L 214.660156 263.011719 L 215.65625 263.792969 L 216.652344 267.609375 L 217.652344 257.347656 L 218.648438 258.480469 L 219.644531 250.328125 L 220.640625 253.617188 L 221.640625 251.351562 L 222.636719 253.671875 L 223.632812 260.292969 L 224.628906 266.839844 L 225.628906 267.105469 L 226.625 269.773438 L 227.621094 267.726562 L 228.617188 265.367188 L 229.617188 261.484375 L 230.613281 250.855469 L 231.609375 249.746094 L 232.605469 249.179688 L 233.605469 252.628906 L 234.601562 255.996094 L 235.597656 258.949219 L 236.59375 258.9375 L 237.589844 262.335938 L 238.589844 269.804688 L 239.585938 267.820312 L 240.582031 271.289062 L 241.578125 258.007812 L 242.578125 246.058594 L 243.574219 242.386719 L 244.570312 247.988281 L 245.566406 245.703125 L 246.566406 243.949219 L 247.5625 241.566406 L 248.558594 240.894531 L 249.554688 243.480469 L 250.554688 246.59375 L 251.550781 249.546875 L 252.546875 252.054688 L 253.542969 255.492188 L 254.542969 252.507812 L 255.539062 249.6875 L 256.535156 254.476562 L 257.53125 263.011719 L 258.53125 271.386719 L 259.527344 271.578125 L 260.523438 275.222656 L 261.519531 280.503906 L 262.519531 281.558594 L 263.515625 282.871094 L 264.511719 280.332031 L 265.507812 270.066406 L 266.507812 259.464844 L 267.503906 259.308594 L 268.5 253.058594 L 269.496094 247.175781 L 270.496094 243.355469 L 271.492188 244.035156 L 272.488281 243.851562 L 273.484375 245.582031 L 274.484375 249.023438 L 275.480469 253.585938 L 276.476562 255.832031 L 277.472656 249.746094 L 278.472656 251.3125 L 279.46875 250.867188 L 280.464844 255.246094 L 281.460938 262.953125 L 282.460938 263.644531 L 283.457031 262.898438 L 284.453125 268.230469 L 285.449219 271.785156 L 286.445312 274.9375 L 287.445312 273.804688 L 288.441406 269.152344 L 289.4375 254.71875 L 290.433594 241.96875 L 291.433594 242.546875 L 292.429688 245.144531 L 293.425781 247.550781 L 294.421875 244.644531 L 295.421875 244.140625 L 296.417969 241.675781 L 297.414062 240.816406 L 298.410156 245.800781 L 299.410156 248.378906 L 300.40625 246.925781 L 301.402344 240.875 L 302.398438 242.3125 L 303.398438 240.828125 L 304.394531 242.191406 L 305.390625 247.460938 L 306.386719 250.664062 L 307.386719 255.402344 L 308.382812 265.648438 L 309.378906 273.609375 L 310.375 279.636719 L 311.375 280.804688 L 312.371094 274.902344 L 313.367188 272.507812 L 314.363281 273.523438 L 315.363281 276.574219 L 316.359375 275.574219 L 317.355469 275.6875 L 318.351562 273.839844 L 319.351562 272.222656 L 320.347656 272.09375 L 321.34375 274.714844 L 322.339844 274.242188 L 323.339844 275.050781 L 324.335938 269.621094 L 325.332031 262.242188 L 326.328125 260.144531 L 327.328125 254.636719 L 328.324219 246.78125 L 329.320312 241.121094 L 330.316406 241.480469 L 331.316406 241.492188 L 332.3125 243.140625 L 333.308594 243.675781 L 334.304688 250.617188 L 335.300781 255.628906 L 336.300781 251.078125 L 337.296875 245.851562 L 338.292969 243.09375 L 339.289062 240.949219 L 340.289062 240.800781 L 341.285156 240.84375 L 342.28125 242.183594 L 343.277344 255.628906 L 344.277344 262.113281 L 345.273438 267.390625 L 346.269531 271.847656 L 347.265625 271.226562 L 348.265625 265.296875 L 349.261719 269.902344 L 350.257812 269.621094 L 351.253906 269.015625 L 352.253906 267.710938 L 353.25 269.058594 L 354.246094 271.757812 L 355.242188 276.914062 L 356.242188 279.632812 L 357.238281 280.589844 L 358.234375 281.476562 L 359.230469 281.894531 L 360.230469 280.753906 L 361.226562 280.902344 L 362.222656 279.414062 L 363.21875 268.597656 L 364.21875 266.832031 L 365.214844 265.570312 L 366.210938 262.929688 L 367.207031 263.03125 L 368.207031 263.390625 L 369.203125 260.082031 L 370.199219 258.636719 L 371.195312 259.839844 L 372.195312 253.480469 L 373.191406 242.019531 L 374.1875 257.773438 L 375.183594 258.722656 L 376.183594 262.65625 L 377.179688 262.523438 L 378.175781 255.984375 L 379.171875 246.894531 L 380.167969 243.675781 L 381.167969 240.84375 L 382.164062 243.550781 L 383.160156 248.492188 L 384.15625 247.585938 L 385.15625 245.496094 L 386.152344 246.667969 L 387.148438 246.554688 L 388.144531 250.4375 L 389.144531 260.53125 L 390.140625 267.09375 L 391.136719 276.769531 L 392.132812 281.34375 L 393.132812 283.484375 L 394.128906 284.511719 L 395.125 284.800781 L 396.121094 284.082031 L 397.121094 280.140625 L 398.117188 278.042969 L 399.113281 274.691406 L 400.109375 262.101562 L 401.109375 259.582031 L 402.105469 258.96875 L 403.101562 259.816406 L 404.097656 258.648438 L 405.097656 256.613281 L 406.09375 252.019531 L 407.089844 254.351562 L 408.085938 251.046875 L 409.085938 241.726562 L 410.082031 241.363281 L 411.078125 241.300781 L 412.074219 245.09375 L 413.074219 250.710938 L 414.070312 258.046875 L 415.066406 264.234375 L 416.0625 271.808594 L 417.0625 276.566406 L 418.058594 280.160156 L 419.054688 281.554688 L 420.050781 276.601562 L 421.050781 253.542969 L 422.046875 241.910156 L 423.042969 242.976562 L 424.039062 244.28125 L 425.039062 249.714844 L 426.035156 252.175781 L 427.03125 248.117188 L 428.027344 246.457031 L 429.023438 242.308594 L 430.023438 243.773438 L 431.019531 243.171875 L 432.015625 240.953125 L 433.011719 244.5625 L 434.011719 245.285156 L 435.007812 241.074219 L 436.003906 241.042969 L 437 241.082031 L 438 241.015625 L 438.996094 242.304688 L 439.992188 245.476562 L 440.988281 254.828125 L 441.988281 256.460938 L 442.984375 257.894531 L 443.980469 251.132812 L 444.976562 249.679688 L 445.976562 250.882812 L 446.972656 248.707031 L 447.96875 252.390625 L 448.964844 254.664062 L 449.964844 249.988281 L 450.960938 250.308594 L 451.957031 255.328125 L 452.953125 258.71875 L 453.953125 265.714844 L 454.949219 267.132812 L 455.945312 253.546875 L 456.941406 242.804688 L 457.941406 243.71875 L 458.9375 241.613281 L 459.933594 254.015625 L 460.929688 250.816406 L 461.929688 246.125 L 462.925781 243.867188 L 463.921875 241.242188 L 464.917969 243.796875 L 465.917969 249.210938 L 466.914062 249.917969 L 467.910156 249.453125 L 468.90625 247.234375 L 469.90625 245.875 L 470.902344 243.644531 L 471.898438 242.820312 L 472.894531 241.574219 L 473.894531 246.984375 L 474.890625 249.894531 L 475.886719 253.21875 L 476.882812 269.875 L 477.878906 276.175781 L 478.878906 272.285156 L 479.875 266.726562 L 480.871094 261.859375 L 481.867188 254.476562 L 482.867188 251.160156 L 483.863281 246.984375 L 484.859375 242.589844 L 485.855469 242.558594 L 486.855469 246.6875 L 487.851562 251.25 L 488.847656 258.050781 L 489.84375 264.859375 L 490.84375 267.59375 L 491.839844 253.070312 L 492.835938 247.4375 L 493.832031 244.496094 L 494.832031 241.148438 L 495.828125 251.296875 L 496.824219 256.839844 L 497.820312 254.589844 L 498.820312 254.066406 L 499.816406 249.957031 L 500.8125 252.085938 L 501.808594 253.828125 L 502.808594 250.265625 L 503.804688 247.835938 L 504.800781 248.21875 L 505.796875 247.269531 L 506.796875 249.679688 L 507.792969 244.910156 L 508.789062 241.074219 L 509.785156 241.167969 L 510.785156 245.679688 L 511.78125 248.777344 L 512.777344 250.8125 L 513.773438 260.53125 L 514.773438 263.304688 L 515.769531 254.175781 L 516.765625 250.113281 L 517.761719 246.25 L 518.761719 246.082031 L 519.757812 243.113281 L 520.753906 241.398438 L 521.75 243.109375 L 522.75 248.382812 L 523.746094 258.074219 L 524.742188 264.316406 L 525.738281 271.328125 L 526.734375 275.296875 L 527.734375 277.570312 "/>
<g style="fill:rgb(0%,0%,0%);fill-opacity:1;">
  <use xlink:href="#glyph0-19" x="256.898438" y="214.516602"/>
  <use xlink:href="#glyph0-6" x="266.898438" y="214.516602"/>
  <use xlink:href="#glyph0-20" x="274.898438" y="214.516602"/>
  <use xlink:href="#glyph0-7" x="282.898438" y="214.516602"/>
  <use xlink:href="#glyph0-3" x="288.898438" y="214.516602"/>
  <use xlink:href="#glyph0-4" x="297.898438" y="214.516602"/>
  <use xlink:href="#glyph0-13" x="302.898438" y="214.516602"/>
  <use xlink:href="#glyph0-6" x="306.898438" y="214.516602"/>
  <use xlink:href="#glyph0-7" x="314.898438" y="214.516602"/>
  <use xlink:href="#glyph0-3" x="320.898438" y="214.516602"/>
  <use xlink:href="#glyph0-8" x="329.898438" y="214.516602"/>
  <use xlink:href="#glyph0-21" x="338.898438" y="214.516602"/>
</g>
<path style="fill:none;stroke-width:0.75;stroke-linecap:round;stroke-linejoin:round;stroke:rgb(0%,0%,0%);stroke-opacity:1;stroke-miterlimit:10;" d="M 77.066406 286.558594 L 436.003906 286.558594 "/>
<path style="fill:none;stroke-width:0.75;stroke-linecap:round;stroke-linejoin:round;stroke:rgb(0%,0%,0%);stroke-opacity:1;stroke-miterlimit:10;" d="M 77.066406 286.558594 L 77.066406 293.761719 "/>
<path style="fill:none;stroke-width:0.75;stroke-linecap:round;stroke-linejoin:round;stroke:rgb(0%,0%,0%);stroke-opacity:1;stroke-miterlimit:10;" d="M 196.710938 286.558594 L 196.710938 293.761719 "/>
<path style="fill:none;stroke-width:0.75;stroke-linecap:round;stroke-linejoin:round;stroke:rgb(0%,0%,0%);stroke-opacity:1;stroke-miterlimit:10;" d="M 316.359375 286.558594 L 316.359375 293.761719 "/>
<path style="fill:none;stroke-width:0.75;stroke-linecap:round;stroke-linejoin:round;stroke:rgb(0%,0%,0%);stroke-opacity:1;stroke-miterlimit:10;" d="M 436.003906 286.558594 L 436.003906 293.761719 "/>
<g style="fill:rgb(0%,0%,0%);fill-opacity:1;">
  <use xlink:href="#glyph1-1" x="63.066406" y="312.228516"/>
  <use xlink:href="#glyph1-2" x="70.066406" y="312.228516"/>
  <use xlink:href="#glyph1-3" x="77.066406" y="312.228516"/>
  <use xlink:href="#glyph1-4" x="84.066406" y="312.228516"/>
</g>
<g style="fill:rgb(0%,0%,0%);fill-opacity:1;">
  <use xlink:href="#glyph1-1" x="182.710938" y="312.228516"/>
  <use xlink:href="#glyph1-2" x="189.710938" y="312.228516"/>
  <use xlink:href="#glyph1-5" x="196.710938" y="312.228516"/>
  <use xlink:href="#glyph1-4" x="203.710938" y="312.228516"/>
</g>
<g style="fill:rgb(0%,0%,0%);fill-opacity:1;">
  <use xlink:href="#glyph1-1" x="302.359375" y="312.228516"/>
  <use xlink:href="#glyph1-2" x="309.359375" y="312.228516"/>
  <use xlink:href="#glyph1-6" x="316.359375" y="312.228516"/>
  <use xlink:href="#glyph1-4" x="323.359375" y="312.228516"/>
</g>
<g style="fill:rgb(0%,0%,0%);fill-opacity:1;">
  <use xlink:href="#glyph1-1" x="422.003906" y="312.228516"/>
  <use xlink:href="#glyph1-2" x="429.003906" y="312.228516"/>
  <use xlink:href="#glyph1-7" x="436.003906" y="312.228516"/>
  <use xlink:href="#glyph1-4" x="443.003906" y="312.228516"/>
</g>
<path style="fill:none;stroke-width:0.75;stroke-linecap:round;stroke-linejoin:round;stroke:rgb(0%,0%,0%);stroke-opacity:1;stroke-miterlimit:10;" d="M 59.039062 285.570312 L 59.039062 240.800781 "/>
<path style="fill:none;stroke-width:0.75;stroke-linecap:round;stroke-linejoin:round;stroke:rgb(0%,0%,0%);stroke-opacity:1;stroke-miterlimit:10;" d="M 59.039062 285.570312 L 51.839844 285.570312 "/>
<path style="fill:none;stroke-width:0.75;stroke-linecap:round;stroke-linejoin:round;stroke:rgb(0%,0%,0%);stroke-opacity:1;stroke-miterlimit:10;" d="M 59.039062 276.617188 L 51.839844 276.617188 "/>
<path style="fill:none;stroke-width:0.75;stroke-linecap:round;stroke-linejoin:round;stroke:rgb(0%,0%,0%);stroke-opacity:1;stroke-miterlimit:10;" d="M 59.039062 267.660156 L 51.839844 267.660156 "/>
<path style="fill:none;stroke-width:0.75;stroke-linecap:round;stroke-linejoin:round;stroke:rgb(0%,0%,0%);stroke-opacity:1;stroke-miterlimit:10;" d="M 59.039062 258.707031 L 51.839844 258.707031 "/>
<path style="fill:none;stroke-width:0.75;stroke-linecap:round;stroke-linejoin:round;stroke:rgb(0%,0%,0%);stroke-opacity:1;stroke-miterlimit:10;" d="M 59.039062 249.753906 L 51.839844 249.753906 "/>
<path style="fill:none;stroke-width:0.75;stroke-linecap:round;stroke-linejoin:round;stroke:rgb(0%,0%,0%);stroke-opacity:1;stroke-miterlimit:10;" d="M 59.039062 240.800781 L 51.839844 240.800781 "/>
<g style="fill:rgb(0%,0%,0%);fill-opacity:1;">
  <use xlink:href="#glyph2-4" x="41.509766" y="289.070312"/>
</g>
<g style="fill:rgb(0%,0%,0%);fill-opacity:1;">
  <use xlink:href="#glyph2-6" x="41.509766" y="265.707031"/>
  <use xlink:href="#glyph2-4" x="41.509766" y="258.707031"/>
</g>
<path style="fill:none;stroke-width:0.75;stroke-linecap:round;stroke-linejoin:round;stroke:rgb(0%,0%,0%);stroke-opacity:1;stroke-miterlimit:10;" d="M 59.039062 286.558594 L 545.761719 286.558594 L 545.761719 239.039062 L 59.039062 239.039062 Z M 59.039062 286.558594 "/>
</g>
</svg>
