<?xml version="1.0" encoding="UTF-8"?>
<svg xmlns="http://www.w3.org/2000/svg" xmlns:xlink="http://www.w3.org/1999/xlink" width="576pt" height="360pt" viewBox="0 0 576 360" version="1.1">
<defs>
<g>
<symbol overflow="visible" id="glyph0-0">
<path style="stroke:none;" d=""/>
</symbol>
<symbol overflow="visible" id="glyph0-1">
<path style="stroke:none;" d="M -3.75 -3.40625 L -3.75 -0.546875 L -2.875 -0.546875 L -2.875 -3.40625 Z M -3.75 -3.40625 "/>
</symbol>
<symbol overflow="visible" id="glyph0-2">
<path style="stroke:none;" d="M -6.1875 -3.109375 L 0 -3.109375 L 0 -4.15625 L -8.671875 -4.15625 L -8.671875 -3.46875 C -7.34375 -3.09375 -7.15625 -2.859375 -6.953125 -1.21875 L -6.1875 -1.21875 Z M -6.1875 -3.109375 "/>
</symbol>
<symbol overflow="visible" id="glyph0-3">
<path style="stroke:none;" d="M -1.25 -2.296875 L -1.25 -1.046875 L 0 -1.046875 L 0 -2.296875 Z M -1.25 -2.296875 "/>
</symbol>
<symbol overflow="visible" id="glyph0-4">
<path style="stroke:none;" d="M -8.671875 -3.296875 C -8.671875 -2.515625 -8.3125 -1.78125 -7.734375 -1.34375 C -6.953125 -0.796875 -5.8125 -0.515625 -4.203125 -0.515625 C -1.265625 -0.515625 0.28125 -1.46875 0.28125 -3.296875 C 0.28125 -5.09375 -1.265625 -6.078125 -4.125 -6.078125 C -5.8125 -6.078125 -6.9375 -5.8125 -7.734375 -5.25 C -8.328125 -4.8125 -8.671875 -4.109375 -8.671875 -3.296875 Z M -7.734375 -3.296875 C -7.734375 -4.4375 -6.578125 -5 -4.21875 -5 C -1.75 -5 -0.59375 -4.453125 -0.59375 -3.28125 C -0.59375 -2.15625 -1.796875 -1.59375 -4.1875 -1.59375 C -6.578125 -1.59375 -7.734375 -2.15625 -7.734375 -3.296875 Z M -7.734375 -3.296875 "/>
</symbol>
<symbol overflow="visible" id="glyph0-5">
<path style="stroke:none;" d="M -4.53125 -5.25 C -5.765625 -5.25 -6.46875 -4.421875 -6.46875 -2.96875 C -6.46875 -1.515625 -5.71875 -0.5625 -4.546875 -0.5625 C -3.5625 -0.5625 -3.09375 -1.0625 -2.734375 -2.5625 L -2.515625 -3.484375 C -2.34375 -4.1875 -2.09375 -4.46875 -1.640625 -4.46875 C -1.046875 -4.46875 -0.640625 -3.875 -0.640625 -3 C -0.640625 -2.453125 -0.796875 -2 -1.0625 -1.75 C -1.25 -1.59375 -1.421875 -1.53125 -1.875 -1.46875 L -1.875 -0.40625 C -0.421875 -0.453125 0.28125 -1.265625 0.28125 -2.921875 C 0.28125 -4.5 -0.5 -5.515625 -1.71875 -5.515625 C -2.65625 -5.515625 -3.171875 -4.984375 -3.46875 -3.734375 L -3.703125 -2.765625 C -3.890625 -1.953125 -4.15625 -1.609375 -4.59375 -1.609375 C -5.1875 -1.609375 -5.546875 -2.125 -5.546875 -2.9375 C -5.546875 -3.75 -5.203125 -4.171875 -4.53125 -4.203125 Z M -4.53125 -5.25 "/>
</symbol>
<symbol overflow="visible" id="glyph0-6">
<path style="stroke:none;" d="M -6.46875 -3.265625 C -6.46875 -1.484375 -5.203125 -0.4375 -3.09375 -0.4375 C -0.96875 -0.4375 0.28125 -1.484375 0.28125 -3.28125 C 0.28125 -5.046875 -0.984375 -6.125 -3.046875 -6.125 C -5.234375 -6.125 -6.46875 -5.09375 -6.46875 -3.265625 Z M -5.546875 -3.28125 C -5.546875 -4.40625 -4.625 -5.078125 -3.0625 -5.078125 C -1.578125 -5.078125 -0.640625 -4.375 -0.640625 -3.28125 C -0.640625 -2.15625 -1.578125 -1.46875 -3.09375 -1.46875 C -4.625 -1.46875 -5.546875 -2.15625 -5.546875 -3.28125 Z M -5.546875 -3.28125 "/>
</symbol>
<symbol overflow="visible" id="glyph0-7">
<path style="stroke:none;" d="M -6.28125 -1.796875 L -6.28125 -0.796875 L 0 -0.796875 L 0 -1.796875 Z M -8.75 -1.796875 L -8.75 -0.796875 L -7.484375 -0.796875 L -7.484375 -1.796875 Z M -8.75 -1.796875 "/>
</symbol>
<symbol overflow="visible" id="glyph0-8">
<path style="stroke:none;" d="M -2.09375 -3.921875 L 0 -3.921875 L 0 -4.984375 L -2.09375 -4.984375 L -2.09375 -6.234375 L -3.046875 -6.234375 L -3.046875 -4.984375 L -8.671875 -4.984375 L -8.671875 -4.203125 L -3.21875 -0.34375 L -2.09375 -0.34375 Z M -3.046875 -3.921875 L -3.046875 -1.265625 L -6.875 -3.921875 Z M -3.046875 -3.921875 "/>
</symbol>
<symbol overflow="visible" id="glyph0-9">
<path style="stroke:none;" d="M -4.578125 -4.6875 C -5.109375 -5.578125 -5.546875 -5.859375 -6.359375 -5.859375 C -7.734375 -5.859375 -8.671875 -4.8125 -8.671875 -3.296875 C -8.671875 -1.796875 -7.734375 -0.75 -6.375 -0.75 C -5.546875 -0.75 -5.125 -1.015625 -4.578125 -1.890625 C -4.078125 -0.921875 -3.375 -0.4375 -2.40625 -0.4375 C -0.828125 -0.4375 0.28125 -1.609375 0.28125 -3.296875 C 0.28125 -4.984375 -0.828125 -6.15625 -2.40625 -6.15625 C -3.375 -6.15625 -4.078125 -5.671875 -4.578125 -4.6875 Z M -7.734375 -3.296875 C -7.734375 -4.203125 -7.203125 -4.78125 -6.34375 -4.78125 C -5.515625 -4.78125 -4.984375 -4.1875 -4.984375 -3.296875 C -4.984375 -2.40625 -5.515625 -1.828125 -6.359375 -1.828125 C -7.203125 -1.828125 -7.734375 -2.40625 -7.734375 -3.296875 Z M -4.09375 -3.296875 C -4.09375 -4.359375 -3.390625 -5.078125 -2.390625 -5.078125 C -1.34375 -5.078125 -0.65625 -4.375 -0.65625 -3.28125 C -0.65625 -2.25 -1.375 -1.53125 -2.375 -1.53125 C -3.40625 -1.53125 -4.09375 -2.234375 -4.09375 -3.296875 Z M -4.09375 -3.296875 "/>
</symbol>
<symbol overflow="visible" id="glyph0-10">
<path style="stroke:none;" d="M -6.28125 -0.828125 L 0 -0.828125 L 0 -1.84375 L -3.265625 -1.84375 C -4.78125 -1.84375 -5.453125 -2.46875 -5.40625 -3.859375 L -6.4375 -3.859375 C -6.453125 -3.6875 -6.46875 -3.59375 -6.46875 -3.46875 C -6.46875 -2.8125 -6.078125 -2.328125 -5.140625 -1.75 L -6.28125 -1.75 Z M -6.28125 -0.828125 "/>
</symbol>
<symbol overflow="visible" id="glyph0-11">
<path style="stroke:none;" d="M -2.8125 -6.15625 C -3.765625 -6.15625 -4.34375 -6.078125 -4.8125 -5.90625 C -5.84375 -5.5 -6.46875 -4.53125 -6.46875 -3.359375 C -6.46875 -1.609375 -5.140625 -0.484375 -3.0625 -0.484375 C -0.984375 -0.484375 0.28125 -1.5625 0.28125 -3.34375 C 0.28125 -4.78125 -0.546875 -5.765625 -1.90625 -6.03125 L -1.90625 -5.015625 C -1.078125 -4.734375 -0.640625 -4.171875 -0.640625 -3.375 C -0.640625 -2.734375 -0.9375 -2.203125 -1.46875 -1.859375 C -1.828125 -1.625 -2.1875 -1.53125 -2.8125 -1.53125 Z M -3.625 -1.546875 C -4.78125 -1.625 -5.546875 -2.34375 -5.546875 -3.34375 C -5.546875 -4.375 -4.75 -5.078125 -3.625 -5.078125 Z M -3.625 -1.546875 "/>
</symbol>
<symbol overflow="visible" id="glyph0-12">
<path style="stroke:none;" d="M -4.171875 -5.65625 C -4.78125 -5.609375 -5.1875 -5.46875 -5.53125 -5.234375 C -6.125 -4.796875 -6.46875 -4.046875 -6.46875 -3.171875 C -6.46875 -1.46875 -5.125 -0.375 -3.03125 -0.375 C -1.015625 -0.375 0.28125 -1.453125 0.28125 -3.15625 C 0.28125 -4.65625 -0.625 -5.609375 -2.15625 -5.71875 L -2.15625 -4.71875 C -1.15625 -4.546875 -0.640625 -4.03125 -0.640625 -3.1875 C -0.640625 -2.078125 -1.546875 -1.421875 -3.03125 -1.421875 C -4.609375 -1.421875 -5.546875 -2.0625 -5.546875 -3.15625 C -5.546875 -4 -5.046875 -4.53125 -4.171875 -4.640625 Z M -4.171875 -5.65625 "/>
</symbol>
<symbol overflow="visible" id="glyph1-0">
<path style="stroke:none;" d=""/>
</symbol>
<symbol overflow="visible" id="glyph1-1">
<path style="stroke:none;" d="M 3.109375 -6.1875 L 3.109375 0 L 4.15625 0 L 4.15625 -8.671875 L 3.46875 -8.671875 C 3.09375 -7.34375 2.859375 -7.15625 1.21875 -6.953125 L 1.21875 -6.1875 Z M 3.109375 -6.1875 "/>
</symbol>
<symbol overflow="visible" id="glyph1-2">
<path style="stroke:none;" d="M 0.640625 -1.984375 C 0.84375 -0.5625 1.75 0.28125 3.046875 0.28125 C 4 0.28125 4.84375 -0.1875 5.34375 -0.953125 C 5.875 -1.8125 6.109375 -2.875 6.109375 -4.4375 C 6.109375 -5.90625 5.890625 -6.828125 5.390625 -7.59375 C 4.921875 -8.296875 4.171875 -8.671875 3.234375 -8.671875 C 1.625 -8.671875 0.453125 -7.46875 0.453125 -5.78125 C 0.453125 -4.1875 1.53125 -3.0625 3.078125 -3.0625 C 3.875 -3.0625 4.46875 -3.34375 5.015625 -4.015625 C 5 -1.84375 4.328125 -0.65625 3.125 -0.65625 C 2.375 -0.65625 1.859375 -1.140625 1.6875 -1.984375 Z M 3.234375 -7.75 C 4.21875 -7.75 4.953125 -6.921875 4.953125 -5.8125 C 4.953125 -4.734375 4.234375 -4 3.1875 -4 C 2.171875 -4 1.53125 -4.71875 1.53125 -5.875 C 1.53125 -6.953125 2.25 -7.75 3.234375 -7.75 Z M 3.234375 -7.75 "/>
</symbol>
<symbol overflow="visible" id="glyph1-3">
<path style="stroke:none;" d="M 5.71875 -8.515625 L 1.3125 -8.515625 L 0.6875 -3.875 L 1.65625 -3.875 C 2.140625 -4.46875 2.5625 -4.671875 3.234375 -4.671875 C 4.375 -4.671875 5.078125 -3.890625 5.078125 -2.625 C 5.078125 -1.40625 4.375 -0.65625 3.21875 -0.65625 C 2.296875 -0.65625 1.734375 -1.125 1.46875 -2.09375 L 0.421875 -2.09375 C 0.5625 -1.390625 0.6875 -1.0625 0.9375 -0.75 C 1.421875 -0.09375 2.28125 0.28125 3.234375 0.28125 C 4.953125 0.28125 6.15625 -0.96875 6.15625 -2.765625 C 6.15625 -4.453125 5.046875 -5.609375 3.40625 -5.609375 C 2.8125 -5.609375 2.328125 -5.453125 1.84375 -5.09375 L 2.171875 -7.46875 L 5.71875 -7.46875 Z M 5.71875 -8.515625 "/>
</symbol>
<symbol overflow="visible" id="glyph1-4">
<path style="stroke:none;" d="M 3.296875 -8.671875 C 2.515625 -8.671875 1.78125 -8.3125 1.34375 -7.734375 C 0.796875 -6.953125 0.515625 -5.8125 0.515625 -4.203125 C 0.515625 -1.265625 1.46875 0.28125 3.296875 0.28125 C 5.09375 0.28125 6.078125 -1.265625 6.078125 -4.125 C 6.078125 -5.8125 5.8125 -6.9375 5.25 -7.734375 C 4.8125 -8.328125 4.109375 -8.671875 3.296875 -8.671875 Z M 3.296875 -7.734375 C 4.4375 -7.734375 5 -6.578125 5 -4.21875 C 5 -1.75 4.453125 -0.59375 3.28125 -0.59375 C 2.15625 -0.59375 1.59375 -1.796875 1.59375 -4.1875 C 1.59375 -6.578125 2.15625 -7.734375 3.296875 -7.734375 Z M 3.296875 -7.734375 "/>
</symbol>
<symbol overflow="visible" id="glyph1-5">
<path style="stroke:none;" d="M 5.96875 -6.421875 C 5.765625 -7.84375 4.859375 -8.671875 3.5625 -8.671875 C 2.625 -8.671875 1.78125 -8.21875 1.28125 -7.4375 C 0.75 -6.59375 0.515625 -5.53125 0.515625 -3.953125 C 0.515625 -2.5 0.71875 -1.578125 1.234375 -0.796875 C 1.6875 -0.09375 2.4375 0.28125 3.375 0.28125 C 4.984375 0.28125 6.15625 -0.9375 6.15625 -2.625 C 6.15625 -4.21875 5.078125 -5.359375 3.546875 -5.359375 C 2.71875 -5.359375 2.046875 -5.046875 1.59375 -4.40625 C 1.609375 -6.546875 2.28125 -7.734375 3.484375 -7.734375 C 4.234375 -7.734375 4.75 -7.265625 4.921875 -6.421875 Z M 3.421875 -4.421875 C 4.4375 -4.421875 5.078125 -3.703125 5.078125 -2.546875 C 5.078125 -1.453125 4.359375 -0.65625 3.390625 -0.65625 C 2.40625 -0.65625 1.65625 -1.484375 1.65625 -2.59375 C 1.65625 -3.671875 2.375 -4.421875 3.421875 -4.421875 Z M 3.421875 -4.421875 "/>
</symbol>
<symbol overflow="visible" id="glyph1-6">
<path style="stroke:none;" d="M 6.234375 -8.515625 L 0.546875 -8.515625 L 0.546875 -7.46875 L 5.140625 -7.46875 C 3.125 -4.578125 2.296875 -2.796875 1.65625 0 L 2.78125 0 C 3.25 -2.71875 4.3125 -5.0625 6.234375 -7.625 Z M 6.234375 -8.515625 "/>
</symbol>
<symbol overflow="visible" id="glyph1-7">
<path style="stroke:none;" d="M 4.6875 -4.578125 C 5.578125 -5.109375 5.859375 -5.546875 5.859375 -6.359375 C 5.859375 -7.734375 4.8125 -8.671875 3.296875 -8.671875 C 1.796875 -8.671875 0.75 -7.734375 0.75 -6.375 C 0.75 -5.546875 1.015625 -5.125 1.890625 -4.578125 C 0.921875 -4.078125 0.4375 -3.375 0.4375 -2.40625 C 0.4375 -0.828125 1.609375 0.28125 3.296875 0.28125 C 4.984375 0.28125 6.15625 -0.828125 6.15625 -2.40625 C 6.15625 -3.375 5.671875 -4.078125 4.6875 -4.578125 Z M 3.296875 -7.734375 C 4.203125 -7.734375 4.78125 -7.203125 4.78125 -6.34375 C 4.78125 -5.515625 4.1875 -4.984375 3.296875 -4.984375 C 2.40625 -4.984375 1.828125 -5.515625 1.828125 -6.359375 C 1.828125 -7.203125 2.40625 -7.734375 3.296875 -7.734375 Z M 3.296875 -4.09375 C 4.359375 -4.09375 5.078125 -3.390625 5.078125 -2.390625 C 5.078125 -1.34375 4.375 -0.65625 3.28125 -0.65625 C 2.25 -0.65625 1.53125 -1.375 1.53125 -2.375 C 1.53125 -3.40625 2.234375 -4.09375 3.296875 -4.09375 Z M 3.296875 -4.09375 "/>
</symbol>
<symbol overflow="visible" id="glyph1-8">
<path style="stroke:none;" d="M 4.25 -7.765625 L 7.109375 -7.765625 L 7.109375 -8.75 L 0.25 -8.75 L 0.25 -7.765625 L 3.125 -7.765625 L 3.125 0 L 4.25 0 Z M 4.25 -7.765625 "/>
</symbol>
<symbol overflow="visible" id="glyph1-9">
<path style="stroke:none;" d="M 1.796875 -6.28125 L 0.796875 -6.28125 L 0.796875 0 L 1.796875 0 Z M 1.796875 -8.75 L 0.796875 -8.75 L 0.796875 -7.484375 L 1.796875 -7.484375 Z M 1.796875 -8.75 "/>
</symbol>
<symbol overflow="visible" id="glyph1-10">
<path style="stroke:none;" d="M 0.84375 -6.28125 L 0.84375 0 L 1.84375 0 L 1.84375 -3.953125 C 1.84375 -4.859375 2.515625 -5.59375 3.328125 -5.59375 C 4.0625 -5.59375 4.484375 -5.140625 4.484375 -4.328125 L 4.484375 0 L 5.5 0 L 5.5 -3.953125 C 5.5 -4.859375 6.15625 -5.59375 6.96875 -5.59375 C 7.703125 -5.59375 8.140625 -5.125 8.140625 -4.328125 L 8.140625 0 L 9.140625 0 L 9.140625 -4.71875 C 9.140625 -5.84375 8.5 -6.46875 7.3125 -6.46875 C 6.484375 -6.46875 5.96875 -6.21875 5.390625 -5.515625 C 5.015625 -6.1875 4.515625 -6.46875 3.703125 -6.46875 C 2.859375 -6.46875 2.296875 -6.15625 1.765625 -5.40625 L 1.765625 -6.28125 Z M 0.84375 -6.28125 "/>
</symbol>
<symbol overflow="visible" id="glyph1-11">
<path style="stroke:none;" d="M 6.15625 -2.8125 C 6.15625 -3.765625 6.078125 -4.34375 5.90625 -4.8125 C 5.5 -5.84375 4.53125 -6.46875 3.359375 -6.46875 C 1.609375 -6.46875 0.484375 -5.140625 0.484375 -3.0625 C 0.484375 -0.984375 1.5625 0.28125 3.34375 0.28125 C 4.78125 0.28125 5.765625 -0.546875 6.03125 -1.90625 L 5.015625 -1.90625 C 4.734375 -1.078125 4.171875 -0.640625 3.375 -0.640625 C 2.734375 -0.640625 2.203125 -0.9375 1.859375 -1.46875 C 1.625 -1.828125 1.53125 -2.1875 1.53125 -2.8125 Z M 1.546875 -3.625 C 1.625 -4.78125 2.34375 -5.546875 3.34375 -5.546875 C 4.375 -5.546875 5.078125 -4.75 5.078125 -3.625 Z M 1.546875 -3.625 "/>
</symbol>
<symbol overflow="visible" id="glyph2-0">
<path style="stroke:none;" d=""/>
</symbol>
<symbol overflow="visible" id="glyph2-1">
<path style="stroke:none;" d="M 7.515625 -4.875 C 7.375 -6.765625 6.125 -7.90625 4.15625 -7.90625 C 1.828125 -7.90625 0.484375 -6.375 0.484375 -3.734375 C 0.484375 -1.171875 1.828125 0.328125 4.140625 0.328125 C 6.015625 0.328125 7.328125 -0.828125 7.515625 -2.6875 L 5.59375 -2.6875 C 5.34375 -1.6875 4.9375 -1.296875 4.140625 -1.296875 C 3.109375 -1.296875 2.5 -2.203125 2.5 -3.734375 C 2.5 -4.484375 2.65625 -5.15625 2.890625 -5.625 C 3.125 -6.046875 3.578125 -6.28125 4.15625 -6.28125 C 4.96875 -6.28125 5.359375 -5.890625 5.59375 -4.875 Z M 7.515625 -4.875 "/>
</symbol>
<symbol overflow="visible" id="glyph2-2">
<path style="stroke:none;" d="M 0.84375 -10.5 L 0.84375 0 L 2.859375 0 L 2.859375 -0.796875 C 3.359375 -0.03125 4.03125 0.328125 5.015625 0.328125 C 6.875 0.328125 8.28125 -1.4375 8.28125 -3.78125 C 8.28125 -4.84375 7.96875 -5.90625 7.453125 -6.65625 C 6.921875 -7.421875 5.96875 -7.90625 5.015625 -7.90625 C 4.03125 -7.90625 3.359375 -7.546875 2.859375 -6.765625 L 2.859375 -10.5 Z M 4.5625 -6.21875 C 5.5625 -6.21875 6.265625 -5.21875 6.265625 -3.78125 C 6.265625 -2.34375 5.578125 -1.359375 4.5625 -1.359375 C 3.546875 -1.359375 2.859375 -2.3125 2.859375 -3.8125 C 2.859375 -5.25 3.5625 -6.21875 4.5625 -6.21875 Z M 4.5625 -6.21875 "/>
</symbol>
<symbol overflow="visible" id="glyph2-3">
<path style="stroke:none;" d="M 2.984375 -7.78125 L 0.96875 -7.78125 L 0.96875 0 L 2.984375 0 Z M 2.984375 -10.5 L 0.96875 -10.5 L 0.96875 -8.703125 L 2.984375 -8.703125 Z M 2.984375 -10.5 "/>
</symbol>
<symbol overflow="visible" id="glyph2-4">
<path style="stroke:none;" d="M 0.90625 -7.78125 L 0.90625 0 L 2.921875 0 L 2.921875 -4.671875 C 2.921875 -5.59375 3.5625 -6.1875 4.546875 -6.1875 C 5.421875 -6.1875 5.84375 -5.71875 5.84375 -4.796875 L 5.84375 0 L 7.859375 0 L 7.859375 -5.21875 C 7.859375 -6.9375 6.921875 -7.90625 5.265625 -7.90625 C 4.203125 -7.90625 3.5 -7.53125 2.921875 -6.65625 L 2.921875 -7.78125 Z M 0.90625 -7.78125 "/>
</symbol>
<symbol overflow="visible" id="glyph2-5">
<path style="stroke:none;" d="M 5.828125 0 L 7.84375 0 L 7.84375 -10.5 L 5.828125 -10.5 L 5.828125 -6.765625 C 5.328125 -7.546875 4.671875 -7.90625 3.6875 -7.90625 C 1.828125 -7.90625 0.421875 -6.125 0.421875 -3.78125 C 0.421875 -2.71875 0.734375 -1.65625 1.25 -0.90625 C 1.78125 -0.140625 2.734375 0.328125 3.6875 0.328125 C 4.671875 0.328125 5.328125 -0.015625 5.828125 -0.796875 Z M 4.140625 -6.21875 C 5.15625 -6.21875 5.828125 -5.25 5.828125 -3.75 C 5.828125 -2.328125 5.140625 -1.359375 4.140625 -1.359375 C 3.125 -1.359375 2.4375 -2.34375 2.4375 -3.78125 C 2.4375 -5.234375 3.125 -6.21875 4.140625 -6.21875 Z M 4.140625 -6.21875 "/>
</symbol>
<symbol overflow="visible" id="glyph2-6">
<path style="stroke:none;" d="M 2.921875 -10.5 C 1.265625 -8 0.578125 -6.03125 0.578125 -3.8125 C 0.578125 -1.578125 1.265625 0.375 2.921875 2.875 L 4.359375 2.875 C 2.828125 -0.09375 2.34375 -1.6875 2.34375 -3.8125 C 2.34375 -5.9375 2.84375 -7.5625 4.359375 -10.5 Z M 2.921875 -10.5 "/>
</symbol>
<symbol overflow="visible" id="glyph2-7">
<path style="stroke:none;" d="M 7.28125 -5.265625 C 7.25 -6.921875 5.984375 -7.90625 3.890625 -7.90625 C 1.921875 -7.90625 0.6875 -6.921875 0.6875 -5.3125 C 0.6875 -4.796875 0.84375 -4.34375 1.125 -4.046875 C 1.390625 -3.78125 1.640625 -3.640625 2.390625 -3.40625 L 4.796875 -2.65625 C 5.296875 -2.5 5.46875 -2.328125 5.46875 -2.015625 C 5.46875 -1.546875 4.90625 -1.25 3.96875 -1.25 C 3.4375 -1.25 3.046875 -1.34375 2.78125 -1.53125 C 2.5625 -1.6875 2.484375 -1.84375 2.390625 -2.265625 L 0.421875 -2.265625 C 0.46875 -0.546875 1.734375 0.328125 4.09375 0.328125 C 5.171875 0.328125 6 0.09375 6.5625 -0.359375 C 7.140625 -0.828125 7.484375 -1.546875 7.484375 -2.3125 C 7.484375 -3.3125 6.984375 -3.96875 5.96875 -4.265625 L 3.421875 -5 C 2.859375 -5.171875 2.703125 -5.28125 2.703125 -5.609375 C 2.703125 -6.03125 3.171875 -6.328125 3.875 -6.328125 C 4.84375 -6.328125 5.3125 -5.984375 5.328125 -5.265625 Z M 7.28125 -5.265625 "/>
</symbol>
<symbol overflow="visible" id="glyph2-8">
<path style="stroke:none;" d="M 4.34375 -7.90625 C 1.953125 -7.90625 0.5 -6.34375 0.5 -3.78125 C 0.5 -1.21875 1.953125 0.328125 4.34375 0.328125 C 6.734375 0.328125 8.203125 -1.21875 8.203125 -3.734375 C 8.203125 -6.375 6.765625 -7.90625 4.34375 -7.90625 Z M 4.34375 -6.28125 C 5.453125 -6.28125 6.1875 -5.28125 6.1875 -3.765625 C 6.1875 -2.3125 5.4375 -1.296875 4.34375 -1.296875 C 3.25 -1.296875 2.515625 -2.296875 2.515625 -3.78125 C 2.515625 -5.28125 3.25 -6.28125 4.34375 -6.28125 Z M 4.34375 -6.28125 "/>
</symbol>
<symbol overflow="visible" id="glyph2-9">
<path style="stroke:none;" d="M 0.921875 -2.109375 L 0.921875 0 L 2.15625 0 C 2.1875 0.984375 1.78125 1.546875 0.921875 1.703125 L 0.921875 2.5 C 2.46875 2.28125 3.140625 1.453125 3.078125 -0.125 L 3.078125 -2.109375 Z M 0.921875 -2.109375 "/>
</symbol>
<symbol overflow="visible" id="glyph2-10">
<path style="stroke:none;" d=""/>
</symbol>
<symbol overflow="visible" id="glyph2-11">
<path style="stroke:none;" d="M 0.90625 -7.78125 L 0.90625 0 L 2.921875 0 L 2.921875 -4.140625 C 2.921875 -5.3125 3.515625 -5.90625 4.703125 -5.90625 C 4.90625 -5.90625 5.0625 -5.890625 5.328125 -5.84375 L 5.328125 -7.890625 C 5.21875 -7.90625 5.171875 -7.90625 5.078125 -7.90625 C 4.15625 -7.90625 3.375 -7.296875 2.921875 -6.25 L 2.921875 -7.78125 Z M 0.90625 -7.78125 "/>
</symbol>
<symbol overflow="visible" id="glyph2-12">
<path style="stroke:none;" d="M 7.546875 -3.25 C 7.5625 -3.421875 7.5625 -3.5 7.5625 -3.59375 C 7.5625 -4.375 7.453125 -5.09375 7.265625 -5.640625 C 6.734375 -7.0625 5.484375 -7.90625 3.921875 -7.90625 C 1.6875 -7.90625 0.3125 -6.296875 0.3125 -3.6875 C 0.3125 -1.203125 1.671875 0.328125 3.875 0.328125 C 5.625 0.328125 7.03125 -0.640625 7.484375 -2.1875 L 5.484375 -2.1875 C 5.25 -1.5625 4.6875 -1.203125 3.953125 -1.203125 C 3.375 -1.203125 2.90625 -1.453125 2.625 -1.890625 C 2.4375 -2.171875 2.359375 -2.515625 2.328125 -3.25 Z M 2.359375 -4.59375 C 2.5 -5.796875 3 -6.375 3.890625 -6.375 C 4.8125 -6.375 5.359375 -5.75 5.453125 -4.59375 Z M 2.359375 -4.59375 "/>
</symbol>
<symbol overflow="visible" id="glyph2-13">
<path style="stroke:none;" d="M 1.75 2.875 C 3.421875 0.375 4.109375 -1.578125 4.109375 -3.796875 C 4.109375 -6.03125 3.421875 -8 1.75 -10.5 L 0.3125 -10.5 C 1.859375 -7.53125 2.328125 -5.9375 2.328125 -3.796875 C 2.328125 -1.6875 1.84375 -0.0625 0.3125 2.875 Z M 1.75 2.875 "/>
</symbol>
</g>
</defs>
<g id="surface2545">
<rect x="0" y="0" width="576" height="360" style="fill:rgb(100%,100%,100%);fill-opacity:1;stroke:none;"/>
<path style="fill:none;stroke-width:0.75;stroke-linecap:round;stroke-linejoin:round;stroke:rgb(0%,0%,0%);stroke-opacity:1;stroke-miterlimit:10;" d="M 90.933594 104.808594 L 91.902344 110.921875 L 92.867188 107.886719 L 93.835938 117.546875 L 94.804688 123.148438 L 95.769531 111.433594 L 96.738281 116.007812 L 97.707031 113.488281 L 98.671875 123.148438 L 99.640625 108.867188 L 100.609375 120.625 L 101.578125 123.148438 L 102.542969 129.773438 L 103.511719 105.320312 L 104.480469 94.074219 L 105.445312 138.964844 L 106.414062 130.800781 L 107.382812 109.894531 L 108.347656 118.058594 L 109.316406 121.140625 L 110.285156 110.921875 L 111.25 112.972656 L 112.21875 102.238281 L 113.1875 93.605469 L 114.15625 86.933594 L 115.121094 80.820312 L 116.089844 94.074219 L 117.058594 95.613281 L 118.023438 122.167969 L 118.992188 100.234375 L 119.960938 112.972656 L 120.925781 123.660156 L 121.894531 124.171875 L 122.863281 88.988281 L 123.832031 83.386719 L 124.796875 80.820312 L 125.765625 97.667969 L 126.734375 97.667969 L 127.699219 104.808594 L 128.667969 133.367188 L 129.636719 149.699219 L 130.601562 130.800781 L 131.570312 147.132812 L 132.539062 144.054688 L 133.503906 143.074219 L 134.472656 120.113281 L 135.441406 101.214844 L 136.410156 110.40625 L 137.375 103.265625 L 138.34375 111.945312 L 139.3125 115.492188 L 140.277344 142.558594 L 141.246094 126.738281 L 142.214844 134.90625 L 143.179688 115.027344 L 144.148438 125.199219 L 145.117188 141.019531 L 146.082031 111.433594 L 147.050781 105.320312 L 148.019531 112.972656 L 148.988281 106.347656 L 149.953125 124.171875 L 150.921875 108.867188 L 151.890625 128.28125 L 152.855469 139.480469 L 153.824219 127.765625 L 154.792969 136.445312 L 155.757812 145.078125 L 156.726562 128.792969 L 157.695312 87.960938 L 158.660156 105.320312 L 159.628906 105.320312 L 160.597656 92.066406 L 161.566406 93.09375 L 162.53125 116.519531 L 163.5 114.511719 L 164.46875 116.007812 L 165.433594 134.394531 L 166.402344 114.511719 L 167.371094 126.738281 L 168.335938 100.234375 L 169.304688 92.578125 L 170.273438 94.585938 L 171.238281 87.445312 L 172.207031 113.488281 L 173.175781 75.734375 L 174.144531 99.71875 L 175.109375 103.265625 L 176.078125 115.027344 L 177.046875 116.519531 L 178.011719 119.601562 L 178.980469 110.921875 L 179.949219 87.960938 L 180.914062 84.925781 L 181.882812 102.753906 L 182.851562 93.605469 L 183.816406 89.5 L 184.785156 92.578125 L 185.753906 101.214844 L 186.722656 107.886719 L 187.6875 105.832031 L 188.65625 129.773438 L 189.625 124.171875 L 190.589844 117.035156 L 191.558594 116.007812 L 192.527344 110.40625 L 193.492188 117.035156 L 194.460938 120.625 L 195.429688 118.574219 L 196.394531 115.492188 L 197.363281 119.601562 L 198.332031 131.3125 L 199.300781 150.726562 L 200.265625 149.699219 L 201.234375 134.90625 L 202.203125 126.738281 L 203.167969 126.738281 L 204.136719 110.40625 L 205.105469 122.632812 L 206.070312 111.945312 L 207.039062 114.511719 L 208.007812 102.238281 L 208.976562 112.972656 L 209.941406 139.480469 L 210.910156 153.246094 L 211.878906 118.058594 L 212.84375 155.8125 L 213.8125 115.492188 L 214.78125 126.738281 L 215.746094 109.378906 L 216.714844 102.238281 L 217.683594 127.253906 L 218.648438 94.074219 L 219.617188 114 L 220.585938 119.085938 L 221.554688 110.921875 L 222.519531 142.558594 L 223.488281 119.601562 L 224.457031 140.507812 L 225.421875 112.972656 L 226.390625 127.253906 L 227.359375 113.488281 L 228.324219 100.234375 L 229.292969 96.640625 L 230.261719 114.511719 L 231.226562 106.859375 L 232.195312 122.632812 L 233.164062 124.171875 L 234.132812 128.28125 L 235.097656 143.074219 L 236.066406 123.148438 L 237.035156 121.140625 L 238 106.859375 L 238.96875 105.832031 L 239.9375 106.347656 L 240.902344 117.035156 L 241.871094 107.886719 L 242.839844 94.585938 L 243.804688 122.167969 L 244.773438 104.292969 L 245.742188 146.105469 L 246.710938 148.160156 L 247.675781 162.441406 L 248.644531 150.214844 L 249.613281 119.601562 L 250.578125 119.085938 L 251.546875 111.945312 L 252.515625 109.378906 L 253.480469 107.375 L 254.449219 114 L 255.417969 116.519531 L 256.382812 118.574219 L 257.351562 116.519531 L 258.320312 132.339844 L 259.289062 133.367188 L 260.253906 114.511719 L 261.222656 104.292969 L 262.191406 98.179688 L 263.15625 116.519531 L 264.125 103.265625 L 265.09375 87.960938 L 266.058594 101.726562 L 267.027344 94.585938 L 267.996094 128.792969 L 268.960938 145.078125 L 269.929688 139.992188 L 270.898438 109.894531 L 271.867188 130.285156 L 272.832031 132.339844 L 273.800781 131.3125 L 274.769531 104.808594 L 275.734375 116.519531 L 276.703125 107.886719 L 277.671875 104.292969 L 278.636719 104.292969 L 279.605469 114 L 280.574219 137.941406 L 281.539062 120.113281 L 282.507812 126.226562 L 283.476562 113.488281 L 284.445312 103.78125 L 285.410156 118.058594 L 286.378906 122.167969 L 287.347656 105.320312 L 288.3125 106.859375 L 289.28125 104.808594 L 290.25 119.085938 L 291.214844 129.773438 L 292.183594 147.648438 L 293.152344 154.273438 L 294.121094 154.273438 L 295.085938 138.453125 L 296.054688 136.445312 L 297.023438 112.972656 L 297.988281 128.28125 L 298.957031 118.574219 L 299.925781 117.035156 L 300.890625 100.746094 L 301.859375 117.546875 L 302.828125 130.800781 L 303.792969 153.761719 L 304.761719 117.546875 L 305.730469 145.078125 L 306.699219 118.058594 L 307.664062 109.378906 L 308.632812 117.546875 L 309.601562 114 L 310.566406 100.234375 L 311.535156 97.667969 L 312.503906 91.554688 L 313.46875 105.832031 L 314.4375 138.453125 L 315.40625 124.171875 L 316.371094 111.433594 L 317.339844 99.71875 L 318.308594 114.511719 L 319.277344 106.859375 L 320.242188 116.007812 L 321.210938 114.511719 L 322.179688 106.859375 L 323.144531 89.5 L 324.113281 104.808594 L 325.082031 95.101562 L 326.046875 128.28125 L 327.015625 132.339844 L 327.984375 115.492188 L 328.949219 128.28125 L 329.917969 138.453125 L 330.886719 146.105469 L 331.855469 109.378906 L 332.820312 118.574219 L 333.789062 105.832031 L 334.757812 118.574219 L 335.722656 95.613281 L 336.691406 105.832031 L 337.660156 134.394531 L 338.625 139.992188 L 339.59375 138.453125 L 340.5625 152.734375 L 341.527344 126.738281 L 342.496094 128.792969 L 343.464844 117.035156 L 344.433594 89.5 L 345.398438 103.78125 L 346.367188 105.320312 L 347.335938 105.320312 L 348.300781 120.625 L 349.269531 134.90625 L 350.238281 107.375 L 351.203125 118.574219 L 352.171875 118.574219 L 353.140625 119.601562 L 354.105469 109.894531 L 355.074219 102.753906 L 356.042969 86.464844 L 357.011719 84.925781 L 357.976562 91.554688 L 358.945312 88.988281 L 359.914062 93.09375 L 360.878906 113.488281 L 361.847656 97.667969 L 362.816406 114 L 363.78125 144.054688 L 364.75 109.378906 L 365.71875 105.832031 L 366.683594 112.972656 L 367.652344 96.640625 L 368.621094 93.605469 L 369.589844 117.546875 L 370.554688 111.945312 L 371.523438 102.238281 L 372.492188 132.339844 L 373.457031 167.527344 L 374.425781 169.066406 L 375.394531 142.558594 L 376.359375 154.273438 L 377.328125 146.105469 L 378.296875 128.792969 L 379.265625 118.574219 L 380.230469 125.199219 L 381.199219 106.859375 L 382.167969 105.832031 L 383.132812 104.292969 L 384.101562 125.199219 L 385.070312 131.828125 L 386.035156 122.167969 L 387.003906 127.765625 L 387.972656 116.007812 L 388.9375 101.214844 L 389.90625 104.292969 L 390.875 87.960938 L 391.84375 86.464844 L 392.808594 84.925781 L 393.777344 83.386719 L 394.746094 92.066406 L 395.710938 122.167969 L 396.679688 139.480469 L 397.648438 119.085938 L 398.613281 122.632812 L 399.582031 143.585938 L 400.550781 113.488281 L 401.515625 102.238281 L 402.484375 90.527344 L 403.453125 104.292969 L 404.421875 111.433594 L 405.386719 126.738281 L 406.355469 100.234375 L 407.324219 126.226562 L 408.289062 151.191406 L 409.257812 126.738281 L 410.226562 125.714844 L 411.191406 102.238281 L 412.160156 102.753906 L 413.128906 99.207031 L 414.09375 101.214844 L 415.0625 94.585938 L 416.03125 96.640625 L 417 94.074219 L 417.964844 100.746094 L 418.933594 136.445312 L 419.902344 158.332031 L 420.867188 152.734375 L 421.835938 154.785156 L 422.804688 128.792969 L 423.769531 144.054688 L 424.738281 133.878906 L 425.707031 114.511719 L 426.671875 131.828125 L 427.640625 118.574219 L 428.609375 94.074219 L 429.578125 129.773438 L 430.542969 143.585938 L 431.511719 158.847656 L 432.480469 140.507812 L 433.445312 114 L 434.414062 119.601562 L 435.382812 146.105469 L 436.347656 134.90625 L 437.316406 111.945312 L 438.285156 117.035156 L 439.25 103.78125 L 440.21875 121.140625 L 441.1875 121.652344 L 442.15625 139.992188 L 443.121094 130.800781 L 444.089844 124.171875 L 445.058594 131.828125 L 446.023438 116.007812 L 446.992188 118.058594 L 447.960938 135.421875 L 448.925781 124.171875 L 449.894531 111.433594 L 450.863281 114.511719 L 451.832031 103.78125 L 452.796875 115.027344 L 453.765625 147.648438 L 454.734375 151.707031 L 455.699219 121.140625 L 456.667969 156.839844 L 457.636719 165.007812 L 458.601562 123.660156 L 459.570312 119.085938 L 460.539062 128.28125 L 461.503906 120.113281 L 462.472656 101.214844 L 463.441406 108.351562 L 464.410156 122.632812 L 465.375 126.738281 L 466.34375 132.851562 L 467.3125 132.339844 L 468.277344 136.914062 L 469.246094 133.367188 L 470.214844 137.425781 L 471.179688 107.375 L 472.148438 118.058594 L 473.117188 117.035156 L 474.082031 86.464844 L 475.050781 94.074219 L 476.019531 129.773438 L 476.988281 133.367188 L 477.953125 131.828125 L 478.921875 137.941406 L 479.890625 129.773438 L 480.855469 132.851562 L 481.824219 138.964844 L 482.792969 122.167969 L 483.757812 101.214844 L 484.726562 103.265625 L 485.695312 98.179688 L 486.660156 97.152344 L 487.628906 108.351562 L 488.597656 149.1875 L 489.566406 138.453125 L 490.53125 135.421875 L 491.5 155.8125 L 492.46875 162.953125 L 493.433594 150.214844 L 494.402344 135.933594 L 495.371094 143.585938 L 496.335938 133.878906 L 497.304688 150.726562 L 498.273438 148.671875 L 499.238281 133.367188 L 500.207031 133.878906 L 501.175781 141.019531 L 502.144531 137.941406 L 503.109375 147.132812 L 504.078125 124.6875 L 505.046875 115.027344 L 506.011719 117.035156 L 506.980469 107.375 L 507.949219 117.035156 L 508.914062 120.113281 L 509.882812 101.214844 L 510.851562 115.027344 L 511.816406 142.046875 L 512.785156 134.90625 L 513.753906 136.914062 L 514.722656 127.765625 L 515.6875 137.425781 L 516.65625 137.425781 L 517.625 116.519531 L 518.589844 106.859375 L 519.558594 98.179688 L 520.527344 103.78125 L 521.492188 98.179688 L 522.460938 102.238281 L 523.429688 105.832031 L 524.394531 128.28125 L 525.363281 146.105469 L 526.332031 140.507812 L 527.300781 104.292969 L 528.265625 119.085938 "/>
<path style="fill:none;stroke-width:0.75;stroke-linecap:round;stroke-linejoin:round;stroke:rgb(0%,0%,0%);stroke-opacity:1;stroke-miterlimit:10;" d="M 73.441406 172.800781 L 545.761719 172.800781 L 545.761719 72 L 73.441406 72 Z M 73.441406 172.800781 "/>
<path style="fill:none;stroke-width:0.75;stroke-linecap:round;stroke-linejoin:round;stroke:rgb(0%,0%,0%);stroke-opacity:1;stroke-miterlimit:10;" d="M 73.441406 169.066406 L 73.441406 75.734375 "/>
<path style="fill:none;stroke-width:0.75;stroke-linecap:round;stroke-linejoin:round;stroke:rgb(0%,0%,0%);stroke-opacity:1;stroke-miterlimit:10;" d="M 73.441406 169.066406 L 66.238281 169.066406 "/>
<path style="fill:none;stroke-width:0.75;stroke-linecap:round;stroke-linejoin:round;stroke:rgb(0%,0%,0%);stroke-opacity:1;stroke-miterlimit:10;" d="M 73.441406 145.734375 L 66.238281 145.734375 "/>
<path style="fill:none;stroke-width:0.75;stroke-linecap:round;stroke-linejoin:round;stroke:rgb(0%,0%,0%);stroke-opacity:1;stroke-miterlimit:10;" d="M 73.441406 122.398438 L 66.238281 122.398438 "/>
<path style="fill:none;stroke-width:0.75;stroke-linecap:round;stroke-linejoin:round;stroke:rgb(0%,0%,0%);stroke-opacity:1;stroke-miterlimit:10;" d="M 73.441406 99.066406 L 66.238281 99.066406 "/>
<path style="fill:none;stroke-width:0.75;stroke-linecap:round;stroke-linejoin:round;stroke:rgb(0%,0%,0%);stroke-opacity:1;stroke-miterlimit:10;" d="M 73.441406 75.734375 L 66.238281 75.734375 "/>
<g style="fill:rgb(0%,0%,0%);fill-opacity:1;">
  <use xlink:href="#glyph0-1" x="55.908203" y="179.566406"/>
  <use xlink:href="#glyph0-2" x="55.908203" y="175.566406"/>
  <use xlink:href="#glyph0-3" x="55.908203" y="168.566406"/>
  <use xlink:href="#glyph0-4" x="55.908203" y="165.566406"/>
</g>
<g style="fill:rgb(0%,0%,0%);fill-opacity:1;">
  <use xlink:href="#glyph0-4" x="55.908203" y="130.898438"/>
  <use xlink:href="#glyph0-3" x="55.908203" y="123.898438"/>
  <use xlink:href="#glyph0-4" x="55.908203" y="120.898438"/>
</g>
<g style="fill:rgb(0%,0%,0%);fill-opacity:1;">
  <use xlink:href="#glyph0-2" x="55.908203" y="84.234375"/>
  <use xlink:href="#glyph0-3" x="55.908203" y="77.234375"/>
  <use xlink:href="#glyph0-4" x="55.908203" y="74.234375"/>
</g>
<g style="fill:rgb(0%,0%,0%);fill-opacity:1;">
  <use xlink:href="#glyph0-5" x="27.107422" y="130.398438"/>
  <use xlink:href="#glyph0-6" x="27.107422" y="124.398438"/>
  <use xlink:href="#glyph0-7" x="27.107422" y="117.398438"/>
</g>
<path style="fill:none;stroke-width:0.75;stroke-linecap:round;stroke-linejoin:round;stroke:rgb(0%,0%,0%);stroke-opacity:1;stroke-miterlimit:10;" d="M 90.933594 206.324219 L 95.769531 206.324219 L 96.738281 215.316406 L 97.707031 225.25 L 98.671875 226.351562 L 99.640625 223.152344 L 100.609375 229.050781 L 101.578125 230.808594 L 102.542969 233.875 L 103.511719 229.289062 L 104.480469 234.480469 L 105.445312 231.023438 L 106.414062 225.660156 L 107.382812 215.097656 L 108.347656 222.441406 L 109.316406 234.890625 L 110.285156 214.207031 L 111.25 202.867188 L 112.21875 206.332031 L 113.1875 205.375 L 114.15625 202.933594 L 115.121094 207.046875 L 116.089844 209.855469 L 117.058594 220.359375 L 118.023438 235.449219 L 118.992188 249.4375 L 119.960938 259.457031 L 120.925781 262.15625 L 121.894531 264.074219 L 122.863281 260.3125 L 123.832031 261.792969 L 124.796875 259.921875 L 125.765625 253.835938 L 126.734375 245.886719 L 127.699219 250.113281 L 128.667969 253.285156 L 129.636719 255.222656 L 130.601562 253.828125 L 131.570312 252.488281 L 132.539062 249.988281 L 133.503906 234.472656 L 134.472656 198.804688 L 135.441406 187.9375 L 136.410156 176.722656 L 137.375 179.675781 L 138.34375 188.453125 L 139.3125 187.386719 L 140.277344 178.972656 L 141.246094 176.542969 L 142.214844 181.394531 L 143.179688 188.886719 L 144.148438 195.78125 L 145.117188 183.796875 L 146.082031 184.804688 L 147.050781 181.9375 L 148.019531 190.824219 L 148.988281 192.707031 L 149.953125 183.199219 L 150.921875 194.519531 L 151.890625 212.269531 L 152.855469 221.175781 L 153.824219 233.960938 L 154.792969 230.757812 L 155.757812 239.4375 L 156.726562 232.59375 L 157.695312 214.046875 L 158.660156 208.242188 L 159.628906 195.164062 L 160.597656 180.464844 L 161.566406 178.679688 L 162.53125 195.296875 L 163.5 201.757812 L 164.46875 209.136719 L 165.433594 226.097656 L 166.402344 239.675781 L 167.371094 239.003906 L 168.335938 240.207031 L 169.304688 240.589844 L 170.273438 226.941406 L 171.238281 229.105469 L 172.207031 221.148438 L 173.175781 231.632812 L 174.144531 242.601562 L 175.109375 248.300781 L 176.078125 254.359375 L 177.046875 251.574219 L 178.011719 259.753906 L 178.980469 260.074219 L 179.949219 259.714844 L 180.914062 256.410156 L 181.882812 252.070312 L 182.851562 245.90625 L 183.816406 242.734375 L 184.785156 246.609375 L 185.753906 249.335938 L 186.722656 247.234375 L 187.6875 247.378906 L 188.65625 248.554688 L 189.625 249.335938 L 190.589844 248.347656 L 191.558594 245.667969 L 192.527344 243.789062 L 193.492188 230.378906 L 194.460938 220.292969 L 195.429688 214.746094 L 196.394531 210.226562 L 197.363281 208.972656 L 198.332031 204.84375 L 199.300781 200.019531 L 200.265625 197.777344 L 201.234375 198.414062 L 202.203125 197.710938 L 203.167969 190.65625 L 204.136719 177.160156 L 205.105469 178.71875 L 206.070312 179.363281 L 207.039062 177.644531 L 208.007812 176.722656 L 208.976562 179.628906 L 209.941406 182.667969 L 210.910156 193.550781 L 211.878906 203.589844 L 212.84375 224.386719 L 213.8125 231.84375 L 214.78125 214.730469 L 215.746094 185.109375 L 216.714844 190.53125 L 217.683594 176.535156 L 218.648438 177.957031 L 219.617188 177.769531 L 220.585938 183.085938 L 221.554688 196.125 L 222.519531 193.65625 L 223.488281 218.375 L 224.457031 223.644531 L 225.421875 225.308594 L 226.390625 233.398438 L 227.359375 211.632812 L 228.324219 214.035156 L 229.292969 196.742188 L 230.261719 203.722656 L 231.226562 198.917969 L 232.195312 203.835938 L 233.164062 217.882812 L 234.132812 231.765625 L 235.097656 232.335938 L 236.066406 237.996094 L 237.035156 233.644531 L 238 228.640625 L 238.96875 220.40625 L 239.9375 197.863281 L 240.902344 195.507812 L 241.871094 194.3125 L 242.839844 201.625 L 243.804688 208.765625 L 244.773438 215.03125 L 245.742188 215.003906 L 246.710938 222.210938 L 247.675781 238.0625 L 248.644531 233.847656 L 249.613281 241.207031 L 250.578125 213.039062 L 251.546875 187.691406 L 252.515625 179.894531 L 253.480469 191.785156 L 254.449219 186.933594 L 255.417969 183.210938 L 256.382812 178.15625 L 257.351562 176.734375 L 258.320312 182.222656 L 259.289062 188.820312 L 260.253906 195.089844 L 261.222656 200.40625 L 262.191406 207.703125 L 263.15625 201.367188 L 264.125 195.382812 L 265.09375 205.546875 L 266.058594 223.644531 L 267.027344 241.414062 L 267.996094 241.824219 L 268.960938 249.554688 L 269.929688 260.75 L 270.898438 262.992188 L 271.867188 265.773438 L 272.832031 260.390625 L 273.800781 238.613281 L 274.769531 216.125 L 275.734375 215.792969 L 276.703125 202.535156 L 277.671875 190.054688 L 278.636719 181.957031 L 279.605469 183.398438 L 280.574219 183.011719 L 281.539062 186.675781 L 282.507812 193.980469 L 283.476562 203.65625 L 284.445312 208.421875 L 285.410156 195.507812 L 286.378906 198.832031 L 287.347656 197.890625 L 288.3125 207.179688 L 289.28125 223.523438 L 290.25 224.996094 L 291.214844 223.410156 L 292.183594 234.71875 L 293.152344 242.261719 L 294.121094 248.945312 L 295.085938 246.542969 L 296.054688 236.675781 L 297.023438 206.058594 L 297.988281 179.011719 L 298.957031 180.238281 L 299.925781 185.746094 L 300.890625 190.855469 L 301.859375 184.691406 L 302.828125 183.617188 L 303.792969 178.394531 L 304.761719 176.570312 L 305.730469 187.140625 L 306.699219 192.609375 L 307.664062 189.523438 L 308.632812 176.695312 L 309.601562 179.742188 L 310.566406 176.589844 L 311.535156 179.488281 L 312.503906 190.664062 L 313.46875 197.453125 L 314.4375 207.511719 L 315.40625 229.238281 L 316.371094 246.125 L 317.339844 258.917969 L 318.308594 261.394531 L 319.277344 248.871094 L 320.242188 243.789062 L 321.210938 245.945312 L 322.179688 252.421875 L 323.144531 250.292969 L 324.113281 250.539062 L 325.082031 246.617188 L 326.046875 243.191406 L 327.015625 242.914062 L 327.984375 248.46875 L 328.949219 247.472656 L 329.917969 249.183594 L 330.886719 237.671875 L 331.855469 222.011719 L 332.820312 217.570312 L 333.789062 205.886719 L 334.757812 189.222656 L 335.722656 177.21875 L 336.691406 177.976562 L 337.660156 178.003906 L 338.625 181.5 L 339.59375 182.628906 L 340.5625 197.359375 L 341.527344 207.984375 L 342.496094 198.335938 L 343.464844 187.246094 L 344.433594 181.394531 L 345.398438 176.847656 L 346.367188 176.535156 L 347.335938 176.628906 L 348.300781 179.46875 L 349.269531 207.984375 L 350.238281 221.746094 L 351.203125 232.933594 L 352.171875 242.394531 L 353.140625 241.074219 L 354.105469 228.5 L 355.074219 238.261719 L 356.042969 237.671875 L 357.011719 236.382812 L 357.976562 233.617188 L 358.945312 236.476562 L 359.914062 242.203125 L 360.878906 253.144531 L 361.847656 258.90625 L 362.816406 260.941406 L 363.78125 262.820312 L 364.75 263.703125 L 365.71875 261.28125 L 366.683594 261.59375 L 367.652344 258.441406 L 368.621094 235.5 L 369.589844 231.757812 L 370.554688 229.078125 L 371.523438 223.476562 L 372.492188 223.695312 L 373.457031 224.453125 L 374.425781 217.433594 L 375.394531 214.367188 L 376.359375 216.921875 L 377.328125 203.429688 L 378.296875 179.117188 L 379.265625 212.535156 L 380.230469 214.546875 L 381.199219 222.894531 L 382.167969 222.609375 L 383.132812 208.746094 L 384.101562 189.457031 L 385.070312 182.628906 L 386.035156 176.628906 L 387.003906 182.363281 L 387.972656 192.847656 L 388.9375 190.929688 L 389.90625 186.496094 L 390.875 188.984375 L 391.84375 188.738281 L 392.808594 196.980469 L 393.777344 218.386719 L 394.746094 232.308594 L 395.710938 252.828125 L 396.679688 262.535156 L 397.648438 267.074219 L 398.613281 269.257812 L 399.582031 269.867188 L 400.550781 268.347656 L 401.515625 259.980469 L 402.484375 255.535156 L 403.453125 248.421875 L 404.421875 221.71875 L 405.386719 216.371094 L 406.355469 215.070312 L 407.324219 216.875 L 408.289062 214.398438 L 409.257812 210.074219 L 410.226562 200.332031 L 411.191406 205.28125 L 412.160156 198.269531 L 413.128906 178.5 L 414.09375 177.730469 L 415.0625 177.597656 L 416.03125 185.640625 L 417 197.558594 L 417.964844 213.113281 L 418.933594 226.238281 L 419.902344 242.308594 L 420.867188 252.402344 L 421.835938 260.027344 L 422.804688 262.980469 L 423.769531 252.476562 L 424.738281 203.5625 L 425.707031 178.886719 L 426.671875 181.148438 L 427.640625 183.921875 L 428.609375 195.441406 L 429.578125 200.664062 L 430.542969 192.050781 L 431.511719 188.539062 L 432.480469 179.734375 L 433.445312 182.839844 L 434.414062 181.566406 L 435.382812 176.855469 L 436.347656 184.511719 L 437.316406 186.050781 L 438.285156 177.113281 L 439.25 177.046875 L 440.21875 177.132812 L 441.1875 176.988281 L 442.15625 179.722656 L 443.121094 186.457031 L 444.089844 206.285156 L 445.058594 209.753906 L 446.023438 212.792969 L 446.992188 198.453125 L 447.960938 195.367188 L 448.925781 197.917969 L 449.894531 193.304688 L 450.863281 201.121094 L 451.832031 205.945312 L 452.796875 196.019531 L 453.765625 196.703125 L 454.734375 207.351562 L 455.699219 214.539062 L 456.667969 229.382812 L 457.636719 232.394531 L 458.601562 203.570312 L 459.570312 180.789062 L 460.539062 182.726562 L 461.503906 178.261719 L 462.472656 204.566406 L 463.441406 197.777344 L 464.410156 187.824219 L 465.375 183.039062 L 466.34375 177.472656 L 467.3125 182.886719 L 468.277344 194.378906 L 469.246094 195.878906 L 470.214844 194.890625 L 471.179688 190.179688 L 472.148438 187.300781 L 473.117188 182.5625 L 474.082031 180.816406 L 475.050781 178.175781 L 476.019531 189.648438 L 476.988281 195.820312 L 477.953125 202.878906 L 478.921875 238.203125 L 479.890625 251.574219 L 480.855469 243.324219 L 481.824219 231.527344 L 482.792969 221.207031 L 483.757812 205.546875 L 484.726562 198.507812 L 485.695312 189.648438 L 486.660156 180.332031 L 487.628906 180.265625 L 488.597656 189.019531 L 489.566406 198.699219 L 490.53125 213.125 L 491.5 227.570312 L 492.46875 233.371094 L 493.433594 202.5625 L 494.402344 190.617188 L 495.371094 184.378906 L 496.335938 177.273438 L 497.304688 198.804688 L 498.273438 210.558594 L 499.238281 205.78125 L 500.207031 204.671875 L 501.175781 195.953125 L 502.144531 200.472656 L 503.109375 204.167969 L 504.078125 196.609375 L 505.046875 191.460938 L 506.011719 192.269531 L 506.980469 190.257812 L 507.949219 195.367188 L 508.914062 185.25 L 509.882812 177.113281 L 510.851562 177.3125 L 511.816406 186.882812 L 512.785156 193.457031 L 513.753906 197.769531 L 514.722656 218.386719 L 515.6875 224.273438 L 516.65625 204.910156 L 517.625 196.285156 L 518.589844 188.089844 L 519.558594 187.738281 L 520.527344 181.441406 L 521.492188 177.804688 L 522.460938 181.433594 L 523.429688 192.621094 L 524.394531 213.171875 L 525.363281 226.417969 L 526.332031 241.292969 L 527.300781 249.707031 L 528.265625 254.53125 "/>
<path style="fill:none;stroke-width:0.75;stroke-linecap:round;stroke-linejoin:round;stroke:rgb(0%,0%,0%);stroke-opacity:1;stroke-miterlimit:10;" d="M 73.441406 273.601562 L 545.761719 273.601562 L 545.761719 172.800781 L 73.441406 172.800781 Z M 73.441406 273.601562 "/>
<path style="fill:none;stroke-width:0.75;stroke-linecap:round;stroke-linejoin:round;stroke:rgb(0%,0%,0%);stroke-opacity:1;stroke-miterlimit:10;" d="M 73.441406 271.5 L 73.441406 176.535156 "/>
<path style="fill:none;stroke-width:0.75;stroke-linecap:round;stroke-linejoin:round;stroke:rgb(0%,0%,0%);stroke-opacity:1;stroke-miterlimit:10;" d="M 73.441406 271.5 L 66.238281 271.5 "/>
<path style="fill:none;stroke-width:0.75;stroke-linecap:round;stroke-linejoin:round;stroke:rgb(0%,0%,0%);stroke-opacity:1;stroke-miterlimit:10;" d="M 73.441406 252.507812 L 66.238281 252.507812 "/>
<path style="fill:none;stroke-width:0.75;stroke-linecap:round;stroke-linejoin:round;stroke:rgb(0%,0%,0%);stroke-opacity:1;stroke-miterlimit:10;" d="M 73.441406 233.511719 L 66.238281 233.511719 "/>
<path style="fill:none;stroke-width:0.75;stroke-linecap:round;stroke-linejoin:round;stroke:rgb(0%,0%,0%);stroke-opacity:1;stroke-miterlimit:10;" d="M 73.441406 214.519531 L 66.238281 214.519531 "/>
<path style="fill:none;stroke-width:0.75;stroke-linecap:round;stroke-linejoin:round;stroke:rgb(0%,0%,0%);stroke-opacity:1;stroke-miterlimit:10;" d="M 73.441406 195.527344 L 66.238281 195.527344 "/>
<path style="fill:none;stroke-width:0.75;stroke-linecap:round;stroke-linejoin:round;stroke:rgb(0%,0%,0%);stroke-opacity:1;stroke-miterlimit:10;" d="M 73.441406 176.535156 L 66.238281 176.535156 "/>
<g style="fill:rgb(0%,0%,0%);fill-opacity:1;">
  <use xlink:href="#glyph0-4" x="55.908203" y="275"/>
</g>
<g style="fill:rgb(0%,0%,0%);fill-opacity:1;">
  <use xlink:href="#glyph0-8" x="55.908203" y="240.511719"/>
  <use xlink:href="#glyph0-4" x="55.908203" y="233.511719"/>
</g>
<g style="fill:rgb(0%,0%,0%);fill-opacity:1;">
  <use xlink:href="#glyph0-9" x="55.908203" y="202.527344"/>
  <use xlink:href="#glyph0-4" x="55.908203" y="195.527344"/>
</g>
<path style="fill:none;stroke-width:0.75;stroke-linecap:round;stroke-linejoin:round;stroke:rgb(0%,0%,0%);stroke-opacity:1;stroke-miterlimit:10;" d="M 90.933594 273.601562 L 439.25 273.601562 "/>
<path style="fill:none;stroke-width:0.75;stroke-linecap:round;stroke-linejoin:round;stroke:rgb(0%,0%,0%);stroke-opacity:1;stroke-miterlimit:10;" d="M 90.933594 273.601562 L 90.933594 280.800781 "/>
<path style="fill:none;stroke-width:0.75;stroke-linecap:round;stroke-linejoin:round;stroke:rgb(0%,0%,0%);stroke-opacity:1;stroke-miterlimit:10;" d="M 207.039062 273.601562 L 207.039062 280.800781 "/>
<path style="fill:none;stroke-width:0.75;stroke-linecap:round;stroke-linejoin:round;stroke:rgb(0%,0%,0%);stroke-opacity:1;stroke-miterlimit:10;" d="M 323.144531 273.601562 L 323.144531 280.800781 "/>
<path style="fill:none;stroke-width:0.75;stroke-linecap:round;stroke-linejoin:round;stroke:rgb(0%,0%,0%);stroke-opacity:1;stroke-miterlimit:10;" d="M 439.25 273.601562 L 439.25 280.800781 "/>
<g style="fill:rgb(0%,0%,0%);fill-opacity:1;">
  <use xlink:href="#glyph1-1" x="76.933594" y="299.267578"/>
  <use xlink:href="#glyph1-2" x="83.933594" y="299.267578"/>
  <use xlink:href="#glyph1-3" x="90.933594" y="299.267578"/>
  <use xlink:href="#glyph1-4" x="97.933594" y="299.267578"/>
</g>
<g style="fill:rgb(0%,0%,0%);fill-opacity:1;">
  <use xlink:href="#glyph1-1" x="193.039062" y="299.267578"/>
  <use xlink:href="#glyph1-2" x="200.039062" y="299.267578"/>
  <use xlink:href="#glyph1-5" x="207.039062" y="299.267578"/>
  <use xlink:href="#glyph1-4" x="214.039062" y="299.267578"/>
</g>
<g style="fill:rgb(0%,0%,0%);fill-opacity:1;">
  <use xlink:href="#glyph1-1" x="309.144531" y="299.267578"/>
  <use xlink:href="#glyph1-2" x="316.144531" y="299.267578"/>
  <use xlink:href="#glyph1-6" x="323.144531" y="299.267578"/>
  <use xlink:href="#glyph1-4" x="330.144531" y="299.267578"/>
</g>
<g style="fill:rgb(0%,0%,0%);fill-opacity:1;">
  <use xlink:href="#glyph1-1" x="425.25" y="299.267578"/>
  <use xlink:href="#glyph1-2" x="432.25" y="299.267578"/>
  <use xlink:href="#glyph1-7" x="439.25" y="299.267578"/>
  <use xlink:href="#glyph1-4" x="446.25" y="299.267578"/>
</g>
<g style="fill:rgb(0%,0%,0%);fill-opacity:1;">
  <use xlink:href="#glyph0-10" x="27.107422" y="231.699219"/>
  <use xlink:href="#glyph0-11" x="27.107422" y="227.699219"/>
  <use xlink:href="#glyph0-12" x="27.107422" y="220.699219"/>
</g>
<g style="fill:rgb(0%,0%,0%);fill-opacity:1;">
  <use xlink:href="#glyph1-8" x="296.101562" y="328.068359"/>
  <use xlink:href="#glyph1-9" x="303.101562" y="328.068359"/>
  <use xlink:href="#glyph1-10" x="306.101562" y="328.068359"/>
  <use xlink:href="#glyph1-11" x="316.101562" y="328.068359"/>
</g>
<g style="fill:rgb(0%,0%,0%);fill-opacity:1;">
  <use xlink:href="#glyph2-1" x="259.601562" y="25.418945"/>
  <use xlink:href="#glyph2-2" x="267.601562" y="25.418945"/>
  <use xlink:href="#glyph2-3" x="276.601562" y="25.418945"/>
  <use xlink:href="#glyph2-4" x="280.601562" y="25.418945"/>
  <use xlink:href="#glyph2-5" x="289.601562" y="25.418945"/>
  <use xlink:href="#glyph2-6" x="298.601562" y="25.418945"/>
  <use xlink:href="#glyph2-7" x="303.601562" y="25.418945"/>
  <use xlink:href="#glyph2-8" x="311.601562" y="25.418945"/>
  <use xlink:href="#glyph2-3" x="320.601562" y="25.418945"/>
  <use xlink:href="#glyph2-9" x="324.601562" y="25.418945"/>
  <use xlink:href="#glyph2-10" x="328.601562" y="25.418945"/>
  <use xlink:href="#glyph2-11" x="332.601562" y="25.418945"/>
  <use xlink:href="#glyph2-12" x="338.601562" y="25.418945"/>
  <use xlink:href="#glyph2-1" x="346.601562" y="25.418945"/>
  <use xlink:href="#glyph2-13" x="354.601562" y="25.418945"/>
</g>
</g>
</svg>
